solid Plotter-v3-z-PenMount
facet normal 0.0 0.0 -1.0
outer loop
vertex 21.6585991651839 59.2768626248113 0.0
vertex 22.2184548930468 56.2768626248113 0.0
vertex 22.2184548930468 54.2768626248113 0.0
endloop
endfacet
facet normal 0.0 0.0 -1.0
outer loop
vertex 22.2184548930468 56.2768626248113 0.0
vertex 21.6585991651839 59.2768626248113 0.0
vertex 22.929948145967 60.9337168743037 0.0
endloop
endfacet
facet normal 0.0 0.0 -1.0
outer loop
vertex 22.2184548930468 56.2768626248113 0.0
vertex 22.929948145967 60.9337168743037 0.0
vertex 23.9684548930468 56.2768626248113 0.0
endloop
endfacet
facet normal 0.0 0.0 -1.0
outer loop
vertex 23.9684548930468 56.2768626248113 0.0
vertex 22.929948145967 60.9337168743037 0.0
vertex 24.5868023954594 62.2050658550868 0.0
endloop
endfacet
facet normal 0.0 0.0 -1.0
outer loop
vertex 23.9684548930468 56.2768626248113 0.0
vertex 24.5868023954594 62.2050658550868 0.0
vertex 23.9986547205863 56.5062530890483 0.0
endloop
endfacet
facet normal 0.0 0.0 -1.0
outer loop
vertex 23.9986547205863 56.5062530890483 0.0
vertex 24.5868023954594 62.2050658550868 0.0
vertex 24.4731817274833 57.6518626248113 0.0
endloop
endfacet
facet normal 0.0 0.0 -1.0
outer loop
vertex 24.4731817274833 57.6518626248113 0.0
vertex 24.5868023954594 62.2050658550868 0.0
vertex 25.2280451848233 58.6356198354474 0.0
endloop
endfacet
facet normal 0.0 0.0 -1.0
outer loop
vertex 25.2280451848233 58.6356198354474 0.0
vertex 24.5868023954594 62.2050658550868 0.0
vertex 26.5162500346392 63.0042692351239 0.0
endloop
endfacet
facet normal 0.0 0.0 -1.0
outer loop
vertex 25.2280451848233 58.6356198354474 0.0
vertex 26.5162500346392 63.0042692351239 0.0
vertex 26.2118023954594 59.3904832927874 0.0
endloop
endfacet
facet normal 0.0 0.0 -1.0
outer loop
vertex 26.2118023954594 59.3904832927874 0.0
vertex 26.5162500346392 63.0042692351239 0.0
vertex 27.3574119312224 59.8650102996844 0.0
endloop
endfacet
facet normal 0.0 0.0 -1.0
outer loop
vertex 27.3574119312224 59.8650102996844 0.0
vertex 26.5162500346392 63.0042692351239 0.0
vertex 28.5868023954594 63.2768626248113 0.0
endloop
endfacet
facet normal 0.0 0.0 -1.0
outer loop
vertex 27.3574119312224 59.8650102996844 0.0
vertex 28.5868023954594 63.2768626248113 0.0
vertex 28.5868023954594 60.0268626248113 0.0
endloop
endfacet
facet normal 0.0 0.0 -1.0
outer loop
vertex 28.5868023954594 60.0268626248113 0.0
vertex 28.5868023954594 63.2768626248113 0.0
vertex 30.6573547562796 63.0042692351239 0.0
endloop
endfacet
facet normal 0.0 0.0 -1.0
outer loop
vertex 28.5868023954594 60.0268626248113 0.0
vertex 30.6573547562796 63.0042692351239 0.0
vertex 29.8161928596964 59.8650102996844 0.0
endloop
endfacet
facet normal 0.0 0.0 -1.0
outer loop
vertex 29.8161928596964 59.8650102996844 0.0
vertex 30.6573547562796 63.0042692351239 0.0
vertex 30.9618023954594 59.3904832927874 0.0
endloop
endfacet
facet normal 0.0 0.0 -1.0
outer loop
vertex 30.9618023954594 59.3904832927874 0.0
vertex 30.6573547562796 63.0042692351239 0.0
vertex 32.5868023954594 62.2050658550868 0.0
endloop
endfacet
facet normal 0.0 0.0 -1.0
outer loop
vertex 30.9618023954594 59.3904832927874 0.0
vertex 32.5868023954594 62.2050658550868 0.0
vertex 31.9455596060955 58.6356198354474 0.0
endloop
endfacet
facet normal 0.0 0.0 -1.0
outer loop
vertex 31.9455596060955 58.6356198354474 0.0
vertex 32.5868023954594 62.2050658550868 0.0
vertex 32.7004230634355 57.6518626248113 0.0
endloop
endfacet
facet normal 0.0 0.0 -1.0
outer loop
vertex 32.7004230634355 57.6518626248113 0.0
vertex 32.5868023954594 62.2050658550868 0.0
vertex 34.2436566449518 60.9337168743037 0.0
endloop
endfacet
facet normal 0.0 0.0 -1.0
outer loop
vertex 32.7004230634355 57.6518626248113 0.0
vertex 34.2436566449518 60.9337168743037 0.0
vertex 33.1749500703325 56.5062530890483 0.0
endloop
endfacet
facet normal 0.0 0.0 -1.0
outer loop
vertex 33.1749500703325 56.5062530890483 0.0
vertex 34.2436566449518 60.9337168743037 0.0
vertex 33.3368023954594 55.2768626248113 0.0
endloop
endfacet
facet normal 0.0 0.0 -1.0
outer loop
vertex 33.3368023954594 55.2768626248113 0.0
vertex 34.2436566449518 60.9337168743037 0.0
vertex 34.2436566449518 49.6200083753189 0.0
endloop
endfacet
facet normal 0.0 0.0 -1.0
outer loop
vertex 34.2436566449518 49.6200083753189 0.0
vertex 34.2436566449518 60.9337168743037 0.0
vertex 35.5150056257349 51.2768626248113 0.0
endloop
endfacet
facet normal 0.0 0.0 -1.0
outer loop
vertex 35.5150056257349 51.2768626248113 0.0
vertex 34.2436566449518 60.9337168743037 0.0
vertex 35.5150056257349 59.2768626248113 0.0
endloop
endfacet
facet normal 0.0 0.0 -1.0
outer loop
vertex 35.5150056257349 51.2768626248113 0.0
vertex 35.5150056257349 59.2768626248113 0.0
vertex 36.3142090057719 57.3474149856315 0.0
endloop
endfacet
facet normal 0.0 0.0 -1.0
outer loop
vertex 35.5150056257349 51.2768626248113 0.0
vertex 36.3142090057719 57.3474149856315 0.0
vertex 36.3142090057719 53.2063102639911 0.0
endloop
endfacet
facet normal 0.0 0.0 -1.0
outer loop
vertex 36.3142090057719 53.2063102639911 0.0
vertex 36.3142090057719 57.3474149856315 0.0
vertex 36.5868023954594 55.2768626248113 0.0
endloop
endfacet
facet normal 0.0 0.0 -1.0
outer loop
vertex 20.8593957851469 57.3474149856315 0.0
vertex 20.8593957851469 53.2063102639911 0.0
vertex 20.5868023954594 55.2768626248113 0.0
endloop
endfacet
facet normal 0.0 0.0 -1.0
outer loop
vertex 20.8593957851469 53.2063102639911 0.0
vertex 20.8593957851469 57.3474149856315 0.0
vertex 21.6585991651839 59.2768626248113 0.0
endloop
endfacet
facet normal 0.0 0.0 -1.0
outer loop
vertex 20.8593957851469 53.2063102639911 0.0
vertex 21.6585991651839 59.2768626248113 0.0
vertex 21.6585991651839 51.2768626248113 0.0
endloop
endfacet
facet normal 0.0 0.0 -1.0
outer loop
vertex 21.6585991651839 51.2768626248113 0.0
vertex 21.6585991651839 59.2768626248113 0.0
vertex 22.2184548930468 54.2768626248113 0.0
endloop
endfacet
facet normal 0.0 0.0 -1.0
outer loop
vertex 21.6585991651839 51.2768626248113 0.0
vertex 22.2184548930468 54.2768626248113 0.0
vertex 22.929948145967 49.6200083753189 0.0
endloop
endfacet
facet normal 0.0 0.0 -1.0
outer loop
vertex 22.929948145967 49.6200083753189 0.0
vertex 22.2184548930468 54.2768626248113 0.0
vertex 23.9684548930468 54.2768626248113 0.0
endloop
endfacet
facet normal 0.0 0.0 -1.0
outer loop
vertex 22.929948145967 49.6200083753189 0.0
vertex 23.9684548930468 54.2768626248113 0.0
vertex 24.5868023954594 48.3486593945358 0.0
endloop
endfacet
facet normal 0.0 0.0 -1.0
outer loop
vertex 24.5868023954594 48.3486593945358 0.0
vertex 23.9684548930468 54.2768626248113 0.0
vertex 23.9986547205863 54.0474721605744 0.0
endloop
endfacet
facet normal 0.0 0.0 -1.0
outer loop
vertex 24.5868023954594 48.3486593945358 0.0
vertex 23.9986547205863 54.0474721605744 0.0
vertex 24.4731817274833 52.9018626248113 0.0
endloop
endfacet
facet normal 0.0 0.0 -1.0
outer loop
vertex 24.5868023954594 48.3486593945358 0.0
vertex 24.4731817274833 52.9018626248113 0.0
vertex 25.2280451848233 51.9181054141752 0.0
endloop
endfacet
facet normal 0.0 0.0 -1.0
outer loop
vertex 24.5868023954594 48.3486593945358 0.0
vertex 25.2280451848233 51.9181054141752 0.0
vertex 26.5162500346392 47.5494560144988 0.0
endloop
endfacet
facet normal 0.0 0.0 -1.0
outer loop
vertex 26.5162500346392 47.5494560144988 0.0
vertex 25.2280451848233 51.9181054141752 0.0
vertex 26.2118023954594 51.1632419568352 0.0
endloop
endfacet
facet normal 0.0 0.0 -1.0
outer loop
vertex 26.5162500346392 47.5494560144988 0.0
vertex 26.2118023954594 51.1632419568352 0.0
vertex 27.3574119312224 50.6887149499382 0.0
endloop
endfacet
facet normal 0.0 0.0 -1.0
outer loop
vertex 26.5162500346392 47.5494560144988 0.0
vertex 27.3574119312224 50.6887149499382 0.0
vertex 28.5868023954594 47.2768626248113 0.0
endloop
endfacet
facet normal 0.0 0.0 -1.0
outer loop
vertex 28.5868023954594 47.2768626248113 0.0
vertex 27.3574119312224 50.6887149499382 0.0
vertex 28.5868023954594 50.5268626248113 0.0
endloop
endfacet
facet normal 0.0 0.0 -1.0
outer loop
vertex 28.5868023954594 47.2768626248113 0.0
vertex 28.5868023954594 50.5268626248113 0.0
vertex 29.8161928596964 50.6887149499382 0.0
endloop
endfacet
facet normal 0.0 0.0 -1.0
outer loop
vertex 28.5868023954594 47.2768626248113 0.0
vertex 29.8161928596964 50.6887149499382 0.0
vertex 30.6573547562796 47.5494560144988 0.0
endloop
endfacet
facet normal 0.0 0.0 -1.0
outer loop
vertex 30.6573547562796 47.5494560144988 0.0
vertex 29.8161928596964 50.6887149499382 0.0
vertex 30.9618023954594 51.1632419568352 0.0
endloop
endfacet
facet normal 0.0 0.0 -1.0
outer loop
vertex 30.6573547562796 47.5494560144988 0.0
vertex 30.9618023954594 51.1632419568352 0.0
vertex 32.5868023954594 48.3486593945358 0.0
endloop
endfacet
facet normal 0.0 0.0 -1.0
outer loop
vertex 32.5868023954594 48.3486593945358 0.0
vertex 30.9618023954594 51.1632419568352 0.0
vertex 31.9455596060955 51.9181054141752 0.0
endloop
endfacet
facet normal 0.0 0.0 -1.0
outer loop
vertex 32.5868023954594 48.3486593945358 0.0
vertex 31.9455596060955 51.9181054141752 0.0
vertex 32.7004230634355 52.9018626248113 0.0
endloop
endfacet
facet normal 0.0 0.0 -1.0
outer loop
vertex 32.5868023954594 48.3486593945358 0.0
vertex 32.7004230634355 52.9018626248113 0.0
vertex 34.2436566449518 49.6200083753189 0.0
endloop
endfacet
facet normal 0.0 0.0 -1.0
outer loop
vertex 34.2436566449518 49.6200083753189 0.0
vertex 32.7004230634355 52.9018626248113 0.0
vertex 33.1749500703325 54.0474721605743 0.0
endloop
endfacet
facet normal 0.0 0.0 -1.0
outer loop
vertex 34.2436566449518 49.6200083753189 0.0
vertex 33.1749500703325 54.0474721605743 0.0
vertex 33.3368023954594 55.2768626248113 0.0
endloop
endfacet
facet normal -0.500000000000003 -0.866025403784437 0.0
outer loop
vertex 26.2118023954594 51.1632419568352 4.0
vertex 25.2280451848233 51.9181054141752 0.0
vertex 26.2118023954594 51.1632419568352 0.0
endloop
endfacet
facet normal -0.707106781186546 -0.707106781186548 0.0
outer loop
vertex 25.2280451848233 51.9181054141752 0.0
vertex 26.2118023954594 51.1632419568352 4.0
vertex 25.2280451848233 51.9181054141752 4.0
endloop
endfacet
facet normal 0.258819045102522 0.965925826289068 0.0
outer loop
vertex 29.8161928596964 59.8650102996844 4.0
vertex 30.9618023954594 59.3904832927874 0.0
vertex 29.8161928596964 59.8650102996844 0.0
endloop
endfacet
facet normal 0.500000000000002 0.866025403784438 0.0
outer loop
vertex 30.9618023954594 59.3904832927874 0.0
vertex 29.8161928596964 59.8650102996844 4.0
vertex 30.9618023954594 59.3904832927874 4.0
endloop
endfacet
facet normal 0.965925826289068 -0.258819045102521 0.0
outer loop
vertex 34.1408758966215 53.7886531154718 1.5
vertex 33.5664484672199 52.4018626248113 4.0
vertex 33.5664484672199 52.4018626248113 1.5
endloop
endfacet
facet normal 0.866025403784438 -0.500000000000001 0.0
outer loop
vertex 33.5664484672199 52.4018626248113 4.0
vertex 34.1408758966215 53.7886531154718 1.5
vertex 34.1408758966215 53.7886531154718 4.0
endloop
endfacet
facet normal -0.866025403784438 0.500000000000001 0.0
outer loop
vertex 23.6071563236989 58.1518626248113 4.0
vertex 23.0327288942973 56.7650721341508 1.5
vertex 23.0327288942973 56.7650721341508 4.0
endloop
endfacet
facet normal -0.965925826289068 0.258819045102521 0.0
outer loop
vertex 23.0327288942973 56.7650721341508 1.5
vertex 23.6071563236989 58.1518626248113 4.0
vertex 23.6071563236989 58.1518626248113 1.5
endloop
endfacet
facet normal -0.866025403784438 -0.5 0.0
outer loop
vertex 24.4731817274833 52.9018626248113 4.0
vertex 25.2280451848233 51.9181054141752 0.0
vertex 25.2280451848233 51.9181054141752 4.0
endloop
endfacet
facet normal -0.707106781186546 -0.707106781186548 0.0
outer loop
vertex 25.2280451848233 51.9181054141752 0.0
vertex 24.4731817274833 52.9018626248113 4.0
vertex 24.4731817274833 52.9018626248113 0.0
endloop
endfacet
facet normal 0.866025403784438 -0.500000000000001 0.0
outer loop
vertex 33.5664484672199 52.4018626248113 1.5
vertex 32.652666387282 51.2109986329887 4.0
vertex 32.652666387282 51.2109986329887 1.5
endloop
endfacet
facet normal 0.707106781186547 -0.707106781186547 0.0
outer loop
vertex 32.652666387282 51.2109986329887 4.0
vertex 33.5664484672199 52.4018626248113 1.5
vertex 33.5664484672199 52.4018626248113 4.0
endloop
endfacet
facet normal 0.707106781186547 -0.707106781186547 0.0
outer loop
vertex 32.652666387282 51.2109986329887 4.0
vertex 31.4618023954594 50.2972165530508 1.5
vertex 32.652666387282 51.2109986329887 1.5
endloop
endfacet
facet normal 0.500000000000001 -0.866025403784438 0.0
outer loop
vertex 31.4618023954594 50.2972165530508 1.5
vertex 32.652666387282 51.2109986329887 4.0
vertex 31.4618023954594 50.2972165530508 4.0
endloop
endfacet
facet normal 0.25881904510252 0.965925826289068 0.0
outer loop
vertex 30.0750119047989 60.8309361259735 4.0
vertex 31.4618023954594 60.2565086965718 1.5
vertex 30.0750119047989 60.8309361259735 1.5
endloop
endfacet
facet normal 0.5 0.866025403784439 0.0
outer loop
vertex 31.4618023954594 60.2565086965718 1.5
vertex 30.0750119047989 60.8309361259735 4.0
vertex 31.4618023954594 60.2565086965718 4.0
endloop
endfacet
facet normal -2.5842218697376e-16 1.0 0.0
outer loop
vertex 28.5868023954594 61.0268626248113 4.0
vertex 30.0750119047989 60.8309361259735 1.5
vertex 28.5868023954594 61.0268626248113 1.5
endloop
endfacet
facet normal 0.25881904510252 0.965925826289068 0.0
outer loop
vertex 30.0750119047989 60.8309361259735 1.5
vertex 28.5868023954594 61.0268626248113 4.0
vertex 30.0750119047989 60.8309361259735 4.0
endloop
endfacet
facet normal -0.965925826289068 0.258819045102521 0.0
outer loop
vertex 23.9986547205863 56.5062530890483 4.0
vertex 23.9684548930468 56.2768626248113 0.0
vertex 23.9684548930468 56.2768626248113 4.0
endloop
endfacet
facet normal -0.991444861373811 0.13052619222005 -0.0
outer loop
vertex 23.9684548930468 56.2768626248113 0.0
vertex 23.9986547205863 56.5062530890483 4.0
vertex 23.9986547205863 56.5062530890483 0.0
endloop
endfacet
facet normal 2.94066626556348e-16 -1.0 0.0
outer loop
vertex 28.5868023954594 50.5268626248113 4.0
vertex 27.3574119312224 50.6887149499382 0.0
vertex 28.5868023954594 50.5268626248113 0.0
endloop
endfacet
facet normal -0.258819045102523 -0.965925826289068 0.0
outer loop
vertex 27.3574119312224 50.6887149499382 0.0
vertex 28.5868023954594 50.5268626248113 4.0
vertex 27.3574119312224 50.6887149499382 4.0
endloop
endfacet
facet normal 0.866025403784438 0.500000000000001 0.0
outer loop
vertex 33.5664484672199 58.1518626248113 1.5
vertex 34.1408758966215 56.7650721341508 4.0
vertex 34.1408758966215 56.7650721341508 1.5
endloop
endfacet
facet normal 0.965925826289069 0.258819045102519 0.0
outer loop
vertex 34.1408758966215 56.7650721341508 4.0
vertex 33.5664484672199 58.1518626248113 1.5
vertex 33.5664484672199 58.1518626248113 4.0
endloop
endfacet
facet normal -0.258819045102519 0.965925826289069 0.0
outer loop
vertex 27.0985928861199 60.8309361259735 4.0
vertex 28.5868023954594 61.0268626248113 1.5
vertex 27.0985928861199 60.8309361259735 1.5
endloop
endfacet
facet normal -2.5842218697376e-16 1.0 0.0
outer loop
vertex 28.5868023954594 61.0268626248113 1.5
vertex 27.0985928861199 60.8309361259735 4.0
vertex 28.5868023954594 61.0268626248113 4.0
endloop
endfacet
facet normal -0.499999999999999 0.866025403784439 0.0
outer loop
vertex 26.2118023954594 59.3904832927874 4.0
vertex 27.3574119312224 59.8650102996844 0.0
vertex 26.2118023954594 59.3904832927874 0.0
endloop
endfacet
facet normal -0.258819045102522 0.965925826289068 0.0
outer loop
vertex 27.3574119312224 59.8650102996844 0.0
vertex 26.2118023954594 59.3904832927874 4.0
vertex 27.3574119312224 59.8650102996844 4.0
endloop
endfacet
facet normal 0.0 1.0 0.0
outer loop
vertex 28.5868023954594 60.0268626248113 4.0
vertex 29.8161928596964 59.8650102996844 0.0
vertex 28.5868023954594 60.0268626248113 0.0
endloop
endfacet
facet normal 0.258819045102522 0.965925826289068 0.0
outer loop
vertex 29.8161928596964 59.8650102996844 0.0
vertex 28.5868023954594 60.0268626248113 4.0
vertex 29.8161928596964 59.8650102996844 4.0
endloop
endfacet
facet normal 0.258819045102522 -0.965925826289068 0.0
outer loop
vertex 29.8161928596964 50.6887149499382 4.0
vertex 28.5868023954594 50.5268626248113 0.0
vertex 29.8161928596964 50.6887149499382 0.0
endloop
endfacet
facet normal 2.94066626556348e-16 -1.0 0.0
outer loop
vertex 28.5868023954594 50.5268626248113 0.0
vertex 29.8161928596964 50.6887149499382 4.0
vertex 28.5868023954594 50.5268626248113 4.0
endloop
endfacet
facet normal 0.866025403784438 0.5 0.0
outer loop
vertex 32.7004230634355 57.6518626248113 0.0
vertex 33.1749500703325 56.5062530890483 4.0
vertex 33.1749500703325 56.5062530890483 0.0
endloop
endfacet
facet normal 0.965925826289069 0.25881904510252 0.0
outer loop
vertex 33.1749500703325 56.5062530890483 4.0
vertex 32.7004230634355 57.6518626248113 0.0
vertex 32.7004230634355 57.6518626248113 4.0
endloop
endfacet
facet normal -0.866025403784439 0.5 0.0
outer loop
vertex 24.4731817274833 57.6518626248113 4.0
vertex 23.9986547205863 56.5062530890483 0.0
vertex 23.9986547205863 56.5062530890483 4.0
endloop
endfacet
facet normal -0.965925826289068 0.258819045102521 0.0
outer loop
vertex 23.9986547205863 56.5062530890483 0.0
vertex 24.4731817274833 57.6518626248113 4.0
vertex 24.4731817274833 57.6518626248113 0.0
endloop
endfacet
facet normal -0.866025403784439 -0.5 0.0
outer loop
vertex 23.6071563236989 52.4018626248113 4.0
vertex 24.5209384036367 51.2109986329887 1.5
vertex 24.5209384036367 51.2109986329887 4.0
endloop
endfacet
facet normal -0.707106781186547 -0.707106781186548 0.0
outer loop
vertex 24.5209384036367 51.2109986329887 1.5
vertex 23.6071563236989 52.4018626248113 4.0
vertex 23.6071563236989 52.4018626248113 1.5
endloop
endfacet
facet normal 0.258819045102521 -0.965925826289068 0.0
outer loop
vertex 30.0750119047989 49.7227891236492 4.0
vertex 28.5868023954594 49.5268626248113 1.5
vertex 30.0750119047989 49.7227891236492 1.5
endloop
endfacet
facet normal 2.5842218697376e-16 -1.0 0.0
outer loop
vertex 28.5868023954594 49.5268626248113 1.5
vertex 30.0750119047989 49.7227891236492 4.0
vertex 28.5868023954594 49.5268626248113 4.0
endloop
endfacet
facet normal -0.499999999999999 0.866025403784439 0.0
outer loop
vertex 25.7118023954594 60.2565086965718 4.0
vertex 27.0985928861199 60.8309361259735 1.5
vertex 25.7118023954594 60.2565086965718 1.5
endloop
endfacet
facet normal -0.258819045102519 0.965925826289069 0.0
outer loop
vertex 27.0985928861199 60.8309361259735 1.5
vertex 25.7118023954594 60.2565086965718 4.0
vertex 27.0985928861199 60.8309361259735 4.0
endloop
endfacet
facet normal -0.965925826289068 0.258819045102521 0.0
outer loop
vertex 23.0327288942973 56.7650721341508 4.0
vertex 22.9684548930468 56.2768626248113 1.5
vertex 22.9684548930468 56.2768626248113 4.0
endloop
endfacet
facet normal -0.991444861373811 0.130526192220051 0.0
outer loop
vertex 22.9684548930468 56.2768626248113 1.5
vertex 23.0327288942973 56.7650721341508 4.0
vertex 23.0327288942973 56.7650721341508 1.5
endloop
endfacet
facet normal -0.258819045102523 -0.965925826289068 0.0
outer loop
vertex 27.3574119312224 50.6887149499382 4.0
vertex 26.2118023954594 51.1632419568352 0.0
vertex 27.3574119312224 50.6887149499382 0.0
endloop
endfacet
facet normal -0.500000000000003 -0.866025403784437 0.0
outer loop
vertex 26.2118023954594 51.1632419568352 0.0
vertex 27.3574119312224 50.6887149499382 4.0
vertex 26.2118023954594 51.1632419568352 4.0
endloop
endfacet
facet normal -0.707106781186549 0.707106781186546 0.0
outer loop
vertex 24.5209384036368 59.342726616634 4.0
vertex 25.7118023954594 60.2565086965718 1.5
vertex 24.5209384036368 59.342726616634 1.5
endloop
endfacet
facet normal -0.499999999999999 0.866025403784439 0.0
outer loop
vertex 25.7118023954594 60.2565086965718 1.5
vertex 24.5209384036368 59.342726616634 4.0
vertex 25.7118023954594 60.2565086965718 4.0
endloop
endfacet
facet normal 2.5842218697376e-16 -1.0 0.0
outer loop
vertex 28.5868023954594 49.5268626248113 4.0
vertex 27.0985928861199 49.7227891236492 1.5
vertex 28.5868023954594 49.5268626248113 1.5
endloop
endfacet
facet normal -0.258819045102522 -0.965925826289068 0.0
outer loop
vertex 27.0985928861199 49.7227891236492 1.5
vertex 28.5868023954594 49.5268626248113 4.0
vertex 27.0985928861199 49.7227891236492 4.0
endloop
endfacet
facet normal -0.707106781186546 0.707106781186549 0.0
outer loop
vertex 25.2280451848233 58.6356198354474 4.0
vertex 24.4731817274833 57.6518626248113 0.0
vertex 24.4731817274833 57.6518626248113 4.0
endloop
endfacet
facet normal -0.866025403784439 0.5 0.0
outer loop
vertex 24.4731817274833 57.6518626248113 0.0
vertex 25.2280451848233 58.6356198354474 4.0
vertex 25.2280451848233 58.6356198354474 0.0
endloop
endfacet
facet normal 0.707106781186548 0.707106781186548 0.0
outer loop
vertex 32.652666387282 59.342726616634 1.5
vertex 33.5664484672199 58.1518626248113 4.0
vertex 33.5664484672199 58.1518626248113 1.5
endloop
endfacet
facet normal 0.866025403784438 0.500000000000001 0.0
outer loop
vertex 33.5664484672199 58.1518626248113 4.0
vertex 32.652666387282 59.342726616634 1.5
vertex 32.652666387282 59.342726616634 4.0
endloop
endfacet
facet normal 0.965925826289068 -0.258819045102521 0.0
outer loop
vertex 33.1749500703325 54.0474721605743 0.0
vertex 32.7004230634355 52.9018626248113 4.0
vertex 32.7004230634355 52.9018626248113 0.0
endloop
endfacet
facet normal 0.866025403784437 -0.500000000000002 0.0
outer loop
vertex 32.7004230634355 52.9018626248113 4.0
vertex 33.1749500703325 54.0474721605743 0.0
vertex 33.1749500703325 54.0474721605743 4.0
endloop
endfacet
facet normal 0.500000000000001 -0.866025403784438 0.0
outer loop
vertex 31.4618023954594 50.2972165530508 4.0
vertex 30.0750119047989 49.7227891236492 1.5
vertex 31.4618023954594 50.2972165530508 1.5
endloop
endfacet
facet normal 0.258819045102521 -0.965925826289068 0.0
outer loop
vertex 30.0750119047989 49.7227891236492 1.5
vertex 31.4618023954594 50.2972165530508 4.0
vertex 30.0750119047989 49.7227891236492 4.0
endloop
endfacet
facet normal -0.991444861373811 -0.130526192220048 -0.0
outer loop
vertex 22.9684548930468 54.2768626248113 4.0
vertex 23.0327288942973 53.7886531154718 1.5
vertex 23.0327288942973 53.7886531154718 4.0
endloop
endfacet
facet normal -0.965925826289069 -0.258819045102518 0.0
outer loop
vertex 23.0327288942973 53.7886531154718 1.5
vertex 22.9684548930468 54.2768626248113 4.0
vertex 22.9684548930468 54.2768626248113 1.5
endloop
endfacet
facet normal 0.866025403784437 -0.500000000000002 0.0
outer loop
vertex 32.7004230634355 52.9018626248113 0.0
vertex 31.9455596060955 51.9181054141752 4.0
vertex 31.9455596060955 51.9181054141752 0.0
endloop
endfacet
facet normal 0.707106781186546 -0.707106781186548 0.0
outer loop
vertex 31.9455596060955 51.9181054141752 4.0
vertex 32.7004230634355 52.9018626248113 0.0
vertex 32.7004230634355 52.9018626248113 4.0
endloop
endfacet
facet normal 0.707106781186546 0.707106781186548 0.0
outer loop
vertex 31.9455596060955 58.6356198354474 0.0
vertex 32.7004230634355 57.6518626248113 4.0
vertex 32.7004230634355 57.6518626248113 0.0
endloop
endfacet
facet normal 0.866025403784438 0.5 0.0
outer loop
vertex 32.7004230634355 57.6518626248113 4.0
vertex 31.9455596060955 58.6356198354474 0.0
vertex 31.9455596060955 58.6356198354474 4.0
endloop
endfacet
facet normal 0.499999999999999 -0.866025403784439 0.0
outer loop
vertex 32.5868023954594 48.3486593945358 1.5
vertex 30.6573547562796 47.5494560144988 0.0
vertex 32.5868023954594 48.3486593945358 0.0
endloop
endfacet
facet normal 0.258819045102519 -0.965925826289069 0.0
outer loop
vertex 30.6573547562796 47.5494560144988 0.0
vertex 32.5868023954594 48.3486593945358 1.5
vertex 30.6573547562796 47.5494560144988 1.5
endloop
endfacet
facet normal 1.0 -1.40998324127395e-15 -0.0
outer loop
vertex 22.2184548930468 56.2768626248113 0.0
vertex 22.2184548930468 54.2768626248113 1.5
vertex 22.2184548930468 54.2768626248113 0.0
endloop
endfacet
facet normal 1.0 -1.40998324127395e-15 -0.0
outer loop
vertex 22.2184548930468 54.2768626248113 1.5
vertex 22.2184548930468 56.2768626248113 0.0
vertex 22.2184548930468 56.2768626248113 1.5
endloop
endfacet
facet normal -0.0 1.0 -0.0
outer loop
vertex 22.2184548930468 54.2768626248113 1.5
vertex 23.9684548930468 54.2768626248113 0.0
vertex 22.2184548930468 54.2768626248113 0.0
endloop
endfacet
facet normal -0.0 1.0 -0.0
outer loop
vertex 23.9684548930468 54.2768626248113 0.0
vertex 22.2184548930468 54.2768626248113 1.5
vertex 22.9684548930468 54.2768626248113 1.5
endloop
endfacet
facet normal -0.0 1.0 -0.0
outer loop
vertex 23.9684548930468 54.2768626248113 0.0
vertex 22.9684548930468 54.2768626248113 1.5
vertex 23.9684548930468 54.2768626248113 4.0
endloop
endfacet
facet normal -0.0 1.0 -0.0
outer loop
vertex 23.9684548930468 54.2768626248113 4.0
vertex 22.9684548930468 54.2768626248113 1.5
vertex 22.9684548930468 54.2768626248113 4.0
endloop
endfacet
facet normal -0.707106781186546 0.707106781186549 0.0
outer loop
vertex 25.2280451848233 58.6356198354474 4.0
vertex 26.2118023954594 59.3904832927874 0.0
vertex 25.2280451848233 58.6356198354474 0.0
endloop
endfacet
facet normal -0.499999999999999 0.866025403784439 0.0
outer loop
vertex 26.2118023954594 59.3904832927874 0.0
vertex 25.2280451848233 58.6356198354474 4.0
vertex 26.2118023954594 59.3904832927874 4.0
endloop
endfacet
facet normal 0.0 0.0 -1.0
outer loop
vertex 23.0327288942973 56.7650721341508 4.0
vertex 23.9684548930468 56.2768626248113 4.0
vertex 22.9684548930468 56.2768626248113 4.0
endloop
endfacet
facet normal 0.0 0.0 -1.0
outer loop
vertex 23.9684548930468 56.2768626248113 4.0
vertex 23.0327288942973 56.7650721341508 4.0
vertex 23.6071563236989 58.1518626248113 4.0
endloop
endfacet
facet normal 0.0 0.0 -1.0
outer loop
vertex 23.9684548930468 56.2768626248113 4.0
vertex 23.6071563236989 58.1518626248113 4.0
vertex 23.9986547205863 56.5062530890483 4.0
endloop
endfacet
facet normal 0.0 0.0 -1.0
outer loop
vertex 23.9986547205863 56.5062530890483 4.0
vertex 23.6071563236989 58.1518626248113 4.0
vertex 24.5209384036368 59.342726616634 4.0
endloop
endfacet
facet normal 0.0 0.0 -1.0
outer loop
vertex 23.9986547205863 56.5062530890483 4.0
vertex 24.5209384036368 59.342726616634 4.0
vertex 24.4731817274833 57.6518626248113 4.0
endloop
endfacet
facet normal 0.0 0.0 -1.0
outer loop
vertex 24.4731817274833 57.6518626248113 4.0
vertex 24.5209384036368 59.342726616634 4.0
vertex 25.2280451848233 58.6356198354474 4.0
endloop
endfacet
facet normal 0.0 0.0 -1.0
outer loop
vertex 25.2280451848233 58.6356198354474 4.0
vertex 24.5209384036368 59.342726616634 4.0
vertex 25.7118023954594 60.2565086965718 4.0
endloop
endfacet
facet normal 0.0 0.0 -1.0
outer loop
vertex 25.2280451848233 58.6356198354474 4.0
vertex 25.7118023954594 60.2565086965718 4.0
vertex 26.2118023954594 59.3904832927874 4.0
endloop
endfacet
facet normal 0.0 0.0 -1.0
outer loop
vertex 26.2118023954594 59.3904832927874 4.0
vertex 25.7118023954594 60.2565086965718 4.0
vertex 27.0985928861199 60.8309361259735 4.0
endloop
endfacet
facet normal 0.0 0.0 -1.0
outer loop
vertex 26.2118023954594 59.3904832927874 4.0
vertex 27.0985928861199 60.8309361259735 4.0
vertex 27.3574119312224 59.8650102996844 4.0
endloop
endfacet
facet normal 0.0 0.0 -1.0
outer loop
vertex 27.3574119312224 59.8650102996844 4.0
vertex 27.0985928861199 60.8309361259735 4.0
vertex 28.5868023954594 61.0268626248113 4.0
endloop
endfacet
facet normal 0.0 0.0 -1.0
outer loop
vertex 27.3574119312224 59.8650102996844 4.0
vertex 28.5868023954594 61.0268626248113 4.0
vertex 28.5868023954594 60.0268626248113 4.0
endloop
endfacet
facet normal 0.0 0.0 -1.0
outer loop
vertex 28.5868023954594 60.0268626248113 4.0
vertex 28.5868023954594 61.0268626248113 4.0
vertex 30.0750119047989 60.8309361259735 4.0
endloop
endfacet
facet normal 0.0 0.0 -1.0
outer loop
vertex 28.5868023954594 60.0268626248113 4.0
vertex 30.0750119047989 60.8309361259735 4.0
vertex 29.8161928596964 59.8650102996844 4.0
endloop
endfacet
facet normal 0.0 0.0 -1.0
outer loop
vertex 29.8161928596964 59.8650102996844 4.0
vertex 30.0750119047989 60.8309361259735 4.0
vertex 30.9618023954594 59.3904832927874 4.0
endloop
endfacet
facet normal 0.0 0.0 -1.0
outer loop
vertex 30.9618023954594 59.3904832927874 4.0
vertex 30.0750119047989 60.8309361259735 4.0
vertex 31.4618023954594 60.2565086965718 4.0
endloop
endfacet
facet normal 0.0 0.0 -1.0
outer loop
vertex 30.9618023954594 59.3904832927874 4.0
vertex 31.4618023954594 60.2565086965718 4.0
vertex 31.9455596060955 58.6356198354474 4.0
endloop
endfacet
facet normal 0.0 0.0 -1.0
outer loop
vertex 31.9455596060955 58.6356198354474 4.0
vertex 31.4618023954594 60.2565086965718 4.0
vertex 32.652666387282 59.342726616634 4.0
endloop
endfacet
facet normal 0.0 0.0 -1.0
outer loop
vertex 31.9455596060955 58.6356198354474 4.0
vertex 32.652666387282 59.342726616634 4.0
vertex 32.7004230634355 57.6518626248113 4.0
endloop
endfacet
facet normal 0.0 0.0 -1.0
outer loop
vertex 32.7004230634355 57.6518626248113 4.0
vertex 32.652666387282 59.342726616634 4.0
vertex 33.5664484672199 58.1518626248113 4.0
endloop
endfacet
facet normal 0.0 0.0 -1.0
outer loop
vertex 32.7004230634355 57.6518626248113 4.0
vertex 33.5664484672199 58.1518626248113 4.0
vertex 33.1749500703325 56.5062530890483 4.0
endloop
endfacet
facet normal 0.0 0.0 -1.0
outer loop
vertex 33.1749500703325 56.5062530890483 4.0
vertex 33.5664484672199 58.1518626248113 4.0
vertex 33.3368023954594 55.2768626248113 4.0
endloop
endfacet
facet normal 0.0 0.0 -1.0
outer loop
vertex 33.3368023954594 55.2768626248113 4.0
vertex 33.5664484672199 58.1518626248113 4.0
vertex 33.5664484672199 52.4018626248113 4.0
endloop
endfacet
facet normal 0.0 0.0 -1.0
outer loop
vertex 33.5664484672199 52.4018626248113 4.0
vertex 33.5664484672199 58.1518626248113 4.0
vertex 34.1408758966215 53.7886531154718 4.0
endloop
endfacet
facet normal 0.0 0.0 -1.0
outer loop
vertex 34.1408758966215 53.7886531154718 4.0
vertex 33.5664484672199 58.1518626248113 4.0
vertex 34.1408758966215 56.7650721341508 4.0
endloop
endfacet
facet normal 0.0 0.0 -1.0
outer loop
vertex 34.1408758966215 53.7886531154718 4.0
vertex 34.1408758966215 56.7650721341508 4.0
vertex 34.3368023954594 55.2768626248113 4.0
endloop
endfacet
facet normal 0.0 0.0 -1.0
outer loop
vertex 23.9684548930468 54.2768626248113 4.0
vertex 23.0327288942973 53.7886531154718 4.0
vertex 22.9684548930468 54.2768626248113 4.0
endloop
endfacet
facet normal 0.0 0.0 -1.0
outer loop
vertex 23.0327288942973 53.7886531154718 4.0
vertex 23.9684548930468 54.2768626248113 4.0
vertex 23.6071563236989 52.4018626248113 4.0
endloop
endfacet
facet normal 0.0 0.0 -1.0
outer loop
vertex 23.6071563236989 52.4018626248113 4.0
vertex 23.9684548930468 54.2768626248113 4.0
vertex 23.9986547205863 54.0474721605744 4.0
endloop
endfacet
facet normal 0.0 0.0 -1.0
outer loop
vertex 23.6071563236989 52.4018626248113 4.0
vertex 23.9986547205863 54.0474721605744 4.0
vertex 24.5209384036367 51.2109986329887 4.0
endloop
endfacet
facet normal 0.0 0.0 -1.0
outer loop
vertex 24.5209384036367 51.2109986329887 4.0
vertex 23.9986547205863 54.0474721605744 4.0
vertex 24.4731817274833 52.9018626248113 4.0
endloop
endfacet
facet normal 0.0 0.0 -1.0
outer loop
vertex 24.5209384036367 51.2109986329887 4.0
vertex 24.4731817274833 52.9018626248113 4.0
vertex 25.2280451848233 51.9181054141752 4.0
endloop
endfacet
facet normal 0.0 0.0 -1.0
outer loop
vertex 24.5209384036367 51.2109986329887 4.0
vertex 25.2280451848233 51.9181054141752 4.0
vertex 25.7118023954594 50.2972165530508 4.0
endloop
endfacet
facet normal 0.0 0.0 -1.0
outer loop
vertex 25.7118023954594 50.2972165530508 4.0
vertex 25.2280451848233 51.9181054141752 4.0
vertex 26.2118023954594 51.1632419568352 4.0
endloop
endfacet
facet normal 0.0 0.0 -1.0
outer loop
vertex 25.7118023954594 50.2972165530508 4.0
vertex 26.2118023954594 51.1632419568352 4.0
vertex 27.0985928861199 49.7227891236492 4.0
endloop
endfacet
facet normal 0.0 0.0 -1.0
outer loop
vertex 27.0985928861199 49.7227891236492 4.0
vertex 26.2118023954594 51.1632419568352 4.0
vertex 27.3574119312224 50.6887149499382 4.0
endloop
endfacet
facet normal 0.0 0.0 -1.0
outer loop
vertex 27.0985928861199 49.7227891236492 4.0
vertex 27.3574119312224 50.6887149499382 4.0
vertex 28.5868023954594 49.5268626248113 4.0
endloop
endfacet
facet normal 0.0 0.0 -1.0
outer loop
vertex 28.5868023954594 49.5268626248113 4.0
vertex 27.3574119312224 50.6887149499382 4.0
vertex 28.5868023954594 50.5268626248113 4.0
endloop
endfacet
facet normal 0.0 0.0 -1.0
outer loop
vertex 28.5868023954594 49.5268626248113 4.0
vertex 28.5868023954594 50.5268626248113 4.0
vertex 29.8161928596964 50.6887149499382 4.0
endloop
endfacet
facet normal 0.0 0.0 -1.0
outer loop
vertex 28.5868023954594 49.5268626248113 4.0
vertex 29.8161928596964 50.6887149499382 4.0
vertex 30.0750119047989 49.7227891236492 4.0
endloop
endfacet
facet normal 0.0 0.0 -1.0
outer loop
vertex 30.0750119047989 49.7227891236492 4.0
vertex 29.8161928596964 50.6887149499382 4.0
vertex 30.9618023954594 51.1632419568352 4.0
endloop
endfacet
facet normal 0.0 0.0 -1.0
outer loop
vertex 30.0750119047989 49.7227891236492 4.0
vertex 30.9618023954594 51.1632419568352 4.0
vertex 31.4618023954594 50.2972165530508 4.0
endloop
endfacet
facet normal 0.0 0.0 -1.0
outer loop
vertex 31.4618023954594 50.2972165530508 4.0
vertex 30.9618023954594 51.1632419568352 4.0
vertex 31.9455596060955 51.9181054141752 4.0
endloop
endfacet
facet normal 0.0 0.0 -1.0
outer loop
vertex 31.4618023954594 50.2972165530508 4.0
vertex 31.9455596060955 51.9181054141752 4.0
vertex 32.652666387282 51.2109986329887 4.0
endloop
endfacet
facet normal 0.0 0.0 -1.0
outer loop
vertex 32.652666387282 51.2109986329887 4.0
vertex 31.9455596060955 51.9181054141752 4.0
vertex 32.7004230634355 52.9018626248113 4.0
endloop
endfacet
facet normal 0.0 0.0 -1.0
outer loop
vertex 32.652666387282 51.2109986329887 4.0
vertex 32.7004230634355 52.9018626248113 4.0
vertex 33.5664484672199 52.4018626248113 4.0
endloop
endfacet
facet normal 0.0 0.0 -1.0
outer loop
vertex 33.5664484672199 52.4018626248113 4.0
vertex 32.7004230634355 52.9018626248113 4.0
vertex 33.1749500703325 54.0474721605743 4.0
endloop
endfacet
facet normal 0.0 0.0 -1.0
outer loop
vertex 33.5664484672199 52.4018626248113 4.0
vertex 33.1749500703325 54.0474721605743 4.0
vertex 33.3368023954594 55.2768626248113 4.0
endloop
endfacet
facet normal 0.5 0.866025403784439 0.0
outer loop
vertex 31.4618023954594 60.2565086965718 4.0
vertex 32.652666387282 59.342726616634 1.5
vertex 31.4618023954594 60.2565086965718 1.5
endloop
endfacet
facet normal 0.707106781186548 0.707106781186548 0.0
outer loop
vertex 32.652666387282 59.342726616634 1.5
vertex 31.4618023954594 60.2565086965718 4.0
vertex 32.652666387282 59.342726616634 4.0
endloop
endfacet
facet normal 0.866025403784439 0.499999999999999 0.0
outer loop
vertex 35.5150056257349 59.2768626248113 0.0
vertex 36.3142090057719 57.3474149856315 1.5
vertex 36.3142090057719 57.3474149856315 0.0
endloop
endfacet
facet normal 0.965925826289068 0.258819045102521 0.0
outer loop
vertex 36.3142090057719 57.3474149856315 1.5
vertex 35.5150056257349 59.2768626248113 0.0
vertex 35.5150056257349 59.2768626248113 1.5
endloop
endfacet
facet normal 0.500000000000001 0.866025403784438 0.0
outer loop
vertex 32.5868023954594 62.2050658550868 1.5
vertex 34.2436566449518 60.9337168743037 0.0
vertex 32.5868023954594 62.2050658550868 0.0
endloop
endfacet
facet normal 0.707106781186548 0.707106781186547 0.0
outer loop
vertex 34.2436566449518 60.9337168743037 0.0
vertex 32.5868023954594 62.2050658550868 1.5
vertex 34.2436566449518 60.9337168743037 1.5
endloop
endfacet
facet normal 0.258819045102519 -0.965925826289069 0.0
outer loop
vertex 30.6573547562796 47.5494560144988 1.5
vertex 28.5868023954594 47.2768626248113 0.0
vertex 30.6573547562796 47.5494560144988 0.0
endloop
endfacet
facet normal 0.0 -1.0 0.0
outer loop
vertex 28.5868023954594 47.2768626248113 0.0
vertex 30.6573547562796 47.5494560144988 1.5
vertex 28.5868023954594 47.2768626248113 1.5
endloop
endfacet
facet normal -0.866025403784438 -0.5 0.0
outer loop
vertex 21.6585991651839 51.2768626248113 1.5
vertex 22.929948145967 49.6200083753189 0.0
vertex 22.929948145967 49.6200083753189 1.5
endloop
endfacet
facet normal -0.707106781186547 -0.707106781186548 0.0
outer loop
vertex 22.929948145967 49.6200083753189 0.0
vertex 21.6585991651839 51.2768626248113 1.5
vertex 21.6585991651839 51.2768626248113 0.0
endloop
endfacet
facet normal -0.25881904510252 -0.965925826289068 0.0
outer loop
vertex 26.5162500346392 47.5494560144988 1.5
vertex 24.5868023954594 48.3486593945358 0.0
vertex 26.5162500346392 47.5494560144988 0.0
endloop
endfacet
facet normal -0.5 -0.866025403784439 0.0
outer loop
vertex 24.5868023954594 48.3486593945358 0.0
vertex 26.5162500346392 47.5494560144988 1.5
vertex 24.5868023954594 48.3486593945358 1.5
endloop
endfacet
facet normal -0.5 -0.866025403784439 0.0
outer loop
vertex 24.5868023954594 48.3486593945358 1.5
vertex 22.929948145967 49.6200083753189 0.0
vertex 24.5868023954594 48.3486593945358 0.0
endloop
endfacet
facet normal -0.707106781186547 -0.707106781186548 0.0
outer loop
vertex 22.929948145967 49.6200083753189 0.0
vertex 24.5868023954594 48.3486593945358 1.5
vertex 22.929948145967 49.6200083753189 1.5
endloop
endfacet
facet normal 0.965925826289069 0.258819045102519 0.0
outer loop
vertex 34.1408758966215 56.7650721341508 1.5
vertex 34.3368023954594 55.2768626248113 4.0
vertex 34.3368023954594 55.2768626248113 1.5
endloop
endfacet
facet normal 1.0 0.0 0.0
outer loop
vertex 34.3368023954594 55.2768626248113 4.0
vertex 34.1408758966215 56.7650721341508 1.5
vertex 34.1408758966215 56.7650721341508 4.0
endloop
endfacet
facet normal 0.500000000000002 0.866025403784438 0.0
outer loop
vertex 30.9618023954594 59.3904832927874 4.0
vertex 31.9455596060955 58.6356198354474 0.0
vertex 30.9618023954594 59.3904832927874 0.0
endloop
endfacet
facet normal 0.707106781186546 0.707106781186548 0.0
outer loop
vertex 31.9455596060955 58.6356198354474 0.0
vertex 30.9618023954594 59.3904832927874 4.0
vertex 31.9455596060955 58.6356198354474 4.0
endloop
endfacet
facet normal -1.0 0.0 0.0
outer loop
vertex 20.5868023954594 55.2768626248113 1.5
vertex 20.8593957851469 53.2063102639911 0.0
vertex 20.8593957851469 53.2063102639911 1.5
endloop
endfacet
facet normal -0.965925826289068 -0.25881904510252 0.0
outer loop
vertex 20.8593957851469 53.2063102639911 0.0
vertex 20.5868023954594 55.2768626248113 1.5
vertex 20.5868023954594 55.2768626248113 0.0
endloop
endfacet
facet normal -1.10015939425285e-32 3.88291550912772e-33 1.0
outer loop
vertex 20.8593957851469 53.2063102639911 1.5
vertex 20.8593957851469 57.3474149856315 1.5
vertex 20.5868023954594 55.2768626248113 1.5
endloop
endfacet
facet normal -1.10015939425285e-32 3.88291550912772e-33 1.0
outer loop
vertex 20.8593957851469 57.3474149856315 1.5
vertex 20.8593957851469 53.2063102639911 1.5
vertex 21.6585991651839 51.2768626248113 1.5
endloop
endfacet
facet normal -1.10015939425285e-32 3.88291550912772e-33 1.0
outer loop
vertex 20.8593957851469 57.3474149856315 1.5
vertex 21.6585991651839 51.2768626248113 1.5
vertex 21.6585991651839 59.2768626248113 1.5
endloop
endfacet
facet normal -1.10015939425285e-32 3.88291550912772e-33 1.0
outer loop
vertex 21.6585991651839 59.2768626248113 1.5
vertex 21.6585991651839 51.2768626248113 1.5
vertex 22.2184548930468 54.2768626248113 1.5
endloop
endfacet
facet normal -1.10015939425285e-32 3.88291550912772e-33 1.0
outer loop
vertex 22.2184548930468 54.2768626248113 1.5
vertex 21.6585991651839 51.2768626248113 1.5
vertex 22.929948145967 49.6200083753189 1.5
endloop
endfacet
facet normal -1.10015939425285e-32 3.88291550912772e-33 1.0
outer loop
vertex 22.2184548930468 54.2768626248113 1.5
vertex 22.929948145967 49.6200083753189 1.5
vertex 22.9684548930468 54.2768626248113 1.5
endloop
endfacet
facet normal -1.10015939425285e-32 3.88291550912772e-33 1.0
outer loop
vertex 22.9684548930468 54.2768626248113 1.5
vertex 22.929948145967 49.6200083753189 1.5
vertex 23.0327288942973 53.7886531154718 1.5
endloop
endfacet
facet normal -1.10015939425285e-32 3.88291550912772e-33 1.0
outer loop
vertex 23.0327288942973 53.7886531154718 1.5
vertex 22.929948145967 49.6200083753189 1.5
vertex 24.5868023954594 48.3486593945358 1.5
endloop
endfacet
facet normal -1.10015939425285e-32 3.88291550912772e-33 1.0
outer loop
vertex 23.0327288942973 53.7886531154718 1.5
vertex 24.5868023954594 48.3486593945358 1.5
vertex 23.6071563236989 52.4018626248113 1.5
endloop
endfacet
facet normal -1.10015939425285e-32 3.88291550912772e-33 1.0
outer loop
vertex 23.6071563236989 52.4018626248113 1.5
vertex 24.5868023954594 48.3486593945358 1.5
vertex 24.5209384036367 51.2109986329887 1.5
endloop
endfacet
facet normal -1.10015939425285e-32 3.88291550912772e-33 1.0
outer loop
vertex 24.5209384036367 51.2109986329887 1.5
vertex 24.5868023954594 48.3486593945358 1.5
vertex 25.7118023954594 50.2972165530508 1.5
endloop
endfacet
facet normal -1.10015939425285e-32 3.88291550912772e-33 1.0
outer loop
vertex 25.7118023954594 50.2972165530508 1.5
vertex 24.5868023954594 48.3486593945358 1.5
vertex 26.5162500346392 47.5494560144988 1.5
endloop
endfacet
facet normal -1.10015939425285e-32 3.88291550912772e-33 1.0
outer loop
vertex 25.7118023954594 50.2972165530508 1.5
vertex 26.5162500346392 47.5494560144988 1.5
vertex 27.0985928861199 49.7227891236492 1.5
endloop
endfacet
facet normal -1.10015939425285e-32 3.88291550912772e-33 1.0
outer loop
vertex 27.0985928861199 49.7227891236492 1.5
vertex 26.5162500346392 47.5494560144988 1.5
vertex 28.5868023954594 47.2768626248113 1.5
endloop
endfacet
facet normal -1.10015939425285e-32 3.88291550912772e-33 1.0
outer loop
vertex 27.0985928861199 49.7227891236492 1.5
vertex 28.5868023954594 47.2768626248113 1.5
vertex 28.5868023954594 49.5268626248113 1.5
endloop
endfacet
facet normal -1.10015939425285e-32 3.88291550912772e-33 1.0
outer loop
vertex 28.5868023954594 49.5268626248113 1.5
vertex 28.5868023954594 47.2768626248113 1.5
vertex 30.6573547562796 47.5494560144988 1.5
endloop
endfacet
facet normal -1.10015939425285e-32 3.88291550912772e-33 1.0
outer loop
vertex 28.5868023954594 49.5268626248113 1.5
vertex 30.6573547562796 47.5494560144988 1.5
vertex 30.0750119047989 49.7227891236492 1.5
endloop
endfacet
facet normal -1.10015939425285e-32 3.88291550912772e-33 1.0
outer loop
vertex 30.0750119047989 49.7227891236492 1.5
vertex 30.6573547562796 47.5494560144988 1.5
vertex 31.4618023954594 50.2972165530508 1.5
endloop
endfacet
facet normal -1.10015939425285e-32 3.88291550912772e-33 1.0
outer loop
vertex 31.4618023954594 50.2972165530508 1.5
vertex 30.6573547562796 47.5494560144988 1.5
vertex 32.5868023954594 48.3486593945358 1.5
endloop
endfacet
facet normal -1.10015939425285e-32 3.88291550912772e-33 1.0
outer loop
vertex 31.4618023954594 50.2972165530508 1.5
vertex 32.5868023954594 48.3486593945358 1.5
vertex 32.652666387282 51.2109986329887 1.5
endloop
endfacet
facet normal -1.10015939425285e-32 3.88291550912772e-33 1.0
outer loop
vertex 32.652666387282 51.2109986329887 1.5
vertex 32.5868023954594 48.3486593945358 1.5
vertex 34.2436566449518 49.6200083753189 1.5
endloop
endfacet
facet normal -1.10015939425285e-32 3.88291550912772e-33 1.0
outer loop
vertex 32.652666387282 51.2109986329887 1.5
vertex 34.2436566449518 49.6200083753189 1.5
vertex 33.5664484672199 52.4018626248113 1.5
endloop
endfacet
facet normal -1.10015939425285e-32 3.88291550912772e-33 1.0
outer loop
vertex 33.5664484672199 52.4018626248113 1.5
vertex 34.2436566449518 49.6200083753189 1.5
vertex 34.1408758966215 53.7886531154718 1.5
endloop
endfacet
facet normal -1.10015939425285e-32 3.88291550912772e-33 1.0
outer loop
vertex 34.1408758966215 53.7886531154718 1.5
vertex 34.2436566449518 49.6200083753189 1.5
vertex 34.3368023954594 55.2768626248113 1.5
endloop
endfacet
facet normal -1.10015939425285e-32 3.88291550912772e-33 1.0
outer loop
vertex 34.3368023954594 55.2768626248113 1.5
vertex 34.2436566449518 49.6200083753189 1.5
vertex 35.5150056257349 51.2768626248113 1.5
endloop
endfacet
facet normal -1.10015939425285e-32 3.88291550912772e-33 1.0
outer loop
vertex 21.6585991651839 59.2768626248113 1.5
vertex 22.2184548930468 56.2768626248113 1.5
vertex 22.929948145967 60.9337168743037 1.5
endloop
endfacet
facet normal -1.10015939425285e-32 3.88291550912772e-33 1.0
outer loop
vertex 22.2184548930468 56.2768626248113 1.5
vertex 21.6585991651839 59.2768626248113 1.5
vertex 22.2184548930468 54.2768626248113 1.5
endloop
endfacet
facet normal -1.10015939425285e-32 3.88291550912772e-33 1.0
outer loop
vertex 22.929948145967 60.9337168743037 1.5
vertex 22.2184548930468 56.2768626248113 1.5
vertex 22.9684548930468 56.2768626248113 1.5
endloop
endfacet
facet normal -1.10015939425285e-32 3.88291550912772e-33 1.0
outer loop
vertex 22.929948145967 60.9337168743037 1.5
vertex 22.9684548930468 56.2768626248113 1.5
vertex 23.0327288942973 56.7650721341508 1.5
endloop
endfacet
facet normal -1.10015939425285e-32 3.88291550912772e-33 1.0
outer loop
vertex 22.929948145967 60.9337168743037 1.5
vertex 23.0327288942973 56.7650721341508 1.5
vertex 24.5868023954594 62.2050658550868 1.5
endloop
endfacet
facet normal -1.10015939425285e-32 3.88291550912772e-33 1.0
outer loop
vertex 24.5868023954594 62.2050658550868 1.5
vertex 23.0327288942973 56.7650721341508 1.5
vertex 23.6071563236989 58.1518626248113 1.5
endloop
endfacet
facet normal -1.10015939425285e-32 3.88291550912772e-33 1.0
outer loop
vertex 24.5868023954594 62.2050658550868 1.5
vertex 23.6071563236989 58.1518626248113 1.5
vertex 24.5209384036368 59.342726616634 1.5
endloop
endfacet
facet normal -1.10015939425285e-32 3.88291550912772e-33 1.0
outer loop
vertex 24.5868023954594 62.2050658550868 1.5
vertex 24.5209384036368 59.342726616634 1.5
vertex 25.7118023954594 60.2565086965718 1.5
endloop
endfacet
facet normal -1.10015939425285e-32 3.88291550912772e-33 1.0
outer loop
vertex 24.5868023954594 62.2050658550868 1.5
vertex 25.7118023954594 60.2565086965718 1.5
vertex 26.5162500346392 63.0042692351239 1.5
endloop
endfacet
facet normal -1.10015939425285e-32 3.88291550912772e-33 1.0
outer loop
vertex 26.5162500346392 63.0042692351239 1.5
vertex 25.7118023954594 60.2565086965718 1.5
vertex 27.0985928861199 60.8309361259735 1.5
endloop
endfacet
facet normal -1.10015939425285e-32 3.88291550912772e-33 1.0
outer loop
vertex 26.5162500346392 63.0042692351239 1.5
vertex 27.0985928861199 60.8309361259735 1.5
vertex 28.5868023954594 63.2768626248113 1.5
endloop
endfacet
facet normal -1.10015939425285e-32 3.88291550912772e-33 1.0
outer loop
vertex 28.5868023954594 63.2768626248113 1.5
vertex 27.0985928861199 60.8309361259735 1.5
vertex 28.5868023954594 61.0268626248113 1.5
endloop
endfacet
facet normal -1.10015939425285e-32 3.88291550912772e-33 1.0
outer loop
vertex 28.5868023954594 63.2768626248113 1.5
vertex 28.5868023954594 61.0268626248113 1.5
vertex 30.0750119047989 60.8309361259735 1.5
endloop
endfacet
facet normal -1.10015939425285e-32 3.88291550912772e-33 1.0
outer loop
vertex 28.5868023954594 63.2768626248113 1.5
vertex 30.0750119047989 60.8309361259735 1.5
vertex 30.6573547562796 63.0042692351239 1.5
endloop
endfacet
facet normal -1.10015939425285e-32 3.88291550912772e-33 1.0
outer loop
vertex 30.6573547562796 63.0042692351239 1.5
vertex 30.0750119047989 60.8309361259735 1.5
vertex 31.4618023954594 60.2565086965718 1.5
endloop
endfacet
facet normal -1.10015939425285e-32 3.88291550912772e-33 1.0
outer loop
vertex 30.6573547562796 63.0042692351239 1.5
vertex 31.4618023954594 60.2565086965718 1.5
vertex 32.5868023954594 62.2050658550868 1.5
endloop
endfacet
facet normal -1.10015939425285e-32 3.88291550912772e-33 1.0
outer loop
vertex 32.5868023954594 62.2050658550868 1.5
vertex 31.4618023954594 60.2565086965718 1.5
vertex 32.652666387282 59.342726616634 1.5
endloop
endfacet
facet normal -1.10015939425285e-32 3.88291550912772e-33 1.0
outer loop
vertex 32.5868023954594 62.2050658550868 1.5
vertex 32.652666387282 59.342726616634 1.5
vertex 34.2436566449518 60.9337168743037 1.5
endloop
endfacet
facet normal -1.10015939425285e-32 3.88291550912772e-33 1.0
outer loop
vertex 34.2436566449518 60.9337168743037 1.5
vertex 32.652666387282 59.342726616634 1.5
vertex 33.5664484672199 58.1518626248113 1.5
endloop
endfacet
facet normal -1.10015939425285e-32 3.88291550912772e-33 1.0
outer loop
vertex 34.2436566449518 60.9337168743037 1.5
vertex 33.5664484672199 58.1518626248113 1.5
vertex 34.1408758966215 56.7650721341508 1.5
endloop
endfacet
facet normal -1.10015939425285e-32 3.88291550912772e-33 1.0
outer loop
vertex 34.2436566449518 60.9337168743037 1.5
vertex 34.1408758966215 56.7650721341508 1.5
vertex 34.3368023954594 55.2768626248113 1.5
endloop
endfacet
facet normal -1.10015939425285e-32 3.88291550912772e-33 1.0
outer loop
vertex 34.2436566449518 60.9337168743037 1.5
vertex 34.3368023954594 55.2768626248113 1.5
vertex 35.5150056257349 59.2768626248113 1.5
endloop
endfacet
facet normal -1.10015939425285e-32 3.88291550912772e-33 1.0
outer loop
vertex 35.5150056257349 59.2768626248113 1.5
vertex 34.3368023954594 55.2768626248113 1.5
vertex 35.5150056257349 51.2768626248113 1.5
endloop
endfacet
facet normal -1.10015939425285e-32 3.88291550912772e-33 1.0
outer loop
vertex 35.5150056257349 59.2768626248113 1.5
vertex 35.5150056257349 51.2768626248113 1.5
vertex 36.3142090057719 53.2063102639911 1.5
endloop
endfacet
facet normal -1.10015939425285e-32 3.88291550912772e-33 1.0
outer loop
vertex 35.5150056257349 59.2768626248113 1.5
vertex 36.3142090057719 53.2063102639911 1.5
vertex 36.3142090057719 57.3474149856315 1.5
endloop
endfacet
facet normal -1.10015939425285e-32 3.88291550912772e-33 1.0
outer loop
vertex 36.3142090057719 57.3474149856315 1.5
vertex 36.3142090057719 53.2063102639911 1.5
vertex 36.5868023954594 55.2768626248113 1.5
endloop
endfacet
facet normal 0.707106781186546 -0.707106781186548 0.0
outer loop
vertex 31.9455596060955 51.9181054141752 4.0
vertex 30.9618023954594 51.1632419568352 0.0
vertex 31.9455596060955 51.9181054141752 0.0
endloop
endfacet
facet normal 0.500000000000002 -0.866025403784438 0.0
outer loop
vertex 30.9618023954594 51.1632419568352 0.0
vertex 31.9455596060955 51.9181054141752 4.0
vertex 30.9618023954594 51.1632419568352 4.0
endloop
endfacet
facet normal 0.0 -1.0 0.0
outer loop
vertex 28.5868023954594 47.2768626248113 1.5
vertex 26.5162500346392 47.5494560144988 0.0
vertex 28.5868023954594 47.2768626248113 0.0
endloop
endfacet
facet normal -0.25881904510252 -0.965925826289068 0.0
outer loop
vertex 26.5162500346392 47.5494560144988 0.0
vertex 28.5868023954594 47.2768626248113 1.5
vertex 26.5162500346392 47.5494560144988 1.5
endloop
endfacet
facet normal -0.499999999999998 0.86602540378444 0.0
outer loop
vertex 24.5868023954594 62.2050658550868 1.5
vertex 26.5162500346392 63.0042692351239 0.0
vertex 24.5868023954594 62.2050658550868 0.0
endloop
endfacet
facet normal -0.258819045102519 0.965925826289069 0.0
outer loop
vertex 26.5162500346392 63.0042692351239 0.0
vertex 24.5868023954594 62.2050658550868 1.5
vertex 26.5162500346392 63.0042692351239 1.5
endloop
endfacet
facet normal -0.258819045102519 0.965925826289069 0.0
outer loop
vertex 26.5162500346392 63.0042692351239 1.5
vertex 28.5868023954594 63.2768626248113 0.0
vertex 26.5162500346392 63.0042692351239 0.0
endloop
endfacet
facet normal -3.65355505721523e-16 1.0 0.0
outer loop
vertex 28.5868023954594 63.2768626248113 0.0
vertex 26.5162500346392 63.0042692351239 1.5
vertex 28.5868023954594 63.2768626248113 1.5
endloop
endfacet
facet normal -0.965925826289068 -0.25881904510252 0.0
outer loop
vertex 20.8593957851469 53.2063102639911 1.5
vertex 21.6585991651839 51.2768626248113 0.0
vertex 21.6585991651839 51.2768626248113 1.5
endloop
endfacet
facet normal -0.866025403784438 -0.5 0.0
outer loop
vertex 21.6585991651839 51.2768626248113 0.0
vertex 20.8593957851469 53.2063102639911 1.5
vertex 20.8593957851469 53.2063102639911 0.0
endloop
endfacet
facet normal -3.65355505721523e-16 1.0 0.0
outer loop
vertex 28.5868023954594 63.2768626248113 1.5
vertex 30.6573547562796 63.0042692351239 0.0
vertex 28.5868023954594 63.2768626248113 0.0
endloop
endfacet
facet normal 0.258819045102521 0.965925826289068 0.0
outer loop
vertex 30.6573547562796 63.0042692351239 0.0
vertex 28.5868023954594 63.2768626248113 1.5
vertex 30.6573547562796 63.0042692351239 1.5
endloop
endfacet
facet normal 0.965925826289068 0.258819045102521 0.0
outer loop
vertex 36.3142090057719 57.3474149856315 0.0
vertex 36.5868023954594 55.2768626248113 1.5
vertex 36.5868023954594 55.2768626248113 0.0
endloop
endfacet
facet normal 1.0 3.65355505721523e-16 0.0
outer loop
vertex 36.5868023954594 55.2768626248113 1.5
vertex 36.3142090057719 57.3474149856315 0.0
vertex 36.3142090057719 57.3474149856315 1.5
endloop
endfacet
facet normal -0.965925826289069 -0.258819045102518 0.0
outer loop
vertex 23.0327288942973 53.7886531154718 4.0
vertex 23.6071563236989 52.4018626248113 1.5
vertex 23.6071563236989 52.4018626248113 4.0
endloop
endfacet
facet normal -0.866025403784439 -0.5 0.0
outer loop
vertex 23.6071563236989 52.4018626248113 1.5
vertex 23.0327288942973 53.7886531154718 4.0
vertex 23.0327288942973 53.7886531154718 1.5
endloop
endfacet
facet normal 0.707106781186548 0.707106781186547 0.0
outer loop
vertex 34.2436566449518 60.9337168743037 0.0
vertex 35.5150056257349 59.2768626248113 1.5
vertex 35.5150056257349 59.2768626248113 0.0
endloop
endfacet
facet normal 0.866025403784439 0.499999999999999 0.0
outer loop
vertex 35.5150056257349 59.2768626248113 1.5
vertex 34.2436566449518 60.9337168743037 0.0
vertex 34.2436566449518 60.9337168743037 1.5
endloop
endfacet
facet normal -0.866025403784439 0.5 0.0
outer loop
vertex 21.6585991651839 59.2768626248113 1.5
vertex 20.8593957851469 57.3474149856315 0.0
vertex 20.8593957851469 57.3474149856315 1.5
endloop
endfacet
facet normal -0.965925826289068 0.258819045102521 0.0
outer loop
vertex 20.8593957851469 57.3474149856315 0.0
vertex 21.6585991651839 59.2768626248113 1.5
vertex 21.6585991651839 59.2768626248113 0.0
endloop
endfacet
facet normal -0.707106781186547 0.707106781186548 0.0
outer loop
vertex 22.929948145967 60.9337168743037 1.5
vertex 21.6585991651839 59.2768626248113 0.0
vertex 21.6585991651839 59.2768626248113 1.5
endloop
endfacet
facet normal -0.866025403784439 0.5 0.0
outer loop
vertex 21.6585991651839 59.2768626248113 0.0
vertex 22.929948145967 60.9337168743037 1.5
vertex 22.929948145967 60.9337168743037 0.0
endloop
endfacet
facet normal -0.707106781186547 0.707106781186548 0.0
outer loop
vertex 22.929948145967 60.9337168743037 1.5
vertex 24.5868023954594 62.2050658550868 0.0
vertex 22.929948145967 60.9337168743037 0.0
endloop
endfacet
facet normal -0.499999999999998 0.86602540378444 0.0
outer loop
vertex 24.5868023954594 62.2050658550868 0.0
vertex 22.929948145967 60.9337168743037 1.5
vertex 24.5868023954594 62.2050658550868 1.5
endloop
endfacet
facet normal -0.258819045102522 0.965925826289068 0.0
outer loop
vertex 27.3574119312224 59.8650102996844 4.0
vertex 28.5868023954594 60.0268626248113 0.0
vertex 27.3574119312224 59.8650102996844 0.0
endloop
endfacet
facet normal 0.0 1.0 0.0
outer loop
vertex 28.5868023954594 60.0268626248113 0.0
vertex 27.3574119312224 59.8650102996844 4.0
vertex 28.5868023954594 60.0268626248113 4.0
endloop
endfacet
facet normal 0.866025403784439 -0.5 0.0
outer loop
vertex 35.5150056257349 51.2768626248113 0.0
vertex 34.2436566449518 49.6200083753189 1.5
vertex 34.2436566449518 49.6200083753189 0.0
endloop
endfacet
facet normal 0.707106781186548 -0.707106781186548 0.0
outer loop
vertex 34.2436566449518 49.6200083753189 1.5
vertex 35.5150056257349 51.2768626248113 0.0
vertex 35.5150056257349 51.2768626248113 1.5
endloop
endfacet
facet normal -0.500000000000001 -0.866025403784438 0.0
outer loop
vertex 25.7118023954594 50.2972165530508 4.0
vertex 24.5209384036367 51.2109986329887 1.5
vertex 25.7118023954594 50.2972165530508 1.5
endloop
endfacet
facet normal -0.707106781186547 -0.707106781186548 0.0
outer loop
vertex 24.5209384036367 51.2109986329887 1.5
vertex 25.7118023954594 50.2972165530508 4.0
vertex 24.5209384036367 51.2109986329887 4.0
endloop
endfacet
facet normal 0.500000000000002 -0.866025403784438 0.0
outer loop
vertex 30.9618023954594 51.1632419568352 4.0
vertex 29.8161928596964 50.6887149499382 0.0
vertex 30.9618023954594 51.1632419568352 0.0
endloop
endfacet
facet normal 0.258819045102522 -0.965925826289068 0.0
outer loop
vertex 29.8161928596964 50.6887149499382 0.0
vertex 30.9618023954594 51.1632419568352 4.0
vertex 29.8161928596964 50.6887149499382 4.0
endloop
endfacet
facet normal -0.707106781186549 0.707106781186546 0.0
outer loop
vertex 24.5209384036368 59.342726616634 4.0
vertex 23.6071563236989 58.1518626248113 1.5
vertex 23.6071563236989 58.1518626248113 4.0
endloop
endfacet
facet normal -0.866025403784438 0.500000000000001 0.0
outer loop
vertex 23.6071563236989 58.1518626248113 1.5
vertex 24.5209384036368 59.342726616634 4.0
vertex 24.5209384036368 59.342726616634 1.5
endloop
endfacet
facet normal 0.707106781186548 -0.707106781186548 0.0
outer loop
vertex 34.2436566449518 49.6200083753189 1.5
vertex 32.5868023954594 48.3486593945358 0.0
vertex 34.2436566449518 49.6200083753189 0.0
endloop
endfacet
facet normal 0.499999999999999 -0.866025403784439 0.0
outer loop
vertex 32.5868023954594 48.3486593945358 0.0
vertex 34.2436566449518 49.6200083753189 1.5
vertex 32.5868023954594 48.3486593945358 1.5
endloop
endfacet
facet normal 1.0 3.65355505721523e-16 0.0
outer loop
vertex 36.5868023954594 55.2768626248113 0.0
vertex 36.3142090057719 53.2063102639911 1.5
vertex 36.3142090057719 53.2063102639911 0.0
endloop
endfacet
facet normal 0.965925826289068 -0.25881904510252 0.0
outer loop
vertex 36.3142090057719 53.2063102639911 1.5
vertex 36.5868023954594 55.2768626248113 0.0
vertex 36.5868023954594 55.2768626248113 1.5
endloop
endfacet
facet normal 0.965925826289068 -0.25881904510252 0.0
outer loop
vertex 36.3142090057719 53.2063102639911 0.0
vertex 35.5150056257349 51.2768626248113 1.5
vertex 35.5150056257349 51.2768626248113 0.0
endloop
endfacet
facet normal 0.866025403784439 -0.5 0.0
outer loop
vertex 35.5150056257349 51.2768626248113 1.5
vertex 36.3142090057719 53.2063102639911 0.0
vertex 36.3142090057719 53.2063102639911 1.5
endloop
endfacet
facet normal -0.258819045102522 -0.965925826289068 0.0
outer loop
vertex 27.0985928861199 49.7227891236492 4.0
vertex 25.7118023954594 50.2972165530508 1.5
vertex 27.0985928861199 49.7227891236492 1.5
endloop
endfacet
facet normal -0.500000000000001 -0.866025403784438 0.0
outer loop
vertex 25.7118023954594 50.2972165530508 1.5
vertex 27.0985928861199 49.7227891236492 4.0
vertex 25.7118023954594 50.2972165530508 4.0
endloop
endfacet
facet normal 0.0 -1.0 0.0
outer loop
vertex 23.9684548930468 56.2768626248113 0.0
vertex 22.9684548930468 56.2768626248113 1.5
vertex 22.2184548930468 56.2768626248113 0.0
endloop
endfacet
facet normal 0.0 -1.0 0.0
outer loop
vertex 22.9684548930468 56.2768626248113 1.5
vertex 23.9684548930468 56.2768626248113 0.0
vertex 23.9684548930468 56.2768626248113 4.0
endloop
endfacet
facet normal 0.0 -1.0 0.0
outer loop
vertex 22.9684548930468 56.2768626248113 1.5
vertex 23.9684548930468 56.2768626248113 4.0
vertex 22.9684548930468 56.2768626248113 4.0
endloop
endfacet
facet normal 0.0 -1.0 0.0
outer loop
vertex 22.2184548930468 56.2768626248113 1.5
vertex 22.2184548930468 56.2768626248113 0.0
vertex 22.9684548930468 56.2768626248113 1.5
endloop
endfacet
facet normal -0.965925826289068 0.258819045102521 0.0
outer loop
vertex 20.8593957851469 57.3474149856315 1.5
vertex 20.5868023954594 55.2768626248113 0.0
vertex 20.5868023954594 55.2768626248113 1.5
endloop
endfacet
facet normal -1.0 0.0 0.0
outer loop
vertex 20.5868023954594 55.2768626248113 0.0
vertex 20.8593957851469 57.3474149856315 1.5
vertex 20.8593957851469 57.3474149856315 0.0
endloop
endfacet
facet normal 1.0 0.0 0.0
outer loop
vertex 34.3368023954594 55.2768626248113 1.5
vertex 34.1408758966215 53.7886531154718 4.0
vertex 34.1408758966215 53.7886531154718 1.5
endloop
endfacet
facet normal 0.965925826289068 -0.258819045102521 0.0
outer loop
vertex 34.1408758966215 53.7886531154718 4.0
vertex 34.3368023954594 55.2768626248113 1.5
vertex 34.3368023954594 55.2768626248113 4.0
endloop
endfacet
facet normal 0.258819045102521 0.965925826289068 0.0
outer loop
vertex 30.6573547562796 63.0042692351239 1.5
vertex 32.5868023954594 62.2050658550868 0.0
vertex 30.6573547562796 63.0042692351239 0.0
endloop
endfacet
facet normal 0.500000000000001 0.866025403784438 0.0
outer loop
vertex 32.5868023954594 62.2050658550868 0.0
vertex 30.6573547562796 63.0042692351239 1.5
vertex 32.5868023954594 62.2050658550868 1.5
endloop
endfacet
facet normal -0.991444861373811 -0.130526192220045 -0.0
outer loop
vertex 23.9684548930468 54.2768626248113 4.0
vertex 23.9986547205863 54.0474721605744 0.0
vertex 23.9986547205863 54.0474721605744 4.0
endloop
endfacet
facet normal -0.965925826289069 -0.258819045102517 0.0
outer loop
vertex 23.9986547205863 54.0474721605744 0.0
vertex 23.9684548930468 54.2768626248113 4.0
vertex 23.9684548930468 54.2768626248113 0.0
endloop
endfacet
facet normal -0.965925826289069 -0.258819045102517 0.0
outer loop
vertex 23.9986547205863 54.0474721605744 4.0
vertex 24.4731817274833 52.9018626248113 0.0
vertex 24.4731817274833 52.9018626248113 4.0
endloop
endfacet
facet normal -0.866025403784438 -0.5 0.0
outer loop
vertex 24.4731817274833 52.9018626248113 0.0
vertex 23.9986547205863 54.0474721605744 4.0
vertex 23.9986547205863 54.0474721605744 0.0
endloop
endfacet
facet normal 1.0 6.05955472903989e-16 0.0
outer loop
vertex 33.3368023954594 55.2768626248113 0.0
vertex 33.1749500703325 54.0474721605743 4.0
vertex 33.1749500703325 54.0474721605743 0.0
endloop
endfacet
facet normal 0.965925826289068 -0.258819045102521 0.0
outer loop
vertex 33.1749500703325 54.0474721605743 4.0
vertex 33.3368023954594 55.2768626248113 0.0
vertex 33.3368023954594 55.2768626248113 4.0
endloop
endfacet
facet normal 0.965925826289069 0.25881904510252 0.0
outer loop
vertex 33.1749500703325 56.5062530890483 0.0
vertex 33.3368023954594 55.2768626248113 4.0
vertex 33.3368023954594 55.2768626248113 0.0
endloop
endfacet
facet normal 1.0 6.05955472903989e-16 0.0
outer loop
vertex 33.3368023954594 55.2768626248113 4.0
vertex 33.1749500703325 56.5062530890483 0.0
vertex 33.1749500703325 56.5062530890483 4.0
endloop
endfacet
endsolid Plotter-v3-z-PenMount
