solid Plotter-v3-z-PenMount
facet normal -0.5 -0.866025403784438 0.0
outer loop
vertex 15.5804661307526 56.6694462068864 1.5
vertex 14.1333804013677 57.2688487419141 0.0
vertex 15.5804661307526 56.6694462068864 0.0
endloop
endfacet
facet normal -0.25881904510252 -0.965925826289069 0.0
outer loop
vertex 14.1333804013677 57.2688487419141 0.0
vertex 15.5804661307526 56.6694462068864 1.5
vertex 14.1333804013677 57.2688487419141 1.5
endloop
endfacet
facet normal 1.0 -0.0 -0.0
outer loop
vertex -0.0195338692474058 56.3732937841797 0.0
vertex -0.0195338692474162 46.5732937841797 7.8
vertex -0.0195338692474058 46.5732937841797 0.0
endloop
endfacet
facet normal 1.0 -0.0 -0.0
outer loop
vertex -0.0195338692474162 46.5732937841797 7.8
vertex -0.0195338692474058 56.3732937841797 0.0
vertex -0.0195338692474162 56.3732937841797 7.8
endloop
endfacet
facet normal 0.0 -1.0 0.0
outer loop
vertex 1.58046613075259 56.3732937841797 1.5
vertex -0.0195338692474058 56.3732937841797 0.0
vertex 1.58046613075259 56.3732937841797 0.0
endloop
endfacet
facet normal 0.0 -1.0 0.0
outer loop
vertex -0.0195338692474058 56.3732937841797 0.0
vertex 1.58046613075259 56.3732937841797 1.5
vertex -0.0195338692474162 56.3732937841797 7.8
endloop
endfacet
facet normal 0.0 -1.0 0.0
outer loop
vertex -0.0195338692474162 56.3732937841797 7.8
vertex 1.58046613075259 56.3732937841797 1.5
vertex 1.58046613075258 56.3732937841797 7.8
endloop
endfacet
facet normal -0.499999999999999 0.866025403784439 0.0
outer loop
vertex 9.2804661307526 55.630215722345 1.5
vertex 10.4381347142605 56.1097377503673 2.46747067222941e-15
vertex 9.2804661307526 55.630215722345 2.46747067222941e-15
endloop
endfacet
facet normal -0.25881904510252 0.965925826289069 0.0
outer loop
vertex 10.4381347142605 56.1097377503673 2.46747067222941e-15
vertex 9.2804661307526 55.630215722345 1.5
vertex 10.4381347142605 56.1097377503673 1.5
endloop
endfacet
facet normal 0.866025403784438 -0.500000000000001 0.0
outer loop
vertex 15.8373880689179 49.0732937841797 2.46747067222941e-15
vertex 15.074578680448 48.0791812344843 1.5
vertex 15.074578680448 48.0791812344843 2.46747067222941e-15
endloop
endfacet
facet normal 0.707106781186548 -0.707106781186547 0.0
outer loop
vertex 15.074578680448 48.0791812344843 1.5
vertex 15.8373880689179 49.0732937841797 2.46747067222941e-15
vertex 15.8373880689179 49.0732937841797 1.5
endloop
endfacet
facet normal 0.866025403784439 0.499999999999999 0.0
outer loop
vertex 15.8373880689179 53.8732937841797 2.46747067222941e-15
vertex 16.3169100969401 52.7156252006718 1.5
vertex 16.3169100969401 52.7156252006718 2.46747067222941e-15
endloop
endfacet
facet normal 0.965925826289068 0.25881904510252 0.0
outer loop
vertex 16.3169100969401 52.7156252006718 1.5
vertex 15.8373880689179 53.8732937841797 2.46747067222941e-15
vertex 15.8373880689179 53.8732937841797 1.5
endloop
endfacet
facet normal 0.387232484355091 -0.921982105607361 6.28981371562756e-17
outer loop
vertex 1.58046613075259 55.3732937841797 4.65
vertex 1.58046613075259 55.3732937841797 1.5
vertex 6.58046613075259 57.4732937841797 1.5
endloop
endfacet
facet normal 0.965925826289068 -0.25881904510252 0.0
outer loop
vertex 16.3169100969401 50.2309623676876 2.46747067222941e-15
vertex 15.8373880689179 49.0732937841797 1.5
vertex 15.8373880689179 49.0732937841797 2.46747067222941e-15
endloop
endfacet
facet normal 0.866025403784438 -0.500000000000001 0.0
outer loop
vertex 15.8373880689179 49.0732937841797 1.5
vertex 16.3169100969401 50.2309623676876 2.46747067222941e-15
vertex 16.3169100969401 50.2309623676876 1.5
endloop
endfacet
facet normal 0.25881904510252 0.965925826289069 0.0
outer loop
vertex 12.9227975472447 56.1097377503673 1.5
vertex 14.0804661307526 55.630215722345 2.46747067222941e-15
vertex 12.9227975472447 56.1097377503673 2.46747067222941e-15
endloop
endfacet
facet normal 0.499999999999999 0.866025403784439 0.0
outer loop
vertex 14.0804661307526 55.630215722345 2.46747067222941e-15
vertex 12.9227975472447 56.1097377503673 1.5
vertex 14.0804661307526 55.630215722345 1.5
endloop
endfacet
facet normal 0.707106781186548 -0.707106781186547 0.0
outer loop
vertex 15.074578680448 48.0791812344843 1.5
vertex 14.0804661307526 47.3163718460144 2.46747067222941e-15
vertex 15.074578680448 48.0791812344843 2.46747067222941e-15
endloop
endfacet
facet normal 0.5 -0.866025403784439 0.0
outer loop
vertex 14.0804661307526 47.3163718460144 2.46747067222941e-15
vertex 15.074578680448 48.0791812344843 1.5
vertex 14.0804661307526 47.3163718460144 1.5
endloop
endfacet
facet normal -0.965925826289069 0.258819045102519 0.0
outer loop
vertex 7.04402216456507 52.7156252006718 1.5
vertex 6.88046613075259 51.4732937841797 2.46747067222941e-15
vertex 6.88046613075259 51.4732937841797 1.5
endloop
endfacet
facet normal -1.0 0.0 0.0
outer loop
vertex 6.88046613075259 51.4732937841797 2.46747067222941e-15
vertex 7.04402216456507 52.7156252006718 1.5
vertex 7.04402216456507 52.7156252006718 2.46747067222941e-15
endloop
endfacet
facet normal 0.499999999999999 0.866025403784439 0.0
outer loop
vertex 14.0804661307526 55.630215722345 1.5
vertex 15.074578680448 54.8674063338752 2.46747067222941e-15
vertex 14.0804661307526 55.630215722345 2.46747067222941e-15
endloop
endfacet
facet normal 0.707106781186549 0.707106781186546 0.0
outer loop
vertex 15.074578680448 54.8674063338752 2.46747067222941e-15
vertex 14.0804661307526 55.630215722345 1.5
vertex 15.074578680448 54.8674063338752 1.5
endloop
endfacet
facet normal -0.533037656364524 3.31913339914297e-17 -0.846091518038927
outer loop
vertex 6.58046613075259 57.4732937841797 1.5
vertex 1.58046613075259 47.5732937841797 4.65
vertex 1.58046613075259 55.3732937841797 4.65
endloop
endfacet
facet normal -0.533037656364524 3.31913339914297e-17 -0.846091518038927
outer loop
vertex 1.58046613075259 47.5732937841797 4.65
vertex 6.58046613075259 57.4732937841797 1.5
vertex 6.58046613075259 45.4732937841797 1.5
endloop
endfacet
facet normal -2.22777747391173e-16 1.0 0.0
outer loop
vertex 11.6804661307526 56.2732937841797 1.5
vertex 12.9227975472447 56.1097377503673 2.46747067222941e-15
vertex 11.6804661307526 56.2732937841797 2.46747067222941e-15
endloop
endfacet
facet normal 0.25881904510252 0.965925826289069 0.0
outer loop
vertex 12.9227975472447 56.1097377503673 2.46747067222941e-15
vertex 11.6804661307526 56.2732937841797 1.5
vertex 12.9227975472447 56.1097377503673 1.5
endloop
endfacet
facet normal -0.25881904510252 0.965925826289069 0.0
outer loop
vertex 10.4381347142605 56.1097377503673 1.5
vertex 11.6804661307526 56.2732937841797 2.46747067222941e-15
vertex 10.4381347142605 56.1097377503673 2.46747067222941e-15
endloop
endfacet
facet normal -2.22777747391173e-16 1.0 0.0
outer loop
vertex 11.6804661307526 56.2732937841797 2.46747067222941e-15
vertex 10.4381347142605 56.1097377503673 1.5
vertex 11.6804661307526 56.2732937841797 1.5
endloop
endfacet
facet normal -0.965925826289069 -0.25881904510252 0.0
outer loop
vertex 7.04402216456507 50.2309623676876 1.5
vertex 7.52354419258729 49.0732937841797 2.46747067222941e-15
vertex 7.52354419258729 49.0732937841797 1.5
endloop
endfacet
facet normal -0.866025403784439 -0.5 0.0
outer loop
vertex 7.52354419258729 49.0732937841797 2.46747067222941e-15
vertex 7.04402216456507 50.2309623676876 1.5
vertex 7.04402216456507 50.2309623676876 2.46747067222941e-15
endloop
endfacet
facet normal 0.5 -0.866025403784439 0.0
outer loop
vertex 14.0804661307526 47.3163718460144 1.5
vertex 12.9227975472447 46.8368498179922 2.46747067222941e-15
vertex 14.0804661307526 47.3163718460144 2.46747067222941e-15
endloop
endfacet
facet normal 0.25881904510252 -0.965925826289069 0.0
outer loop
vertex 12.9227975472447 46.8368498179922 2.46747067222941e-15
vertex 14.0804661307526 47.3163718460144 1.5
vertex 12.9227975472447 46.8368498179922 1.5
endloop
endfacet
facet normal 0.25881904510252 -0.965925826289069 0.0
outer loop
vertex 12.9227975472447 46.8368498179922 1.5
vertex 11.6804661307526 46.6732937841797 2.46747067222941e-15
vertex 12.9227975472447 46.8368498179922 2.46747067222941e-15
endloop
endfacet
facet normal 1.51488868225997e-16 -1.0 0.0
outer loop
vertex 11.6804661307526 46.6732937841797 2.46747067222941e-15
vertex 12.9227975472447 46.8368498179922 1.5
vertex 11.6804661307526 46.6732937841797 1.5
endloop
endfacet
facet normal 0.965925826289068 0.25881904510252 0.0
outer loop
vertex 16.3169100969401 52.7156252006718 2.46747067222941e-15
vertex 16.4804661307526 51.4732937841797 1.5
vertex 16.4804661307526 51.4732937841797 2.46747067222941e-15
endloop
endfacet
facet normal 1.0 2.94066626556348e-16 0.0
outer loop
vertex 16.4804661307526 51.4732937841797 1.5
vertex 16.3169100969401 52.7156252006718 2.46747067222941e-15
vertex 16.3169100969401 52.7156252006718 1.5
endloop
endfacet
facet normal 1.0 2.94066626556348e-16 0.0
outer loop
vertex 16.4804661307526 51.4732937841797 2.46747067222941e-15
vertex 16.3169100969401 50.2309623676876 1.5
vertex 16.3169100969401 50.2309623676876 2.46747067222941e-15
endloop
endfacet
facet normal 0.965925826289068 -0.25881904510252 0.0
outer loop
vertex 16.3169100969401 50.2309623676876 1.5
vertex 16.4804661307526 51.4732937841797 2.46747067222941e-15
vertex 16.4804661307526 51.4732937841797 1.5
endloop
endfacet
facet normal -0.866025403784439 0.499999999999999 0.0
outer loop
vertex 7.52354419258729 53.8732937841797 1.5
vertex 7.04402216456507 52.7156252006718 2.46747067222941e-15
vertex 7.04402216456507 52.7156252006718 1.5
endloop
endfacet
facet normal -0.965925826289069 0.258819045102519 0.0
outer loop
vertex 7.04402216456507 52.7156252006718 2.46747067222941e-15
vertex 7.52354419258729 53.8732937841797 1.5
vertex 7.52354419258729 53.8732937841797 2.46747067222941e-15
endloop
endfacet
facet normal -0.866025403784439 -0.5 0.0
outer loop
vertex 7.52354419258729 49.0732937841797 1.5
vertex 8.28635358105717 48.0791812344843 2.46747067222941e-15
vertex 8.28635358105717 48.0791812344843 1.5
endloop
endfacet
facet normal -0.707106781186547 -0.707106781186548 0.0
outer loop
vertex 8.28635358105717 48.0791812344843 2.46747067222941e-15
vertex 7.52354419258729 49.0732937841797 1.5
vertex 7.52354419258729 49.0732937841797 2.46747067222941e-15
endloop
endfacet
facet normal 1.51488868225997e-16 -1.0 0.0
outer loop
vertex 11.6804661307526 46.6732937841797 1.5
vertex 10.4381347142605 46.8368498179922 2.46747067222941e-15
vertex 11.6804661307526 46.6732937841797 2.46747067222941e-15
endloop
endfacet
facet normal -0.258819045102522 -0.965925826289068 0.0
outer loop
vertex 10.4381347142605 46.8368498179922 2.46747067222941e-15
vertex 11.6804661307526 46.6732937841797 1.5
vertex 10.4381347142605 46.8368498179922 1.5
endloop
endfacet
facet normal -1.0 0.0 0.0
outer loop
vertex 6.88046613075259 51.4732937841797 1.5
vertex 7.04402216456507 50.2309623676876 2.46747067222941e-15
vertex 7.04402216456507 50.2309623676876 1.5
endloop
endfacet
facet normal -0.965925826289069 -0.25881904510252 0.0
outer loop
vertex 7.04402216456507 50.2309623676876 2.46747067222941e-15
vertex 6.88046613075259 51.4732937841797 1.5
vertex 6.88046613075259 51.4732937841797 2.46747067222941e-15
endloop
endfacet
facet normal 0.707106781186549 0.707106781186546 0.0
outer loop
vertex 15.074578680448 54.8674063338752 2.46747067222941e-15
vertex 15.8373880689179 53.8732937841797 1.5
vertex 15.8373880689179 53.8732937841797 2.46747067222941e-15
endloop
endfacet
facet normal 0.866025403784439 0.499999999999999 0.0
outer loop
vertex 15.8373880689179 53.8732937841797 1.5
vertex 15.074578680448 54.8674063338752 2.46747067222941e-15
vertex 15.074578680448 54.8674063338752 1.5
endloop
endfacet
facet normal 0.387232484355092 0.921982105607361 -1.25796274312551e-16
outer loop
vertex 1.58046613075259 47.5732937841797 4.65
vertex 6.58046613075259 45.4732937841797 1.5
vertex 1.58046613075259 47.5732937841797 1.5
endloop
endfacet
facet normal -0.500000000000001 -0.866025403784438 0.0
outer loop
vertex 9.28046613075259 47.3163718460144 1.5
vertex 8.28635358105717 48.0791812344843 2.46747067222941e-15
vertex 9.28046613075259 47.3163718460144 2.46747067222941e-15
endloop
endfacet
facet normal -0.707106781186547 -0.707106781186548 0.0
outer loop
vertex 8.28635358105717 48.0791812344843 2.46747067222941e-15
vertex 9.28046613075259 47.3163718460144 1.5
vertex 8.28635358105717 48.0791812344843 1.5
endloop
endfacet
facet normal -0.707106781186547 0.707106781186548 0.0
outer loop
vertex 8.28635358105717 54.8674063338752 1.5
vertex 9.2804661307526 55.630215722345 2.46747067222941e-15
vertex 8.28635358105717 54.8674063338752 2.46747067222941e-15
endloop
endfacet
facet normal -0.499999999999999 0.866025403784439 0.0
outer loop
vertex 9.2804661307526 55.630215722345 2.46747067222941e-15
vertex 8.28635358105717 54.8674063338752 1.5
vertex 9.2804661307526 55.630215722345 1.5
endloop
endfacet
facet normal 1.0 -0.0 -0.0
outer loop
vertex 1.58046613075259 57.4732937841797 0.0
vertex 1.58046613075259 56.3732937841797 1.5
vertex 1.58046613075259 56.3732937841797 0.0
endloop
endfacet
facet normal 1.0 -0.0 -0.0
outer loop
vertex 1.58046613075259 56.3732937841797 1.5
vertex 1.58046613075259 57.4732937841797 0.0
vertex 1.58046613075259 57.4732937841797 1.5
endloop
endfacet
facet normal -1.0 -2.22777747391173e-16 0.0
outer loop
vertex 18.5804661307526 51.4732937841797 1.5
vertex 18.376021088487 49.9203795135646 0.0
vertex 18.376021088487 49.9203795135646 1.5
endloop
endfacet
facet normal -0.965925826289068 0.258819045102522 0.0
outer loop
vertex 18.376021088487 49.9203795135646 0.0
vertex 18.5804661307526 51.4732937841797 1.5
vertex 18.5804661307526 51.4732937841797 0.0
endloop
endfacet
facet normal -0.707106781186547 0.707106781186548 0.0
outer loop
vertex 8.28635358105717 54.8674063338752 1.5
vertex 7.52354419258729 53.8732937841797 2.46747067222941e-15
vertex 7.52354419258729 53.8732937841797 1.5
endloop
endfacet
facet normal -0.866025403784439 0.499999999999999 0.0
outer loop
vertex 7.52354419258729 53.8732937841797 2.46747067222941e-15
vertex 8.28635358105717 54.8674063338752 1.5
vertex 8.28635358105717 54.8674063338752 2.46747067222941e-15
endloop
endfacet
facet normal -0.258819045102522 -0.965925826289068 0.0
outer loop
vertex 10.4381347142605 46.8368498179922 1.5
vertex 9.28046613075259 47.3163718460144 2.46747067222941e-15
vertex 10.4381347142605 46.8368498179922 2.46747067222941e-15
endloop
endfacet
facet normal -0.500000000000001 -0.866025403784438 0.0
outer loop
vertex 9.28046613075259 47.3163718460144 2.46747067222941e-15
vertex 10.4381347142605 46.8368498179922 1.5
vertex 9.28046613075259 47.3163718460144 1.5
endloop
endfacet
facet normal -0.0 -0.0 1.0
outer loop
vertex 12.5804661307526 45.4732937841797 0.0
vertex 1.58046613075259 46.5732937841797 0.0
vertex 1.58046613075259 45.4732937841797 0.0
endloop
endfacet
facet normal -0.0 -0.0 1.0
outer loop
vertex 1.58046613075259 46.5732937841797 0.0
vertex 12.5804661307526 45.4732937841797 0.0
vertex 9.28046613075259 47.3163718460144 2.46747067222941e-15
endloop
endfacet
facet normal -0.0 -0.0 1.0
outer loop
vertex 1.58046613075259 46.5732937841797 0.0
vertex 9.28046613075259 47.3163718460144 2.46747067222941e-15
vertex 8.28635358105717 48.0791812344843 2.46747067222941e-15
endloop
endfacet
facet normal -0.0 -0.0 1.0
outer loop
vertex 1.58046613075259 46.5732937841797 0.0
vertex 8.28635358105717 48.0791812344843 2.46747067222941e-15
vertex 1.58046613075259 56.3732937841797 0.0
endloop
endfacet
facet normal -0.0 -0.0 1.0
outer loop
vertex 1.58046613075259 56.3732937841797 0.0
vertex 8.28635358105717 48.0791812344843 2.46747067222941e-15
vertex 7.52354419258729 49.0732937841797 2.46747067222941e-15
endloop
endfacet
facet normal -0.0 -0.0 1.0
outer loop
vertex 1.58046613075259 56.3732937841797 0.0
vertex 7.52354419258729 49.0732937841797 2.46747067222941e-15
vertex 1.58046613075259 57.4732937841797 0.0
endloop
endfacet
facet normal -0.0 -0.0 1.0
outer loop
vertex 1.58046613075259 57.4732937841797 0.0
vertex 7.52354419258729 49.0732937841797 2.46747067222941e-15
vertex 7.04402216456507 50.2309623676876 2.46747067222941e-15
endloop
endfacet
facet normal -0.0 -0.0 1.0
outer loop
vertex 1.58046613075259 57.4732937841797 0.0
vertex 7.04402216456507 50.2309623676876 2.46747067222941e-15
vertex 6.88046613075259 51.4732937841797 2.46747067222941e-15
endloop
endfacet
facet normal -0.0 -0.0 1.0
outer loop
vertex 9.28046613075259 47.3163718460144 2.46747067222941e-15
vertex 12.5804661307526 45.4732937841797 0.0
vertex 10.4381347142605 46.8368498179922 2.46747067222941e-15
endloop
endfacet
facet normal -0.0 -0.0 1.0
outer loop
vertex 10.4381347142605 46.8368498179922 2.46747067222941e-15
vertex 12.5804661307526 45.4732937841797 0.0
vertex 11.6804661307526 46.6732937841797 2.46747067222941e-15
endloop
endfacet
facet normal -0.0 -0.0 1.0
outer loop
vertex 11.6804661307526 46.6732937841797 2.46747067222941e-15
vertex 12.5804661307526 45.4732937841797 0.0
vertex 12.9227975472447 46.8368498179922 2.46747067222941e-15
endloop
endfacet
facet normal -0.0 -0.0 1.0
outer loop
vertex 12.9227975472447 46.8368498179922 2.46747067222941e-15
vertex 12.5804661307526 45.4732937841797 0.0
vertex 14.1333804013677 45.6777388264453 0.0
endloop
endfacet
facet normal -0.0 -0.0 1.0
outer loop
vertex 12.9227975472447 46.8368498179922 2.46747067222941e-15
vertex 14.1333804013677 45.6777388264453 0.0
vertex 14.0804661307526 47.3163718460144 2.46747067222941e-15
endloop
endfacet
facet normal -0.0 -0.0 1.0
outer loop
vertex 14.0804661307526 47.3163718460144 2.46747067222941e-15
vertex 14.1333804013677 45.6777388264453 0.0
vertex 15.074578680448 48.0791812344843 2.46747067222941e-15
endloop
endfacet
facet normal -0.0 -0.0 1.0
outer loop
vertex 15.074578680448 48.0791812344843 2.46747067222941e-15
vertex 14.1333804013677 45.6777388264453 0.0
vertex 15.5804661307526 46.2771413614731 0.0
endloop
endfacet
facet normal -0.0 -0.0 1.0
outer loop
vertex 15.074578680448 48.0791812344843 2.46747067222941e-15
vertex 15.5804661307526 46.2771413614731 0.0
vertex 15.8373880689179 49.0732937841797 2.46747067222941e-15
endloop
endfacet
facet normal -0.0 -0.0 1.0
outer loop
vertex 15.8373880689179 49.0732937841797 2.46747067222941e-15
vertex 15.5804661307526 46.2771413614731 0.0
vertex 16.8231068178719 47.2306530970604 0.0
endloop
endfacet
facet normal -0.0 -0.0 1.0
outer loop
vertex 15.8373880689179 49.0732937841797 2.46747067222941e-15
vertex 16.8231068178719 47.2306530970604 0.0
vertex 16.3169100969401 50.2309623676876 2.46747067222941e-15
endloop
endfacet
facet normal -0.0 -0.0 1.0
outer loop
vertex 16.3169100969401 50.2309623676876 2.46747067222941e-15
vertex 16.8231068178719 47.2306530970604 0.0
vertex 16.4804661307526 51.4732937841797 2.46747067222941e-15
endloop
endfacet
facet normal -0.0 -0.0 1.0
outer loop
vertex 1.58046613075259 57.4732937841797 0.0
vertex 9.2804661307526 55.630215722345 2.46747067222941e-15
vertex 12.5804661307526 57.4732937841797 0.0
endloop
endfacet
facet normal -0.0 -0.0 1.0
outer loop
vertex 9.2804661307526 55.630215722345 2.46747067222941e-15
vertex 1.58046613075259 57.4732937841797 0.0
vertex 8.28635358105717 54.8674063338752 2.46747067222941e-15
endloop
endfacet
facet normal -0.0 -0.0 1.0
outer loop
vertex 8.28635358105717 54.8674063338752 2.46747067222941e-15
vertex 1.58046613075259 57.4732937841797 0.0
vertex 7.52354419258729 53.8732937841797 2.46747067222941e-15
endloop
endfacet
facet normal -0.0 -0.0 1.0
outer loop
vertex 7.52354419258729 53.8732937841797 2.46747067222941e-15
vertex 1.58046613075259 57.4732937841797 0.0
vertex 7.04402216456507 52.7156252006718 2.46747067222941e-15
endloop
endfacet
facet normal -0.0 -0.0 1.0
outer loop
vertex 7.04402216456507 52.7156252006718 2.46747067222941e-15
vertex 1.58046613075259 57.4732937841797 0.0
vertex 6.88046613075259 51.4732937841797 2.46747067222941e-15
endloop
endfacet
facet normal -0.0 -0.0 1.0
outer loop
vertex 12.5804661307526 57.4732937841797 0.0
vertex 9.2804661307526 55.630215722345 2.46747067222941e-15
vertex 10.4381347142605 56.1097377503673 2.46747067222941e-15
endloop
endfacet
facet normal -0.0 -0.0 1.0
outer loop
vertex 12.5804661307526 57.4732937841797 0.0
vertex 10.4381347142605 56.1097377503673 2.46747067222941e-15
vertex 11.6804661307526 56.2732937841797 2.46747067222941e-15
endloop
endfacet
facet normal -0.0 -0.0 1.0
outer loop
vertex 12.5804661307526 57.4732937841797 0.0
vertex 11.6804661307526 56.2732937841797 2.46747067222941e-15
vertex 12.9227975472447 56.1097377503673 2.46747067222941e-15
endloop
endfacet
facet normal -0.0 -0.0 1.0
outer loop
vertex 12.5804661307526 57.4732937841797 0.0
vertex 12.9227975472447 56.1097377503673 2.46747067222941e-15
vertex 14.1333804013677 57.2688487419141 0.0
endloop
endfacet
facet normal -0.0 -0.0 1.0
outer loop
vertex 14.1333804013677 57.2688487419141 0.0
vertex 12.9227975472447 56.1097377503673 2.46747067222941e-15
vertex 14.0804661307526 55.630215722345 2.46747067222941e-15
endloop
endfacet
facet normal -0.0 -0.0 1.0
outer loop
vertex 14.1333804013677 57.2688487419141 0.0
vertex 14.0804661307526 55.630215722345 2.46747067222941e-15
vertex 15.074578680448 54.8674063338752 2.46747067222941e-15
endloop
endfacet
facet normal -0.0 -0.0 1.0
outer loop
vertex 14.1333804013677 57.2688487419141 0.0
vertex 15.074578680448 54.8674063338752 2.46747067222941e-15
vertex 15.5804661307526 56.6694462068864 0.0
endloop
endfacet
facet normal -0.0 -0.0 1.0
outer loop
vertex 15.5804661307526 56.6694462068864 0.0
vertex 15.074578680448 54.8674063338752 2.46747067222941e-15
vertex 15.8373880689179 53.8732937841797 2.46747067222941e-15
endloop
endfacet
facet normal -0.0 -0.0 1.0
outer loop
vertex 15.5804661307526 56.6694462068864 0.0
vertex 15.8373880689179 53.8732937841797 2.46747067222941e-15
vertex 16.8231068178719 55.715934471299 0.0
endloop
endfacet
facet normal -0.0 -0.0 1.0
outer loop
vertex 16.8231068178719 55.715934471299 0.0
vertex 15.8373880689179 53.8732937841797 2.46747067222941e-15
vertex 16.3169100969401 52.7156252006718 2.46747067222941e-15
endloop
endfacet
facet normal -0.0 -0.0 1.0
outer loop
vertex 16.8231068178719 55.715934471299 0.0
vertex 16.3169100969401 52.7156252006718 2.46747067222941e-15
vertex 16.4804661307526 51.4732937841797 2.46747067222941e-15
endloop
endfacet
facet normal -0.0 -0.0 1.0
outer loop
vertex 16.8231068178719 55.715934471299 0.0
vertex 16.4804661307526 51.4732937841797 2.46747067222941e-15
vertex 16.8231068178719 47.2306530970604 0.0
endloop
endfacet
facet normal -0.0 -0.0 1.0
outer loop
vertex 16.8231068178719 55.715934471299 0.0
vertex 16.8231068178719 47.2306530970604 0.0
vertex 17.7766185534592 48.4732937841797 0.0
endloop
endfacet
facet normal -0.0 -0.0 1.0
outer loop
vertex 16.8231068178719 55.715934471299 0.0
vertex 17.7766185534592 48.4732937841797 0.0
vertex 17.7766185534592 54.4732937841797 0.0
endloop
endfacet
facet normal -0.0 -0.0 1.0
outer loop
vertex 17.7766185534592 54.4732937841797 0.0
vertex 17.7766185534592 48.4732937841797 0.0
vertex 18.376021088487 49.9203795135646 0.0
endloop
endfacet
facet normal -0.0 -0.0 1.0
outer loop
vertex 17.7766185534592 54.4732937841797 0.0
vertex 18.376021088487 49.9203795135646 0.0
vertex 18.376021088487 53.0262080547948 0.0
endloop
endfacet
facet normal -0.0 -0.0 1.0
outer loop
vertex 18.376021088487 53.0262080547948 0.0
vertex 18.376021088487 49.9203795135646 0.0
vertex 18.5804661307526 51.4732937841797 0.0
endloop
endfacet
facet normal -0.0 -0.0 1.0
outer loop
vertex 1.58046613075259 46.5732937841797 0.0
vertex -0.0195338692474058 56.3732937841797 0.0
vertex -0.0195338692474058 46.5732937841797 0.0
endloop
endfacet
facet normal -0.0 -0.0 1.0
outer loop
vertex -0.0195338692474058 56.3732937841797 0.0
vertex 1.58046613075259 46.5732937841797 0.0
vertex 1.58046613075259 56.3732937841797 0.0
endloop
endfacet
facet normal 0.0 0.0 -1.0
outer loop
vertex 6.58046613075259 57.4732937841797 1.5
vertex 7.04402216456507 52.7156252006718 1.5
vertex 6.88046613075259 51.4732937841797 1.5
endloop
endfacet
facet normal 0.0 0.0 -1.0
outer loop
vertex 7.04402216456507 52.7156252006718 1.5
vertex 6.58046613075259 57.4732937841797 1.5
vertex 7.52354419258729 53.8732937841797 1.5
endloop
endfacet
facet normal 0.0 0.0 -1.0
outer loop
vertex 7.52354419258729 53.8732937841797 1.5
vertex 6.58046613075259 57.4732937841797 1.5
vertex 8.28635358105717 54.8674063338752 1.5
endloop
endfacet
facet normal 0.0 0.0 -1.0
outer loop
vertex 8.28635358105717 54.8674063338752 1.5
vertex 6.58046613075259 57.4732937841797 1.5
vertex 9.2804661307526 55.630215722345 1.5
endloop
endfacet
facet normal 0.0 0.0 -1.0
outer loop
vertex 9.2804661307526 55.630215722345 1.5
vertex 6.58046613075259 57.4732937841797 1.5
vertex 12.5804661307526 57.4732937841797 1.5
endloop
endfacet
facet normal 0.0 0.0 -1.0
outer loop
vertex 9.2804661307526 55.630215722345 1.5
vertex 12.5804661307526 57.4732937841797 1.5
vertex 10.4381347142605 56.1097377503673 1.5
endloop
endfacet
facet normal 0.0 0.0 -1.0
outer loop
vertex 10.4381347142605 56.1097377503673 1.5
vertex 12.5804661307526 57.4732937841797 1.5
vertex 11.6804661307526 56.2732937841797 1.5
endloop
endfacet
facet normal 0.0 0.0 -1.0
outer loop
vertex 11.6804661307526 56.2732937841797 1.5
vertex 12.5804661307526 57.4732937841797 1.5
vertex 12.9227975472447 56.1097377503673 1.5
endloop
endfacet
facet normal 0.0 0.0 -1.0
outer loop
vertex 12.9227975472447 56.1097377503673 1.5
vertex 12.5804661307526 57.4732937841797 1.5
vertex 14.1333804013677 57.2688487419141 1.5
endloop
endfacet
facet normal 0.0 0.0 -1.0
outer loop
vertex 12.9227975472447 56.1097377503673 1.5
vertex 14.1333804013677 57.2688487419141 1.5
vertex 14.0804661307526 55.630215722345 1.5
endloop
endfacet
facet normal 0.0 0.0 -1.0
outer loop
vertex 14.0804661307526 55.630215722345 1.5
vertex 14.1333804013677 57.2688487419141 1.5
vertex 15.074578680448 54.8674063338752 1.5
endloop
endfacet
facet normal 0.0 0.0 -1.0
outer loop
vertex 15.074578680448 54.8674063338752 1.5
vertex 14.1333804013677 57.2688487419141 1.5
vertex 15.5804661307526 56.6694462068864 1.5
endloop
endfacet
facet normal 0.0 0.0 -1.0
outer loop
vertex 15.074578680448 54.8674063338752 1.5
vertex 15.5804661307526 56.6694462068864 1.5
vertex 15.8373880689179 53.8732937841797 1.5
endloop
endfacet
facet normal 0.0 0.0 -1.0
outer loop
vertex 15.8373880689179 53.8732937841797 1.5
vertex 15.5804661307526 56.6694462068864 1.5
vertex 16.8231068178719 55.715934471299 1.5
endloop
endfacet
facet normal 0.0 0.0 -1.0
outer loop
vertex 15.8373880689179 53.8732937841797 1.5
vertex 16.8231068178719 55.715934471299 1.5
vertex 16.3169100969401 52.7156252006718 1.5
endloop
endfacet
facet normal 0.0 0.0 -1.0
outer loop
vertex 16.3169100969401 52.7156252006718 1.5
vertex 16.8231068178719 55.715934471299 1.5
vertex 16.4804661307526 51.4732937841797 1.5
endloop
endfacet
facet normal 0.0 0.0 -1.0
outer loop
vertex 16.4804661307526 51.4732937841797 1.5
vertex 16.8231068178719 55.715934471299 1.5
vertex 16.8231068178719 47.2306530970604 1.5
endloop
endfacet
facet normal 0.0 0.0 -1.0
outer loop
vertex 16.8231068178719 47.2306530970604 1.5
vertex 16.8231068178719 55.715934471299 1.5
vertex 17.7766185534592 48.4732937841797 1.5
endloop
endfacet
facet normal 0.0 0.0 -1.0
outer loop
vertex 17.7766185534592 48.4732937841797 1.5
vertex 16.8231068178719 55.715934471299 1.5
vertex 17.7766185534592 54.4732937841797 1.5
endloop
endfacet
facet normal 0.0 0.0 -1.0
outer loop
vertex 17.7766185534592 48.4732937841797 1.5
vertex 17.7766185534592 54.4732937841797 1.5
vertex 18.376021088487 49.9203795135646 1.5
endloop
endfacet
facet normal 0.0 0.0 -1.0
outer loop
vertex 18.376021088487 49.9203795135646 1.5
vertex 17.7766185534592 54.4732937841797 1.5
vertex 18.376021088487 53.0262080547948 1.5
endloop
endfacet
facet normal 0.0 0.0 -1.0
outer loop
vertex 18.376021088487 49.9203795135646 1.5
vertex 18.376021088487 53.0262080547948 1.5
vertex 18.5804661307526 51.4732937841797 1.5
endloop
endfacet
facet normal 0.0 0.0 -1.0
outer loop
vertex 6.58046613075259 45.4732937841797 1.5
vertex 9.28046613075259 47.3163718460144 1.5
vertex 12.5804661307526 45.4732937841797 1.5
endloop
endfacet
facet normal 0.0 0.0 -1.0
outer loop
vertex 9.28046613075259 47.3163718460144 1.5
vertex 6.58046613075259 45.4732937841797 1.5
vertex 8.28635358105717 48.0791812344843 1.5
endloop
endfacet
facet normal 0.0 0.0 -1.0
outer loop
vertex 8.28635358105717 48.0791812344843 1.5
vertex 6.58046613075259 45.4732937841797 1.5
vertex 7.52354419258729 49.0732937841797 1.5
endloop
endfacet
facet normal 0.0 0.0 -1.0
outer loop
vertex 7.52354419258729 49.0732937841797 1.5
vertex 6.58046613075259 45.4732937841797 1.5
vertex 7.04402216456507 50.2309623676876 1.5
endloop
endfacet
facet normal 0.0 0.0 -1.0
outer loop
vertex 7.04402216456507 50.2309623676876 1.5
vertex 6.58046613075259 45.4732937841797 1.5
vertex 6.88046613075259 51.4732937841797 1.5
endloop
endfacet
facet normal 0.0 0.0 -1.0
outer loop
vertex 6.88046613075259 51.4732937841797 1.5
vertex 6.58046613075259 45.4732937841797 1.5
vertex 6.58046613075259 57.4732937841797 1.5
endloop
endfacet
facet normal 0.0 0.0 -1.0
outer loop
vertex 12.5804661307526 45.4732937841797 1.5
vertex 9.28046613075259 47.3163718460144 1.5
vertex 10.4381347142605 46.8368498179922 1.5
endloop
endfacet
facet normal 0.0 0.0 -1.0
outer loop
vertex 12.5804661307526 45.4732937841797 1.5
vertex 10.4381347142605 46.8368498179922 1.5
vertex 11.6804661307526 46.6732937841797 1.5
endloop
endfacet
facet normal 0.0 0.0 -1.0
outer loop
vertex 12.5804661307526 45.4732937841797 1.5
vertex 11.6804661307526 46.6732937841797 1.5
vertex 12.9227975472447 46.8368498179922 1.5
endloop
endfacet
facet normal 0.0 0.0 -1.0
outer loop
vertex 12.5804661307526 45.4732937841797 1.5
vertex 12.9227975472447 46.8368498179922 1.5
vertex 14.1333804013677 45.6777388264453 1.5
endloop
endfacet
facet normal 0.0 0.0 -1.0
outer loop
vertex 14.1333804013677 45.6777388264453 1.5
vertex 12.9227975472447 46.8368498179922 1.5
vertex 14.0804661307526 47.3163718460144 1.5
endloop
endfacet
facet normal 0.0 0.0 -1.0
outer loop
vertex 14.1333804013677 45.6777388264453 1.5
vertex 14.0804661307526 47.3163718460144 1.5
vertex 15.074578680448 48.0791812344843 1.5
endloop
endfacet
facet normal 0.0 0.0 -1.0
outer loop
vertex 14.1333804013677 45.6777388264453 1.5
vertex 15.074578680448 48.0791812344843 1.5
vertex 15.5804661307526 46.2771413614731 1.5
endloop
endfacet
facet normal 0.0 0.0 -1.0
outer loop
vertex 15.5804661307526 46.2771413614731 1.5
vertex 15.074578680448 48.0791812344843 1.5
vertex 15.8373880689179 49.0732937841797 1.5
endloop
endfacet
facet normal 0.0 0.0 -1.0
outer loop
vertex 15.5804661307526 46.2771413614731 1.5
vertex 15.8373880689179 49.0732937841797 1.5
vertex 16.8231068178719 47.2306530970604 1.5
endloop
endfacet
facet normal 0.0 0.0 -1.0
outer loop
vertex 16.8231068178719 47.2306530970604 1.5
vertex 15.8373880689179 49.0732937841797 1.5
vertex 16.3169100969401 50.2309623676876 1.5
endloop
endfacet
facet normal 0.0 0.0 -1.0
outer loop
vertex 16.8231068178719 47.2306530970604 1.5
vertex 16.3169100969401 50.2309623676876 1.5
vertex 16.4804661307526 51.4732937841797 1.5
endloop
endfacet
facet normal -0.866025403784438 0.500000000000001 0.0
outer loop
vertex 17.7766185534592 48.4732937841797 1.5
vertex 16.8231068178719 47.2306530970604 0.0
vertex 16.8231068178719 47.2306530970604 1.5
endloop
endfacet
facet normal -0.707106781186549 0.707106781186546 0.0
outer loop
vertex 16.8231068178719 47.2306530970604 0.0
vertex 17.7766185534592 48.4732937841797 1.5
vertex 17.7766185534592 48.4732937841797 0.0
endloop
endfacet
facet normal -0.965925826289068 0.258819045102522 0.0
outer loop
vertex 18.376021088487 49.9203795135646 1.5
vertex 17.7766185534592 48.4732937841797 0.0
vertex 17.7766185534592 48.4732937841797 1.5
endloop
endfacet
facet normal -0.866025403784438 0.500000000000001 0.0
outer loop
vertex 17.7766185534592 48.4732937841797 0.0
vertex 18.376021088487 49.9203795135646 1.5
vertex 18.376021088487 49.9203795135646 0.0
endloop
endfacet
facet normal -0.5 0.866025403784439 0.0
outer loop
vertex 15.5804661307526 46.2771413614731 1.5
vertex 16.8231068178719 47.2306530970604 0.0
vertex 15.5804661307526 46.2771413614731 0.0
endloop
endfacet
facet normal -0.707106781186549 0.707106781186546 0.0
outer loop
vertex 16.8231068178719 47.2306530970604 0.0
vertex 15.5804661307526 46.2771413614731 1.5
vertex 16.8231068178719 47.2306530970604 1.5
endloop
endfacet
facet normal 1.0 -0.0 -0.0
outer loop
vertex 1.58046613075259 46.5732937841797 0.0
vertex 1.58046613075259 45.4732937841797 1.5
vertex 1.58046613075259 45.4732937841797 0.0
endloop
endfacet
facet normal 1.0 -0.0 -0.0
outer loop
vertex 1.58046613075259 45.4732937841797 1.5
vertex 1.58046613075259 46.5732937841797 0.0
vertex 1.58046613075259 46.5732937841797 1.5
endloop
endfacet
facet normal -0.707106781186549 -0.707106781186546 0.0
outer loop
vertex 16.8231068178719 55.715934471299 1.5
vertex 17.7766185534592 54.4732937841797 0.0
vertex 17.7766185534592 54.4732937841797 1.5
endloop
endfacet
facet normal -0.866025403784439 -0.499999999999999 0.0
outer loop
vertex 17.7766185534592 54.4732937841797 0.0
vertex 16.8231068178719 55.715934471299 1.5
vertex 16.8231068178719 55.715934471299 0.0
endloop
endfacet
facet normal -0.25881904510252 0.965925826289069 0.0
outer loop
vertex 14.1333804013677 45.6777388264453 1.5
vertex 15.5804661307526 46.2771413614731 0.0
vertex 14.1333804013677 45.6777388264453 0.0
endloop
endfacet
facet normal -0.5 0.866025403784439 0.0
outer loop
vertex 15.5804661307526 46.2771413614731 0.0
vertex 14.1333804013677 45.6777388264453 1.5
vertex 15.5804661307526 46.2771413614731 1.5
endloop
endfacet
facet normal 0.0 -1.0 0.0
outer loop
vertex 12.5804661307526 57.4732937841797 1.5
vertex 1.58046613075259 57.4732937841797 0.0
vertex 12.5804661307526 57.4732937841797 0.0
endloop
endfacet
facet normal 0.0 -1.0 0.0
outer loop
vertex 1.58046613075259 57.4732937841797 0.0
vertex 12.5804661307526 57.4732937841797 1.5
vertex 1.58046613075259 57.4732937841797 1.5
endloop
endfacet
facet normal 0.0 -1.0 0.0
outer loop
vertex 1.58046613075259 57.4732937841797 1.5
vertex 12.5804661307526 57.4732937841797 1.5
vertex 6.58046613075259 57.4732937841797 1.5
endloop
endfacet
facet normal -0.0 1.0 -0.0
outer loop
vertex 1.58046613075259 45.4732937841797 1.5
vertex 12.5804661307526 45.4732937841797 0.0
vertex 1.58046613075259 45.4732937841797 0.0
endloop
endfacet
facet normal -0.0 1.0 -0.0
outer loop
vertex 12.5804661307526 45.4732937841797 0.0
vertex 1.58046613075259 45.4732937841797 1.5
vertex 12.5804661307526 45.4732937841797 1.5
endloop
endfacet
facet normal -0.0 1.0 -0.0
outer loop
vertex 12.5804661307526 45.4732937841797 1.5
vertex 1.58046613075259 45.4732937841797 1.5
vertex 6.58046613075259 45.4732937841797 1.5
endloop
endfacet
facet normal 1.65232411086791e-15 9.74094815680354e-47 -1.0
outer loop
vertex 1.58046613075258 56.3732937841797 7.8
vertex -0.0195338692474162 46.5732937841797 7.8
vertex -0.0195338692474162 56.3732937841797 7.8
endloop
endfacet
facet normal 1.65232411086791e-15 9.74094815680354e-47 -1.0
outer loop
vertex -0.0195338692474162 46.5732937841797 7.8
vertex 1.58046613075258 56.3732937841797 7.8
vertex 1.58046613075258 46.5732937841797 7.8
endloop
endfacet
facet normal -0.130526192220052 0.99144486137381 -0.0
outer loop
vertex 12.5804661307526 45.4732937841797 1.5
vertex 14.1333804013677 45.6777388264453 0.0
vertex 12.5804661307526 45.4732937841797 0.0
endloop
endfacet
facet normal -0.25881904510252 0.965925826289069 0.0
outer loop
vertex 14.1333804013677 45.6777388264453 0.0
vertex 12.5804661307526 45.4732937841797 1.5
vertex 14.1333804013677 45.6777388264453 1.5
endloop
endfacet
facet normal -0.965925826289068 -0.258819045102521 0.0
outer loop
vertex 18.376021088487 53.0262080547948 1.5
vertex 18.5804661307526 51.4732937841797 0.0
vertex 18.5804661307526 51.4732937841797 1.5
endloop
endfacet
facet normal -1.0 -2.22777747391173e-16 0.0
outer loop
vertex 18.5804661307526 51.4732937841797 0.0
vertex 18.376021088487 53.0262080547948 1.5
vertex 18.376021088487 53.0262080547948 0.0
endloop
endfacet
facet normal -0.707106781186549 -0.707106781186546 0.0
outer loop
vertex 16.8231068178719 55.715934471299 1.5
vertex 15.5804661307526 56.6694462068864 0.0
vertex 16.8231068178719 55.715934471299 0.0
endloop
endfacet
facet normal -0.5 -0.866025403784438 0.0
outer loop
vertex 15.5804661307526 56.6694462068864 0.0
vertex 16.8231068178719 55.715934471299 1.5
vertex 15.5804661307526 56.6694462068864 1.5
endloop
endfacet
facet normal 0.0 0.0 -1.0
outer loop
vertex 6.58046613075259 57.4732937841797 1.5
vertex 1.58046613075259 56.3732937841797 1.5
vertex 1.58046613075259 57.4732937841797 1.5
endloop
endfacet
facet normal 0.0 0.0 -1.0
outer loop
vertex 1.58046613075259 56.3732937841797 1.5
vertex 6.58046613075259 57.4732937841797 1.5
vertex 1.58046613075259 55.3732937841797 1.5
endloop
endfacet
facet normal -0.866025403784439 -0.499999999999999 0.0
outer loop
vertex 17.7766185534592 54.4732937841797 1.5
vertex 18.376021088487 53.0262080547948 0.0
vertex 18.376021088487 53.0262080547948 1.5
endloop
endfacet
facet normal -0.965925826289068 -0.258819045102521 0.0
outer loop
vertex 18.376021088487 53.0262080547948 0.0
vertex 17.7766185534592 54.4732937841797 1.5
vertex 17.7766185534592 54.4732937841797 0.0
endloop
endfacet
facet normal 0.0 0.0 -1.0
outer loop
vertex 6.58046613075259 45.4732937841797 1.5
vertex 1.58046613075259 46.5732937841797 1.5
vertex 1.58046613075259 47.5732937841797 1.5
endloop
endfacet
facet normal 0.0 0.0 -1.0
outer loop
vertex 1.58046613075259 46.5732937841797 1.5
vertex 6.58046613075259 45.4732937841797 1.5
vertex 1.58046613075259 45.4732937841797 1.5
endloop
endfacet
facet normal -0.25881904510252 -0.965925826289069 0.0
outer loop
vertex 14.1333804013677 57.2688487419141 1.5
vertex 12.5804661307526 57.4732937841797 0.0
vertex 14.1333804013677 57.2688487419141 0.0
endloop
endfacet
facet normal -0.130526192220051 -0.99144486137381 -0.0
outer loop
vertex 12.5804661307526 57.4732937841797 0.0
vertex 14.1333804013677 57.2688487419141 1.5
vertex 12.5804661307526 57.4732937841797 1.5
endloop
endfacet
facet normal -1.0 3.12084826388672e-17 -1.59109913624652e-15
outer loop
vertex 1.58046613075258 46.5732937841797 7.8
vertex 1.58046613075259 47.5732937841797 4.65
vertex 1.58046613075259 46.5732937841797 1.5
endloop
endfacet
facet normal -1.0 3.12084826388672e-17 -1.59109913624652e-15
outer loop
vertex 1.58046613075259 47.5732937841797 4.65
vertex 1.58046613075258 46.5732937841797 7.8
vertex 1.58046613075258 56.3732937841797 7.8
endloop
endfacet
facet normal -1.0 3.12084826388672e-17 -1.59109913624652e-15
outer loop
vertex 1.58046613075259 47.5732937841797 4.65
vertex 1.58046613075258 56.3732937841797 7.8
vertex 1.58046613075259 55.3732937841797 4.65
endloop
endfacet
facet normal -1.0 3.12084826388672e-17 -1.59109913624652e-15
outer loop
vertex 1.58046613075259 55.3732937841797 4.65
vertex 1.58046613075258 56.3732937841797 7.8
vertex 1.58046613075259 55.3732937841797 1.5
endloop
endfacet
facet normal -1.0 3.12084826388672e-17 -1.59109913624652e-15
outer loop
vertex 1.58046613075259 55.3732937841797 1.5
vertex 1.58046613075258 56.3732937841797 7.8
vertex 1.58046613075259 56.3732937841797 1.5
endloop
endfacet
facet normal -1.0 3.12084826388672e-17 -1.59109913624652e-15
outer loop
vertex 1.58046613075259 47.5732937841797 1.5
vertex 1.58046613075259 46.5732937841797 1.5
vertex 1.58046613075259 47.5732937841797 4.65
endloop
endfacet
facet normal -0.0 1.0 -0.0
outer loop
vertex -0.0195338692474162 46.5732937841797 7.8
vertex 1.58046613075259 46.5732937841797 0.0
vertex -0.0195338692474058 46.5732937841797 0.0
endloop
endfacet
facet normal -0.0 1.0 -0.0
outer loop
vertex 1.58046613075259 46.5732937841797 0.0
vertex -0.0195338692474162 46.5732937841797 7.8
vertex 1.58046613075259 46.5732937841797 1.5
endloop
endfacet
facet normal -0.0 1.0 -0.0
outer loop
vertex 1.58046613075259 46.5732937841797 1.5
vertex -0.0195338692474162 46.5732937841797 7.8
vertex 1.58046613075258 46.5732937841797 7.8
endloop
endfacet
endsolid Plotter-v3-z-PenMount
