solid Plotter-v3-z-PenMount
facet normal -0.500000000000002 0.866025403784437 -4.37177421000469e-17
outer loop
vertex 2.19535121944298 72.0295134279085 4.0
vertex 4.14390837795796 73.1545134279085 0.0
vertex 2.19535121944298 72.0295134279085 0.0
endloop
endfacet
facet normal -0.500000000000002 0.866025403784437 -4.37177421000469e-17
outer loop
vertex 4.14390837795796 73.1545134279085 0.0
vertex 2.19535121944298 72.0295134279085 4.0
vertex 4.14390837795796 73.1545134279085 4.0
endloop
endfacet
facet normal -0.866025403784439 -0.5 0.0
outer loop
vertex -1.04567418434146 75.6431340958846 4.0
vertex 1.32932581565854 71.5295134279085 0.0
vertex 1.32932581565854 71.5295134279085 4.0
endloop
endfacet
facet normal -0.866025403784439 -0.5 0.0
outer loop
vertex 1.32932581565854 71.5295134279085 0.0
vertex -1.04567418434146 75.6431340958846 4.0
vertex -1.04567418434146 75.6431340958846 -2.07659274975222e-16
endloop
endfacet
facet normal 0.608761429008725 -0.793353340291232 -1.33507885887089e-15
outer loop
vertex 5.88252904593405 79.6431340958846 4.0
vertex 4.89877183529795 78.8882706385446 2.11497486191092e-15
vertex 5.88252904593405 79.6431340958846 0.0
endloop
endfacet
facet normal 0.608761429008725 -0.793353340291232 -1.33507885887089e-15
outer loop
vertex 4.89877183529795 78.8882706385446 2.11497486191092e-15
vertex 5.88252904593405 79.6431340958846 4.0
vertex 4.89877183529795 78.8882706385446 4.00000000000001
endloop
endfacet
facet normal 0.793353340291234 -0.608761429008722 3.15171778203277e-16
outer loop
vertex 4.14390837795797 77.9045134279085 2.11497486191092e-15
vertex 4.89877183529795 78.8882706385446 4.00000000000001
vertex 4.14390837795797 77.9045134279085 4.00000000000001
endloop
endfacet
facet normal 0.793353340291234 -0.608761429008722 3.15171778203277e-16
outer loop
vertex 4.89877183529795 78.8882706385446 4.00000000000001
vertex 4.14390837795797 77.9045134279085 2.11497486191092e-15
vertex 4.89877183529795 78.8882706385446 2.11497486191092e-15
endloop
endfacet
facet normal 0.923879532511288 -0.382683432365088 2.33068311846875e-16
outer loop
vertex 3.66938137106098 76.7589038921455 2.11497486191092e-15
vertex 4.14390837795797 77.9045134279085 4.00000000000001
vertex 3.66938137106098 76.7589038921454 4.00000000000001
endloop
endfacet
facet normal 0.923879532511288 -0.382683432365088 2.33068311846875e-16
outer loop
vertex 4.14390837795797 77.9045134279085 4.00000000000001
vertex 3.66938137106098 76.7589038921455 2.11497486191092e-15
vertex 4.14390837795797 77.9045134279085 2.11497486191092e-15
endloop
endfacet
facet normal 0.991444861373811 -0.130526192220051 1.35081625201707e-16
outer loop
vertex 3.50752904593405 75.5295134279085 2.11497486191092e-15
vertex 3.66938137106098 76.7589038921454 4.00000000000001
vertex 3.50752904593405 75.5295134279085 4.00000000000001
endloop
endfacet
facet normal 0.991444861373811 -0.130526192220051 1.35081625201707e-16
outer loop
vertex 3.66938137106098 76.7589038921454 4.00000000000001
vertex 3.50752904593405 75.5295134279085 2.11497486191092e-15
vertex 3.66938137106098 76.7589038921455 2.11497486191092e-15
endloop
endfacet
facet normal -0.5 0.866025403784439 -4.37177421000467e-17
outer loop
vertex -1.04567418434146 75.6431340958846 4.0
vertex -0.179648780557025 76.1431340958846 -2.07659274975222e-16
vertex -1.04567418434146 75.6431340958846 -2.07659274975222e-16
endloop
endfacet
facet normal -0.5 0.866025403784439 -4.37177421000467e-17
outer loop
vertex -0.179648780557025 76.1431340958846 -2.07659274975222e-16
vertex -1.04567418434146 75.6431340958846 4.0
vertex -0.179648780557026 76.1431340958846 4.0
endloop
endfacet
facet normal 0.866025403784439 0.5 1.52635163231695e-16
outer loop
vertex -0.179648780557025 76.1431340958846 -2.07659274975222e-16
vertex 2.19535121944298 72.0295134279085 4.0
vertex 2.19535121944298 72.0295134279085 0.0
endloop
endfacet
facet normal 0.866025403784439 0.5 1.52635163231695e-16
outer loop
vertex 2.19535121944298 72.0295134279085 4.0
vertex -0.179648780557025 76.1431340958846 -2.07659274975222e-16
vertex -0.179648780557026 76.1431340958846 4.0
endloop
endfacet
facet normal -0.866025403784439 -0.5 -1.03567347214784e-15
outer loop
vertex 2.32002904593405 77.5863237618965 4.0
vertex 3.50752904593405 75.5295134279085 2.11497486191092e-15
vertex 3.50752904593405 75.5295134279085 4.00000000000001
endloop
endfacet
facet normal -0.866025403784439 -0.5 -1.03567347214784e-15
outer loop
vertex 3.50752904593405 75.5295134279085 2.11497486191092e-15
vertex 2.32002904593405 77.5863237618965 4.0
vertex 2.32002904593405 77.5863237618965 1.05462827558444e-15
endloop
endfacet
facet normal -0.86602540378444 -0.499999999999997 0.0
outer loop
vertex 0.14390837795798 80.082716658184 4.0
vertex 1.76890837795797 77.2681340958846 0.0
vertex 1.76890837795797 77.2681340958846 4.0
endloop
endfacet
facet normal -0.86602540378444 -0.499999999999997 0.0
outer loop
vertex 1.76890837795797 77.2681340958846 0.0
vertex 0.14390837795798 80.082716658184 4.0
vertex 0.14390837795798 80.082716658184 0.0
endloop
endfacet
facet normal -0.793353340291233 -0.608761429008723 0.0
outer loop
vertex 4.14390837795796 73.1545134279085 4.0
vertex 4.89877183529795 72.1707562172724 0.0
vertex 4.89877183529795 72.1707562172724 4.0
endloop
endfacet
facet normal -0.707106781186547 -0.707106781186549 0.0
outer loop
vertex 4.89877183529795 72.1707562172724 0.0
vertex 4.14390837795796 73.1545134279085 4.0
vertex 4.14390837795796 73.1545134279085 0.0
endloop
endfacet
facet normal -0.500000000000003 -0.866025403784437 0.0
outer loop
vertex 5.88252904593405 71.4158927599324 4.0
vertex 4.89877183529795 72.1707562172724 0.0
vertex 5.88252904593405 71.4158927599324 0.0
endloop
endfacet
facet normal -0.707106781186547 -0.707106781186549 0.0
outer loop
vertex 4.89877183529795 72.1707562172724 0.0
vertex 5.88252904593405 71.4158927599324 4.0
vertex 4.89877183529795 72.1707562172724 4.0
endloop
endfacet
facet normal -0.258819045102523 -0.965925826289068 0.0
outer loop
vertex 7.02813858169707 70.9413657530354 4.0
vertex 5.88252904593405 71.4158927599324 0.0
vertex 7.02813858169707 70.9413657530354 0.0
endloop
endfacet
facet normal -0.500000000000003 -0.866025403784437 0.0
outer loop
vertex 5.88252904593405 71.4158927599324 0.0
vertex 7.02813858169707 70.9413657530354 4.0
vertex 5.88252904593405 71.4158927599324 4.0
endloop
endfacet
facet normal 2.94066626556348e-16 -1.0 0.0
outer loop
vertex 8.25752904593405 70.7795134279085 4.0
vertex 7.02813858169707 70.9413657530354 0.0
vertex 8.25752904593405 70.7795134279085 0.0
endloop
endfacet
facet normal -0.258819045102523 -0.965925826289068 0.0
outer loop
vertex 7.02813858169707 70.9413657530354 0.0
vertex 8.25752904593405 70.7795134279085 4.0
vertex 7.02813858169707 70.9413657530354 4.0
endloop
endfacet
facet normal 0.258819045102522 -0.965925826289068 0.0
outer loop
vertex 9.48691951017102 70.9413657530354 4.0
vertex 8.25752904593405 70.7795134279085 0.0
vertex 9.48691951017102 70.9413657530354 0.0
endloop
endfacet
facet normal 2.94066626556348e-16 -1.0 0.0
outer loop
vertex 8.25752904593405 70.7795134279085 0.0
vertex 9.48691951017102 70.9413657530354 4.0
vertex 8.25752904593405 70.7795134279085 4.0
endloop
endfacet
facet normal 0.500000000000002 -0.866025403784438 0.0
outer loop
vertex 10.6325290459341 71.4158927599324 4.0
vertex 9.48691951017102 70.9413657530354 0.0
vertex 10.6325290459341 71.4158927599324 0.0
endloop
endfacet
facet normal 0.258819045102522 -0.965925826289068 0.0
outer loop
vertex 9.48691951017102 70.9413657530354 0.0
vertex 10.6325290459341 71.4158927599324 4.0
vertex 9.48691951017102 70.9413657530354 4.0
endloop
endfacet
facet normal 0.707106781186547 -0.707106781186549 0.0
outer loop
vertex 11.6162862565702 72.1707562172724 4.0
vertex 10.6325290459341 71.4158927599324 0.0
vertex 11.6162862565702 72.1707562172724 0.0
endloop
endfacet
facet normal 0.500000000000002 -0.866025403784438 0.0
outer loop
vertex 10.6325290459341 71.4158927599324 0.0
vertex 11.6162862565702 72.1707562172724 4.0
vertex 10.6325290459341 71.4158927599324 4.0
endloop
endfacet
facet normal 0.866025403784437 -0.500000000000003 0.0
outer loop
vertex 12.3711497139101 73.1545134279085 0.0
vertex 11.6162862565702 72.1707562172724 4.0
vertex 11.6162862565702 72.1707562172724 0.0
endloop
endfacet
facet normal 0.707106781186547 -0.707106781186549 0.0
outer loop
vertex 11.6162862565702 72.1707562172724 4.0
vertex 12.3711497139101 73.1545134279085 0.0
vertex 12.3711497139101 73.1545134279085 4.0
endloop
endfacet
facet normal 0.965925826289068 -0.258819045102521 0.0
outer loop
vertex 12.8456767208071 74.3001229636715 0.0
vertex 12.3711497139101 73.1545134279085 4.0
vertex 12.3711497139101 73.1545134279085 0.0
endloop
endfacet
facet normal 0.866025403784437 -0.500000000000003 0.0
outer loop
vertex 12.3711497139101 73.1545134279085 4.0
vertex 12.8456767208071 74.3001229636715 0.0
vertex 12.8456767208071 74.3001229636715 4.0
endloop
endfacet
facet normal 1.0 5.79222143217049e-16 0.0
outer loop
vertex 13.0075290459341 75.5295134279085 0.0
vertex 12.8456767208071 74.3001229636715 4.0
vertex 12.8456767208071 74.3001229636715 0.0
endloop
endfacet
facet normal 0.965925826289068 -0.258819045102521 0.0
outer loop
vertex 12.8456767208071 74.3001229636715 4.0
vertex 13.0075290459341 75.5295134279085 0.0
vertex 13.0075290459341 75.5295134279085 4.0
endloop
endfacet
facet normal 0.965925826289068 0.25881904510252 0.0
outer loop
vertex 12.8456767208071 76.7589038921455 0.0
vertex 13.0075290459341 75.5295134279085 4.0
vertex 13.0075290459341 75.5295134279085 0.0
endloop
endfacet
facet normal 1.0 5.79222143217049e-16 0.0
outer loop
vertex 13.0075290459341 75.5295134279085 4.0
vertex 12.8456767208071 76.7589038921455 0.0
vertex 12.8456767208071 76.7589038921455 4.0
endloop
endfacet
facet normal 0.866025403784438 0.500000000000001 0.0
outer loop
vertex 12.3711497139101 77.9045134279085 0.0
vertex 12.8456767208071 76.7589038921455 4.0
vertex 12.8456767208071 76.7589038921455 0.0
endloop
endfacet
facet normal 0.965925826289068 0.25881904510252 0.0
outer loop
vertex 12.8456767208071 76.7589038921455 4.0
vertex 12.3711497139101 77.9045134279085 0.0
vertex 12.3711497139101 77.9045134279085 4.0
endloop
endfacet
facet normal 0.707106781186547 0.707106781186549 0.0
outer loop
vertex 11.6162862565702 78.8882706385446 0.0
vertex 12.3711497139101 77.9045134279085 4.0
vertex 12.3711497139101 77.9045134279085 0.0
endloop
endfacet
facet normal 0.866025403784438 0.500000000000001 0.0
outer loop
vertex 12.3711497139101 77.9045134279085 4.0
vertex 11.6162862565702 78.8882706385446 0.0
vertex 11.6162862565702 78.8882706385446 4.0
endloop
endfacet
facet normal 0.500000000000002 0.866025403784438 0.0
outer loop
vertex 10.6325290459341 79.6431340958846 4.0
vertex 11.6162862565702 78.8882706385446 0.0
vertex 10.6325290459341 79.6431340958846 0.0
endloop
endfacet
facet normal 0.707106781186547 0.707106781186549 0.0
outer loop
vertex 11.6162862565702 78.8882706385446 0.0
vertex 10.6325290459341 79.6431340958846 4.0
vertex 11.6162862565702 78.8882706385446 4.0
endloop
endfacet
facet normal 0.258819045102522 0.965925826289068 0.0
outer loop
vertex 9.48691951017102 80.1176611027816 4.0
vertex 10.6325290459341 79.6431340958846 0.0
vertex 9.48691951017102 80.1176611027816 0.0
endloop
endfacet
facet normal 0.500000000000002 0.866025403784438 0.0
outer loop
vertex 10.6325290459341 79.6431340958846 0.0
vertex 9.48691951017102 80.1176611027816 4.0
vertex 10.6325290459341 79.6431340958846 4.0
endloop
endfacet
facet normal 0.0 1.0 0.0
outer loop
vertex 8.25752904593405 80.2795134279085 4.0
vertex 9.48691951017102 80.1176611027816 0.0
vertex 8.25752904593405 80.2795134279085 0.0
endloop
endfacet
facet normal 0.258819045102522 0.965925826289068 0.0
outer loop
vertex 9.48691951017102 80.1176611027816 0.0
vertex 8.25752904593405 80.2795134279085 4.0
vertex 9.48691951017102 80.1176611027816 4.0
endloop
endfacet
facet normal -0.258819045102522 0.965925826289068 0.0
outer loop
vertex 7.02813858169707 80.1176611027816 4.0
vertex 8.25752904593405 80.2795134279085 0.0
vertex 7.02813858169707 80.1176611027816 0.0
endloop
endfacet
facet normal 0.0 1.0 0.0
outer loop
vertex 8.25752904593405 80.2795134279085 0.0
vertex 7.02813858169707 80.1176611027816 4.0
vertex 8.25752904593405 80.2795134279085 4.0
endloop
endfacet
facet normal -0.382683432365094 0.923879532511285 -0.0
outer loop
vertex 5.88252904593405 79.6431340958846 4.0
vertex 7.02813858169707 80.1176611027816 0.0
vertex 5.88252904593405 79.6431340958846 0.0
endloop
endfacet
facet normal -0.258819045102522 0.965925826289068 0.0
outer loop
vertex 7.02813858169707 80.1176611027816 0.0
vertex 5.88252904593405 79.6431340958846 4.0
vertex 7.02813858169707 80.1176611027816 4.0
endloop
endfacet
facet normal -3.44175263645767e-17 1.72111659036253e-17 -1.0
outer loop
vertex 4.25752904593406 82.457716658184 0.0
vertex 1.76890837795797 77.2681340958846 0.0
vertex 0.14390837795798 80.082716658184 0.0
endloop
endfacet
facet normal -3.44175263645767e-17 1.72111659036253e-17 -1.0
outer loop
vertex 1.76890837795797 77.2681340958846 0.0
vertex 4.25752904593406 82.457716658184 0.0
vertex 2.32002904593405 77.5863237618965 1.05462827558444e-15
endloop
endfacet
facet normal -3.44175263645767e-17 1.72111659036253e-17 -1.0
outer loop
vertex 2.32002904593405 77.5863237618965 1.05462827558444e-15
vertex 4.25752904593406 82.457716658184 0.0
vertex 3.50752904593405 75.5295134279085 2.11497486191092e-15
endloop
endfacet
facet normal -3.44175263645767e-17 1.72111659036253e-17 -1.0
outer loop
vertex 3.50752904593405 75.5295134279085 2.11497486191092e-15
vertex 4.25752904593406 82.457716658184 0.0
vertex 3.66938137106098 76.7589038921455 2.11497486191092e-15
endloop
endfacet
facet normal -3.44175263645767e-17 1.72111659036253e-17 -1.0
outer loop
vertex 3.66938137106098 76.7589038921455 2.11497486191092e-15
vertex 4.25752904593406 82.457716658184 0.0
vertex 4.14390837795797 77.9045134279085 2.11497486191092e-15
endloop
endfacet
facet normal -3.44175263645767e-17 1.72111659036253e-17 -1.0
outer loop
vertex 4.14390837795797 77.9045134279085 2.11497486191092e-15
vertex 4.25752904593406 82.457716658184 0.0
vertex 4.89877183529795 78.8882706385446 2.11497486191092e-15
endloop
endfacet
facet normal -3.44175263645767e-17 1.72111659036253e-17 -1.0
outer loop
vertex 4.89877183529795 78.8882706385446 2.11497486191092e-15
vertex 4.25752904593406 82.457716658184 0.0
vertex 6.18697668511389 83.256920038221 0.0
endloop
endfacet
facet normal -3.44175263645767e-17 1.72111659036253e-17 -1.0
outer loop
vertex 4.89877183529795 78.8882706385446 2.11497486191092e-15
vertex 6.18697668511389 83.256920038221 0.0
vertex 5.88252904593405 79.6431340958846 0.0
endloop
endfacet
facet normal -3.44175263645767e-17 1.72111659036253e-17 -1.0
outer loop
vertex 5.88252904593405 79.6431340958846 0.0
vertex 6.18697668511389 83.256920038221 0.0
vertex 7.02813858169707 80.1176611027816 0.0
endloop
endfacet
facet normal -3.44175263645767e-17 1.72111659036253e-17 -1.0
outer loop
vertex 7.02813858169707 80.1176611027816 0.0
vertex 6.18697668511389 83.256920038221 0.0
vertex 8.25752904593405 83.5295134279085 0.0
endloop
endfacet
facet normal -3.44175263645767e-17 1.72111659036253e-17 -1.0
outer loop
vertex 7.02813858169707 80.1176611027816 0.0
vertex 8.25752904593405 83.5295134279085 0.0
vertex 8.25752904593405 80.2795134279085 0.0
endloop
endfacet
facet normal -3.44175263645767e-17 1.72111659036253e-17 -1.0
outer loop
vertex 8.25752904593405 80.2795134279085 0.0
vertex 8.25752904593405 83.5295134279085 0.0
vertex 10.3280814067542 83.256920038221 0.0
endloop
endfacet
facet normal -3.44175263645767e-17 1.72111659036253e-17 -1.0
outer loop
vertex 8.25752904593405 80.2795134279085 0.0
vertex 10.3280814067542 83.256920038221 0.0
vertex 9.48691951017102 80.1176611027816 0.0
endloop
endfacet
facet normal -3.44175263645767e-17 1.72111659036253e-17 -1.0
outer loop
vertex 9.48691951017102 80.1176611027816 0.0
vertex 10.3280814067542 83.256920038221 0.0
vertex 10.6325290459341 79.6431340958846 0.0
endloop
endfacet
facet normal -3.44175263645767e-17 1.72111659036253e-17 -1.0
outer loop
vertex 10.6325290459341 79.6431340958846 0.0
vertex 10.3280814067542 83.256920038221 0.0
vertex 12.2575290459341 82.457716658184 0.0
endloop
endfacet
facet normal -3.44175263645767e-17 1.72111659036253e-17 -1.0
outer loop
vertex 10.6325290459341 79.6431340958846 0.0
vertex 12.2575290459341 82.457716658184 0.0
vertex 11.6162862565702 78.8882706385446 0.0
endloop
endfacet
facet normal -3.44175263645767e-17 1.72111659036253e-17 -1.0
outer loop
vertex 11.6162862565702 78.8882706385446 0.0
vertex 12.2575290459341 82.457716658184 0.0
vertex 12.3711497139101 77.9045134279085 0.0
endloop
endfacet
facet normal -3.44175263645767e-17 1.72111659036253e-17 -1.0
outer loop
vertex 12.3711497139101 77.9045134279085 0.0
vertex 12.2575290459341 82.457716658184 0.0
vertex 13.9143832954264 81.1863676774009 0.0
endloop
endfacet
facet normal -3.44175263645767e-17 1.72111659036253e-17 -1.0
outer loop
vertex 12.3711497139101 77.9045134279085 0.0
vertex 13.9143832954264 81.1863676774009 0.0
vertex 12.8456767208071 76.7589038921455 0.0
endloop
endfacet
facet normal -3.44175263645767e-17 1.72111659036253e-17 -1.0
outer loop
vertex 12.8456767208071 76.7589038921455 0.0
vertex 13.9143832954264 81.1863676774009 0.0
vertex 13.0075290459341 75.5295134279085 0.0
endloop
endfacet
facet normal -3.44175263645767e-17 1.72111659036253e-17 -1.0
outer loop
vertex 13.0075290459341 75.5295134279085 0.0
vertex 13.9143832954264 81.1863676774009 0.0
vertex 13.9143832954264 69.8726591784161 0.0
endloop
endfacet
facet normal -3.44175263645767e-17 1.72111659036253e-17 -1.0
outer loop
vertex 13.9143832954264 69.8726591784161 0.0
vertex 13.9143832954264 81.1863676774009 0.0
vertex 15.1857322762096 71.5295134279085 0.0
endloop
endfacet
facet normal -3.44175263645767e-17 1.72111659036253e-17 -1.0
outer loop
vertex 15.1857322762096 71.5295134279085 0.0
vertex 13.9143832954264 81.1863676774009 0.0
vertex 15.1857322762096 79.5295134279085 0.0
endloop
endfacet
facet normal -3.44175263645767e-17 1.72111659036253e-17 -1.0
outer loop
vertex 15.1857322762096 71.5295134279085 0.0
vertex 15.1857322762096 79.5295134279085 0.0
vertex 15.9849356562466 77.6000657887286 0.0
endloop
endfacet
facet normal -3.44175263645767e-17 1.72111659036253e-17 -1.0
outer loop
vertex 15.1857322762096 71.5295134279085 0.0
vertex 15.9849356562466 77.6000657887286 0.0
vertex 15.9849356562466 73.4589610670883 0.0
endloop
endfacet
facet normal -3.44175263645767e-17 1.72111659036253e-17 -1.0
outer loop
vertex 15.9849356562466 73.4589610670883 0.0
vertex 15.9849356562466 77.6000657887286 0.0
vertex 16.257529045934 75.5295134279085 0.0
endloop
endfacet
facet normal -3.44175263645767e-17 1.72111659036253e-17 -1.0
outer loop
vertex -0.179648780557025 76.1431340958846 -2.07659274975222e-16
vertex 1.32932581565854 71.5295134279085 0.0
vertex -1.04567418434146 75.6431340958846 -2.07659274975222e-16
endloop
endfacet
facet normal -3.44175263645767e-17 1.72111659036253e-17 -1.0
outer loop
vertex 1.32932581565854 71.5295134279085 0.0
vertex -0.179648780557025 76.1431340958846 -2.07659274975222e-16
vertex 2.19535121944298 72.0295134279085 0.0
endloop
endfacet
facet normal -3.44175263645767e-17 1.72111659036253e-17 -1.0
outer loop
vertex 1.32932581565854 71.5295134279085 0.0
vertex 2.19535121944298 72.0295134279085 0.0
vertex 2.60067479644167 69.8726591784161 0.0
endloop
endfacet
facet normal -3.44175263645767e-17 1.72111659036253e-17 -1.0
outer loop
vertex 2.60067479644167 69.8726591784161 0.0
vertex 2.19535121944298 72.0295134279085 0.0
vertex 4.14390837795796 73.1545134279085 0.0
endloop
endfacet
facet normal -3.44175263645767e-17 1.72111659036253e-17 -1.0
outer loop
vertex 2.60067479644167 69.8726591784161 0.0
vertex 4.14390837795796 73.1545134279085 0.0
vertex 4.25752904593405 68.601310197633 0.0
endloop
endfacet
facet normal -3.44175263645767e-17 1.72111659036253e-17 -1.0
outer loop
vertex 4.25752904593405 68.601310197633 0.0
vertex 4.14390837795796 73.1545134279085 0.0
vertex 4.89877183529795 72.1707562172724 0.0
endloop
endfacet
facet normal -3.44175263645767e-17 1.72111659036253e-17 -1.0
outer loop
vertex 4.25752904593405 68.601310197633 0.0
vertex 4.89877183529795 72.1707562172724 0.0
vertex 6.18697668511388 67.8021068175959 0.0
endloop
endfacet
facet normal -3.44175263645767e-17 1.72111659036253e-17 -1.0
outer loop
vertex 6.18697668511388 67.8021068175959 0.0
vertex 4.89877183529795 72.1707562172724 0.0
vertex 5.88252904593405 71.4158927599324 0.0
endloop
endfacet
facet normal -3.44175263645767e-17 1.72111659036253e-17 -1.0
outer loop
vertex 6.18697668511388 67.8021068175959 0.0
vertex 5.88252904593405 71.4158927599324 0.0
vertex 7.02813858169707 70.9413657530354 0.0
endloop
endfacet
facet normal -3.44175263645767e-17 1.72111659036253e-17 -1.0
outer loop
vertex 6.18697668511388 67.8021068175959 0.0
vertex 7.02813858169707 70.9413657530354 0.0
vertex 8.25752904593405 67.5295134279085 0.0
endloop
endfacet
facet normal -3.44175263645767e-17 1.72111659036253e-17 -1.0
outer loop
vertex 8.25752904593405 67.5295134279085 0.0
vertex 7.02813858169707 70.9413657530354 0.0
vertex 8.25752904593405 70.7795134279085 0.0
endloop
endfacet
facet normal -3.44175263645767e-17 1.72111659036253e-17 -1.0
outer loop
vertex 8.25752904593405 67.5295134279085 0.0
vertex 8.25752904593405 70.7795134279085 0.0
vertex 9.48691951017102 70.9413657530354 0.0
endloop
endfacet
facet normal -3.44175263645767e-17 1.72111659036253e-17 -1.0
outer loop
vertex 8.25752904593405 67.5295134279085 0.0
vertex 9.48691951017102 70.9413657530354 0.0
vertex 10.3280814067542 67.8021068175959 0.0
endloop
endfacet
facet normal -3.44175263645767e-17 1.72111659036253e-17 -1.0
outer loop
vertex 10.3280814067542 67.8021068175959 0.0
vertex 9.48691951017102 70.9413657530354 0.0
vertex 10.6325290459341 71.4158927599324 0.0
endloop
endfacet
facet normal -3.44175263645767e-17 1.72111659036253e-17 -1.0
outer loop
vertex 10.3280814067542 67.8021068175959 0.0
vertex 10.6325290459341 71.4158927599324 0.0
vertex 12.257529045934 68.601310197633 0.0
endloop
endfacet
facet normal -3.44175263645767e-17 1.72111659036253e-17 -1.0
outer loop
vertex 12.257529045934 68.601310197633 0.0
vertex 10.6325290459341 71.4158927599324 0.0
vertex 11.6162862565702 72.1707562172724 0.0
endloop
endfacet
facet normal -3.44175263645767e-17 1.72111659036253e-17 -1.0
outer loop
vertex 12.257529045934 68.601310197633 0.0
vertex 11.6162862565702 72.1707562172724 0.0
vertex 12.3711497139101 73.1545134279085 0.0
endloop
endfacet
facet normal -3.44175263645767e-17 1.72111659036253e-17 -1.0
outer loop
vertex 12.257529045934 68.601310197633 0.0
vertex 12.3711497139101 73.1545134279085 0.0
vertex 13.9143832954264 69.8726591784161 0.0
endloop
endfacet
facet normal -3.44175263645767e-17 1.72111659036253e-17 -1.0
outer loop
vertex 13.9143832954264 69.8726591784161 0.0
vertex 12.3711497139101 73.1545134279085 0.0
vertex 12.8456767208071 74.3001229636715 0.0
endloop
endfacet
facet normal -3.44175263645767e-17 1.72111659036253e-17 -1.0
outer loop
vertex 13.9143832954264 69.8726591784161 0.0
vertex 12.8456767208071 74.3001229636715 0.0
vertex 13.0075290459341 75.5295134279085 0.0
endloop
endfacet
facet normal 1.72509131814347e-16 -7.97861279046601e-17 1.0
outer loop
vertex 1.32932581565854 71.5295134279085 4.0
vertex -0.179648780557026 76.1431340958846 4.0
vertex -1.04567418434146 75.6431340958846 4.0
endloop
endfacet
facet normal 1.72509131814347e-16 -7.97861279046601e-17 1.0
outer loop
vertex -0.179648780557026 76.1431340958846 4.0
vertex 1.32932581565854 71.5295134279085 4.0
vertex 2.19535121944298 72.0295134279085 4.0
endloop
endfacet
facet normal 1.72509131814347e-16 -7.97861279046601e-17 1.0
outer loop
vertex 2.19535121944298 72.0295134279085 4.0
vertex 1.32932581565854 71.5295134279085 4.0
vertex 2.60067479644167 69.8726591784161 4.0
endloop
endfacet
facet normal 1.72509131814347e-16 -7.97861279046601e-17 1.0
outer loop
vertex 2.19535121944298 72.0295134279085 4.0
vertex 2.60067479644167 69.8726591784161 4.0
vertex 4.14390837795796 73.1545134279085 4.0
endloop
endfacet
facet normal 1.72509131814347e-16 -7.97861279046601e-17 1.0
outer loop
vertex 4.14390837795796 73.1545134279085 4.0
vertex 2.60067479644167 69.8726591784161 4.0
vertex 4.25752904593405 68.601310197633 4.0
endloop
endfacet
facet normal 1.72509131814347e-16 -7.97861279046601e-17 1.0
outer loop
vertex 4.14390837795796 73.1545134279085 4.0
vertex 4.25752904593405 68.601310197633 4.0
vertex 4.89877183529795 72.1707562172724 4.0
endloop
endfacet
facet normal 1.72509131814347e-16 -7.97861279046601e-17 1.0
outer loop
vertex 4.89877183529795 72.1707562172724 4.0
vertex 4.25752904593405 68.601310197633 4.0
vertex 6.18697668511388 67.8021068175959 4.0
endloop
endfacet
facet normal 1.72509131814347e-16 -7.97861279046601e-17 1.0
outer loop
vertex 4.89877183529795 72.1707562172724 4.0
vertex 6.18697668511388 67.8021068175959 4.0
vertex 5.88252904593405 71.4158927599324 4.0
endloop
endfacet
facet normal 1.72509131814347e-16 -7.97861279046601e-17 1.0
outer loop
vertex 5.88252904593405 71.4158927599324 4.0
vertex 6.18697668511388 67.8021068175959 4.0
vertex 7.02813858169707 70.9413657530354 4.0
endloop
endfacet
facet normal 1.72509131814347e-16 -7.97861279046601e-17 1.0
outer loop
vertex 7.02813858169707 70.9413657530354 4.0
vertex 6.18697668511388 67.8021068175959 4.0
vertex 8.25752904593405 67.5295134279085 4.0
endloop
endfacet
facet normal 1.72509131814347e-16 -7.97861279046601e-17 1.0
outer loop
vertex 7.02813858169707 70.9413657530354 4.0
vertex 8.25752904593405 67.5295134279085 4.0
vertex 8.25752904593405 70.7795134279085 4.0
endloop
endfacet
facet normal 1.72509131814347e-16 -7.97861279046601e-17 1.0
outer loop
vertex 8.25752904593405 70.7795134279085 4.0
vertex 8.25752904593405 67.5295134279085 4.0
vertex 10.3280814067542 67.8021068175959 4.0
endloop
endfacet
facet normal 1.72509131814347e-16 -7.97861279046601e-17 1.0
outer loop
vertex 8.25752904593405 70.7795134279085 4.0
vertex 10.3280814067542 67.8021068175959 4.0
vertex 9.48691951017102 70.9413657530354 4.0
endloop
endfacet
facet normal 1.72509131814347e-16 -7.97861279046601e-17 1.0
outer loop
vertex 9.48691951017102 70.9413657530354 4.0
vertex 10.3280814067542 67.8021068175959 4.0
vertex 10.6325290459341 71.4158927599324 4.0
endloop
endfacet
facet normal 1.72509131814347e-16 -7.97861279046601e-17 1.0
outer loop
vertex 10.6325290459341 71.4158927599324 4.0
vertex 10.3280814067542 67.8021068175959 4.0
vertex 12.257529045934 68.601310197633 4.0
endloop
endfacet
facet normal 1.72509131814347e-16 -7.97861279046601e-17 1.0
outer loop
vertex 10.6325290459341 71.4158927599324 4.0
vertex 12.257529045934 68.601310197633 4.0
vertex 11.6162862565702 72.1707562172724 4.0
endloop
endfacet
facet normal 1.72509131814347e-16 -7.97861279046601e-17 1.0
outer loop
vertex 11.6162862565702 72.1707562172724 4.0
vertex 12.257529045934 68.601310197633 4.0
vertex 12.3711497139101 73.1545134279085 4.0
endloop
endfacet
facet normal 1.72509131814347e-16 -7.97861279046601e-17 1.0
outer loop
vertex 12.3711497139101 73.1545134279085 4.0
vertex 12.257529045934 68.601310197633 4.0
vertex 13.9143832954264 69.8726591784161 4.0
endloop
endfacet
facet normal 1.72509131814347e-16 -7.97861279046601e-17 1.0
outer loop
vertex 12.3711497139101 73.1545134279085 4.0
vertex 13.9143832954264 69.8726591784161 4.0
vertex 12.8456767208071 74.3001229636715 4.0
endloop
endfacet
facet normal 1.72509131814347e-16 -7.97861279046601e-17 1.0
outer loop
vertex 12.8456767208071 74.3001229636715 4.0
vertex 13.9143832954264 69.8726591784161 4.0
vertex 13.0075290459341 75.5295134279085 4.0
endloop
endfacet
facet normal 1.72509131814347e-16 -7.97861279046601e-17 1.0
outer loop
vertex 1.76890837795797 77.2681340958846 4.0
vertex 4.25752904593406 82.457716658184 4.0
vertex 0.14390837795798 80.082716658184 4.0
endloop
endfacet
facet normal 1.72509131814347e-16 -7.97861279046601e-17 1.0
outer loop
vertex 4.25752904593406 82.457716658184 4.0
vertex 1.76890837795797 77.2681340958846 4.0
vertex 2.32002904593405 77.5863237618965 4.0
endloop
endfacet
facet normal 1.72509131814347e-16 -7.97861279046601e-17 1.0
outer loop
vertex 4.25752904593406 82.457716658184 4.0
vertex 2.32002904593405 77.5863237618965 4.0
vertex 3.50752904593405 75.5295134279085 4.00000000000001
endloop
endfacet
facet normal 1.72509131814347e-16 -7.97861279046601e-17 1.0
outer loop
vertex 4.25752904593406 82.457716658184 4.0
vertex 3.50752904593405 75.5295134279085 4.00000000000001
vertex 3.66938137106098 76.7589038921454 4.00000000000001
endloop
endfacet
facet normal 1.72509131814347e-16 -7.97861279046601e-17 1.0
outer loop
vertex 4.25752904593406 82.457716658184 4.0
vertex 3.66938137106098 76.7589038921454 4.00000000000001
vertex 4.14390837795797 77.9045134279085 4.00000000000001
endloop
endfacet
facet normal 1.72509131814347e-16 -7.97861279046601e-17 1.0
outer loop
vertex 4.25752904593406 82.457716658184 4.0
vertex 4.14390837795797 77.9045134279085 4.00000000000001
vertex 4.89877183529795 78.8882706385446 4.00000000000001
endloop
endfacet
facet normal 1.72509131814347e-16 -7.97861279046601e-17 1.0
outer loop
vertex 4.25752904593406 82.457716658184 4.0
vertex 4.89877183529795 78.8882706385446 4.00000000000001
vertex 6.18697668511389 83.256920038221 4.0
endloop
endfacet
facet normal 1.72509131814347e-16 -7.97861279046601e-17 1.0
outer loop
vertex 6.18697668511389 83.256920038221 4.0
vertex 4.89877183529795 78.8882706385446 4.00000000000001
vertex 5.88252904593405 79.6431340958846 4.0
endloop
endfacet
facet normal 1.72509131814347e-16 -7.97861279046601e-17 1.0
outer loop
vertex 6.18697668511389 83.256920038221 4.0
vertex 5.88252904593405 79.6431340958846 4.0
vertex 7.02813858169707 80.1176611027816 4.0
endloop
endfacet
facet normal 1.72509131814347e-16 -7.97861279046601e-17 1.0
outer loop
vertex 6.18697668511389 83.256920038221 4.0
vertex 7.02813858169707 80.1176611027816 4.0
vertex 8.25752904593405 83.5295134279085 4.0
endloop
endfacet
facet normal 1.72509131814347e-16 -7.97861279046601e-17 1.0
outer loop
vertex 8.25752904593405 83.5295134279085 4.0
vertex 7.02813858169707 80.1176611027816 4.0
vertex 8.25752904593405 80.2795134279085 4.0
endloop
endfacet
facet normal 1.72509131814347e-16 -7.97861279046601e-17 1.0
outer loop
vertex 8.25752904593405 83.5295134279085 4.0
vertex 8.25752904593405 80.2795134279085 4.0
vertex 9.48691951017102 80.1176611027816 4.0
endloop
endfacet
facet normal 1.72509131814347e-16 -7.97861279046601e-17 1.0
outer loop
vertex 8.25752904593405 83.5295134279085 4.0
vertex 9.48691951017102 80.1176611027816 4.0
vertex 10.3280814067542 83.256920038221 4.0
endloop
endfacet
facet normal 1.72509131814347e-16 -7.97861279046601e-17 1.0
outer loop
vertex 10.3280814067542 83.256920038221 4.0
vertex 9.48691951017102 80.1176611027816 4.0
vertex 10.6325290459341 79.6431340958846 4.0
endloop
endfacet
facet normal 1.72509131814347e-16 -7.97861279046601e-17 1.0
outer loop
vertex 10.3280814067542 83.256920038221 4.0
vertex 10.6325290459341 79.6431340958846 4.0
vertex 12.2575290459341 82.457716658184 4.0
endloop
endfacet
facet normal 1.72509131814347e-16 -7.97861279046601e-17 1.0
outer loop
vertex 12.2575290459341 82.457716658184 4.0
vertex 10.6325290459341 79.6431340958846 4.0
vertex 11.6162862565702 78.8882706385446 4.0
endloop
endfacet
facet normal 1.72509131814347e-16 -7.97861279046601e-17 1.0
outer loop
vertex 12.2575290459341 82.457716658184 4.0
vertex 11.6162862565702 78.8882706385446 4.0
vertex 12.3711497139101 77.9045134279085 4.0
endloop
endfacet
facet normal 1.72509131814347e-16 -7.97861279046601e-17 1.0
outer loop
vertex 12.2575290459341 82.457716658184 4.0
vertex 12.3711497139101 77.9045134279085 4.0
vertex 13.9143832954264 81.1863676774009 4.0
endloop
endfacet
facet normal 1.72509131814347e-16 -7.97861279046601e-17 1.0
outer loop
vertex 13.9143832954264 81.1863676774009 4.0
vertex 12.3711497139101 77.9045134279085 4.0
vertex 12.8456767208071 76.7589038921455 4.0
endloop
endfacet
facet normal 1.72509131814347e-16 -7.97861279046601e-17 1.0
outer loop
vertex 13.9143832954264 81.1863676774009 4.0
vertex 12.8456767208071 76.7589038921455 4.0
vertex 13.0075290459341 75.5295134279085 4.0
endloop
endfacet
facet normal 1.72509131814347e-16 -7.97861279046601e-17 1.0
outer loop
vertex 13.9143832954264 81.1863676774009 4.0
vertex 13.0075290459341 75.5295134279085 4.0
vertex 13.9143832954264 69.8726591784161 4.0
endloop
endfacet
facet normal 1.72509131814347e-16 -7.97861279046601e-17 1.0
outer loop
vertex 13.9143832954264 81.1863676774009 4.0
vertex 13.9143832954264 69.8726591784161 4.0
vertex 15.1857322762096 71.5295134279085 4.0
endloop
endfacet
facet normal 1.72509131814347e-16 -7.97861279046601e-17 1.0
outer loop
vertex 13.9143832954264 81.1863676774009 4.0
vertex 15.1857322762096 71.5295134279085 4.0
vertex 15.1857322762096 79.5295134279085 4.0
endloop
endfacet
facet normal 1.72509131814347e-16 -7.97861279046601e-17 1.0
outer loop
vertex 15.1857322762096 79.5295134279085 4.0
vertex 15.1857322762096 71.5295134279085 4.0
vertex 15.9849356562466 73.4589610670883 4.0
endloop
endfacet
facet normal 1.72509131814347e-16 -7.97861279046601e-17 1.0
outer loop
vertex 15.1857322762096 79.5295134279085 4.0
vertex 15.9849356562466 73.4589610670883 4.0
vertex 15.9849356562466 77.6000657887286 4.0
endloop
endfacet
facet normal 1.72509131814347e-16 -7.97861279046601e-17 1.0
outer loop
vertex 15.9849356562466 77.6000657887286 4.0
vertex 15.9849356562466 73.4589610670883 4.0
vertex 16.257529045934 75.5295134279085 4.0
endloop
endfacet
facet normal 0.258819045102519 -0.965925826289069 0.0
outer loop
vertex 10.3280814067542 67.8021068175959 4.0
vertex 8.25752904593405 67.5295134279085 0.0
vertex 10.3280814067542 67.8021068175959 0.0
endloop
endfacet
facet normal 0.0 -1.0 0.0
outer loop
vertex 8.25752904593405 67.5295134279085 0.0
vertex 10.3280814067542 67.8021068175959 4.0
vertex 8.25752904593405 67.5295134279085 4.0
endloop
endfacet
facet normal 0.0 -1.0 0.0
outer loop
vertex 8.25752904593405 67.5295134279085 4.0
vertex 6.18697668511388 67.8021068175959 0.0
vertex 8.25752904593405 67.5295134279085 0.0
endloop
endfacet
facet normal -0.25881904510252 -0.965925826289068 0.0
outer loop
vertex 6.18697668511388 67.8021068175959 0.0
vertex 8.25752904593405 67.5295134279085 4.0
vertex 6.18697668511388 67.8021068175959 4.0
endloop
endfacet
facet normal -0.25881904510252 -0.965925826289068 0.0
outer loop
vertex 6.18697668511388 67.8021068175959 4.0
vertex 4.25752904593405 68.601310197633 0.0
vertex 6.18697668511388 67.8021068175959 0.0
endloop
endfacet
facet normal -0.5 -0.866025403784439 0.0
outer loop
vertex 4.25752904593405 68.601310197633 0.0
vertex 6.18697668511388 67.8021068175959 4.0
vertex 4.25752904593405 68.601310197633 4.0
endloop
endfacet
facet normal -0.5 -0.866025403784439 0.0
outer loop
vertex 4.25752904593405 68.601310197633 4.0
vertex 2.60067479644167 69.8726591784161 0.0
vertex 4.25752904593405 68.601310197633 0.0
endloop
endfacet
facet normal -0.707106781186547 -0.707106781186549 0.0
outer loop
vertex 2.60067479644167 69.8726591784161 0.0
vertex 4.25752904593405 68.601310197633 4.0
vertex 2.60067479644167 69.8726591784161 4.0
endloop
endfacet
facet normal -0.793353340291233 -0.608761429008723 0.0
outer loop
vertex 1.32932581565854 71.5295134279085 4.0
vertex 2.60067479644167 69.8726591784161 0.0
vertex 2.60067479644167 69.8726591784161 4.0
endloop
endfacet
facet normal -0.707106781186547 -0.707106781186549 0.0
outer loop
vertex 2.60067479644167 69.8726591784161 0.0
vertex 1.32932581565854 71.5295134279085 4.0
vertex 1.32932581565854 71.5295134279085 0.0
endloop
endfacet
facet normal -0.382683432365087 0.923879532511288 -0.0
outer loop
vertex 4.25752904593406 82.457716658184 4.0
vertex 6.18697668511389 83.256920038221 0.0
vertex 4.25752904593406 82.457716658184 0.0
endloop
endfacet
facet normal -0.258819045102519 0.965925826289069 0.0
outer loop
vertex 6.18697668511389 83.256920038221 0.0
vertex 4.25752904593406 82.457716658184 4.0
vertex 6.18697668511389 83.256920038221 4.0
endloop
endfacet
facet normal -0.258819045102519 0.965925826289069 0.0
outer loop
vertex 6.18697668511389 83.256920038221 4.0
vertex 8.25752904593405 83.5295134279085 0.0
vertex 6.18697668511389 83.256920038221 0.0
endloop
endfacet
facet normal -3.65355505721523e-16 1.0 0.0
outer loop
vertex 8.25752904593405 83.5295134279085 0.0
vertex 6.18697668511389 83.256920038221 4.0
vertex 8.25752904593405 83.5295134279085 4.0
endloop
endfacet
facet normal -3.65355505721523e-16 1.0 0.0
outer loop
vertex 8.25752904593405 83.5295134279085 4.0
vertex 10.3280814067542 83.256920038221 0.0
vertex 8.25752904593405 83.5295134279085 0.0
endloop
endfacet
facet normal 0.258819045102521 0.965925826289068 0.0
outer loop
vertex 10.3280814067542 83.256920038221 0.0
vertex 8.25752904593405 83.5295134279085 4.0
vertex 10.3280814067542 83.256920038221 4.0
endloop
endfacet
facet normal 0.258819045102521 0.965925826289068 0.0
outer loop
vertex 10.3280814067542 83.256920038221 4.0
vertex 12.2575290459341 82.457716658184 0.0
vertex 10.3280814067542 83.256920038221 0.0
endloop
endfacet
facet normal 0.500000000000001 0.866025403784438 0.0
outer loop
vertex 12.2575290459341 82.457716658184 0.0
vertex 10.3280814067542 83.256920038221 4.0
vertex 12.2575290459341 82.457716658184 4.0
endloop
endfacet
facet normal 0.500000000000001 0.866025403784438 0.0
outer loop
vertex 12.2575290459341 82.457716658184 4.0
vertex 13.9143832954264 81.1863676774009 0.0
vertex 12.2575290459341 82.457716658184 0.0
endloop
endfacet
facet normal 0.707106781186548 0.707106781186547 0.0
outer loop
vertex 13.9143832954264 81.1863676774009 0.0
vertex 12.2575290459341 82.457716658184 4.0
vertex 13.9143832954264 81.1863676774009 4.0
endloop
endfacet
facet normal 0.707106781186548 0.707106781186547 0.0
outer loop
vertex 13.9143832954264 81.1863676774009 0.0
vertex 15.1857322762096 79.5295134279085 4.0
vertex 15.1857322762096 79.5295134279085 0.0
endloop
endfacet
facet normal 0.866025403784439 0.499999999999999 0.0
outer loop
vertex 15.1857322762096 79.5295134279085 4.0
vertex 13.9143832954264 81.1863676774009 0.0
vertex 13.9143832954264 81.1863676774009 4.0
endloop
endfacet
facet normal 0.866025403784439 0.499999999999999 0.0
outer loop
vertex 15.1857322762096 79.5295134279085 0.0
vertex 15.9849356562466 77.6000657887286 4.0
vertex 15.9849356562466 77.6000657887286 0.0
endloop
endfacet
facet normal 0.965925826289068 0.258819045102521 0.0
outer loop
vertex 15.9849356562466 77.6000657887286 4.0
vertex 15.1857322762096 79.5295134279085 0.0
vertex 15.1857322762096 79.5295134279085 4.0
endloop
endfacet
facet normal 0.965925826289068 0.258819045102521 0.0
outer loop
vertex 15.9849356562466 77.6000657887286 0.0
vertex 16.257529045934 75.5295134279085 4.0
vertex 16.257529045934 75.5295134279085 0.0
endloop
endfacet
facet normal 1.0 3.65355505721523e-16 0.0
outer loop
vertex 16.257529045934 75.5295134279085 4.0
vertex 15.9849356562466 77.6000657887286 0.0
vertex 15.9849356562466 77.6000657887286 4.0
endloop
endfacet
facet normal 1.0 3.65355505721523e-16 0.0
outer loop
vertex 16.257529045934 75.5295134279085 0.0
vertex 15.9849356562466 73.4589610670883 4.0
vertex 15.9849356562466 73.4589610670883 0.0
endloop
endfacet
facet normal 0.965925826289068 -0.25881904510252 0.0
outer loop
vertex 15.9849356562466 73.4589610670883 4.0
vertex 16.257529045934 75.5295134279085 0.0
vertex 16.257529045934 75.5295134279085 4.0
endloop
endfacet
facet normal 0.965925826289068 -0.25881904510252 0.0
outer loop
vertex 15.9849356562466 73.4589610670883 0.0
vertex 15.1857322762096 71.5295134279085 4.0
vertex 15.1857322762096 71.5295134279085 0.0
endloop
endfacet
facet normal 0.866025403784439 -0.5 0.0
outer loop
vertex 15.1857322762096 71.5295134279085 4.0
vertex 15.9849356562466 73.4589610670883 0.0
vertex 15.9849356562466 73.4589610670883 4.0
endloop
endfacet
facet normal 0.866025403784439 -0.5 0.0
outer loop
vertex 15.1857322762096 71.5295134279085 0.0
vertex 13.9143832954264 69.8726591784161 4.0
vertex 13.9143832954264 69.8726591784161 0.0
endloop
endfacet
facet normal 0.707106781186548 -0.707106781186548 0.0
outer loop
vertex 13.9143832954264 69.8726591784161 4.0
vertex 15.1857322762096 71.5295134279085 0.0
vertex 15.1857322762096 71.5295134279085 4.0
endloop
endfacet
facet normal 0.707106781186548 -0.707106781186548 0.0
outer loop
vertex 13.9143832954264 69.8726591784161 4.0
vertex 12.257529045934 68.601310197633 0.0
vertex 13.9143832954264 69.8726591784161 0.0
endloop
endfacet
facet normal 0.499999999999999 -0.866025403784439 0.0
outer loop
vertex 12.257529045934 68.601310197633 0.0
vertex 13.9143832954264 69.8726591784161 4.0
vertex 12.257529045934 68.601310197633 4.0
endloop
endfacet
facet normal 0.499999999999999 -0.866025403784439 0.0
outer loop
vertex 12.257529045934 68.601310197633 4.0
vertex 10.3280814067542 67.8021068175959 0.0
vertex 12.257529045934 68.601310197633 0.0
endloop
endfacet
facet normal 0.258819045102519 -0.965925826289069 0.0
outer loop
vertex 10.3280814067542 67.8021068175959 0.0
vertex 12.257529045934 68.601310197633 4.0
vertex 10.3280814067542 67.8021068175959 4.0
endloop
endfacet
facet normal 0.5 -0.866025403784439 -8.46461172083419e-16
outer loop
vertex 2.32002904593405 77.5863237618965 1.05462827558444e-15
vertex 1.76890837795797 77.2681340958846 4.0
vertex 1.76890837795797 77.2681340958846 0.0
endloop
endfacet
facet normal 0.5 -0.866025403784439 -8.46461172083419e-16
outer loop
vertex 1.76890837795797 77.2681340958846 4.0
vertex 2.32002904593405 77.5863237618965 1.05462827558444e-15
vertex 2.32002904593405 77.5863237618965 4.0
endloop
endfacet
facet normal -0.499999999999997 0.86602540378444 0.0
outer loop
vertex 0.14390837795798 80.082716658184 4.0
vertex 4.25752904593406 82.457716658184 0.0
vertex 0.14390837795798 80.082716658184 0.0
endloop
endfacet
facet normal -0.499999999999997 0.86602540378444 0.0
outer loop
vertex 4.25752904593406 82.457716658184 0.0
vertex 0.14390837795798 80.082716658184 4.0
vertex 4.25752904593406 82.457716658184 4.0
endloop
endfacet
endsolid Plotter-v3-z-PenMount
