solid Plotter-v3-z-PenMount
facet normal 0.7071067811865475 0.7071067811865477 0.0
  outer loop
    vertex 8.286353581057165 48.079181234484295 1.4999999999999998
    vertex 9.280466130752593 47.31637184601442 2.46747067222941e-15
    vertex 8.286353581057165 48.079181234484295 2.46747067222941e-15
  endloop
endfacet
facet normal 0.5000000000000009 0.8660254037844383 0.0
  outer loop
    vertex 9.280466130752593 47.31637184601442 2.46747067222941e-15
    vertex 8.286353581057165 48.079181234484295 1.4999999999999998
    vertex 9.280466130752593 47.31637184601442 1.4999999999999998
  endloop
endfacet
facet normal 0.8660254037844388 0.49999999999999956 0.0
  outer loop
    vertex 7.523544192587288 49.07329378417972 2.46747067222941e-15
    vertex 8.286353581057165 48.079181234484295 1.4999999999999998
    vertex 8.286353581057165 48.079181234484295 2.46747067222941e-15
  endloop
endfacet
facet normal 0.7071067811865475 0.7071067811865477 0.0
  outer loop
    vertex 8.286353581057165 48.079181234484295 1.4999999999999998
    vertex 7.523544192587288 49.07329378417972 2.46747067222941e-15
    vertex 7.523544192587288 49.07329378417972 1.4999999999999998
  endloop
endfacet
facet normal 0.9659258262890685 0.2588190451025199 0.0
  outer loop
    vertex 7.0440221645650665 50.230962367687624 2.46747067222941e-15
    vertex 7.523544192587288 49.07329378417972 1.4999999999999998
    vertex 7.523544192587288 49.07329378417972 2.46747067222941e-15
  endloop
endfacet
facet normal 0.8660254037844388 0.49999999999999956 0.0
  outer loop
    vertex 7.523544192587288 49.07329378417972 1.4999999999999998
    vertex 7.0440221645650665 50.230962367687624 2.46747067222941e-15
    vertex 7.0440221645650665 50.230962367687624 1.4999999999999998
  endloop
endfacet
facet normal 1.0 0.0 0.0
  outer loop
    vertex 6.880466130752595 51.473293784179724 2.46747067222941e-15
    vertex 7.0440221645650665 50.230962367687624 1.4999999999999998
    vertex 7.0440221645650665 50.230962367687624 2.46747067222941e-15
  endloop
endfacet
facet normal 0.9659258262890685 0.2588190451025199 0.0
  outer loop
    vertex 7.0440221645650665 50.230962367687624 1.4999999999999998
    vertex 6.880466130752595 51.473293784179724 2.46747067222941e-15
    vertex 6.880466130752595 51.473293784179724 1.4999999999999998
  endloop
endfacet
facet normal 0.9659258262890685 -0.25881904510251946 0.0
  outer loop
    vertex 7.0440221645650665 52.715625200671816 2.46747067222941e-15
    vertex 6.880466130752595 51.473293784179724 1.4999999999999998
    vertex 6.880466130752595 51.473293784179724 2.46747067222941e-15
  endloop
endfacet
facet normal 1.0 0.0 0.0
  outer loop
    vertex 6.880466130752595 51.473293784179724 1.4999999999999998
    vertex 7.0440221645650665 52.715625200671816 2.46747067222941e-15
    vertex 7.0440221645650665 52.715625200671816 1.4999999999999998
  endloop
endfacet
facet normal 0.8660254037844392 -0.4999999999999994 0.0
  outer loop
    vertex 7.5235441925872895 53.87329378417973 2.46747067222941e-15
    vertex 7.0440221645650665 52.715625200671816 1.4999999999999998
    vertex 7.0440221645650665 52.715625200671816 2.46747067222941e-15
  endloop
endfacet
facet normal 0.9659258262890685 -0.25881904510251946 0.0
  outer loop
    vertex 7.0440221645650665 52.715625200671816 1.4999999999999998
    vertex 7.5235441925872895 53.87329378417973 2.46747067222941e-15
    vertex 7.5235441925872895 53.87329378417973 1.4999999999999998
  endloop
endfacet
facet normal 0.7071067811865471 -0.707106781186548 0.0
  outer loop
    vertex 8.286353581057167 54.86740633387515 2.46747067222941e-15
    vertex 7.5235441925872895 53.87329378417973 1.4999999999999998
    vertex 7.5235441925872895 53.87329378417973 2.46747067222941e-15
  endloop
endfacet
facet normal 0.8660254037844392 -0.4999999999999994 0.0
  outer loop
    vertex 7.5235441925872895 53.87329378417973 1.4999999999999998
    vertex 8.286353581057167 54.86740633387515 2.46747067222941e-15
    vertex 8.286353581057167 54.86740633387515 1.4999999999999998
  endloop
endfacet
facet normal 0.4999999999999986 -0.8660254037844395 0.0
  outer loop
    vertex 9.280466130752595 55.63021572234503 1.4999999999999998
    vertex 8.286353581057167 54.86740633387515 2.46747067222941e-15
    vertex 9.280466130752595 55.63021572234503 2.46747067222941e-15
  endloop
endfacet
facet normal 0.7071067811865471 -0.707106781186548 0.0
  outer loop
    vertex 8.286353581057167 54.86740633387515 2.46747067222941e-15
    vertex 9.280466130752595 55.63021572234503 1.4999999999999998
    vertex 8.286353581057167 54.86740633387515 1.4999999999999998
  endloop
endfacet
facet normal -0.0 1.0 -0.0
  outer loop
    vertex -0.019533869247416173 56.37329378417972 7.799999999999997
    vertex 1.5804661307525945 56.37329378417972 0.0
    vertex -0.019533869247405765 56.37329378417972 0.0
  endloop
endfacet
facet normal -0.0 1.0 -0.0
  outer loop
    vertex 1.5804661307525945 56.37329378417972 0.0
    vertex -0.019533869247416173 56.37329378417972 7.799999999999997
    vertex 1.5804661307525945 56.37329378417972 1.5
  endloop
endfacet
facet normal -0.0 1.0 -0.0
  outer loop
    vertex 1.5804661307525945 56.37329378417972 1.5
    vertex -0.019533869247416173 56.37329378417972 7.799999999999997
    vertex 1.580466130752584 56.37329378417972 7.8
  endloop
endfacet
facet normal 0.0 0.0 -1.0
  outer loop
    vertex 12.580466130752594 57.473293784179724 0.0
    vertex 1.5804661307525945 56.37329378417972 0.0
    vertex 1.5804661307525945 57.473293784179724 0.0
  endloop
endfacet
facet normal 0.0 0.0 -1.0
  outer loop
    vertex 1.5804661307525945 56.37329378417972 0.0
    vertex 12.580466130752594 57.473293784179724 0.0
    vertex 9.280466130752595 55.63021572234503 2.46747067222941e-15
  endloop
endfacet
facet normal 0.0 0.0 -1.0
  outer loop
    vertex 1.5804661307525945 56.37329378417972 0.0
    vertex 9.280466130752595 55.63021572234503 2.46747067222941e-15
    vertex 8.286353581057167 54.86740633387515 2.46747067222941e-15
  endloop
endfacet
facet normal 0.0 0.0 -1.0
  outer loop
    vertex 1.5804661307525945 56.37329378417972 0.0
    vertex 8.286353581057167 54.86740633387515 2.46747067222941e-15
    vertex 1.5804661307525945 46.573293784179725 0.0
  endloop
endfacet
facet normal 0.0 0.0 -1.0
  outer loop
    vertex 1.5804661307525945 46.573293784179725 0.0
    vertex 8.286353581057167 54.86740633387515 2.46747067222941e-15
    vertex 7.5235441925872895 53.87329378417973 2.46747067222941e-15
  endloop
endfacet
facet normal 0.0 0.0 -1.0
  outer loop
    vertex 1.5804661307525945 46.573293784179725 0.0
    vertex 7.5235441925872895 53.87329378417973 2.46747067222941e-15
    vertex 1.5804661307525945 45.473293784179724 0.0
  endloop
endfacet
facet normal 0.0 0.0 -1.0
  outer loop
    vertex 1.5804661307525945 45.473293784179724 0.0
    vertex 7.5235441925872895 53.87329378417973 2.46747067222941e-15
    vertex 7.0440221645650665 52.715625200671816 2.46747067222941e-15
  endloop
endfacet
facet normal 0.0 0.0 -1.0
  outer loop
    vertex 1.5804661307525945 45.473293784179724 0.0
    vertex 7.0440221645650665 52.715625200671816 2.46747067222941e-15
    vertex 6.880466130752595 51.473293784179724 2.46747067222941e-15
  endloop
endfacet
facet normal 0.0 0.0 -1.0
  outer loop
    vertex 9.280466130752595 55.63021572234503 2.46747067222941e-15
    vertex 12.580466130752594 57.473293784179724 0.0
    vertex 10.438134714260496 56.10973775036725 2.46747067222941e-15
  endloop
endfacet
facet normal 0.0 0.0 -1.0
  outer loop
    vertex 10.438134714260496 56.10973775036725 2.46747067222941e-15
    vertex 12.580466130752594 57.473293784179724 0.0
    vertex 11.680466130752594 56.27329378417972 2.46747067222941e-15
  endloop
endfacet
facet normal 0.0 0.0 -1.0
  outer loop
    vertex 11.680466130752594 56.27329378417972 2.46747067222941e-15
    vertex 12.580466130752594 57.473293784179724 0.0
    vertex 12.922797547244697 56.10973775036725 2.46747067222941e-15
  endloop
endfacet
facet normal 0.0 0.0 -1.0
  outer loop
    vertex 12.922797547244697 56.10973775036725 2.46747067222941e-15
    vertex 12.580466130752594 57.473293784179724 0.0
    vertex 14.133380401367722 57.268848741914134 0.0
  endloop
endfacet
facet normal 0.0 0.0 -1.0
  outer loop
    vertex 12.922797547244697 56.10973775036725 2.46747067222941e-15
    vertex 14.133380401367722 57.268848741914134 0.0
    vertex 14.080466130752596 55.63021572234503 2.46747067222941e-15
  endloop
endfacet
facet normal 0.0 0.0 -1.0
  outer loop
    vertex 14.080466130752596 55.63021572234503 2.46747067222941e-15
    vertex 14.133380401367722 57.268848741914134 0.0
    vertex 15.074578680448022 54.86740633387515 2.46747067222941e-15
  endloop
endfacet
facet normal 0.0 0.0 -1.0
  outer loop
    vertex 15.074578680448022 54.86740633387515 2.46747067222941e-15
    vertex 14.133380401367722 57.268848741914134 0.0
    vertex 15.580466130752596 56.669446206886356 0.0
  endloop
endfacet
facet normal 0.0 0.0 -1.0
  outer loop
    vertex 15.074578680448022 54.86740633387515 2.46747067222941e-15
    vertex 15.580466130752596 56.669446206886356 0.0
    vertex 15.8373880689179 53.873293784179715 2.46747067222941e-15
  endloop
endfacet
facet normal 0.0 0.0 -1.0
  outer loop
    vertex 15.8373880689179 53.873293784179715 2.46747067222941e-15
    vertex 15.580466130752596 56.669446206886356 0.0
    vertex 16.82310681787188 55.71593447129901 0.0
  endloop
endfacet
facet normal 0.0 0.0 -1.0
  outer loop
    vertex 15.8373880689179 53.873293784179715 2.46747067222941e-15
    vertex 16.82310681787188 55.71593447129901 0.0
    vertex 16.316910096940124 52.715625200671816 2.46747067222941e-15
  endloop
endfacet
facet normal 0.0 0.0 -1.0
  outer loop
    vertex 16.316910096940124 52.715625200671816 2.46747067222941e-15
    vertex 16.82310681787188 55.71593447129901 0.0
    vertex 16.480466130752593 51.473293784179724 2.46747067222941e-15
  endloop
endfacet
facet normal 0.0 0.0 -1.0
  outer loop
    vertex 16.480466130752593 51.473293784179724 2.46747067222941e-15
    vertex 16.82310681787188 55.71593447129901 0.0
    vertex 16.823106817871878 47.23065309706044 0.0
  endloop
endfacet
facet normal 0.0 0.0 -1.0
  outer loop
    vertex 16.823106817871878 47.23065309706044 0.0
    vertex 16.82310681787188 55.71593447129901 0.0
    vertex 17.776618553459222 48.473293784179724 0.0
  endloop
endfacet
facet normal 0.0 0.0 -1.0
  outer loop
    vertex 17.776618553459222 48.473293784179724 0.0
    vertex 16.82310681787188 55.71593447129901 0.0
    vertex 17.77661855345923 54.47329378417972 0.0
  endloop
endfacet
facet normal 0.0 0.0 -1.0
  outer loop
    vertex 17.776618553459222 48.473293784179724 0.0
    vertex 17.77661855345923 54.47329378417972 0.0
    vertex 18.376021088487004 49.92037951356459 0.0
  endloop
endfacet
facet normal 0.0 0.0 -1.0
  outer loop
    vertex 18.376021088487004 49.92037951356459 0.0
    vertex 17.77661855345923 54.47329378417972 0.0
    vertex 18.376021088487004 53.02620805479484 0.0
  endloop
endfacet
facet normal 0.0 0.0 -1.0
  outer loop
    vertex 18.376021088487004 49.92037951356459 0.0
    vertex 18.376021088487004 53.02620805479484 0.0
    vertex 18.580466130752594 51.473293784179724 0.0
  endloop
endfacet
facet normal 0.0 0.0 -1.0
  outer loop
    vertex 1.5804661307525945 45.473293784179724 0.0
    vertex 9.280466130752593 47.31637184601442 2.46747067222941e-15
    vertex 12.580466130752592 45.473293784179724 0.0
  endloop
endfacet
facet normal 0.0 0.0 -1.0
  outer loop
    vertex 9.280466130752593 47.31637184601442 2.46747067222941e-15
    vertex 1.5804661307525945 45.473293784179724 0.0
    vertex 8.286353581057165 48.079181234484295 2.46747067222941e-15
  endloop
endfacet
facet normal 0.0 0.0 -1.0
  outer loop
    vertex 8.286353581057165 48.079181234484295 2.46747067222941e-15
    vertex 1.5804661307525945 45.473293784179724 0.0
    vertex 7.523544192587288 49.07329378417972 2.46747067222941e-15
  endloop
endfacet
facet normal 0.0 0.0 -1.0
  outer loop
    vertex 7.523544192587288 49.07329378417972 2.46747067222941e-15
    vertex 1.5804661307525945 45.473293784179724 0.0
    vertex 7.0440221645650665 50.230962367687624 2.46747067222941e-15
  endloop
endfacet
facet normal 0.0 0.0 -1.0
  outer loop
    vertex 7.0440221645650665 50.230962367687624 2.46747067222941e-15
    vertex 1.5804661307525945 45.473293784179724 0.0
    vertex 6.880466130752595 51.473293784179724 2.46747067222941e-15
  endloop
endfacet
facet normal 0.0 0.0 -1.0
  outer loop
    vertex 12.580466130752592 45.473293784179724 0.0
    vertex 9.280466130752593 47.31637184601442 2.46747067222941e-15
    vertex 10.43813471426049 46.836849817992196 2.46747067222941e-15
  endloop
endfacet
facet normal 0.0 0.0 -1.0
  outer loop
    vertex 12.580466130752592 45.473293784179724 0.0
    vertex 10.43813471426049 46.836849817992196 2.46747067222941e-15
    vertex 11.680466130752592 46.67329378417972 2.46747067222941e-15
  endloop
endfacet
facet normal 0.0 0.0 -1.0
  outer loop
    vertex 12.580466130752592 45.473293784179724 0.0
    vertex 11.680466130752592 46.67329378417972 2.46747067222941e-15
    vertex 12.922797547244691 46.836849817992196 2.46747067222941e-15
  endloop
endfacet
facet normal 0.0 0.0 -1.0
  outer loop
    vertex 12.580466130752592 45.473293784179724 0.0
    vertex 12.922797547244691 46.836849817992196 2.46747067222941e-15
    vertex 14.133380401367717 45.677738826445314 0.0
  endloop
endfacet
facet normal 0.0 0.0 -1.0
  outer loop
    vertex 14.133380401367717 45.677738826445314 0.0
    vertex 12.922797547244691 46.836849817992196 2.46747067222941e-15
    vertex 14.08046613075259 47.31637184601441 2.46747067222941e-15
  endloop
endfacet
facet normal 0.0 0.0 -1.0
  outer loop
    vertex 14.133380401367717 45.677738826445314 0.0
    vertex 14.08046613075259 47.31637184601441 2.46747067222941e-15
    vertex 15.074578680448022 48.079181234484295 2.46747067222941e-15
  endloop
endfacet
facet normal 0.0 0.0 -1.0
  outer loop
    vertex 14.133380401367717 45.677738826445314 0.0
    vertex 15.074578680448022 48.079181234484295 2.46747067222941e-15
    vertex 15.580466130752594 46.277141361473085 0.0
  endloop
endfacet
facet normal 0.0 0.0 -1.0
  outer loop
    vertex 15.580466130752594 46.277141361473085 0.0
    vertex 15.074578680448022 48.079181234484295 2.46747067222941e-15
    vertex 15.8373880689179 49.07329378417972 2.46747067222941e-15
  endloop
endfacet
facet normal 0.0 0.0 -1.0
  outer loop
    vertex 15.580466130752594 46.277141361473085 0.0
    vertex 15.8373880689179 49.07329378417972 2.46747067222941e-15
    vertex 16.823106817871878 47.23065309706044 0.0
  endloop
endfacet
facet normal 0.0 0.0 -1.0
  outer loop
    vertex 16.823106817871878 47.23065309706044 0.0
    vertex 15.8373880689179 49.07329378417972 2.46747067222941e-15
    vertex 16.316910096940124 50.23096236768762 2.46747067222941e-15
  endloop
endfacet
facet normal 0.0 0.0 -1.0
  outer loop
    vertex 16.823106817871878 47.23065309706044 0.0
    vertex 16.316910096940124 50.23096236768762 2.46747067222941e-15
    vertex 16.480466130752593 51.473293784179724 2.46747067222941e-15
  endloop
endfacet
facet normal 0.0 0.0 -1.0
  outer loop
    vertex 1.5804661307525945 56.37329378417972 0.0
    vertex -0.019533869247405765 46.573293784179725 0.0
    vertex -0.019533869247405765 56.37329378417972 0.0
  endloop
endfacet
facet normal 0.0 0.0 -1.0
  outer loop
    vertex -0.019533869247405765 46.573293784179725 0.0
    vertex 1.5804661307525945 56.37329378417972 0.0
    vertex 1.5804661307525945 46.573293784179725 0.0
  endloop
endfacet
facet normal -1.652324110867908e-15 -9.740948156803536e-47 1.0
  outer loop
    vertex 1.580466130752584 46.573293784179725 7.8
    vertex -0.019533869247416173 56.37329378417972 7.799999999999997
    vertex -0.019533869247416173 46.573293784179725 7.799999999999997
  endloop
endfacet
facet normal -1.652324110867908e-15 -9.740948156803536e-47 1.0
  outer loop
    vertex -0.019533869247416173 56.37329378417972 7.799999999999997
    vertex 1.580466130752584 46.573293784179725 7.8
    vertex 1.580466130752584 56.37329378417972 7.8
  endloop
endfacet
facet normal 1.0 -3.120848263886716e-17 1.5910991362465203e-15
  outer loop
    vertex 1.5804661307525945 56.37329378417972 1.5
    vertex 1.5804661307525945 55.37329378417972 4.649999999999998
    vertex 1.5804661307525945 55.37329378417972 1.5
  endloop
endfacet
facet normal 1.0 -3.120848263886716e-17 1.5910991362465203e-15
  outer loop
    vertex 1.5804661307525945 47.573293784179725 1.5
    vertex 1.580466130752584 46.573293784179725 7.8
    vertex 1.5804661307525945 46.573293784179725 1.5
  endloop
endfacet
facet normal 1.0 -3.120848263886716e-17 1.5910991362465203e-15
  outer loop
    vertex 1.580466130752584 46.573293784179725 7.8
    vertex 1.5804661307525945 47.573293784179725 1.5
    vertex 1.5804661307525945 47.573293784179725 4.649999999999998
  endloop
endfacet
facet normal 1.0 -3.120848263886716e-17 1.5910991362465203e-15
  outer loop
    vertex 1.580466130752584 46.573293784179725 7.8
    vertex 1.5804661307525945 47.573293784179725 4.649999999999998
    vertex 1.580466130752584 56.37329378417972 7.8
  endloop
endfacet
facet normal 1.0 -3.120848263886716e-17 1.5910991362465203e-15
  outer loop
    vertex 1.580466130752584 56.37329378417972 7.8
    vertex 1.5804661307525945 47.573293784179725 4.649999999999998
    vertex 1.5804661307525945 55.37329378417972 4.649999999999998
  endloop
endfacet
facet normal 1.0 -3.120848263886716e-17 1.5910991362465203e-15
  outer loop
    vertex 1.580466130752584 56.37329378417972 7.8
    vertex 1.5804661307525945 55.37329378417972 4.649999999999998
    vertex 1.5804661307525945 56.37329378417972 1.5
  endloop
endfacet
facet normal 0.5330376563645237 -3.31913339914297e-17 0.846091518038927
  outer loop
    vertex 6.580466130752593 45.473293784179724 1.5
    vertex 1.5804661307525945 55.37329378417972 4.649999999999998
    vertex 1.5804661307525945 47.573293784179725 4.649999999999998
  endloop
endfacet
facet normal 0.5330376563645237 -3.31913339914297e-17 0.846091518038927
  outer loop
    vertex 1.5804661307525945 55.37329378417972 4.649999999999998
    vertex 6.580466130752593 45.473293784179724 1.5
    vertex 6.580466130752595 57.473293784179724 1.5
  endloop
endfacet
facet normal -0.38723248435509217 -0.9219821056073613 1.257962743125512e-16
  outer loop
    vertex 1.5804661307525945 47.573293784179725 4.649999999999998
    vertex 1.5804661307525945 47.573293784179725 1.5
    vertex 6.580466130752593 45.473293784179724 1.5
  endloop
endfacet
facet normal -0.3872324843550914 0.9219821056073617 -6.28981371562756e-17
  outer loop
    vertex 1.5804661307525945 55.37329378417972 4.649999999999998
    vertex 6.580466130752595 57.473293784179724 1.5
    vertex 1.5804661307525945 55.37329378417972 1.5
  endloop
endfacet
facet normal -0.9659258262890684 -0.25881904510252013 0.0
  outer loop
    vertex 16.316910096940124 52.715625200671816 1.4999999999999998
    vertex 16.480466130752593 51.473293784179724 2.46747067222941e-15
    vertex 16.480466130752593 51.473293784179724 1.4999999999999998
  endloop
endfacet
facet normal -1.0 -2.8515551666070086e-16 0.0
  outer loop
    vertex 16.480466130752593 51.473293784179724 2.46747067222941e-15
    vertex 16.316910096940124 52.715625200671816 1.4999999999999998
    vertex 16.316910096940124 52.715625200671816 2.46747067222941e-15
  endloop
endfacet
facet normal -1.0 -2.8515551666070086e-16 0.0
  outer loop
    vertex 16.480466130752593 51.473293784179724 1.4999999999999998
    vertex 16.316910096940124 50.23096236768762 2.46747067222941e-15
    vertex 16.316910096940124 50.23096236768762 1.4999999999999998
  endloop
endfacet
facet normal -0.9659258262890686 0.25881904510251985 0.0
  outer loop
    vertex 16.316910096940124 50.23096236768762 2.46747067222941e-15
    vertex 16.480466130752593 51.473293784179724 1.4999999999999998
    vertex 16.480466130752593 51.473293784179724 2.46747067222941e-15
  endloop
endfacet
facet normal -0.9659258262890686 0.25881904510251985 0.0
  outer loop
    vertex 16.316910096940124 50.23096236768762 1.4999999999999998
    vertex 15.8373880689179 49.07329378417972 2.46747067222941e-15
    vertex 15.8373880689179 49.07329378417972 1.4999999999999998
  endloop
endfacet
facet normal -0.8660254037844379 0.5000000000000011 0.0
  outer loop
    vertex 15.8373880689179 49.07329378417972 2.46747067222941e-15
    vertex 16.316910096940124 50.23096236768762 1.4999999999999998
    vertex 16.316910096940124 50.23096236768762 2.46747067222941e-15
  endloop
endfacet
facet normal -0.8660254037844379 0.5000000000000011 0.0
  outer loop
    vertex 15.8373880689179 49.07329378417972 1.4999999999999998
    vertex 15.074578680448022 48.079181234484295 2.46747067222941e-15
    vertex 15.074578680448022 48.079181234484295 1.4999999999999998
  endloop
endfacet
facet normal -0.7071067811865479 0.7071067811865474 0.0
  outer loop
    vertex 15.074578680448022 48.079181234484295 2.46747067222941e-15
    vertex 15.8373880689179 49.07329378417972 1.4999999999999998
    vertex 15.8373880689179 49.07329378417972 2.46747067222941e-15
  endloop
endfacet
facet normal -0.4999999999999997 0.8660254037844387 0.0
  outer loop
    vertex 14.08046613075259 47.31637184601441 1.4999999999999998
    vertex 15.074578680448022 48.079181234484295 2.46747067222941e-15
    vertex 14.08046613075259 47.31637184601441 2.46747067222941e-15
  endloop
endfacet
facet normal -0.7071067811865479 0.7071067811865474 0.0
  outer loop
    vertex 15.074578680448022 48.079181234484295 2.46747067222941e-15
    vertex 14.08046613075259 47.31637184601441 1.4999999999999998
    vertex 15.074578680448022 48.079181234484295 1.4999999999999998
  endloop
endfacet
facet normal -0.2588190451025202 0.9659258262890685 0.0
  outer loop
    vertex 12.922797547244691 46.836849817992196 1.4999999999999998
    vertex 14.08046613075259 47.31637184601441 2.46747067222941e-15
    vertex 12.922797547244691 46.836849817992196 2.46747067222941e-15
  endloop
endfacet
facet normal -0.4999999999999997 0.8660254037844387 0.0
  outer loop
    vertex 14.08046613075259 47.31637184601441 2.46747067222941e-15
    vertex 12.922797547244691 46.836849817992196 1.4999999999999998
    vertex 14.08046613075259 47.31637184601441 1.4999999999999998
  endloop
endfacet
facet normal -1.5148886822599742e-16 1.0 0.0
  outer loop
    vertex 11.680466130752592 46.67329378417972 1.4999999999999998
    vertex 12.922797547244691 46.836849817992196 2.46747067222941e-15
    vertex 11.680466130752592 46.67329378417972 2.46747067222941e-15
  endloop
endfacet
facet normal -0.2588190451025202 0.9659258262890685 0.0
  outer loop
    vertex 12.922797547244691 46.836849817992196 2.46747067222941e-15
    vertex 11.680466130752592 46.67329378417972 1.4999999999999998
    vertex 12.922797547244691 46.836849817992196 1.4999999999999998
  endloop
endfacet
facet normal 0.25881904510252224 0.9659258262890679 0.0
  outer loop
    vertex 10.43813471426049 46.836849817992196 1.4999999999999998
    vertex 11.680466130752592 46.67329378417972 2.46747067222941e-15
    vertex 10.43813471426049 46.836849817992196 2.46747067222941e-15
  endloop
endfacet
facet normal -1.5148886822599742e-16 1.0 0.0
  outer loop
    vertex 11.680466130752592 46.67329378417972 2.46747067222941e-15
    vertex 10.43813471426049 46.836849817992196 1.4999999999999998
    vertex 11.680466130752592 46.67329378417972 1.4999999999999998
  endloop
endfacet
facet normal 0.5000000000000009 0.8660254037844383 0.0
  outer loop
    vertex 9.280466130752593 47.31637184601442 1.4999999999999998
    vertex 10.43813471426049 46.836849817992196 2.46747067222941e-15
    vertex 9.280466130752593 47.31637184601442 2.46747067222941e-15
  endloop
endfacet
facet normal 0.25881904510252224 0.9659258262890679 0.0
  outer loop
    vertex 10.43813471426049 46.836849817992196 2.46747067222941e-15
    vertex 9.280466130752593 47.31637184601442 1.4999999999999998
    vertex 10.43813471426049 46.836849817992196 1.4999999999999998
  endloop
endfacet
facet normal -0.0 -0.0 1.0
  outer loop
    vertex 6.580466130752593 45.473293784179724 1.5
    vertex 6.880466130752595 51.473293784179724 1.4999999999999998
    vertex 6.580466130752595 57.473293784179724 1.5
  endloop
endfacet
facet normal -0.0 -0.0 1.0
  outer loop
    vertex 6.880466130752595 51.473293784179724 1.4999999999999998
    vertex 6.580466130752593 45.473293784179724 1.5
    vertex 7.0440221645650665 50.230962367687624 1.4999999999999998
  endloop
endfacet
facet normal -0.0 -0.0 1.0
  outer loop
    vertex 7.0440221645650665 50.230962367687624 1.4999999999999998
    vertex 6.580466130752593 45.473293784179724 1.5
    vertex 7.523544192587288 49.07329378417972 1.4999999999999998
  endloop
endfacet
facet normal -0.0 -0.0 1.0
  outer loop
    vertex 7.523544192587288 49.07329378417972 1.4999999999999998
    vertex 6.580466130752593 45.473293784179724 1.5
    vertex 8.286353581057165 48.079181234484295 1.4999999999999998
  endloop
endfacet
facet normal -0.0 -0.0 1.0
  outer loop
    vertex 8.286353581057165 48.079181234484295 1.4999999999999998
    vertex 6.580466130752593 45.473293784179724 1.5
    vertex 9.280466130752593 47.31637184601442 1.4999999999999998
  endloop
endfacet
facet normal -0.0 -0.0 1.0
  outer loop
    vertex 9.280466130752593 47.31637184601442 1.4999999999999998
    vertex 6.580466130752593 45.473293784179724 1.5
    vertex 12.580466130752592 45.473293784179724 1.5
  endloop
endfacet
facet normal -0.0 -0.0 1.0
  outer loop
    vertex 9.280466130752593 47.31637184601442 1.4999999999999998
    vertex 12.580466130752592 45.473293784179724 1.5
    vertex 10.43813471426049 46.836849817992196 1.4999999999999998
  endloop
endfacet
facet normal -0.0 -0.0 1.0
  outer loop
    vertex 10.43813471426049 46.836849817992196 1.4999999999999998
    vertex 12.580466130752592 45.473293784179724 1.5
    vertex 11.680466130752592 46.67329378417972 1.4999999999999998
  endloop
endfacet
facet normal -0.0 -0.0 1.0
  outer loop
    vertex 11.680466130752592 46.67329378417972 1.4999999999999998
    vertex 12.580466130752592 45.473293784179724 1.5
    vertex 12.922797547244691 46.836849817992196 1.4999999999999998
  endloop
endfacet
facet normal -0.0 -0.0 1.0
  outer loop
    vertex 12.922797547244691 46.836849817992196 1.4999999999999998
    vertex 12.580466130752592 45.473293784179724 1.5
    vertex 14.133380401367717 45.677738826445314 1.5
  endloop
endfacet
facet normal -0.0 -0.0 1.0
  outer loop
    vertex 12.922797547244691 46.836849817992196 1.4999999999999998
    vertex 14.133380401367717 45.677738826445314 1.5
    vertex 14.08046613075259 47.31637184601441 1.4999999999999998
  endloop
endfacet
facet normal -0.0 -0.0 1.0
  outer loop
    vertex 14.08046613075259 47.31637184601441 1.4999999999999998
    vertex 14.133380401367717 45.677738826445314 1.5
    vertex 15.074578680448022 48.079181234484295 1.4999999999999998
  endloop
endfacet
facet normal -0.0 -0.0 1.0
  outer loop
    vertex 15.074578680448022 48.079181234484295 1.4999999999999998
    vertex 14.133380401367717 45.677738826445314 1.5
    vertex 15.580466130752594 46.277141361473085 1.5
  endloop
endfacet
facet normal -0.0 -0.0 1.0
  outer loop
    vertex 15.074578680448022 48.079181234484295 1.4999999999999998
    vertex 15.580466130752594 46.277141361473085 1.5
    vertex 15.8373880689179 49.07329378417972 1.4999999999999998
  endloop
endfacet
facet normal -0.0 -0.0 1.0
  outer loop
    vertex 15.8373880689179 49.07329378417972 1.4999999999999998
    vertex 15.580466130752594 46.277141361473085 1.5
    vertex 16.823106817871878 47.23065309706044 1.5
  endloop
endfacet
facet normal -0.0 -0.0 1.0
  outer loop
    vertex 15.8373880689179 49.07329378417972 1.4999999999999998
    vertex 16.823106817871878 47.23065309706044 1.5
    vertex 16.316910096940124 50.23096236768762 1.4999999999999998
  endloop
endfacet
facet normal -0.0 -0.0 1.0
  outer loop
    vertex 16.316910096940124 50.23096236768762 1.4999999999999998
    vertex 16.823106817871878 47.23065309706044 1.5
    vertex 16.480466130752593 51.473293784179724 1.4999999999999998
  endloop
endfacet
facet normal -0.0 -0.0 1.0
  outer loop
    vertex 6.580466130752595 57.473293784179724 1.5
    vertex 9.280466130752595 55.63021572234503 1.4999999999999998
    vertex 12.580466130752594 57.473293784179724 1.5
  endloop
endfacet
facet normal -0.0 -0.0 1.0
  outer loop
    vertex 9.280466130752595 55.63021572234503 1.4999999999999998
    vertex 6.580466130752595 57.473293784179724 1.5
    vertex 8.286353581057167 54.86740633387515 1.4999999999999998
  endloop
endfacet
facet normal -0.0 -0.0 1.0
  outer loop
    vertex 8.286353581057167 54.86740633387515 1.4999999999999998
    vertex 6.580466130752595 57.473293784179724 1.5
    vertex 7.5235441925872895 53.87329378417973 1.4999999999999998
  endloop
endfacet
facet normal -0.0 -0.0 1.0
  outer loop
    vertex 7.5235441925872895 53.87329378417973 1.4999999999999998
    vertex 6.580466130752595 57.473293784179724 1.5
    vertex 7.0440221645650665 52.715625200671816 1.4999999999999998
  endloop
endfacet
facet normal -0.0 -0.0 1.0
  outer loop
    vertex 7.0440221645650665 52.715625200671816 1.4999999999999998
    vertex 6.580466130752595 57.473293784179724 1.5
    vertex 6.880466130752595 51.473293784179724 1.4999999999999998
  endloop
endfacet
facet normal -0.0 -0.0 1.0
  outer loop
    vertex 12.580466130752594 57.473293784179724 1.5
    vertex 9.280466130752595 55.63021572234503 1.4999999999999998
    vertex 10.438134714260496 56.10973775036725 1.4999999999999998
  endloop
endfacet
facet normal -0.0 -0.0 1.0
  outer loop
    vertex 12.580466130752594 57.473293784179724 1.5
    vertex 10.438134714260496 56.10973775036725 1.4999999999999998
    vertex 11.680466130752594 56.27329378417972 1.4999999999999998
  endloop
endfacet
facet normal -0.0 -0.0 1.0
  outer loop
    vertex 12.580466130752594 57.473293784179724 1.5
    vertex 11.680466130752594 56.27329378417972 1.4999999999999998
    vertex 12.922797547244697 56.10973775036725 1.4999999999999998
  endloop
endfacet
facet normal -0.0 -0.0 1.0
  outer loop
    vertex 12.580466130752594 57.473293784179724 1.5
    vertex 12.922797547244697 56.10973775036725 1.4999999999999998
    vertex 14.133380401367722 57.268848741914134 1.5
  endloop
endfacet
facet normal -0.0 -0.0 1.0
  outer loop
    vertex 14.133380401367722 57.268848741914134 1.5
    vertex 12.922797547244697 56.10973775036725 1.4999999999999998
    vertex 14.080466130752596 55.63021572234503 1.4999999999999998
  endloop
endfacet
facet normal -0.0 -0.0 1.0
  outer loop
    vertex 14.133380401367722 57.268848741914134 1.5
    vertex 14.080466130752596 55.63021572234503 1.4999999999999998
    vertex 15.074578680448022 54.86740633387515 1.4999999999999998
  endloop
endfacet
facet normal -0.0 -0.0 1.0
  outer loop
    vertex 14.133380401367722 57.268848741914134 1.5
    vertex 15.074578680448022 54.86740633387515 1.4999999999999998
    vertex 15.580466130752596 56.669446206886356 1.5
  endloop
endfacet
facet normal -0.0 -0.0 1.0
  outer loop
    vertex 15.580466130752596 56.669446206886356 1.5
    vertex 15.074578680448022 54.86740633387515 1.4999999999999998
    vertex 15.8373880689179 53.873293784179715 1.4999999999999998
  endloop
endfacet
facet normal -0.0 -0.0 1.0
  outer loop
    vertex 15.580466130752596 56.669446206886356 1.5
    vertex 15.8373880689179 53.873293784179715 1.4999999999999998
    vertex 16.82310681787188 55.71593447129901 1.5
  endloop
endfacet
facet normal -0.0 -0.0 1.0
  outer loop
    vertex 16.82310681787188 55.71593447129901 1.5
    vertex 15.8373880689179 53.873293784179715 1.4999999999999998
    vertex 16.316910096940124 52.715625200671816 1.4999999999999998
  endloop
endfacet
facet normal -0.0 -0.0 1.0
  outer loop
    vertex 16.82310681787188 55.71593447129901 1.5
    vertex 16.316910096940124 52.715625200671816 1.4999999999999998
    vertex 16.480466130752593 51.473293784179724 1.4999999999999998
  endloop
endfacet
facet normal -0.0 -0.0 1.0
  outer loop
    vertex 16.82310681787188 55.71593447129901 1.5
    vertex 16.480466130752593 51.473293784179724 1.4999999999999998
    vertex 16.823106817871878 47.23065309706044 1.5
  endloop
endfacet
facet normal -0.0 -0.0 1.0
  outer loop
    vertex 16.82310681787188 55.71593447129901 1.5
    vertex 16.823106817871878 47.23065309706044 1.5
    vertex 17.776618553459222 48.473293784179724 1.5
  endloop
endfacet
facet normal -0.0 -0.0 1.0
  outer loop
    vertex 16.82310681787188 55.71593447129901 1.5
    vertex 17.776618553459222 48.473293784179724 1.5
    vertex 17.77661855345923 54.47329378417972 1.5
  endloop
endfacet
facet normal -0.0 -0.0 1.0
  outer loop
    vertex 17.77661855345923 54.47329378417972 1.5
    vertex 17.776618553459222 48.473293784179724 1.5
    vertex 18.376021088487004 49.92037951356459 1.5
  endloop
endfacet
facet normal -0.0 -0.0 1.0
  outer loop
    vertex 17.77661855345923 54.47329378417972 1.5
    vertex 18.376021088487004 49.92037951356459 1.5
    vertex 18.376021088487004 53.02620805479484 1.5
  endloop
endfacet
facet normal -0.0 -0.0 1.0
  outer loop
    vertex 18.376021088487004 53.02620805479484 1.5
    vertex 18.376021088487004 49.92037951356459 1.5
    vertex 18.580466130752594 51.473293784179724 1.5
  endloop
endfacet
facet normal 0.0 -1.0 0.0
  outer loop
    vertex 12.580466130752592 45.473293784179724 1.5
    vertex 1.5804661307525945 45.473293784179724 0.0
    vertex 12.580466130752592 45.473293784179724 0.0
  endloop
endfacet
facet normal 0.0 -1.0 0.0
  outer loop
    vertex 1.5804661307525945 45.473293784179724 0.0
    vertex 12.580466130752592 45.473293784179724 1.5
    vertex 1.5804661307525945 45.473293784179724 1.5
  endloop
endfacet
facet normal 0.0 -1.0 0.0
  outer loop
    vertex 1.5804661307525945 45.473293784179724 1.5
    vertex 12.580466130752592 45.473293784179724 1.5
    vertex 6.580466130752593 45.473293784179724 1.5
  endloop
endfacet
facet normal 0.13052619222005146 0.9914448613738105 0.0
  outer loop
    vertex 12.580466130752594 57.473293784179724 1.5
    vertex 14.133380401367722 57.268848741914134 0.0
    vertex 12.580466130752594 57.473293784179724 0.0
  endloop
endfacet
facet normal 0.2588190451025199 0.9659258262890684 0.0
  outer loop
    vertex 14.133380401367722 57.268848741914134 0.0
    vertex 12.580466130752594 57.473293784179724 1.5
    vertex 14.133380401367722 57.268848741914134 1.5
  endloop
endfacet
facet normal 0.2588190451025199 0.9659258262890684 0.0
  outer loop
    vertex 14.133380401367722 57.268848741914134 1.5
    vertex 15.580466130752596 56.669446206886356 0.0
    vertex 14.133380401367722 57.268848741914134 0.0
  endloop
endfacet
facet normal 0.5000000000000002 0.8660254037844384 0.0
  outer loop
    vertex 15.580466130752596 56.669446206886356 0.0
    vertex 14.133380401367722 57.268848741914134 1.5
    vertex 15.580466130752596 56.669446206886356 1.5
  endloop
endfacet
facet normal 0.5000000000000002 0.8660254037844384 0.0
  outer loop
    vertex 15.580466130752596 56.669446206886356 1.5
    vertex 16.82310681787188 55.71593447129901 0.0
    vertex 15.580466130752596 56.669446206886356 0.0
  endloop
endfacet
facet normal 0.7071067811865489 0.7071067811865461 0.0
  outer loop
    vertex 16.82310681787188 55.71593447129901 0.0
    vertex 15.580466130752596 56.669446206886356 1.5
    vertex 16.82310681787188 55.71593447129901 1.5
  endloop
endfacet
facet normal 0.7071067811865489 0.7071067811865461 0.0
  outer loop
    vertex 16.82310681787188 55.71593447129901 0.0
    vertex 17.77661855345923 54.47329378417972 1.5
    vertex 17.77661855345923 54.47329378417972 0.0
  endloop
endfacet
facet normal 0.8660254037844392 0.49999999999999933 0.0
  outer loop
    vertex 17.77661855345923 54.47329378417972 1.5
    vertex 16.82310681787188 55.71593447129901 0.0
    vertex 16.82310681787188 55.71593447129901 1.5
  endloop
endfacet
facet normal 0.8660254037844392 0.49999999999999933 0.0
  outer loop
    vertex 17.77661855345923 54.47329378417972 0.0
    vertex 18.376021088487004 53.02620805479484 1.5
    vertex 18.376021088487004 53.02620805479484 0.0
  endloop
endfacet
facet normal 0.9659258262890682 0.25881904510252063 0.0
  outer loop
    vertex 18.376021088487004 53.02620805479484 1.5
    vertex 17.77661855345923 54.47329378417972 0.0
    vertex 17.77661855345923 54.47329378417972 1.5
  endloop
endfacet
facet normal 0.9659258262890682 0.25881904510252063 0.0
  outer loop
    vertex 18.376021088487004 53.02620805479484 0.0
    vertex 18.580466130752594 51.473293784179724 1.5
    vertex 18.580466130752594 51.473293784179724 0.0
  endloop
endfacet
facet normal 1.0 2.227777473911726e-16 0.0
  outer loop
    vertex 18.580466130752594 51.473293784179724 1.5
    vertex 18.376021088487004 53.02620805479484 0.0
    vertex 18.376021088487004 53.02620805479484 1.5
  endloop
endfacet
facet normal 1.0 2.227777473911726e-16 0.0
  outer loop
    vertex 18.580466130752594 51.473293784179724 0.0
    vertex 18.376021088487004 49.92037951356459 1.5
    vertex 18.376021088487004 49.92037951356459 0.0
  endloop
endfacet
facet normal 0.9659258262890679 -0.25881904510252207 0.0
  outer loop
    vertex 18.376021088487004 49.92037951356459 1.5
    vertex 18.580466130752594 51.473293784179724 0.0
    vertex 18.580466130752594 51.473293784179724 1.5
  endloop
endfacet
facet normal 0.9659258262890679 -0.25881904510252207 0.0
  outer loop
    vertex 18.376021088487004 49.92037951356459 0.0
    vertex 17.776618553459222 48.473293784179724 1.5
    vertex 17.776618553459222 48.473293784179724 0.0
  endloop
endfacet
facet normal 0.866025403784438 -0.500000000000001 0.0
  outer loop
    vertex 17.776618553459222 48.473293784179724 1.5
    vertex 18.376021088487004 49.92037951356459 0.0
    vertex 18.376021088487004 49.92037951356459 1.5
  endloop
endfacet
facet normal 0.866025403784438 -0.500000000000001 0.0
  outer loop
    vertex 17.776618553459222 48.473293784179724 0.0
    vertex 16.823106817871878 47.23065309706044 1.5
    vertex 16.823106817871878 47.23065309706044 0.0
  endloop
endfacet
facet normal 0.7071067811865486 -0.7071067811865466 0.0
  outer loop
    vertex 16.823106817871878 47.23065309706044 1.5
    vertex 17.776618553459222 48.473293784179724 0.0
    vertex 17.776618553459222 48.473293784179724 1.5
  endloop
endfacet
facet normal 0.7071067811865486 -0.7071067811865466 0.0
  outer loop
    vertex 16.823106817871878 47.23065309706044 1.5
    vertex 15.580466130752594 46.277141361473085 0.0
    vertex 16.823106817871878 47.23065309706044 0.0
  endloop
endfacet
facet normal 0.49999999999999994 -0.8660254037844387 0.0
  outer loop
    vertex 15.580466130752594 46.277141361473085 0.0
    vertex 16.823106817871878 47.23065309706044 1.5
    vertex 15.580466130752594 46.277141361473085 1.5
  endloop
endfacet
facet normal 0.49999999999999994 -0.8660254037844387 0.0
  outer loop
    vertex 15.580466130752594 46.277141361473085 1.5
    vertex 14.133380401367717 45.677738826445314 0.0
    vertex 15.580466130752594 46.277141361473085 0.0
  endloop
endfacet
facet normal 0.2588190451025197 -0.9659258262890685 0.0
  outer loop
    vertex 14.133380401367717 45.677738826445314 0.0
    vertex 15.580466130752594 46.277141361473085 1.5
    vertex 14.133380401367717 45.677738826445314 1.5
  endloop
endfacet
facet normal 0.2588190451025197 -0.9659258262890685 0.0
  outer loop
    vertex 14.133380401367717 45.677738826445314 1.5
    vertex 12.580466130752592 45.473293784179724 0.0
    vertex 14.133380401367717 45.677738826445314 0.0
  endloop
endfacet
facet normal 0.1305261922200518 -0.9914448613738104 0.0
  outer loop
    vertex 12.580466130752592 45.473293784179724 0.0
    vertex 14.133380401367717 45.677738826445314 1.5
    vertex 12.580466130752592 45.473293784179724 1.5
  endloop
endfacet
facet normal -0.0 -0.0 1.0
  outer loop
    vertex 6.580466130752595 57.473293784179724 1.5
    vertex 1.5804661307525945 56.37329378417972 1.5
    vertex 1.5804661307525945 55.37329378417972 1.5
  endloop
endfacet
facet normal -0.0 -0.0 1.0
  outer loop
    vertex 1.5804661307525945 56.37329378417972 1.5
    vertex 6.580466130752595 57.473293784179724 1.5
    vertex 1.5804661307525945 57.473293784179724 1.5
  endloop
endfacet
facet normal -0.0 1.0 -0.0
  outer loop
    vertex 1.5804661307525945 57.473293784179724 1.5
    vertex 12.580466130752594 57.473293784179724 0.0
    vertex 1.5804661307525945 57.473293784179724 0.0
  endloop
endfacet
facet normal -0.0 1.0 -0.0
  outer loop
    vertex 12.580466130752594 57.473293784179724 0.0
    vertex 1.5804661307525945 57.473293784179724 1.5
    vertex 12.580466130752594 57.473293784179724 1.5
  endloop
endfacet
facet normal -0.0 1.0 -0.0
  outer loop
    vertex 12.580466130752594 57.473293784179724 1.5
    vertex 1.5804661307525945 57.473293784179724 1.5
    vertex 6.580466130752595 57.473293784179724 1.5
  endloop
endfacet
facet normal -1.0 0.0 0.0
  outer loop
    vertex 1.5804661307525945 57.473293784179724 1.5
    vertex 1.5804661307525945 56.37329378417972 0.0
    vertex 1.5804661307525945 56.37329378417972 1.5
  endloop
endfacet
facet normal -1.0 0.0 0.0
  outer loop
    vertex 1.5804661307525945 56.37329378417972 0.0
    vertex 1.5804661307525945 57.473293784179724 1.5
    vertex 1.5804661307525945 57.473293784179724 0.0
  endloop
endfacet
facet normal -0.0 -0.0 1.0
  outer loop
    vertex 6.580466130752593 45.473293784179724 1.5
    vertex 1.5804661307525945 46.573293784179725 1.5
    vertex 1.5804661307525945 45.473293784179724 1.5
  endloop
endfacet
facet normal -0.0 -0.0 1.0
  outer loop
    vertex 1.5804661307525945 46.573293784179725 1.5
    vertex 6.580466130752593 45.473293784179724 1.5
    vertex 1.5804661307525945 47.573293784179725 1.5
  endloop
endfacet
facet normal -1.0 0.0 0.0
  outer loop
    vertex 1.5804661307525945 46.573293784179725 1.5
    vertex 1.5804661307525945 45.473293784179724 0.0
    vertex 1.5804661307525945 45.473293784179724 1.5
  endloop
endfacet
facet normal -1.0 0.0 0.0
  outer loop
    vertex 1.5804661307525945 45.473293784179724 0.0
    vertex 1.5804661307525945 46.573293784179725 1.5
    vertex 1.5804661307525945 46.573293784179725 0.0
  endloop
endfacet
facet normal 0.0 -1.0 0.0
  outer loop
    vertex 1.5804661307525945 46.573293784179725 1.5
    vertex -0.019533869247405765 46.573293784179725 0.0
    vertex 1.5804661307525945 46.573293784179725 0.0
  endloop
endfacet
facet normal 0.0 -1.0 0.0
  outer loop
    vertex -0.019533869247405765 46.573293784179725 0.0
    vertex 1.5804661307525945 46.573293784179725 1.5
    vertex -0.019533869247416173 46.573293784179725 7.799999999999997
  endloop
endfacet
facet normal 0.0 -1.0 0.0
  outer loop
    vertex -0.019533869247416173 46.573293784179725 7.799999999999997
    vertex 1.5804661307525945 46.573293784179725 1.5
    vertex 1.580466130752584 46.573293784179725 7.8
  endloop
endfacet
facet normal -1.0 0.0 0.0
  outer loop
    vertex -0.019533869247416173 56.37329378417972 7.799999999999997
    vertex -0.019533869247405765 46.573293784179725 0.0
    vertex -0.019533869247416173 46.573293784179725 7.799999999999997
  endloop
endfacet
facet normal -1.0 0.0 0.0
  outer loop
    vertex -0.019533869247405765 46.573293784179725 0.0
    vertex -0.019533869247416173 56.37329378417972 7.799999999999997
    vertex -0.019533869247405765 56.37329378417972 0.0
  endloop
endfacet
facet normal 0.2588190451025202 -0.9659258262890685 0.0
  outer loop
    vertex 10.438134714260496 56.10973775036725 1.4999999999999998
    vertex 9.280466130752595 55.63021572234503 2.46747067222941e-15
    vertex 10.438134714260496 56.10973775036725 2.46747067222941e-15
  endloop
endfacet
facet normal 0.4999999999999986 -0.8660254037844395 0.0
  outer loop
    vertex 9.280466130752595 55.63021572234503 2.46747067222941e-15
    vertex 10.438134714260496 56.10973775036725 1.4999999999999998
    vertex 9.280466130752595 55.63021572234503 1.4999999999999998
  endloop
endfacet
facet normal 2.1386663749552573e-16 -1.0 0.0
  outer loop
    vertex 11.680466130752594 56.27329378417972 1.4999999999999998
    vertex 10.438134714260496 56.10973775036725 2.46747067222941e-15
    vertex 11.680466130752594 56.27329378417972 2.46747067222941e-15
  endloop
endfacet
facet normal 0.2588190451025202 -0.9659258262890685 0.0
  outer loop
    vertex 10.438134714260496 56.10973775036725 2.46747067222941e-15
    vertex 11.680466130752594 56.27329378417972 1.4999999999999998
    vertex 10.438134714260496 56.10973775036725 1.4999999999999998
  endloop
endfacet
facet normal -0.25881904510251996 -0.9659258262890685 0.0
  outer loop
    vertex 12.922797547244697 56.10973775036725 1.4999999999999998
    vertex 11.680466130752594 56.27329378417972 2.46747067222941e-15
    vertex 12.922797547244697 56.10973775036725 2.46747067222941e-15
  endloop
endfacet
facet normal 2.1386663749552573e-16 -1.0 0.0
  outer loop
    vertex 11.680466130752594 56.27329378417972 2.46747067222941e-15
    vertex 12.922797547244697 56.10973775036725 1.4999999999999998
    vertex 11.680466130752594 56.27329378417972 1.4999999999999998
  endloop
endfacet
facet normal -0.4999999999999994 -0.8660254037844389 0.0
  outer loop
    vertex 14.080466130752596 55.63021572234503 1.4999999999999998
    vertex 12.922797547244697 56.10973775036725 2.46747067222941e-15
    vertex 14.080466130752596 55.63021572234503 2.46747067222941e-15
  endloop
endfacet
facet normal -0.25881904510251996 -0.9659258262890685 0.0
  outer loop
    vertex 12.922797547244697 56.10973775036725 2.46747067222941e-15
    vertex 14.080466130752596 55.63021572234503 1.4999999999999998
    vertex 12.922797547244697 56.10973775036725 1.4999999999999998
  endloop
endfacet
facet normal -0.7071067811865493 -0.7071067811865457 0.0
  outer loop
    vertex 15.074578680448022 54.86740633387515 1.4999999999999998
    vertex 14.080466130752596 55.63021572234503 2.46747067222941e-15
    vertex 15.074578680448022 54.86740633387515 2.46747067222941e-15
  endloop
endfacet
facet normal -0.4999999999999994 -0.8660254037844389 0.0
  outer loop
    vertex 14.080466130752596 55.63021572234503 2.46747067222941e-15
    vertex 15.074578680448022 54.86740633387515 1.4999999999999998
    vertex 14.080466130752596 55.63021572234503 1.4999999999999998
  endloop
endfacet
facet normal -0.7071067811865493 -0.7071067811865457 0.0
  outer loop
    vertex 15.074578680448022 54.86740633387515 1.4999999999999998
    vertex 15.8373880689179 53.873293784179715 2.46747067222941e-15
    vertex 15.8373880689179 53.873293784179715 1.4999999999999998
  endloop
endfacet
facet normal -0.8660254037844393 -0.4999999999999988 0.0
  outer loop
    vertex 15.8373880689179 53.873293784179715 2.46747067222941e-15
    vertex 15.074578680448022 54.86740633387515 1.4999999999999998
    vertex 15.074578680448022 54.86740633387515 2.46747067222941e-15
  endloop
endfacet
facet normal -0.8660254037844393 -0.4999999999999988 0.0
  outer loop
    vertex 15.8373880689179 53.873293784179715 1.4999999999999998
    vertex 16.316910096940124 52.715625200671816 2.46747067222941e-15
    vertex 16.316910096940124 52.715625200671816 1.4999999999999998
  endloop
endfacet
facet normal -0.9659258262890684 -0.25881904510252013 0.0
  outer loop
    vertex 16.316910096940124 52.715625200671816 2.46747067222941e-15
    vertex 15.8373880689179 53.873293784179715 1.4999999999999998
    vertex 15.8373880689179 53.873293784179715 2.46747067222941e-15
  endloop
endfacet
endsolid Plotter-v3-z-PenMount
