solid Plotter-v3-z-PenMount
facet normal -0.3826834323650867 0.9238795325112881 -0.0
  outer loop
    vertex 4.2575290459340565 82.457716658184 3.9999999999999996
    vertex 6.18697668511389 83.25692003822103 0.0
    vertex 4.2575290459340565 82.457716658184 0.0
  endloop
endfacet
facet normal -0.2588190451025194 0.9659258262890686 0.0
  outer loop
    vertex 6.18697668511389 83.25692003822103 0.0
    vertex 4.2575290459340565 82.457716658184 3.9999999999999996
    vertex 6.18697668511389 83.25692003822103 3.9999999999999996
  endloop
endfacet
facet normal -0.2588190451025194 0.9659258262890686 0.0
  outer loop
    vertex 6.18697668511389 83.25692003822103 3.9999999999999996
    vertex 8.25752904593405 83.52951342790848 0.0
    vertex 6.18697668511389 83.25692003822103 0.0
  endloop
endfacet
facet normal -3.6535550572152315e-16 1.0 0.0
  outer loop
    vertex 8.25752904593405 83.52951342790848 0.0
    vertex 6.18697668511389 83.25692003822103 3.9999999999999996
    vertex 8.25752904593405 83.52951342790848 3.9999999999999996
  endloop
endfacet
facet normal -0.7071067811865466 -0.7071067811865486 0.0
  outer loop
    vertex 11.616286256570152 78.88827063854458 3.9999999999999996
    vertex 10.632529045934051 79.64313409588456 0.0
    vertex 11.616286256570152 78.88827063854458 0.0
  endloop
endfacet
facet normal -0.5000000000000019 -0.8660254037844376 0.0
  outer loop
    vertex 10.632529045934051 79.64313409588456 0.0
    vertex 11.616286256570152 78.88827063854458 3.9999999999999996
    vertex 10.632529045934051 79.64313409588456 3.9999999999999996
  endloop
endfacet
facet normal -0.5000000000000019 -0.8660254037844376 0.0
  outer loop
    vertex 10.632529045934051 79.64313409588456 3.9999999999999996
    vertex 9.486919510171024 80.11766110278157 0.0
    vertex 10.632529045934051 79.64313409588456 0.0
  endloop
endfacet
facet normal -0.2588190451025223 -0.965925826289068 0.0
  outer loop
    vertex 9.486919510171024 80.11766110278157 0.0
    vertex 10.632529045934051 79.64313409588456 3.9999999999999996
    vertex 9.486919510171024 80.11766110278157 3.9999999999999996
  endloop
endfacet
facet normal -0.2588190451025223 -0.965925826289068 0.0
  outer loop
    vertex 9.486919510171024 80.11766110278157 3.9999999999999996
    vertex 8.25752904593405 80.27951342790848 0.0
    vertex 9.486919510171024 80.11766110278157 0.0
  endloop
endfacet
facet normal 0.0 -1.0 0.0
  outer loop
    vertex 8.25752904593405 80.27951342790848 0.0
    vertex 9.486919510171024 80.11766110278157 3.9999999999999996
    vertex 8.25752904593405 80.27951342790848 3.9999999999999996
  endloop
endfacet
facet normal 0.0 -1.0 0.0
  outer loop
    vertex 8.25752904593405 80.27951342790848 3.9999999999999996
    vertex 7.028138581697075 80.11766110278157 0.0
    vertex 8.25752904593405 80.27951342790848 0.0
  endloop
endfacet
facet normal 0.2588190451025223 -0.965925826289068 0.0
  outer loop
    vertex 7.028138581697075 80.11766110278157 0.0
    vertex 8.25752904593405 80.27951342790848 3.9999999999999996
    vertex 7.028138581697075 80.11766110278157 3.9999999999999996
  endloop
endfacet
facet normal 0.2588190451025223 -0.965925826289068 0.0
  outer loop
    vertex 7.028138581697075 80.11766110278157 3.9999999999999996
    vertex 5.8825290459340485 79.64313409588456 0.0
    vertex 7.028138581697075 80.11766110278157 0.0
  endloop
endfacet
facet normal 0.38268343236509356 -0.9238795325112852 0.0
  outer loop
    vertex 5.8825290459340485 79.64313409588456 0.0
    vertex 7.028138581697075 80.11766110278157 3.9999999999999996
    vertex 5.8825290459340485 79.64313409588456 3.9999999999999996
  endloop
endfacet
facet normal -3.441752636457666e-17 1.721116590362532e-17 -1.0
  outer loop
    vertex 4.2575290459340565 82.457716658184 0.0
    vertex 1.768908377957972 77.26813409588458 0.0
    vertex 0.14390837795798045 80.08271665818401 0.0
  endloop
endfacet
facet normal -3.441752636457666e-17 1.721116590362532e-17 -1.0
  outer loop
    vertex 1.768908377957972 77.26813409588458 0.0
    vertex 4.2575290459340565 82.457716658184 0.0
    vertex 2.3200290459340502 77.58632376189654 1.0546282755844436e-15
  endloop
endfacet
facet normal -3.441752636457666e-17 1.721116590362532e-17 -1.0
  outer loop
    vertex 2.3200290459340502 77.58632376189654 1.0546282755844436e-15
    vertex 4.2575290459340565 82.457716658184 0.0
    vertex 3.507529045934051 75.52951342790848 2.114974861910923e-15
  endloop
endfacet
facet normal -3.441752636457666e-17 1.721116590362532e-17 -1.0
  outer loop
    vertex 3.507529045934051 75.52951342790848 2.114974861910923e-15
    vertex 4.2575290459340565 82.457716658184 0.0
    vertex 3.6693813710609753 76.75890389214545 2.114974861910923e-15
  endloop
endfacet
facet normal -3.441752636457666e-17 1.721116590362532e-17 -1.0
  outer loop
    vertex 3.6693813710609753 76.75890389214545 2.114974861910923e-15
    vertex 4.2575290459340565 82.457716658184 0.0
    vertex 4.143908377957966 77.90451342790848 2.114974861910923e-15
  endloop
endfacet
facet normal -3.441752636457666e-17 1.721116590362532e-17 -1.0
  outer loop
    vertex 4.143908377957966 77.90451342790848 2.114974861910923e-15
    vertex 4.2575290459340565 82.457716658184 0.0
    vertex 4.898771835297949 78.88827063854458 2.114974861910923e-15
  endloop
endfacet
facet normal -3.441752636457666e-17 1.721116590362532e-17 -1.0
  outer loop
    vertex 4.898771835297949 78.88827063854458 2.114974861910923e-15
    vertex 4.2575290459340565 82.457716658184 0.0
    vertex 6.18697668511389 83.25692003822103 0.0
  endloop
endfacet
facet normal -3.441752636457666e-17 1.721116590362532e-17 -1.0
  outer loop
    vertex 4.898771835297949 78.88827063854458 2.114974861910923e-15
    vertex 6.18697668511389 83.25692003822103 0.0
    vertex 5.8825290459340485 79.64313409588456 0.0
  endloop
endfacet
facet normal -3.441752636457666e-17 1.721116590362532e-17 -1.0
  outer loop
    vertex 5.8825290459340485 79.64313409588456 0.0
    vertex 6.18697668511389 83.25692003822103 0.0
    vertex 7.028138581697075 80.11766110278157 0.0
  endloop
endfacet
facet normal -3.441752636457666e-17 1.721116590362532e-17 -1.0
  outer loop
    vertex 7.028138581697075 80.11766110278157 0.0
    vertex 6.18697668511389 83.25692003822103 0.0
    vertex 8.25752904593405 83.52951342790848 0.0
  endloop
endfacet
facet normal -3.441752636457666e-17 1.721116590362532e-17 -1.0
  outer loop
    vertex 7.028138581697075 80.11766110278157 0.0
    vertex 8.25752904593405 83.52951342790848 0.0
    vertex 8.25752904593405 80.27951342790848 0.0
  endloop
endfacet
facet normal -3.441752636457666e-17 1.721116590362532e-17 -1.0
  outer loop
    vertex 8.25752904593405 80.27951342790848 0.0
    vertex 8.25752904593405 83.52951342790848 0.0
    vertex 10.32808140675422 83.25692003822103 0.0
  endloop
endfacet
facet normal -3.441752636457666e-17 1.721116590362532e-17 -1.0
  outer loop
    vertex 8.25752904593405 80.27951342790848 0.0
    vertex 10.32808140675422 83.25692003822103 0.0
    vertex 9.486919510171024 80.11766110278157 0.0
  endloop
endfacet
facet normal -3.441752636457666e-17 1.721116590362532e-17 -1.0
  outer loop
    vertex 9.486919510171024 80.11766110278157 0.0
    vertex 10.32808140675422 83.25692003822103 0.0
    vertex 10.632529045934051 79.64313409588456 0.0
  endloop
endfacet
facet normal -3.441752636457666e-17 1.721116590362532e-17 -1.0
  outer loop
    vertex 10.632529045934051 79.64313409588456 0.0
    vertex 10.32808140675422 83.25692003822103 0.0
    vertex 12.257529045934053 82.45771665818398 0.0
  endloop
endfacet
facet normal -3.441752636457666e-17 1.721116590362532e-17 -1.0
  outer loop
    vertex 10.632529045934051 79.64313409588456 0.0
    vertex 12.257529045934053 82.45771665818398 0.0
    vertex 11.616286256570152 78.88827063854458 0.0
  endloop
endfacet
facet normal -3.441752636457666e-17 1.721116590362532e-17 -1.0
  outer loop
    vertex 11.616286256570152 78.88827063854458 0.0
    vertex 12.257529045934053 82.45771665818398 0.0
    vertex 12.371149713910137 77.90451342790848 0.0
  endloop
endfacet
facet normal -3.441752636457666e-17 1.721116590362532e-17 -1.0
  outer loop
    vertex 12.371149713910137 77.90451342790848 0.0
    vertex 12.257529045934053 82.45771665818398 0.0
    vertex 13.914383295426434 81.18636767740085 0.0
  endloop
endfacet
facet normal -3.441752636457666e-17 1.721116590362532e-17 -1.0
  outer loop
    vertex 12.371149713910137 77.90451342790848 0.0
    vertex 13.914383295426434 81.18636767740085 0.0
    vertex 12.845676720807129 76.75890389214545 0.0
  endloop
endfacet
facet normal -3.441752636457666e-17 1.721116590362532e-17 -1.0
  outer loop
    vertex 12.845676720807129 76.75890389214545 0.0
    vertex 13.914383295426434 81.18636767740085 0.0
    vertex 13.007529045934053 75.52951342790848 0.0
  endloop
endfacet
facet normal -3.441752636457666e-17 1.721116590362532e-17 -1.0
  outer loop
    vertex 13.007529045934053 75.52951342790848 0.0
    vertex 13.914383295426434 81.18636767740085 0.0
    vertex 13.914383295426429 69.8726591784161 0.0
  endloop
endfacet
facet normal -3.441752636457666e-17 1.721116590362532e-17 -1.0
  outer loop
    vertex 13.914383295426429 69.8726591784161 0.0
    vertex 13.914383295426434 81.18636767740085 0.0
    vertex 15.185732276209558 71.52951342790848 0.0
  endloop
endfacet
facet normal -3.441752636457666e-17 1.721116590362532e-17 -1.0
  outer loop
    vertex 15.185732276209558 71.52951342790848 0.0
    vertex 13.914383295426434 81.18636767740085 0.0
    vertex 15.185732276209558 79.52951342790848 0.0
  endloop
endfacet
facet normal -3.441752636457666e-17 1.721116590362532e-17 -1.0
  outer loop
    vertex 15.185732276209558 71.52951342790848 0.0
    vertex 15.185732276209558 79.52951342790848 0.0
    vertex 15.984935656246593 77.60006578872864 0.0
  endloop
endfacet
facet normal -3.441752636457666e-17 1.721116590362532e-17 -1.0
  outer loop
    vertex 15.185732276209558 71.52951342790848 0.0
    vertex 15.984935656246593 77.60006578872864 0.0
    vertex 15.984935656246593 73.45896106708831 0.0
  endloop
endfacet
facet normal -3.441752636457666e-17 1.721116590362532e-17 -1.0
  outer loop
    vertex 15.984935656246593 73.45896106708831 0.0
    vertex 15.984935656246593 77.60006578872864 0.0
    vertex 16.257529045934046 75.52951342790848 0.0
  endloop
endfacet
facet normal -3.441752636457666e-17 1.721116590362532e-17 -1.0
  outer loop
    vertex -0.17964878055702516 76.14313409588465 -2.0765927497522246e-16
    vertex 1.3293258156585417 71.52951342790848 0.0
    vertex -1.0456741843414632 75.64313409588465 -2.0765927497522246e-16
  endloop
endfacet
facet normal -3.441752636457666e-17 1.721116590362532e-17 -1.0
  outer loop
    vertex 1.3293258156585417 71.52951342790848 0.0
    vertex -0.17964878055702516 76.14313409588465 -2.0765927497522246e-16
    vertex 2.1953512194429794 72.02951342790848 0.0
  endloop
endfacet
facet normal -3.441752636457666e-17 1.721116590362532e-17 -1.0
  outer loop
    vertex 1.3293258156585417 71.52951342790848 0.0
    vertex 2.1953512194429794 72.02951342790848 0.0
    vertex 2.600674796441669 69.87265917841611 0.0
  endloop
endfacet
facet normal -3.441752636457666e-17 1.721116590362532e-17 -1.0
  outer loop
    vertex 2.600674796441669 69.87265917841611 0.0
    vertex 2.1953512194429794 72.02951342790848 0.0
    vertex 4.1439083779579615 73.15451342790848 0.0
  endloop
endfacet
facet normal -3.441752636457666e-17 1.721116590362532e-17 -1.0
  outer loop
    vertex 2.600674796441669 69.87265917841611 0.0
    vertex 4.1439083779579615 73.15451342790848 0.0
    vertex 4.257529045934051 68.60131019763297 0.0
  endloop
endfacet
facet normal -3.441752636457666e-17 1.721116590362532e-17 -1.0
  outer loop
    vertex 4.257529045934051 68.60131019763297 0.0
    vertex 4.1439083779579615 73.15451342790848 0.0
    vertex 4.898771835297946 72.17075621727238 0.0
  endloop
endfacet
facet normal -3.441752636457666e-17 1.721116590362532e-17 -1.0
  outer loop
    vertex 4.257529045934051 68.60131019763297 0.0
    vertex 4.898771835297946 72.17075621727238 0.0
    vertex 6.186976685113884 67.80210681759594 0.0
  endloop
endfacet
facet normal -3.441752636457666e-17 1.721116590362532e-17 -1.0
  outer loop
    vertex 6.186976685113884 67.80210681759594 0.0
    vertex 4.898771835297946 72.17075621727238 0.0
    vertex 5.8825290459340485 71.4158927599324 0.0
  endloop
endfacet
facet normal -3.441752636457666e-17 1.721116590362532e-17 -1.0
  outer loop
    vertex 6.186976685113884 67.80210681759594 0.0
    vertex 5.8825290459340485 71.4158927599324 0.0
    vertex 7.028138581697069 70.94136575303541 0.0
  endloop
endfacet
facet normal -3.441752636457666e-17 1.721116590362532e-17 -1.0
  outer loop
    vertex 6.186976685113884 67.80210681759594 0.0
    vertex 7.028138581697069 70.94136575303541 0.0
    vertex 8.25752904593405 67.52951342790848 0.0
  endloop
endfacet
facet normal -3.441752636457666e-17 1.721116590362532e-17 -1.0
  outer loop
    vertex 8.25752904593405 67.52951342790848 0.0
    vertex 7.028138581697069 70.94136575303541 0.0
    vertex 8.25752904593405 70.77951342790848 0.0
  endloop
endfacet
facet normal -3.441752636457666e-17 1.721116590362532e-17 -1.0
  outer loop
    vertex 8.25752904593405 67.52951342790848 0.0
    vertex 8.25752904593405 70.77951342790848 0.0
    vertex 9.486919510171024 70.94136575303541 0.0
  endloop
endfacet
facet normal -3.441752636457666e-17 1.721116590362532e-17 -1.0
  outer loop
    vertex 8.25752904593405 67.52951342790848 0.0
    vertex 9.486919510171024 70.94136575303541 0.0
    vertex 10.328081406754215 67.80210681759594 0.0
  endloop
endfacet
facet normal -3.441752636457666e-17 1.721116590362532e-17 -1.0
  outer loop
    vertex 10.328081406754215 67.80210681759594 0.0
    vertex 9.486919510171024 70.94136575303541 0.0
    vertex 10.632529045934051 71.4158927599324 0.0
  endloop
endfacet
facet normal -3.441752636457666e-17 1.721116590362532e-17 -1.0
  outer loop
    vertex 10.328081406754215 67.80210681759594 0.0
    vertex 10.632529045934051 71.4158927599324 0.0
    vertex 12.257529045934048 68.60131019763297 0.0
  endloop
endfacet
facet normal -3.441752636457666e-17 1.721116590362532e-17 -1.0
  outer loop
    vertex 12.257529045934048 68.60131019763297 0.0
    vertex 10.632529045934051 71.4158927599324 0.0
    vertex 11.616286256570152 72.17075621727238 0.0
  endloop
endfacet
facet normal -3.441752636457666e-17 1.721116590362532e-17 -1.0
  outer loop
    vertex 12.257529045934048 68.60131019763297 0.0
    vertex 11.616286256570152 72.17075621727238 0.0
    vertex 12.371149713910137 73.15451342790848 0.0
  endloop
endfacet
facet normal -3.441752636457666e-17 1.721116590362532e-17 -1.0
  outer loop
    vertex 12.257529045934048 68.60131019763297 0.0
    vertex 12.371149713910137 73.15451342790848 0.0
    vertex 13.914383295426429 69.8726591784161 0.0
  endloop
endfacet
facet normal -3.441752636457666e-17 1.721116590362532e-17 -1.0
  outer loop
    vertex 13.914383295426429 69.8726591784161 0.0
    vertex 12.371149713910137 73.15451342790848 0.0
    vertex 12.845676720807129 74.3001229636715 0.0
  endloop
endfacet
facet normal -3.441752636457666e-17 1.721116590362532e-17 -1.0
  outer loop
    vertex 13.914383295426429 69.8726591784161 0.0
    vertex 12.845676720807129 74.3001229636715 0.0
    vertex 13.007529045934053 75.52951342790848 0.0
  endloop
endfacet
facet normal 0.7933533402912334 0.6087614290087229 -0.0
  outer loop
    vertex 4.1439083779579615 73.15451342790848 0.0
    vertex 4.898771835297946 72.17075621727238 3.9999999999999996
    vertex 4.898771835297946 72.17075621727238 0.0
  endloop
endfacet
facet normal 0.7071067811865466 0.7071067811865486 0.0
  outer loop
    vertex 4.898771835297946 72.17075621727238 3.9999999999999996
    vertex 4.1439083779579615 73.15451342790848 0.0
    vertex 4.1439083779579615 73.15451342790848 3.9999999999999996
  endloop
endfacet
facet normal 0.7071067811865466 0.7071067811865486 0.0
  outer loop
    vertex 4.898771835297946 72.17075621727238 3.9999999999999996
    vertex 5.8825290459340485 71.4158927599324 0.0
    vertex 4.898771835297946 72.17075621727238 0.0
  endloop
endfacet
facet normal 0.5000000000000026 0.8660254037844372 0.0
  outer loop
    vertex 5.8825290459340485 71.4158927599324 0.0
    vertex 4.898771835297946 72.17075621727238 3.9999999999999996
    vertex 5.8825290459340485 71.4158927599324 3.9999999999999996
  endloop
endfacet
facet normal 0.5000000000000026 0.8660254037844372 0.0
  outer loop
    vertex 5.8825290459340485 71.4158927599324 3.9999999999999996
    vertex 7.028138581697069 70.94136575303541 0.0
    vertex 5.8825290459340485 71.4158927599324 0.0
  endloop
endfacet
facet normal 0.25881904510252274 0.9659258262890678 0.0
  outer loop
    vertex 7.028138581697069 70.94136575303541 0.0
    vertex 5.8825290459340485 71.4158927599324 3.9999999999999996
    vertex 7.028138581697069 70.94136575303541 3.9999999999999996
  endloop
endfacet
facet normal 0.25881904510252274 0.9659258262890678 0.0
  outer loop
    vertex 7.028138581697069 70.94136575303541 3.9999999999999996
    vertex 8.25752904593405 70.77951342790848 0.0
    vertex 7.028138581697069 70.94136575303541 0.0
  endloop
endfacet
facet normal -2.940666265563478e-16 1.0 0.0
  outer loop
    vertex 8.25752904593405 70.77951342790848 0.0
    vertex 7.028138581697069 70.94136575303541 3.9999999999999996
    vertex 8.25752904593405 70.77951342790848 3.9999999999999996
  endloop
endfacet
facet normal -2.940666265563478e-16 1.0 0.0
  outer loop
    vertex 8.25752904593405 70.77951342790848 3.9999999999999996
    vertex 9.486919510171024 70.94136575303541 0.0
    vertex 8.25752904593405 70.77951342790848 0.0
  endloop
endfacet
facet normal -0.2588190451025223 0.965925826289068 0.0
  outer loop
    vertex 9.486919510171024 70.94136575303541 0.0
    vertex 8.25752904593405 70.77951342790848 3.9999999999999996
    vertex 9.486919510171024 70.94136575303541 3.9999999999999996
  endloop
endfacet
facet normal -0.2588190451025223 0.965925826289068 0.0
  outer loop
    vertex 9.486919510171024 70.94136575303541 3.9999999999999996
    vertex 10.632529045934051 71.4158927599324 0.0
    vertex 9.486919510171024 70.94136575303541 0.0
  endloop
endfacet
facet normal -0.5000000000000019 0.8660254037844376 0.0
  outer loop
    vertex 10.632529045934051 71.4158927599324 0.0
    vertex 9.486919510171024 70.94136575303541 3.9999999999999996
    vertex 10.632529045934051 71.4158927599324 3.9999999999999996
  endloop
endfacet
facet normal -0.5000000000000019 0.8660254037844376 0.0
  outer loop
    vertex 10.632529045934051 71.4158927599324 3.9999999999999996
    vertex 11.616286256570152 72.17075621727238 0.0
    vertex 10.632529045934051 71.4158927599324 0.0
  endloop
endfacet
facet normal -0.7071067811865466 0.7071067811865486 0.0
  outer loop
    vertex 11.616286256570152 72.17075621727238 0.0
    vertex 10.632529045934051 71.4158927599324 3.9999999999999996
    vertex 11.616286256570152 72.17075621727238 3.9999999999999996
  endloop
endfacet
facet normal -0.8660254037844373 0.5000000000000026 0.0
  outer loop
    vertex 12.371149713910137 73.15451342790848 3.9999999999999996
    vertex 11.616286256570152 72.17075621727238 0.0
    vertex 11.616286256570152 72.17075621727238 3.9999999999999996
  endloop
endfacet
facet normal -0.7071067811865466 0.7071067811865486 0.0
  outer loop
    vertex 11.616286256570152 72.17075621727238 0.0
    vertex 12.371149713910137 73.15451342790848 3.9999999999999996
    vertex 12.371149713910137 73.15451342790848 0.0
  endloop
endfacet
facet normal -3.6535550572152315e-16 1.0 0.0
  outer loop
    vertex 8.25752904593405 83.52951342790848 3.9999999999999996
    vertex 10.32808140675422 83.25692003822103 0.0
    vertex 8.25752904593405 83.52951342790848 0.0
  endloop
endfacet
facet normal 0.25881904510252146 0.9659258262890681 0.0
  outer loop
    vertex 10.32808140675422 83.25692003822103 0.0
    vertex 8.25752904593405 83.52951342790848 3.9999999999999996
    vertex 10.32808140675422 83.25692003822103 3.9999999999999996
  endloop
endfacet
facet normal 0.25881904510252146 0.9659258262890681 0.0
  outer loop
    vertex 10.32808140675422 83.25692003822103 3.9999999999999996
    vertex 12.257529045934053 82.45771665818398 0.0
    vertex 10.32808140675422 83.25692003822103 0.0
  endloop
endfacet
facet normal 0.500000000000001 0.8660254037844379 0.0
  outer loop
    vertex 12.257529045934053 82.45771665818398 0.0
    vertex 10.32808140675422 83.25692003822103 3.9999999999999996
    vertex 12.257529045934053 82.45771665818398 3.9999999999999996
  endloop
endfacet
facet normal 0.500000000000001 0.8660254037844379 0.0
  outer loop
    vertex 12.257529045934053 82.45771665818398 3.9999999999999996
    vertex 13.914383295426434 81.18636767740085 0.0
    vertex 12.257529045934053 82.45771665818398 0.0
  endloop
endfacet
facet normal 0.7071067811865482 0.7071067811865468 0.0
  outer loop
    vertex 13.914383295426434 81.18636767740085 0.0
    vertex 12.257529045934053 82.45771665818398 3.9999999999999996
    vertex 13.914383295426434 81.18636767740085 3.9999999999999996
  endloop
endfacet
facet normal 0.7071067811865482 0.7071067811865468 0.0
  outer loop
    vertex 13.914383295426434 81.18636767740085 0.0
    vertex 15.185732276209558 79.52951342790848 3.9999999999999996
    vertex 15.185732276209558 79.52951342790848 0.0
  endloop
endfacet
facet normal 0.8660254037844393 0.49999999999999917 0.0
  outer loop
    vertex 15.185732276209558 79.52951342790848 3.9999999999999996
    vertex 13.914383295426434 81.18636767740085 0.0
    vertex 13.914383295426434 81.18636767740085 3.9999999999999996
  endloop
endfacet
facet normal 0.8660254037844393 0.49999999999999917 0.0
  outer loop
    vertex 15.185732276209558 79.52951342790848 0.0
    vertex 15.984935656246593 77.60006578872864 3.9999999999999996
    vertex 15.984935656246593 77.60006578872864 0.0
  endloop
endfacet
facet normal 0.9659258262890684 0.25881904510252063 0.0
  outer loop
    vertex 15.984935656246593 77.60006578872864 3.9999999999999996
    vertex 15.185732276209558 79.52951342790848 0.0
    vertex 15.185732276209558 79.52951342790848 3.9999999999999996
  endloop
endfacet
facet normal 0.9659258262890684 0.25881904510252063 0.0
  outer loop
    vertex 15.984935656246593 77.60006578872864 0.0
    vertex 16.257529045934046 75.52951342790848 3.9999999999999996
    vertex 16.257529045934046 75.52951342790848 0.0
  endloop
endfacet
facet normal 1.0 3.6535550572152315e-16 0.0
  outer loop
    vertex 16.257529045934046 75.52951342790848 3.9999999999999996
    vertex 15.984935656246593 77.60006578872864 0.0
    vertex 15.984935656246593 77.60006578872864 3.9999999999999996
  endloop
endfacet
facet normal -0.4999999999999999 0.8660254037844387 -4.371774210004675e-17
  outer loop
    vertex -1.0456741843414632 75.64313409588465 3.9999999999999996
    vertex -0.17964878055702516 76.14313409588465 -2.0765927497522246e-16
    vertex -1.0456741843414632 75.64313409588465 -2.0765927497522246e-16
  endloop
endfacet
facet normal -0.4999999999999999 0.8660254037844387 -4.371774210004675e-17
  outer loop
    vertex -0.17964878055702516 76.14313409588465 -2.0765927497522246e-16
    vertex -1.0456741843414632 75.64313409588465 3.9999999999999996
    vertex -0.17964878055702588 76.14313409588465 3.9999999999999996
  endloop
endfacet
facet normal 0.8660254037844386 0.4999999999999999 1.526351632316954e-16
  outer loop
    vertex -0.17964878055702516 76.14313409588465 -2.0765927497522246e-16
    vertex 2.1953512194429785 72.02951342790848 3.9999999999999996
    vertex 2.1953512194429794 72.02951342790848 0.0
  endloop
endfacet
facet normal 0.8660254037844386 0.4999999999999999 1.526351632316954e-16
  outer loop
    vertex 2.1953512194429785 72.02951342790848 3.9999999999999996
    vertex -0.17964878055702516 76.14313409588465 -2.0765927497522246e-16
    vertex -0.17964878055702588 76.14313409588465 3.9999999999999996
  endloop
endfacet
facet normal -0.8660254037844386 -0.4999999999999999 0.0
  outer loop
    vertex -1.0456741843414632 75.64313409588465 3.9999999999999996
    vertex 1.3293258156585417 71.52951342790848 0.0
    vertex 1.3293258156585417 71.52951342790848 3.9999999999999996
  endloop
endfacet
facet normal -0.8660254037844386 -0.4999999999999999 0.0
  outer loop
    vertex 1.3293258156585417 71.52951342790848 0.0
    vertex -1.0456741843414632 75.64313409588465 3.9999999999999996
    vertex -1.0456741843414632 75.64313409588465 -2.0765927497522246e-16
  endloop
endfacet
facet normal -0.8660254037844388 -0.4999999999999997 -1.0356734721478392e-15
  outer loop
    vertex 2.320029045934051 77.58632376189652 4.0000000000000036
    vertex 3.507529045934051 75.52951342790848 2.114974861910923e-15
    vertex 3.507529045934054 75.52951342790847 4.00000000000001
  endloop
endfacet
facet normal -0.8660254037844388 -0.4999999999999997 -1.0356734721478392e-15
  outer loop
    vertex 3.507529045934051 75.52951342790848 2.114974861910923e-15
    vertex 2.320029045934051 77.58632376189652 4.0000000000000036
    vertex 2.3200290459340502 77.58632376189654 1.0546282755844436e-15
  endloop
endfacet
facet normal 0.6087614290087253 -0.7933533402912315 -1.335078858870886e-15
  outer loop
    vertex 5.8825290459340485 79.64313409588456 3.9999999999999996
    vertex 4.898771835297949 78.88827063854458 2.114974861910923e-15
    vertex 5.8825290459340485 79.64313409588456 0.0
  endloop
endfacet
facet normal 0.6087614290087253 -0.7933533402912315 -1.335078858870886e-15
  outer loop
    vertex 4.898771835297949 78.88827063854458 2.114974861910923e-15
    vertex 5.8825290459340485 79.64313409588456 3.9999999999999996
    vertex 4.898771835297953 78.88827063854457 4.00000000000001
  endloop
endfacet
facet normal 0.7933533402912338 -0.6087614290087225 3.151717782032768e-16
  outer loop
    vertex 4.143908377957966 77.90451342790848 2.114974861910923e-15
    vertex 4.898771835297953 78.88827063854457 4.00000000000001
    vertex 4.143908377957969 77.90451342790847 4.00000000000001
  endloop
endfacet
facet normal 0.7933533402912338 -0.6087614290087225 3.151717782032768e-16
  outer loop
    vertex 4.898771835297953 78.88827063854457 4.00000000000001
    vertex 4.143908377957966 77.90451342790848 2.114974861910923e-15
    vertex 4.898771835297949 78.88827063854458 2.114974861910923e-15
  endloop
endfacet
facet normal 0.9238795325112875 -0.38268343236508806 2.3306831184687496e-16
  outer loop
    vertex 3.6693813710609753 76.75890389214545 2.114974861910923e-15
    vertex 4.143908377957969 77.90451342790847 4.00000000000001
    vertex 3.6693813710609784 76.75890389214544 4.00000000000001
  endloop
endfacet
facet normal 0.9238795325112875 -0.38268343236508806 2.3306831184687496e-16
  outer loop
    vertex 4.143908377957969 77.90451342790847 4.00000000000001
    vertex 3.6693813710609753 76.75890389214545 2.114974861910923e-15
    vertex 4.143908377957966 77.90451342790848 2.114974861910923e-15
  endloop
endfacet
facet normal 0.9914448613738106 -0.1305261922200511 1.3508162520170675e-16
  outer loop
    vertex 3.507529045934051 75.52951342790848 2.114974861910923e-15
    vertex 3.6693813710609784 76.75890389214544 4.00000000000001
    vertex 3.507529045934054 75.52951342790847 4.00000000000001
  endloop
endfacet
facet normal 0.9914448613738106 -0.1305261922200511 1.3508162520170675e-16
  outer loop
    vertex 3.6693813710609784 76.75890389214544 4.00000000000001
    vertex 3.507529045934051 75.52951342790848 2.114974861910923e-15
    vertex 3.6693813710609753 76.75890389214545 2.114974861910923e-15
  endloop
endfacet
facet normal 1.0 3.6535550572152315e-16 0.0
  outer loop
    vertex 16.257529045934046 75.52951342790848 0.0
    vertex 15.984935656246593 73.45896106708831 3.9999999999999996
    vertex 15.984935656246593 73.45896106708831 0.0
  endloop
endfacet
facet normal 0.9659258262890684 -0.25881904510252024 0.0
  outer loop
    vertex 15.984935656246593 73.45896106708831 3.9999999999999996
    vertex 16.257529045934046 75.52951342790848 0.0
    vertex 16.257529045934046 75.52951342790848 3.9999999999999996
  endloop
endfacet
facet normal 0.9659258262890684 -0.25881904510252024 0.0
  outer loop
    vertex 15.984935656246593 73.45896106708831 0.0
    vertex 15.185732276209558 71.52951342790848 3.9999999999999996
    vertex 15.185732276209558 71.52951342790848 0.0
  endloop
endfacet
facet normal 0.8660254037844387 -0.5 0.0
  outer loop
    vertex 15.185732276209558 71.52951342790848 3.9999999999999996
    vertex 15.984935656246593 73.45896106708831 0.0
    vertex 15.984935656246593 73.45896106708831 3.9999999999999996
  endloop
endfacet
facet normal 0.8660254037844387 -0.5 0.0
  outer loop
    vertex 15.185732276209558 71.52951342790848 0.0
    vertex 13.914383295426429 69.8726591784161 3.9999999999999996
    vertex 13.914383295426429 69.8726591784161 0.0
  endloop
endfacet
facet normal 0.7071067811865476 -0.7071067811865476 0.0
  outer loop
    vertex 13.914383295426429 69.8726591784161 3.9999999999999996
    vertex 15.185732276209558 71.52951342790848 0.0
    vertex 15.185732276209558 71.52951342790848 3.9999999999999996
  endloop
endfacet
facet normal 0.7071067811865476 -0.7071067811865476 0.0
  outer loop
    vertex 13.914383295426429 69.8726591784161 3.9999999999999996
    vertex 12.257529045934048 68.60131019763297 0.0
    vertex 13.914383295426429 69.8726591784161 0.0
  endloop
endfacet
facet normal 0.4999999999999989 -0.8660254037844393 0.0
  outer loop
    vertex 12.257529045934048 68.60131019763297 0.0
    vertex 13.914383295426429 69.8726591784161 3.9999999999999996
    vertex 12.257529045934048 68.60131019763297 3.9999999999999996
  endloop
endfacet
facet normal 0.4999999999999989 -0.8660254037844393 0.0
  outer loop
    vertex 12.257529045934048 68.60131019763297 3.9999999999999996
    vertex 10.328081406754215 67.80210681759594 0.0
    vertex 12.257529045934048 68.60131019763297 0.0
  endloop
endfacet
facet normal 0.25881904510251924 -0.9659258262890686 0.0
  outer loop
    vertex 10.328081406754215 67.80210681759594 0.0
    vertex 12.257529045934048 68.60131019763297 3.9999999999999996
    vertex 10.328081406754215 67.80210681759594 3.9999999999999996
  endloop
endfacet
facet normal -0.8660254037844402 -0.4999999999999972 0.0
  outer loop
    vertex 0.14390837795798045 80.08271665818401 3.9999999999999996
    vertex 1.768908377957972 77.26813409588458 0.0
    vertex 1.768908377957972 77.26813409588458 3.9999999999999996
  endloop
endfacet
facet normal -0.8660254037844402 -0.4999999999999972 0.0
  outer loop
    vertex 1.768908377957972 77.26813409588458 0.0
    vertex 0.14390837795798045 80.08271665818401 3.9999999999999996
    vertex 0.14390837795798045 80.08271665818401 0.0
  endloop
endfacet
facet normal -0.49999999999999734 0.8660254037844403 0.0
  outer loop
    vertex 0.14390837795798045 80.08271665818401 3.9999999999999996
    vertex 4.2575290459340565 82.457716658184 0.0
    vertex 0.14390837795798045 80.08271665818401 0.0
  endloop
endfacet
facet normal -0.49999999999999734 0.8660254037844403 0.0
  outer loop
    vertex 4.2575290459340565 82.457716658184 0.0
    vertex 0.14390837795798045 80.08271665818401 3.9999999999999996
    vertex 4.2575290459340565 82.457716658184 3.9999999999999996
  endloop
endfacet
facet normal 0.4999999999999995 -0.866025403784439 -8.464611720834186e-16
  outer loop
    vertex 2.3200290459340502 77.58632376189654 1.0546282755844436e-15
    vertex 1.768908377957972 77.26813409588458 3.9999999999999996
    vertex 1.768908377957972 77.26813409588458 0.0
  endloop
endfacet
facet normal 0.4999999999999995 -0.866025403784439 -8.464611720834186e-16
  outer loop
    vertex 1.768908377957972 77.26813409588458 3.9999999999999996
    vertex 2.3200290459340502 77.58632376189654 1.0546282755844436e-15
    vertex 2.320029045934051 77.58632376189652 4.0000000000000036
  endloop
endfacet
facet normal -0.5000000000000019 0.8660254037844375 -4.371774210004692e-17
  outer loop
    vertex 2.1953512194429785 72.02951342790848 3.9999999999999996
    vertex 4.1439083779579615 73.15451342790848 0.0
    vertex 2.1953512194429794 72.02951342790848 0.0
  endloop
endfacet
facet normal -0.5000000000000019 0.8660254037844375 -4.371774210004692e-17
  outer loop
    vertex 4.1439083779579615 73.15451342790848 0.0
    vertex 2.1953512194429785 72.02951342790848 3.9999999999999996
    vertex 4.1439083779579615 73.15451342790848 3.9999999999999996
  endloop
endfacet
facet normal -1.0 -5.792221432170487e-16 0.0
  outer loop
    vertex 13.007529045934053 75.52951342790848 3.9999999999999996
    vertex 12.845676720807129 74.3001229636715 0.0
    vertex 12.845676720807129 74.3001229636715 3.9999999999999996
  endloop
endfacet
facet normal -0.9659258262890681 0.25881904510252124 0.0
  outer loop
    vertex 12.845676720807129 74.3001229636715 0.0
    vertex 13.007529045934053 75.52951342790848 3.9999999999999996
    vertex 13.007529045934053 75.52951342790848 0.0
  endloop
endfacet
facet normal -0.9659258262890684 -0.25881904510252013 0.0
  outer loop
    vertex 12.845676720807129 76.75890389214545 3.9999999999999996
    vertex 13.007529045934053 75.52951342790848 0.0
    vertex 13.007529045934053 75.52951342790848 3.9999999999999996
  endloop
endfacet
facet normal -1.0 -5.792221432170487e-16 0.0
  outer loop
    vertex 13.007529045934053 75.52951342790848 0.0
    vertex 12.845676720807129 76.75890389214545 3.9999999999999996
    vertex 12.845676720807129 76.75890389214545 0.0
  endloop
endfacet
facet normal -0.8660254037844382 -0.5000000000000008 0.0
  outer loop
    vertex 12.371149713910137 77.90451342790848 3.9999999999999996
    vertex 12.845676720807129 76.75890389214545 0.0
    vertex 12.845676720807129 76.75890389214545 3.9999999999999996
  endloop
endfacet
facet normal -0.9659258262890684 -0.25881904510252013 0.0
  outer loop
    vertex 12.845676720807129 76.75890389214545 0.0
    vertex 12.371149713910137 77.90451342790848 3.9999999999999996
    vertex 12.371149713910137 77.90451342790848 0.0
  endloop
endfacet
facet normal -0.7071067811865466 -0.7071067811865486 0.0
  outer loop
    vertex 11.616286256570152 78.88827063854458 3.9999999999999996
    vertex 12.371149713910137 77.90451342790848 0.0
    vertex 12.371149713910137 77.90451342790848 3.9999999999999996
  endloop
endfacet
facet normal -0.8660254037844382 -0.5000000000000008 0.0
  outer loop
    vertex 12.371149713910137 77.90451342790848 0.0
    vertex 11.616286256570152 78.88827063854458 3.9999999999999996
    vertex 11.616286256570152 78.88827063854458 0.0
  endloop
endfacet
facet normal -0.9659258262890681 0.25881904510252124 0.0
  outer loop
    vertex 12.845676720807129 74.3001229636715 3.9999999999999996
    vertex 12.371149713910137 73.15451342790848 0.0
    vertex 12.371149713910137 73.15451342790848 3.9999999999999996
  endloop
endfacet
facet normal -0.8660254037844373 0.5000000000000026 0.0
  outer loop
    vertex 12.371149713910137 73.15451342790848 0.0
    vertex 12.845676720807129 74.3001229636715 3.9999999999999996
    vertex 12.845676720807129 74.3001229636715 0.0
  endloop
endfacet
facet normal 1.7250913181434683e-16 -7.978612790466013e-17 1.0
  outer loop
    vertex 1.3293258156585417 71.52951342790848 3.9999999999999996
    vertex -0.17964878055702588 76.14313409588465 3.9999999999999996
    vertex -1.0456741843414632 75.64313409588465 3.9999999999999996
  endloop
endfacet
facet normal 1.7250913181434683e-16 -7.978612790466013e-17 1.0
  outer loop
    vertex -0.17964878055702588 76.14313409588465 3.9999999999999996
    vertex 1.3293258156585417 71.52951342790848 3.9999999999999996
    vertex 2.1953512194429785 72.02951342790848 3.9999999999999996
  endloop
endfacet
facet normal 1.7250913181434683e-16 -7.978612790466013e-17 1.0
  outer loop
    vertex 2.1953512194429785 72.02951342790848 3.9999999999999996
    vertex 1.3293258156585417 71.52951342790848 3.9999999999999996
    vertex 2.600674796441669 69.87265917841611 3.9999999999999996
  endloop
endfacet
facet normal 1.7250913181434683e-16 -7.978612790466013e-17 1.0
  outer loop
    vertex 2.1953512194429785 72.02951342790848 3.9999999999999996
    vertex 2.600674796441669 69.87265917841611 3.9999999999999996
    vertex 4.1439083779579615 73.15451342790848 3.9999999999999996
  endloop
endfacet
facet normal 1.7250913181434683e-16 -7.978612790466013e-17 1.0
  outer loop
    vertex 4.1439083779579615 73.15451342790848 3.9999999999999996
    vertex 2.600674796441669 69.87265917841611 3.9999999999999996
    vertex 4.257529045934051 68.60131019763297 3.9999999999999996
  endloop
endfacet
facet normal 1.7250913181434683e-16 -7.978612790466013e-17 1.0
  outer loop
    vertex 4.1439083779579615 73.15451342790848 3.9999999999999996
    vertex 4.257529045934051 68.60131019763297 3.9999999999999996
    vertex 4.898771835297946 72.17075621727238 3.9999999999999996
  endloop
endfacet
facet normal 1.7250913181434683e-16 -7.978612790466013e-17 1.0
  outer loop
    vertex 4.898771835297946 72.17075621727238 3.9999999999999996
    vertex 4.257529045934051 68.60131019763297 3.9999999999999996
    vertex 6.186976685113884 67.80210681759594 3.9999999999999996
  endloop
endfacet
facet normal 1.7250913181434683e-16 -7.978612790466013e-17 1.0
  outer loop
    vertex 4.898771835297946 72.17075621727238 3.9999999999999996
    vertex 6.186976685113884 67.80210681759594 3.9999999999999996
    vertex 5.8825290459340485 71.4158927599324 3.9999999999999996
  endloop
endfacet
facet normal 1.7250913181434683e-16 -7.978612790466013e-17 1.0
  outer loop
    vertex 5.8825290459340485 71.4158927599324 3.9999999999999996
    vertex 6.186976685113884 67.80210681759594 3.9999999999999996
    vertex 7.028138581697069 70.94136575303541 3.9999999999999996
  endloop
endfacet
facet normal 1.7250913181434683e-16 -7.978612790466013e-17 1.0
  outer loop
    vertex 7.028138581697069 70.94136575303541 3.9999999999999996
    vertex 6.186976685113884 67.80210681759594 3.9999999999999996
    vertex 8.25752904593405 67.52951342790848 3.9999999999999996
  endloop
endfacet
facet normal 1.7250913181434683e-16 -7.978612790466013e-17 1.0
  outer loop
    vertex 7.028138581697069 70.94136575303541 3.9999999999999996
    vertex 8.25752904593405 67.52951342790848 3.9999999999999996
    vertex 8.25752904593405 70.77951342790848 3.9999999999999996
  endloop
endfacet
facet normal 1.7250913181434683e-16 -7.978612790466013e-17 1.0
  outer loop
    vertex 8.25752904593405 70.77951342790848 3.9999999999999996
    vertex 8.25752904593405 67.52951342790848 3.9999999999999996
    vertex 10.328081406754215 67.80210681759594 3.9999999999999996
  endloop
endfacet
facet normal 1.7250913181434683e-16 -7.978612790466013e-17 1.0
  outer loop
    vertex 8.25752904593405 70.77951342790848 3.9999999999999996
    vertex 10.328081406754215 67.80210681759594 3.9999999999999996
    vertex 9.486919510171024 70.94136575303541 3.9999999999999996
  endloop
endfacet
facet normal 1.7250913181434683e-16 -7.978612790466013e-17 1.0
  outer loop
    vertex 9.486919510171024 70.94136575303541 3.9999999999999996
    vertex 10.328081406754215 67.80210681759594 3.9999999999999996
    vertex 10.632529045934051 71.4158927599324 3.9999999999999996
  endloop
endfacet
facet normal 1.7250913181434683e-16 -7.978612790466013e-17 1.0
  outer loop
    vertex 10.632529045934051 71.4158927599324 3.9999999999999996
    vertex 10.328081406754215 67.80210681759594 3.9999999999999996
    vertex 12.257529045934048 68.60131019763297 3.9999999999999996
  endloop
endfacet
facet normal 1.7250913181434683e-16 -7.978612790466013e-17 1.0
  outer loop
    vertex 10.632529045934051 71.4158927599324 3.9999999999999996
    vertex 12.257529045934048 68.60131019763297 3.9999999999999996
    vertex 11.616286256570152 72.17075621727238 3.9999999999999996
  endloop
endfacet
facet normal 1.7250913181434683e-16 -7.978612790466013e-17 1.0
  outer loop
    vertex 11.616286256570152 72.17075621727238 3.9999999999999996
    vertex 12.257529045934048 68.60131019763297 3.9999999999999996
    vertex 12.371149713910137 73.15451342790848 3.9999999999999996
  endloop
endfacet
facet normal 1.7250913181434683e-16 -7.978612790466013e-17 1.0
  outer loop
    vertex 12.371149713910137 73.15451342790848 3.9999999999999996
    vertex 12.257529045934048 68.60131019763297 3.9999999999999996
    vertex 13.914383295426429 69.8726591784161 3.9999999999999996
  endloop
endfacet
facet normal 1.7250913181434683e-16 -7.978612790466013e-17 1.0
  outer loop
    vertex 12.371149713910137 73.15451342790848 3.9999999999999996
    vertex 13.914383295426429 69.8726591784161 3.9999999999999996
    vertex 12.845676720807129 74.3001229636715 3.9999999999999996
  endloop
endfacet
facet normal 1.7250913181434683e-16 -7.978612790466013e-17 1.0
  outer loop
    vertex 12.845676720807129 74.3001229636715 3.9999999999999996
    vertex 13.914383295426429 69.8726591784161 3.9999999999999996
    vertex 13.007529045934053 75.52951342790848 3.9999999999999996
  endloop
endfacet
facet normal 1.7250913181434683e-16 -7.978612790466013e-17 1.0
  outer loop
    vertex 1.768908377957972 77.26813409588458 3.9999999999999996
    vertex 4.2575290459340565 82.457716658184 3.9999999999999996
    vertex 0.14390837795798045 80.08271665818401 3.9999999999999996
  endloop
endfacet
facet normal 1.7250913181434683e-16 -7.978612790466013e-17 1.0
  outer loop
    vertex 4.2575290459340565 82.457716658184 3.9999999999999996
    vertex 1.768908377957972 77.26813409588458 3.9999999999999996
    vertex 2.320029045934051 77.58632376189652 4.0000000000000036
  endloop
endfacet
facet normal 1.7250913181434683e-16 -7.978612790466013e-17 1.0
  outer loop
    vertex 4.2575290459340565 82.457716658184 3.9999999999999996
    vertex 2.320029045934051 77.58632376189652 4.0000000000000036
    vertex 3.507529045934054 75.52951342790847 4.00000000000001
  endloop
endfacet
facet normal 1.7250913181434683e-16 -7.978612790466013e-17 1.0
  outer loop
    vertex 4.2575290459340565 82.457716658184 3.9999999999999996
    vertex 3.507529045934054 75.52951342790847 4.00000000000001
    vertex 3.6693813710609784 76.75890389214544 4.00000000000001
  endloop
endfacet
facet normal 1.7250913181434683e-16 -7.978612790466013e-17 1.0
  outer loop
    vertex 4.2575290459340565 82.457716658184 3.9999999999999996
    vertex 3.6693813710609784 76.75890389214544 4.00000000000001
    vertex 4.143908377957969 77.90451342790847 4.00000000000001
  endloop
endfacet
facet normal 1.7250913181434683e-16 -7.978612790466013e-17 1.0
  outer loop
    vertex 4.2575290459340565 82.457716658184 3.9999999999999996
    vertex 4.143908377957969 77.90451342790847 4.00000000000001
    vertex 4.898771835297953 78.88827063854457 4.00000000000001
  endloop
endfacet
facet normal 1.7250913181434683e-16 -7.978612790466013e-17 1.0
  outer loop
    vertex 4.2575290459340565 82.457716658184 3.9999999999999996
    vertex 4.898771835297953 78.88827063854457 4.00000000000001
    vertex 6.18697668511389 83.25692003822103 3.9999999999999996
  endloop
endfacet
facet normal 1.7250913181434683e-16 -7.978612790466013e-17 1.0
  outer loop
    vertex 6.18697668511389 83.25692003822103 3.9999999999999996
    vertex 4.898771835297953 78.88827063854457 4.00000000000001
    vertex 5.8825290459340485 79.64313409588456 3.9999999999999996
  endloop
endfacet
facet normal 1.7250913181434683e-16 -7.978612790466013e-17 1.0
  outer loop
    vertex 6.18697668511389 83.25692003822103 3.9999999999999996
    vertex 5.8825290459340485 79.64313409588456 3.9999999999999996
    vertex 7.028138581697075 80.11766110278157 3.9999999999999996
  endloop
endfacet
facet normal 1.7250913181434683e-16 -7.978612790466013e-17 1.0
  outer loop
    vertex 6.18697668511389 83.25692003822103 3.9999999999999996
    vertex 7.028138581697075 80.11766110278157 3.9999999999999996
    vertex 8.25752904593405 83.52951342790848 3.9999999999999996
  endloop
endfacet
facet normal 1.7250913181434683e-16 -7.978612790466013e-17 1.0
  outer loop
    vertex 8.25752904593405 83.52951342790848 3.9999999999999996
    vertex 7.028138581697075 80.11766110278157 3.9999999999999996
    vertex 8.25752904593405 80.27951342790848 3.9999999999999996
  endloop
endfacet
facet normal 1.7250913181434683e-16 -7.978612790466013e-17 1.0
  outer loop
    vertex 8.25752904593405 83.52951342790848 3.9999999999999996
    vertex 8.25752904593405 80.27951342790848 3.9999999999999996
    vertex 9.486919510171024 80.11766110278157 3.9999999999999996
  endloop
endfacet
facet normal 1.7250913181434683e-16 -7.978612790466013e-17 1.0
  outer loop
    vertex 8.25752904593405 83.52951342790848 3.9999999999999996
    vertex 9.486919510171024 80.11766110278157 3.9999999999999996
    vertex 10.32808140675422 83.25692003822103 3.9999999999999996
  endloop
endfacet
facet normal 1.7250913181434683e-16 -7.978612790466013e-17 1.0
  outer loop
    vertex 10.32808140675422 83.25692003822103 3.9999999999999996
    vertex 9.486919510171024 80.11766110278157 3.9999999999999996
    vertex 10.632529045934051 79.64313409588456 3.9999999999999996
  endloop
endfacet
facet normal 1.7250913181434683e-16 -7.978612790466013e-17 1.0
  outer loop
    vertex 10.32808140675422 83.25692003822103 3.9999999999999996
    vertex 10.632529045934051 79.64313409588456 3.9999999999999996
    vertex 12.257529045934053 82.45771665818398 3.9999999999999996
  endloop
endfacet
facet normal 1.7250913181434683e-16 -7.978612790466013e-17 1.0
  outer loop
    vertex 12.257529045934053 82.45771665818398 3.9999999999999996
    vertex 10.632529045934051 79.64313409588456 3.9999999999999996
    vertex 11.616286256570152 78.88827063854458 3.9999999999999996
  endloop
endfacet
facet normal 1.7250913181434683e-16 -7.978612790466013e-17 1.0
  outer loop
    vertex 12.257529045934053 82.45771665818398 3.9999999999999996
    vertex 11.616286256570152 78.88827063854458 3.9999999999999996
    vertex 12.371149713910137 77.90451342790848 3.9999999999999996
  endloop
endfacet
facet normal 1.7250913181434683e-16 -7.978612790466013e-17 1.0
  outer loop
    vertex 12.257529045934053 82.45771665818398 3.9999999999999996
    vertex 12.371149713910137 77.90451342790848 3.9999999999999996
    vertex 13.914383295426434 81.18636767740085 3.9999999999999996
  endloop
endfacet
facet normal 1.7250913181434683e-16 -7.978612790466013e-17 1.0
  outer loop
    vertex 13.914383295426434 81.18636767740085 3.9999999999999996
    vertex 12.371149713910137 77.90451342790848 3.9999999999999996
    vertex 12.845676720807129 76.75890389214545 3.9999999999999996
  endloop
endfacet
facet normal 1.7250913181434683e-16 -7.978612790466013e-17 1.0
  outer loop
    vertex 13.914383295426434 81.18636767740085 3.9999999999999996
    vertex 12.845676720807129 76.75890389214545 3.9999999999999996
    vertex 13.007529045934053 75.52951342790848 3.9999999999999996
  endloop
endfacet
facet normal 1.7250913181434683e-16 -7.978612790466013e-17 1.0
  outer loop
    vertex 13.914383295426434 81.18636767740085 3.9999999999999996
    vertex 13.007529045934053 75.52951342790848 3.9999999999999996
    vertex 13.914383295426429 69.8726591784161 3.9999999999999996
  endloop
endfacet
facet normal 1.7250913181434683e-16 -7.978612790466013e-17 1.0
  outer loop
    vertex 13.914383295426434 81.18636767740085 3.9999999999999996
    vertex 13.914383295426429 69.8726591784161 3.9999999999999996
    vertex 15.185732276209558 71.52951342790848 3.9999999999999996
  endloop
endfacet
facet normal 1.7250913181434683e-16 -7.978612790466013e-17 1.0
  outer loop
    vertex 13.914383295426434 81.18636767740085 3.9999999999999996
    vertex 15.185732276209558 71.52951342790848 3.9999999999999996
    vertex 15.185732276209558 79.52951342790848 3.9999999999999996
  endloop
endfacet
facet normal 1.7250913181434683e-16 -7.978612790466013e-17 1.0
  outer loop
    vertex 15.185732276209558 79.52951342790848 3.9999999999999996
    vertex 15.185732276209558 71.52951342790848 3.9999999999999996
    vertex 15.984935656246593 73.45896106708831 3.9999999999999996
  endloop
endfacet
facet normal 1.7250913181434683e-16 -7.978612790466013e-17 1.0
  outer loop
    vertex 15.185732276209558 79.52951342790848 3.9999999999999996
    vertex 15.984935656246593 73.45896106708831 3.9999999999999996
    vertex 15.984935656246593 77.60006578872864 3.9999999999999996
  endloop
endfacet
facet normal 1.7250913181434683e-16 -7.978612790466013e-17 1.0
  outer loop
    vertex 15.984935656246593 77.60006578872864 3.9999999999999996
    vertex 15.984935656246593 73.45896106708831 3.9999999999999996
    vertex 16.257529045934046 75.52951342790848 3.9999999999999996
  endloop
endfacet
facet normal 0.25881904510251924 -0.9659258262890686 0.0
  outer loop
    vertex 10.328081406754215 67.80210681759594 3.9999999999999996
    vertex 8.25752904593405 67.52951342790848 0.0
    vertex 10.328081406754215 67.80210681759594 0.0
  endloop
endfacet
facet normal 0.0 -1.0 0.0
  outer loop
    vertex 8.25752904593405 67.52951342790848 0.0
    vertex 10.328081406754215 67.80210681759594 3.9999999999999996
    vertex 8.25752904593405 67.52951342790848 3.9999999999999996
  endloop
endfacet
facet normal 0.0 -1.0 0.0
  outer loop
    vertex 8.25752904593405 67.52951342790848 3.9999999999999996
    vertex 6.186976685113884 67.80210681759594 0.0
    vertex 8.25752904593405 67.52951342790848 0.0
  endloop
endfacet
facet normal -0.2588190451025204 -0.9659258262890684 0.0
  outer loop
    vertex 6.186976685113884 67.80210681759594 0.0
    vertex 8.25752904593405 67.52951342790848 3.9999999999999996
    vertex 6.186976685113884 67.80210681759594 3.9999999999999996
  endloop
endfacet
facet normal -0.2588190451025204 -0.9659258262890684 0.0
  outer loop
    vertex 6.186976685113884 67.80210681759594 3.9999999999999996
    vertex 4.257529045934051 68.60131019763297 0.0
    vertex 6.186976685113884 67.80210681759594 0.0
  endloop
endfacet
facet normal -0.4999999999999997 -0.8660254037844389 0.0
  outer loop
    vertex 4.257529045934051 68.60131019763297 0.0
    vertex 6.186976685113884 67.80210681759594 3.9999999999999996
    vertex 4.257529045934051 68.60131019763297 3.9999999999999996
  endloop
endfacet
facet normal -0.4999999999999997 -0.8660254037844389 0.0
  outer loop
    vertex 4.257529045934051 68.60131019763297 3.9999999999999996
    vertex 2.600674796441669 69.87265917841611 0.0
    vertex 4.257529045934051 68.60131019763297 0.0
  endloop
endfacet
facet normal -0.7071067811865466 -0.7071067811865487 0.0
  outer loop
    vertex 2.600674796441669 69.87265917841611 0.0
    vertex 4.257529045934051 68.60131019763297 3.9999999999999996
    vertex 2.600674796441669 69.87265917841611 3.9999999999999996
  endloop
endfacet
facet normal -0.7933533402912333 -0.6087614290087231 0.0
  outer loop
    vertex 1.3293258156585417 71.52951342790848 3.9999999999999996
    vertex 2.600674796441669 69.87265917841611 0.0
    vertex 2.600674796441669 69.87265917841611 3.9999999999999996
  endloop
endfacet
facet normal -0.7071067811865466 -0.7071067811865487 0.0
  outer loop
    vertex 2.600674796441669 69.87265917841611 0.0
    vertex 1.3293258156585417 71.52951342790848 3.9999999999999996
    vertex 1.3293258156585417 71.52951342790848 0.0
  endloop
endfacet
endsolid Plotter-v3-z-PenMount
