solid Plotter-v3-z-PenMount
facet normal -3.1188884634764164e-16 1.0 0.0
  outer loop
    vertex 28.586802395459397 50.526862624811315 3.9999999999999996
    vertex 29.816192859696372 50.688714949938245 0.0
    vertex 28.586802395459397 50.526862624811315 0.0
  endloop
endfacet
facet normal -0.25881904510252224 0.9659258262890679 0.0
  outer loop
    vertex 29.816192859696372 50.688714949938245 0.0
    vertex 28.586802395459397 50.526862624811315 3.9999999999999996
    vertex 29.816192859696372 50.688714949938245 3.9999999999999996
  endloop
endfacet
facet normal -0.25881904510252224 0.9659258262890679 0.0
  outer loop
    vertex 29.816192859696372 50.688714949938245 3.9999999999999996
    vertex 30.9618023954594 51.163241956835236 0.0
    vertex 29.816192859696372 50.688714949938245 0.0
  endloop
endfacet
facet normal -0.5000000000000018 0.8660254037844376 0.0
  outer loop
    vertex 30.9618023954594 51.163241956835236 0.0
    vertex 29.816192859696372 50.688714949938245 3.9999999999999996
    vertex 30.9618023954594 51.163241956835236 3.9999999999999996
  endloop
endfacet
facet normal -0.0 1.0 -0.0
  outer loop
    vertex 22.218454893046793 54.27686262481132 1.5
    vertex 23.968454893046793 54.27686262481132 0.0
    vertex 22.218454893046793 54.27686262481132 0.0
  endloop
endfacet
facet normal -0.0 1.0 -0.0
  outer loop
    vertex 23.968454893046793 54.27686262481132 0.0
    vertex 22.218454893046793 54.27686262481132 1.5
    vertex 22.968454893046793 54.27686262481132 1.5
  endloop
endfacet
facet normal -0.0 1.0 -0.0
  outer loop
    vertex 23.968454893046793 54.27686262481132 0.0
    vertex 22.968454893046793 54.27686262481132 1.5
    vertex 23.968454893046793 54.27686262481132 3.9999999999999996
  endloop
endfacet
facet normal -0.0 1.0 -0.0
  outer loop
    vertex 23.968454893046793 54.27686262481132 3.9999999999999996
    vertex 22.968454893046793 54.27686262481132 1.5
    vertex 22.968454893046793 54.27686262481132 3.9999999999999996
  endloop
endfacet
facet normal 0.4999999999999997 0.8660254037844389 0.0
  outer loop
    vertex 31.461802395459397 60.25650869657185 3.9999999999999996
    vertex 32.652666387282046 59.34272661663397 1.5
    vertex 31.461802395459397 60.25650869657185 1.5
  endloop
endfacet
facet normal 0.7071067811865476 0.7071067811865476 0.0
  outer loop
    vertex 32.652666387282046 59.34272661663397 1.5
    vertex 31.461802395459397 60.25650869657185 3.9999999999999996
    vertex 32.652666387282046 59.34272661663397 3.9999999999999996
  endloop
endfacet
facet normal -0.9914448613738109 -0.13052619222004788 -0.0
  outer loop
    vertex 22.968454893046793 54.27686262481132 3.9999999999999996
    vertex 23.032728894297254 53.78865311547183 1.5
    vertex 23.032728894297254 53.78865311547183 3.9999999999999996
  endloop
endfacet
facet normal -0.965925826289069 -0.2588190451025178 0.0
  outer loop
    vertex 23.032728894297254 53.78865311547183 1.5
    vertex 22.968454893046793 54.27686262481132 3.9999999999999996
    vertex 22.968454893046793 54.27686262481132 1.5
  endloop
endfacet
facet normal -0.8660254037844387 -0.4999999999999999 0.0
  outer loop
    vertex 23.60715632369887 52.40186262481132 3.9999999999999996
    vertex 24.520938403636748 51.21099863298868 1.5
    vertex 24.520938403636748 51.21099863298868 3.9999999999999996
  endloop
endfacet
facet normal -0.7071067811865466 -0.7071067811865485 0.0
  outer loop
    vertex 24.520938403636748 51.21099863298868 1.5
    vertex 23.60715632369887 52.40186262481132 3.9999999999999996
    vertex 23.60715632369887 52.40186262481132 1.5
  endloop
endfacet
facet normal -0.7071067811865465 -0.7071067811865485 0.0
  outer loop
    vertex 31.9455596060955 58.63561983544742 3.9999999999999996
    vertex 30.9618023954594 59.3904832927874 0.0
    vertex 31.9455596060955 58.63561983544742 0.0
  endloop
endfacet
facet normal -0.5000000000000018 -0.8660254037844376 0.0
  outer loop
    vertex 30.9618023954594 59.3904832927874 0.0
    vertex 31.9455596060955 58.63561983544742 3.9999999999999996
    vertex 30.9618023954594 59.3904832927874 3.9999999999999996
  endloop
endfacet
facet normal -0.5000000000000018 -0.8660254037844376 0.0
  outer loop
    vertex 30.9618023954594 59.3904832927874 3.9999999999999996
    vertex 29.816192859696372 59.8650102996844 0.0
    vertex 30.9618023954594 59.3904832927874 0.0
  endloop
endfacet
facet normal -0.25881904510252224 -0.9659258262890679 0.0
  outer loop
    vertex 29.816192859696372 59.8650102996844 0.0
    vertex 30.9618023954594 59.3904832927874 3.9999999999999996
    vertex 29.816192859696372 59.8650102996844 3.9999999999999996
  endloop
endfacet
facet normal -0.25881904510252224 -0.9659258262890679 0.0
  outer loop
    vertex 29.816192859696372 59.8650102996844 3.9999999999999996
    vertex 28.586802395459397 60.02686262481132 0.0
    vertex 29.816192859696372 59.8650102996844 0.0
  endloop
endfacet
facet normal 0.0 -1.0 0.0
  outer loop
    vertex 28.586802395459397 60.02686262481132 0.0
    vertex 29.816192859696372 59.8650102996844 3.9999999999999996
    vertex 28.586802395459397 60.02686262481132 3.9999999999999996
  endloop
endfacet
facet normal 0.0 -1.0 0.0
  outer loop
    vertex 28.586802395459397 60.02686262481132 3.9999999999999996
    vertex 27.357411931222423 59.8650102996844 0.0
    vertex 28.586802395459397 60.02686262481132 0.0
  endloop
endfacet
facet normal 0.25881904510252224 -0.9659258262890679 0.0
  outer loop
    vertex 27.357411931222423 59.8650102996844 0.0
    vertex 28.586802395459397 60.02686262481132 3.9999999999999996
    vertex 27.357411931222423 59.8650102996844 3.9999999999999996
  endloop
endfacet
facet normal 0.25881904510252224 -0.9659258262890679 0.0
  outer loop
    vertex 27.357411931222423 59.8650102996844 3.9999999999999996
    vertex 26.211802395459397 59.3904832927874 0.0
    vertex 27.357411931222423 59.8650102996844 0.0
  endloop
endfacet
facet normal 0.4999999999999993 -0.866025403784439 0.0
  outer loop
    vertex 26.211802395459397 59.3904832927874 0.0
    vertex 27.357411931222423 59.8650102996844 3.9999999999999996
    vertex 26.211802395459397 59.3904832927874 3.9999999999999996
  endloop
endfacet
facet normal 0.4999999999999993 -0.866025403784439 0.0
  outer loop
    vertex 26.211802395459397 59.3904832927874 3.9999999999999996
    vertex 25.228045184823298 58.63561983544743 0.0
    vertex 26.211802395459397 59.3904832927874 0.0
  endloop
endfacet
facet normal 0.7071067811865465 -0.7071067811865486 0.0
  outer loop
    vertex 25.228045184823298 58.63561983544743 0.0
    vertex 26.211802395459397 59.3904832927874 3.9999999999999996
    vertex 25.228045184823298 58.63561983544743 3.9999999999999996
  endloop
endfacet
facet normal 0.7071067811865465 -0.7071067811865486 0.0
  outer loop
    vertex 25.228045184823298 58.63561983544743 0.0
    vertex 24.473181727483315 57.65186262481132 3.9999999999999996
    vertex 24.473181727483315 57.65186262481132 0.0
  endloop
endfacet
facet normal 0.8660254037844389 -0.4999999999999995 0.0
  outer loop
    vertex 24.473181727483315 57.65186262481132 3.9999999999999996
    vertex 25.228045184823298 58.63561983544743 0.0
    vertex 25.228045184823298 58.63561983544743 3.9999999999999996
  endloop
endfacet
facet normal 0.8660254037844389 -0.4999999999999995 0.0
  outer loop
    vertex 24.473181727483315 57.65186262481132 0.0
    vertex 23.998654720586323 56.5062530890483 3.9999999999999996
    vertex 23.998654720586323 56.5062530890483 0.0
  endloop
endfacet
facet normal 0.9659258262890682 -0.25881904510252085 0.0
  outer loop
    vertex 23.998654720586323 56.5062530890483 3.9999999999999996
    vertex 24.473181727483315 57.65186262481132 0.0
    vertex 24.473181727483315 57.65186262481132 3.9999999999999996
  endloop
endfacet
facet normal 0.9659258262890682 -0.25881904510252085 0.0
  outer loop
    vertex 23.998654720586323 56.5062530890483 0.0
    vertex 23.968454893046793 56.27686262481132 3.9999999999999996
    vertex 23.968454893046793 56.27686262481132 0.0
  endloop
endfacet
facet normal 0.9914448613738107 -0.13052619222005032 0.0
  outer loop
    vertex 23.968454893046793 56.27686262481132 3.9999999999999996
    vertex 23.998654720586323 56.5062530890483 0.0
    vertex 23.998654720586323 56.5062530890483 3.9999999999999996
  endloop
endfacet
facet normal -0.9659258262890681 0.25881904510252135 0.0
  outer loop
    vertex 23.032728894297257 56.76507213415083 3.9999999999999996
    vertex 22.968454893046793 56.27686262481132 1.5
    vertex 22.968454893046793 56.27686262481132 3.9999999999999996
  endloop
endfacet
facet normal -0.9914448613738106 0.13052619222005055 0.0
  outer loop
    vertex 22.968454893046793 56.27686262481132 1.5
    vertex 23.032728894297257 56.76507213415083 3.9999999999999996
    vertex 23.032728894297257 56.76507213415083 1.5
  endloop
endfacet
facet normal 0.5000000000000007 -0.8660254037844383 0.0
  outer loop
    vertex 31.461802395459397 50.2972165530508 3.9999999999999996
    vertex 30.075011904798888 49.72278912364918 1.5
    vertex 31.461802395459397 50.2972165530508 1.5
  endloop
endfacet
facet normal 0.2588190451025211 -0.9659258262890681 0.0
  outer loop
    vertex 30.075011904798888 49.72278912364918 1.5
    vertex 31.461802395459397 50.2972165530508 3.9999999999999996
    vertex 30.075011904798888 49.72278912364918 3.9999999999999996
  endloop
endfacet
facet normal 0.2588190451025211 -0.9659258262890681 0.0
  outer loop
    vertex 30.075011904798888 49.72278912364918 3.9999999999999996
    vertex 28.586802395459397 49.52686262481132 1.5
    vertex 30.075011904798888 49.72278912364918 1.5
  endloop
endfacet
facet normal 2.405999671824664e-16 -1.0 0.0
  outer loop
    vertex 28.586802395459397 49.52686262481132 1.5
    vertex 30.075011904798888 49.72278912364918 3.9999999999999996
    vertex 28.586802395459397 49.52686262481132 3.9999999999999996
  endloop
endfacet
facet normal 2.405999671824664e-16 -1.0 0.0
  outer loop
    vertex 28.586802395459397 49.52686262481132 3.9999999999999996
    vertex 27.0985928861199 49.72278912364918 1.5
    vertex 28.586802395459397 49.52686262481132 1.5
  endloop
endfacet
facet normal -0.2588190451025215 -0.9659258262890681 0.0
  outer loop
    vertex 27.0985928861199 49.72278912364918 1.5
    vertex 28.586802395459397 49.52686262481132 3.9999999999999996
    vertex 27.0985928861199 49.72278912364918 3.9999999999999996
  endloop
endfacet
facet normal 0.0 -1.0 0.0
  outer loop
    vertex 23.968454893046793 56.27686262481132 0.0
    vertex 22.968454893046793 56.27686262481132 1.5
    vertex 22.218454893046797 56.27686262481132 0.0
  endloop
endfacet
facet normal 0.0 -1.0 0.0
  outer loop
    vertex 22.968454893046793 56.27686262481132 1.5
    vertex 23.968454893046793 56.27686262481132 0.0
    vertex 23.968454893046793 56.27686262481132 3.9999999999999996
  endloop
endfacet
facet normal 0.0 -1.0 0.0
  outer loop
    vertex 22.968454893046793 56.27686262481132 1.5
    vertex 23.968454893046793 56.27686262481132 3.9999999999999996
    vertex 22.968454893046793 56.27686262481132 3.9999999999999996
  endloop
endfacet
facet normal 0.0 -1.0 0.0
  outer loop
    vertex 22.218454893046797 56.27686262481132 1.5
    vertex 22.218454893046797 56.27686262481132 0.0
    vertex 22.968454893046793 56.27686262481132 1.5
  endloop
endfacet
facet normal 0.8660254037844393 0.49999999999999917 0.0
  outer loop
    vertex 35.51500562573491 59.276862624811315 0.0
    vertex 36.31420900577194 57.34741498563148 1.5
    vertex 36.31420900577194 57.34741498563148 0.0
  endloop
endfacet
facet normal 0.9659258262890684 0.25881904510252063 0.0
  outer loop
    vertex 36.31420900577194 57.34741498563148 1.5
    vertex 35.51500562573491 59.276862624811315 0.0
    vertex 35.51500562573491 59.276862624811315 1.5
  endloop
endfacet
facet normal 0.9659258262890684 0.25881904510252063 0.0
  outer loop
    vertex 36.31420900577194 57.34741498563148 0.0
    vertex 36.586802395459394 55.27686262481132 1.5
    vertex 36.586802395459394 55.27686262481132 0.0
  endloop
endfacet
facet normal 1.0 3.6535550572152315e-16 0.0
  outer loop
    vertex 36.586802395459394 55.27686262481132 1.5
    vertex 36.31420900577194 57.34741498563148 0.0
    vertex 36.31420900577194 57.34741498563148 1.5
  endloop
endfacet
facet normal 1.0 3.6535550572152315e-16 0.0
  outer loop
    vertex 36.586802395459394 55.27686262481132 0.0
    vertex 36.31420900577194 53.20631026399115 1.5
    vertex 36.31420900577194 53.20631026399115 0.0
  endloop
endfacet
facet normal 0.9659258262890684 -0.25881904510252024 0.0
  outer loop
    vertex 36.31420900577194 53.20631026399115 1.5
    vertex 36.586802395459394 55.27686262481132 0.0
    vertex 36.586802395459394 55.27686262481132 1.5
  endloop
endfacet
facet normal 0.9659258262890684 -0.25881904510252024 0.0
  outer loop
    vertex 36.31420900577194 53.20631026399115 0.0
    vertex 35.51500562573491 51.276862624811315 1.5
    vertex 35.51500562573491 51.276862624811315 0.0
  endloop
endfacet
facet normal 0.8660254037844387 -0.5 0.0
  outer loop
    vertex 35.51500562573491 51.276862624811315 1.5
    vertex 36.31420900577194 53.20631026399115 0.0
    vertex 36.31420900577194 53.20631026399115 1.5
  endloop
endfacet
facet normal 0.8660254037844387 -0.5 0.0
  outer loop
    vertex 35.51500562573491 51.276862624811315 0.0
    vertex 34.24365664495178 49.62000837531894 1.5
    vertex 34.24365664495178 49.62000837531894 0.0
  endloop
endfacet
facet normal 0.7071067811865476 -0.7071067811865476 0.0
  outer loop
    vertex 34.24365664495178 49.62000837531894 1.5
    vertex 35.51500562573491 51.276862624811315 0.0
    vertex 35.51500562573491 51.276862624811315 1.5
  endloop
endfacet
facet normal 0.7071067811865476 -0.7071067811865476 0.0
  outer loop
    vertex 34.24365664495178 49.62000837531894 1.5
    vertex 32.586802395459394 48.34865939453581 0.0
    vertex 34.24365664495178 49.62000837531894 0.0
  endloop
endfacet
facet normal 0.4999999999999989 -0.8660254037844393 0.0
  outer loop
    vertex 32.586802395459394 48.34865939453581 0.0
    vertex 34.24365664495178 49.62000837531894 1.5
    vertex 32.586802395459394 48.34865939453581 1.5
  endloop
endfacet
facet normal 0.4999999999999989 -0.8660254037844393 0.0
  outer loop
    vertex 32.586802395459394 48.34865939453581 1.5
    vertex 30.657354756279563 47.54945601449878 0.0
    vertex 32.586802395459394 48.34865939453581 0.0
  endloop
endfacet
facet normal 0.25881904510251924 -0.9659258262890686 0.0
  outer loop
    vertex 30.657354756279563 47.54945601449878 0.0
    vertex 32.586802395459394 48.34865939453581 1.5
    vertex 30.657354756279563 47.54945601449878 1.5
  endloop
endfacet
facet normal 1.0 -1.4099832412739513e-15 -0.0
  outer loop
    vertex 22.218454893046797 56.27686262481132 0.0
    vertex 22.218454893046793 54.27686262481132 1.5
    vertex 22.218454893046793 54.27686262481132 0.0
  endloop
endfacet
facet normal 1.0 -1.4099832412739513e-15 -0.0
  outer loop
    vertex 22.218454893046793 54.27686262481132 1.5
    vertex 22.218454893046797 56.27686262481132 0.0
    vertex 22.218454893046797 56.27686262481132 1.5
  endloop
endfacet
facet normal 0.25881904510251924 -0.9659258262890686 0.0
  outer loop
    vertex 30.657354756279563 47.54945601449878 1.5
    vertex 28.586802395459397 47.27686262481132 0.0
    vertex 30.657354756279563 47.54945601449878 0.0
  endloop
endfacet
facet normal 0.0 -1.0 0.0
  outer loop
    vertex 28.586802395459397 47.27686262481132 0.0
    vertex 30.657354756279563 47.54945601449878 1.5
    vertex 28.586802395459397 47.27686262481132 1.5
  endloop
endfacet
facet normal 0.0 -1.0 0.0
  outer loop
    vertex 28.586802395459397 47.27686262481132 1.5
    vertex 26.51625003463923 47.54945601449878 0.0
    vertex 28.586802395459397 47.27686262481132 0.0
  endloop
endfacet
facet normal -0.2588190451025204 -0.9659258262890684 0.0
  outer loop
    vertex 26.51625003463923 47.54945601449878 0.0
    vertex 28.586802395459397 47.27686262481132 1.5
    vertex 26.51625003463923 47.54945601449878 1.5
  endloop
endfacet
facet normal -0.7071067811865486 0.7071067811865465 0.0
  outer loop
    vertex 24.52093840363675 59.34272661663397 3.9999999999999996
    vertex 25.711802395459397 60.25650869657185 1.5
    vertex 24.52093840363675 59.34272661663397 1.5
  endloop
endfacet
facet normal -0.499999999999999 0.8660254037844392 0.0
  outer loop
    vertex 25.711802395459397 60.25650869657185 1.5
    vertex 24.52093840363675 59.34272661663397 3.9999999999999996
    vertex 25.711802395459397 60.25650869657185 3.9999999999999996
  endloop
endfacet
facet normal 0.0 0.0 -1.0
  outer loop
    vertex 21.658599165183894 59.27686262481132 0.0
    vertex 22.218454893046797 56.27686262481132 0.0
    vertex 22.218454893046793 54.27686262481132 0.0
  endloop
endfacet
facet normal 0.0 0.0 -1.0
  outer loop
    vertex 22.218454893046797 56.27686262481132 0.0
    vertex 21.658599165183894 59.27686262481132 0.0
    vertex 22.92994814596702 60.933716874303705 0.0
  endloop
endfacet
facet normal 0.0 0.0 -1.0
  outer loop
    vertex 22.218454893046797 56.27686262481132 0.0
    vertex 22.92994814596702 60.933716874303705 0.0
    vertex 23.968454893046793 56.27686262481132 0.0
  endloop
endfacet
facet normal 0.0 0.0 -1.0
  outer loop
    vertex 23.968454893046793 56.27686262481132 0.0
    vertex 22.92994814596702 60.933716874303705 0.0
    vertex 24.586802395459404 62.205065855086836 0.0
  endloop
endfacet
facet normal 0.0 0.0 -1.0
  outer loop
    vertex 23.968454893046793 56.27686262481132 0.0
    vertex 24.586802395459404 62.205065855086836 0.0
    vertex 23.998654720586323 56.5062530890483 0.0
  endloop
endfacet
facet normal 0.0 0.0 -1.0
  outer loop
    vertex 23.998654720586323 56.5062530890483 0.0
    vertex 24.586802395459404 62.205065855086836 0.0
    vertex 24.473181727483315 57.65186262481132 0.0
  endloop
endfacet
facet normal 0.0 0.0 -1.0
  outer loop
    vertex 24.473181727483315 57.65186262481132 0.0
    vertex 24.586802395459404 62.205065855086836 0.0
    vertex 25.228045184823298 58.63561983544743 0.0
  endloop
endfacet
facet normal 0.0 0.0 -1.0
  outer loop
    vertex 25.228045184823298 58.63561983544743 0.0
    vertex 24.586802395459404 62.205065855086836 0.0
    vertex 26.51625003463924 63.004269235123864 0.0
  endloop
endfacet
facet normal 0.0 0.0 -1.0
  outer loop
    vertex 25.228045184823298 58.63561983544743 0.0
    vertex 26.51625003463924 63.004269235123864 0.0
    vertex 26.211802395459397 59.3904832927874 0.0
  endloop
endfacet
facet normal 0.0 0.0 -1.0
  outer loop
    vertex 26.211802395459397 59.3904832927874 0.0
    vertex 26.51625003463924 63.004269235123864 0.0
    vertex 27.357411931222423 59.8650102996844 0.0
  endloop
endfacet
facet normal 0.0 0.0 -1.0
  outer loop
    vertex 27.357411931222423 59.8650102996844 0.0
    vertex 26.51625003463924 63.004269235123864 0.0
    vertex 28.586802395459397 63.276862624811315 0.0
  endloop
endfacet
facet normal 0.0 0.0 -1.0
  outer loop
    vertex 27.357411931222423 59.8650102996844 0.0
    vertex 28.586802395459397 63.276862624811315 0.0
    vertex 28.586802395459397 60.02686262481132 0.0
  endloop
endfacet
facet normal 0.0 0.0 -1.0
  outer loop
    vertex 28.586802395459397 60.02686262481132 0.0
    vertex 28.586802395459397 63.276862624811315 0.0
    vertex 30.65735475627957 63.004269235123864 0.0
  endloop
endfacet
facet normal 0.0 0.0 -1.0
  outer loop
    vertex 28.586802395459397 60.02686262481132 0.0
    vertex 30.65735475627957 63.004269235123864 0.0
    vertex 29.816192859696372 59.8650102996844 0.0
  endloop
endfacet
facet normal 0.0 0.0 -1.0
  outer loop
    vertex 29.816192859696372 59.8650102996844 0.0
    vertex 30.65735475627957 63.004269235123864 0.0
    vertex 30.9618023954594 59.3904832927874 0.0
  endloop
endfacet
facet normal 0.0 0.0 -1.0
  outer loop
    vertex 30.9618023954594 59.3904832927874 0.0
    vertex 30.65735475627957 63.004269235123864 0.0
    vertex 32.5868023954594 62.20506585508682 0.0
  endloop
endfacet
facet normal 0.0 0.0 -1.0
  outer loop
    vertex 30.9618023954594 59.3904832927874 0.0
    vertex 32.5868023954594 62.20506585508682 0.0
    vertex 31.9455596060955 58.63561983544742 0.0
  endloop
endfacet
facet normal 0.0 0.0 -1.0
  outer loop
    vertex 31.9455596060955 58.63561983544742 0.0
    vertex 32.5868023954594 62.20506585508682 0.0
    vertex 32.70042306343549 57.65186262481132 0.0
  endloop
endfacet
facet normal 0.0 0.0 -1.0
  outer loop
    vertex 32.70042306343549 57.65186262481132 0.0
    vertex 32.5868023954594 62.20506585508682 0.0
    vertex 34.243656644951784 60.93371687430369 0.0
  endloop
endfacet
facet normal 0.0 0.0 -1.0
  outer loop
    vertex 32.70042306343549 57.65186262481132 0.0
    vertex 34.243656644951784 60.93371687430369 0.0
    vertex 33.17495007033248 56.50625308904829 0.0
  endloop
endfacet
facet normal 0.0 0.0 -1.0
  outer loop
    vertex 33.17495007033248 56.50625308904829 0.0
    vertex 34.243656644951784 60.93371687430369 0.0
    vertex 33.3368023954594 55.27686262481132 0.0
  endloop
endfacet
facet normal 0.0 0.0 -1.0
  outer loop
    vertex 33.3368023954594 55.27686262481132 0.0
    vertex 34.243656644951784 60.93371687430369 0.0
    vertex 34.24365664495178 49.62000837531894 0.0
  endloop
endfacet
facet normal 0.0 0.0 -1.0
  outer loop
    vertex 34.24365664495178 49.62000837531894 0.0
    vertex 34.243656644951784 60.93371687430369 0.0
    vertex 35.51500562573491 51.276862624811315 0.0
  endloop
endfacet
facet normal 0.0 0.0 -1.0
  outer loop
    vertex 35.51500562573491 51.276862624811315 0.0
    vertex 34.243656644951784 60.93371687430369 0.0
    vertex 35.51500562573491 59.276862624811315 0.0
  endloop
endfacet
facet normal 0.0 0.0 -1.0
  outer loop
    vertex 35.51500562573491 51.276862624811315 0.0
    vertex 35.51500562573491 59.276862624811315 0.0
    vertex 36.31420900577194 57.34741498563148 0.0
  endloop
endfacet
facet normal 0.0 0.0 -1.0
  outer loop
    vertex 35.51500562573491 51.276862624811315 0.0
    vertex 36.31420900577194 57.34741498563148 0.0
    vertex 36.31420900577194 53.20631026399115 0.0
  endloop
endfacet
facet normal 0.0 0.0 -1.0
  outer loop
    vertex 36.31420900577194 53.20631026399115 0.0
    vertex 36.31420900577194 57.34741498563148 0.0
    vertex 36.586802395459394 55.27686262481132 0.0
  endloop
endfacet
facet normal 0.0 0.0 -1.0
  outer loop
    vertex 20.859395785146855 57.347414985631495 0.0
    vertex 20.859395785146855 53.20631026399115 0.0
    vertex 20.5868023954594 55.27686262481132 0.0
  endloop
endfacet
facet normal 0.0 0.0 -1.0
  outer loop
    vertex 20.859395785146855 53.20631026399115 0.0
    vertex 20.859395785146855 57.347414985631495 0.0
    vertex 21.658599165183894 59.27686262481132 0.0
  endloop
endfacet
facet normal 0.0 0.0 -1.0
  outer loop
    vertex 20.859395785146855 53.20631026399115 0.0
    vertex 21.658599165183894 59.27686262481132 0.0
    vertex 21.65859916518389 51.276862624811315 0.0
  endloop
endfacet
facet normal 0.0 0.0 -1.0
  outer loop
    vertex 21.65859916518389 51.276862624811315 0.0
    vertex 21.658599165183894 59.27686262481132 0.0
    vertex 22.218454893046793 54.27686262481132 0.0
  endloop
endfacet
facet normal 0.0 0.0 -1.0
  outer loop
    vertex 21.65859916518389 51.276862624811315 0.0
    vertex 22.218454893046793 54.27686262481132 0.0
    vertex 22.929948145967018 49.620008375318946 0.0
  endloop
endfacet
facet normal 0.0 0.0 -1.0
  outer loop
    vertex 22.929948145967018 49.620008375318946 0.0
    vertex 22.218454893046793 54.27686262481132 0.0
    vertex 23.968454893046793 54.27686262481132 0.0
  endloop
endfacet
facet normal 0.0 0.0 -1.0
  outer loop
    vertex 22.929948145967018 49.620008375318946 0.0
    vertex 23.968454893046793 54.27686262481132 0.0
    vertex 24.5868023954594 48.348659394535815 0.0
  endloop
endfacet
facet normal 0.0 0.0 -1.0
  outer loop
    vertex 24.5868023954594 48.348659394535815 0.0
    vertex 23.968454893046793 54.27686262481132 0.0
    vertex 23.99865472058632 54.04747216057435 0.0
  endloop
endfacet
facet normal 0.0 0.0 -1.0
  outer loop
    vertex 24.5868023954594 48.348659394535815 0.0
    vertex 23.99865472058632 54.04747216057435 0.0
    vertex 24.47318172748331 52.90186262481132 0.0
  endloop
endfacet
facet normal 0.0 0.0 -1.0
  outer loop
    vertex 24.5868023954594 48.348659394535815 0.0
    vertex 24.47318172748331 52.90186262481132 0.0
    vertex 25.228045184823294 51.91810541417522 0.0
  endloop
endfacet
facet normal 0.0 0.0 -1.0
  outer loop
    vertex 24.5868023954594 48.348659394535815 0.0
    vertex 25.228045184823294 51.91810541417522 0.0
    vertex 26.51625003463923 47.54945601449878 0.0
  endloop
endfacet
facet normal 0.0 0.0 -1.0
  outer loop
    vertex 26.51625003463923 47.54945601449878 0.0
    vertex 25.228045184823294 51.91810541417522 0.0
    vertex 26.211802395459397 51.163241956835236 0.0
  endloop
endfacet
facet normal 0.0 0.0 -1.0
  outer loop
    vertex 26.51625003463923 47.54945601449878 0.0
    vertex 26.211802395459397 51.163241956835236 0.0
    vertex 27.35741193122242 50.688714949938245 0.0
  endloop
endfacet
facet normal 0.0 0.0 -1.0
  outer loop
    vertex 26.51625003463923 47.54945601449878 0.0
    vertex 27.35741193122242 50.688714949938245 0.0
    vertex 28.586802395459397 47.27686262481132 0.0
  endloop
endfacet
facet normal 0.0 0.0 -1.0
  outer loop
    vertex 28.586802395459397 47.27686262481132 0.0
    vertex 27.35741193122242 50.688714949938245 0.0
    vertex 28.586802395459397 50.526862624811315 0.0
  endloop
endfacet
facet normal 0.0 0.0 -1.0
  outer loop
    vertex 28.586802395459397 47.27686262481132 0.0
    vertex 28.586802395459397 50.526862624811315 0.0
    vertex 29.816192859696372 50.688714949938245 0.0
  endloop
endfacet
facet normal 0.0 0.0 -1.0
  outer loop
    vertex 28.586802395459397 47.27686262481132 0.0
    vertex 29.816192859696372 50.688714949938245 0.0
    vertex 30.657354756279563 47.54945601449878 0.0
  endloop
endfacet
facet normal 0.0 0.0 -1.0
  outer loop
    vertex 30.657354756279563 47.54945601449878 0.0
    vertex 29.816192859696372 50.688714949938245 0.0
    vertex 30.9618023954594 51.163241956835236 0.0
  endloop
endfacet
facet normal 0.0 0.0 -1.0
  outer loop
    vertex 30.657354756279563 47.54945601449878 0.0
    vertex 30.9618023954594 51.163241956835236 0.0
    vertex 32.586802395459394 48.34865939453581 0.0
  endloop
endfacet
facet normal 0.0 0.0 -1.0
  outer loop
    vertex 32.586802395459394 48.34865939453581 0.0
    vertex 30.9618023954594 51.163241956835236 0.0
    vertex 31.9455596060955 51.91810541417522 0.0
  endloop
endfacet
facet normal 0.0 0.0 -1.0
  outer loop
    vertex 32.586802395459394 48.34865939453581 0.0
    vertex 31.9455596060955 51.91810541417522 0.0
    vertex 32.70042306343549 52.90186262481132 0.0
  endloop
endfacet
facet normal 0.0 0.0 -1.0
  outer loop
    vertex 32.586802395459394 48.34865939453581 0.0
    vertex 32.70042306343549 52.90186262481132 0.0
    vertex 34.24365664495178 49.62000837531894 0.0
  endloop
endfacet
facet normal 0.0 0.0 -1.0
  outer loop
    vertex 34.24365664495178 49.62000837531894 0.0
    vertex 32.70042306343549 52.90186262481132 0.0
    vertex 33.17495007033248 54.047472160574344 0.0
  endloop
endfacet
facet normal 0.0 0.0 -1.0
  outer loop
    vertex 34.24365664495178 49.62000837531894 0.0
    vertex 33.17495007033248 54.047472160574344 0.0
    vertex 33.3368023954594 55.27686262481132 0.0
  endloop
endfacet
facet normal -0.2588190451025204 -0.9659258262890684 0.0
  outer loop
    vertex 26.51625003463923 47.54945601449878 1.5
    vertex 24.5868023954594 48.348659394535815 0.0
    vertex 26.51625003463923 47.54945601449878 0.0
  endloop
endfacet
facet normal -0.4999999999999997 -0.8660254037844389 0.0
  outer loop
    vertex 24.5868023954594 48.348659394535815 0.0
    vertex 26.51625003463923 47.54945601449878 1.5
    vertex 24.5868023954594 48.348659394535815 1.5
  endloop
endfacet
facet normal -0.4999999999999997 -0.8660254037844389 0.0
  outer loop
    vertex 24.5868023954594 48.348659394535815 1.5
    vertex 22.929948145967018 49.620008375318946 0.0
    vertex 24.5868023954594 48.348659394535815 0.0
  endloop
endfacet
facet normal -0.707106781186547 -0.707106781186548 0.0
  outer loop
    vertex 22.929948145967018 49.620008375318946 0.0
    vertex 24.5868023954594 48.348659394535815 1.5
    vertex 22.929948145967018 49.620008375318946 1.5
  endloop
endfacet
facet normal -0.8660254037844385 -0.5000000000000002 0.0
  outer loop
    vertex 21.65859916518389 51.276862624811315 1.5
    vertex 22.929948145967018 49.620008375318946 0.0
    vertex 22.929948145967018 49.620008375318946 1.5
  endloop
endfacet
facet normal -0.707106781186547 -0.707106781186548 0.0
  outer loop
    vertex 22.929948145967018 49.620008375318946 0.0
    vertex 21.65859916518389 51.276862624811315 1.5
    vertex 21.65859916518389 51.276862624811315 0.0
  endloop
endfacet
facet normal -0.9659258262890684 -0.25881904510252024 0.0
  outer loop
    vertex 20.859395785146855 53.20631026399115 1.5
    vertex 21.65859916518389 51.276862624811315 0.0
    vertex 21.65859916518389 51.276862624811315 1.5
  endloop
endfacet
facet normal -0.8660254037844385 -0.5000000000000002 0.0
  outer loop
    vertex 21.65859916518389 51.276862624811315 0.0
    vertex 20.859395785146855 53.20631026399115 1.5
    vertex 20.859395785146855 53.20631026399115 0.0
  endloop
endfacet
facet normal -1.0 0.0 0.0
  outer loop
    vertex 20.5868023954594 55.27686262481132 1.5
    vertex 20.859395785146855 53.20631026399115 0.0
    vertex 20.859395785146855 53.20631026399115 1.5
  endloop
endfacet
facet normal -0.9659258262890684 -0.25881904510252024 0.0
  outer loop
    vertex 20.859395785146855 53.20631026399115 0.0
    vertex 20.5868023954594 55.27686262481132 1.5
    vertex 20.5868023954594 55.27686262481132 0.0
  endloop
endfacet
facet normal -0.9659258262890682 0.25881904510252085 0.0
  outer loop
    vertex 20.859395785146855 57.347414985631495 1.5
    vertex 20.5868023954594 55.27686262481132 0.0
    vertex 20.5868023954594 55.27686262481132 1.5
  endloop
endfacet
facet normal -1.0 0.0 0.0
  outer loop
    vertex 20.5868023954594 55.27686262481132 0.0
    vertex 20.859395785146855 57.347414985631495 1.5
    vertex 20.859395785146855 57.347414985631495 0.0
  endloop
endfacet
facet normal -0.8660254037844387 0.5000000000000001 0.0
  outer loop
    vertex 21.658599165183894 59.27686262481132 1.5
    vertex 20.859395785146855 57.347414985631495 0.0
    vertex 20.859395785146855 57.347414985631495 1.5
  endloop
endfacet
facet normal -0.9659258262890682 0.25881904510252085 0.0
  outer loop
    vertex 20.859395785146855 57.347414985631495 0.0
    vertex 21.658599165183894 59.27686262481132 1.5
    vertex 21.658599165183894 59.27686262481132 0.0
  endloop
endfacet
facet normal -0.7071067811865474 0.7071067811865477 0.0
  outer loop
    vertex 22.92994814596702 60.933716874303705 1.5
    vertex 21.658599165183894 59.27686262481132 0.0
    vertex 21.658599165183894 59.27686262481132 1.5
  endloop
endfacet
facet normal -0.8660254037844387 0.5000000000000001 0.0
  outer loop
    vertex 21.658599165183894 59.27686262481132 0.0
    vertex 22.92994814596702 60.933716874303705 1.5
    vertex 22.92994814596702 60.933716874303705 0.0
  endloop
endfacet
facet normal -0.7071067811865474 0.7071067811865477 0.0
  outer loop
    vertex 22.92994814596702 60.933716874303705 1.5
    vertex 24.586802395459404 62.205065855086836 0.0
    vertex 22.92994814596702 60.933716874303705 0.0
  endloop
endfacet
facet normal -0.49999999999999817 0.8660254037844397 0.0
  outer loop
    vertex 24.586802395459404 62.205065855086836 0.0
    vertex 22.92994814596702 60.933716874303705 1.5
    vertex 24.586802395459404 62.205065855086836 1.5
  endloop
endfacet
facet normal -0.49999999999999817 0.8660254037844397 0.0
  outer loop
    vertex 24.586802395459404 62.205065855086836 1.5
    vertex 26.51625003463924 63.004269235123864 0.0
    vertex 24.586802395459404 62.205065855086836 0.0
  endloop
endfacet
facet normal -0.2588190451025194 0.9659258262890686 0.0
  outer loop
    vertex 26.51625003463924 63.004269235123864 0.0
    vertex 24.586802395459404 62.205065855086836 1.5
    vertex 26.51625003463924 63.004269235123864 1.5
  endloop
endfacet
facet normal -0.5000000000000018 0.8660254037844376 0.0
  outer loop
    vertex 30.9618023954594 51.163241956835236 3.9999999999999996
    vertex 31.9455596060955 51.91810541417522 0.0
    vertex 30.9618023954594 51.163241956835236 0.0
  endloop
endfacet
facet normal -0.7071067811865465 0.7071067811865485 0.0
  outer loop
    vertex 31.9455596060955 51.91810541417522 0.0
    vertex 30.9618023954594 51.163241956835236 3.9999999999999996
    vertex 31.9455596060955 51.91810541417522 3.9999999999999996
  endloop
endfacet
facet normal -0.8660254037844375 0.500000000000002 0.0
  outer loop
    vertex 32.70042306343549 52.90186262481132 3.9999999999999996
    vertex 31.9455596060955 51.91810541417522 0.0
    vertex 31.9455596060955 51.91810541417522 3.9999999999999996
  endloop
endfacet
facet normal -0.7071067811865465 0.7071067811865485 0.0
  outer loop
    vertex 31.9455596060955 51.91810541417522 0.0
    vertex 32.70042306343549 52.90186262481132 3.9999999999999996
    vertex 32.70042306343549 52.90186262481132 0.0
  endloop
endfacet
facet normal -0.9659258262890683 0.25881904510252074 0.0
  outer loop
    vertex 33.17495007033248 54.047472160574344 3.9999999999999996
    vertex 32.70042306343549 52.90186262481132 0.0
    vertex 32.70042306343549 52.90186262481132 3.9999999999999996
  endloop
endfacet
facet normal -0.8660254037844375 0.500000000000002 0.0
  outer loop
    vertex 32.70042306343549 52.90186262481132 0.0
    vertex 33.17495007033248 54.047472160574344 3.9999999999999996
    vertex 33.17495007033248 54.047472160574344 0.0
  endloop
endfacet
facet normal -1.0 -6.059554729039895e-16 0.0
  outer loop
    vertex 33.3368023954594 55.27686262481132 3.9999999999999996
    vertex 33.17495007033248 54.047472160574344 0.0
    vertex 33.17495007033248 54.047472160574344 3.9999999999999996
  endloop
endfacet
facet normal -0.9659258262890683 0.25881904510252074 0.0
  outer loop
    vertex 33.17495007033248 54.047472160574344 0.0
    vertex 33.3368023954594 55.27686262481132 3.9999999999999996
    vertex 33.3368023954594 55.27686262481132 0.0
  endloop
endfacet
facet normal -0.9659258262890685 -0.2588190451025196 0.0
  outer loop
    vertex 33.17495007033248 56.50625308904829 3.9999999999999996
    vertex 33.3368023954594 55.27686262481132 0.0
    vertex 33.3368023954594 55.27686262481132 3.9999999999999996
  endloop
endfacet
facet normal -1.0 -6.059554729039895e-16 0.0
  outer loop
    vertex 33.3368023954594 55.27686262481132 0.0
    vertex 33.17495007033248 56.50625308904829 3.9999999999999996
    vertex 33.17495007033248 56.50625308904829 0.0
  endloop
endfacet
facet normal -0.8660254037844384 -0.5000000000000002 0.0
  outer loop
    vertex 32.70042306343549 57.65186262481132 3.9999999999999996
    vertex 33.17495007033248 56.50625308904829 0.0
    vertex 33.17495007033248 56.50625308904829 3.9999999999999996
  endloop
endfacet
facet normal -0.9659258262890685 -0.2588190451025196 0.0
  outer loop
    vertex 33.17495007033248 56.50625308904829 0.0
    vertex 32.70042306343549 57.65186262481132 3.9999999999999996
    vertex 32.70042306343549 57.65186262481132 0.0
  endloop
endfacet
facet normal -0.7071067811865465 -0.7071067811865485 0.0
  outer loop
    vertex 31.9455596060955 58.63561983544742 3.9999999999999996
    vertex 32.70042306343549 57.65186262481132 0.0
    vertex 32.70042306343549 57.65186262481132 3.9999999999999996
  endloop
endfacet
facet normal -0.8660254037844384 -0.5000000000000002 0.0
  outer loop
    vertex 32.70042306343549 57.65186262481132 0.0
    vertex 31.9455596060955 58.63561983544742 3.9999999999999996
    vertex 31.9455596060955 58.63561983544742 0.0
  endloop
endfacet
facet normal -0.2588190451025194 0.9659258262890686 0.0
  outer loop
    vertex 26.51625003463924 63.004269235123864 1.5
    vertex 28.586802395459397 63.276862624811315 0.0
    vertex 26.51625003463924 63.004269235123864 0.0
  endloop
endfacet
facet normal -3.6535550572152315e-16 1.0 0.0
  outer loop
    vertex 28.586802395459397 63.276862624811315 0.0
    vertex 26.51625003463924 63.004269235123864 1.5
    vertex 28.586802395459397 63.276862624811315 1.5
  endloop
endfacet
facet normal -3.6535550572152315e-16 1.0 0.0
  outer loop
    vertex 28.586802395459397 63.276862624811315 1.5
    vertex 30.65735475627957 63.004269235123864 0.0
    vertex 28.586802395459397 63.276862624811315 0.0
  endloop
endfacet
facet normal 0.25881904510252146 0.9659258262890681 0.0
  outer loop
    vertex 30.65735475627957 63.004269235123864 0.0
    vertex 28.586802395459397 63.276862624811315 1.5
    vertex 30.65735475627957 63.004269235123864 1.5
  endloop
endfacet
facet normal 0.25881904510252146 0.9659258262890681 0.0
  outer loop
    vertex 30.65735475627957 63.004269235123864 1.5
    vertex 32.5868023954594 62.20506585508682 0.0
    vertex 30.65735475627957 63.004269235123864 0.0
  endloop
endfacet
facet normal 0.5000000000000011 0.866025403784438 0.0
  outer loop
    vertex 32.5868023954594 62.20506585508682 0.0
    vertex 30.65735475627957 63.004269235123864 1.5
    vertex 32.5868023954594 62.20506585508682 1.5
  endloop
endfacet
facet normal 0.5000000000000011 0.866025403784438 0.0
  outer loop
    vertex 32.5868023954594 62.20506585508682 1.5
    vertex 34.243656644951784 60.93371687430369 0.0
    vertex 32.5868023954594 62.20506585508682 0.0
  endloop
endfacet
facet normal 0.7071067811865482 0.7071067811865468 0.0
  outer loop
    vertex 34.243656644951784 60.93371687430369 0.0
    vertex 32.5868023954594 62.20506585508682 1.5
    vertex 34.243656644951784 60.93371687430369 1.5
  endloop
endfacet
facet normal 0.7071067811865482 0.7071067811865468 0.0
  outer loop
    vertex 34.243656644951784 60.93371687430369 0.0
    vertex 35.51500562573491 59.276862624811315 1.5
    vertex 35.51500562573491 59.276862624811315 0.0
  endloop
endfacet
facet normal 0.8660254037844393 0.49999999999999917 0.0
  outer loop
    vertex 35.51500562573491 59.276862624811315 1.5
    vertex 34.243656644951784 60.93371687430369 0.0
    vertex 34.243656644951784 60.93371687430369 1.5
  endloop
endfacet
facet normal 0.9914448613738114 0.13052619222004466 0.0
  outer loop
    vertex 23.968454893046793 54.27686262481132 0.0
    vertex 23.99865472058632 54.04747216057435 3.9999999999999996
    vertex 23.99865472058632 54.04747216057435 0.0
  endloop
endfacet
facet normal 0.9659258262890694 0.2588190451025165 0.0
  outer loop
    vertex 23.99865472058632 54.04747216057435 3.9999999999999996
    vertex 23.968454893046793 54.27686262481132 0.0
    vertex 23.968454893046793 54.27686262481132 3.9999999999999996
  endloop
endfacet
facet normal 0.9659258262890694 0.2588190451025165 0.0
  outer loop
    vertex 23.99865472058632 54.04747216057435 0.0
    vertex 24.47318172748331 52.90186262481132 3.9999999999999996
    vertex 24.47318172748331 52.90186262481132 0.0
  endloop
endfacet
facet normal 0.8660254037844384 0.5000000000000002 0.0
  outer loop
    vertex 24.47318172748331 52.90186262481132 3.9999999999999996
    vertex 23.99865472058632 54.04747216057435 0.0
    vertex 23.99865472058632 54.04747216057435 3.9999999999999996
  endloop
endfacet
facet normal 0.8660254037844384 0.5000000000000002 0.0
  outer loop
    vertex 24.47318172748331 52.90186262481132 0.0
    vertex 25.228045184823294 51.91810541417522 3.9999999999999996
    vertex 25.228045184823294 51.91810541417522 0.0
  endloop
endfacet
facet normal 0.7071067811865465 0.7071067811865485 0.0
  outer loop
    vertex 25.228045184823294 51.91810541417522 3.9999999999999996
    vertex 24.47318172748331 52.90186262481132 0.0
    vertex 24.47318172748331 52.90186262481132 3.9999999999999996
  endloop
endfacet
facet normal 0.7071067811865465 0.7071067811865485 0.0
  outer loop
    vertex 25.228045184823294 51.91810541417522 3.9999999999999996
    vertex 26.211802395459397 51.163241956835236 0.0
    vertex 25.228045184823294 51.91810541417522 0.0
  endloop
endfacet
facet normal 0.5000000000000026 0.8660254037844372 0.0
  outer loop
    vertex 26.211802395459397 51.163241956835236 0.0
    vertex 25.228045184823294 51.91810541417522 3.9999999999999996
    vertex 26.211802395459397 51.163241956835236 3.9999999999999996
  endloop
endfacet
facet normal 0.5000000000000026 0.8660254037844372 0.0
  outer loop
    vertex 26.211802395459397 51.163241956835236 3.9999999999999996
    vertex 27.35741193122242 50.688714949938245 0.0
    vertex 26.211802395459397 51.163241956835236 0.0
  endloop
endfacet
facet normal 0.25881904510252285 0.9659258262890679 0.0
  outer loop
    vertex 27.35741193122242 50.688714949938245 0.0
    vertex 26.211802395459397 51.163241956835236 3.9999999999999996
    vertex 27.35741193122242 50.688714949938245 3.9999999999999996
  endloop
endfacet
facet normal 0.25881904510252285 0.9659258262890679 0.0
  outer loop
    vertex 27.35741193122242 50.688714949938245 3.9999999999999996
    vertex 28.586802395459397 50.526862624811315 0.0
    vertex 27.35741193122242 50.688714949938245 0.0
  endloop
endfacet
facet normal -3.1188884634764164e-16 1.0 0.0
  outer loop
    vertex 28.586802395459397 50.526862624811315 0.0
    vertex 27.35741193122242 50.688714949938245 3.9999999999999996
    vertex 28.586802395459397 50.526862624811315 3.9999999999999996
  endloop
endfacet
facet normal 0.7071067811865476 0.7071067811865476 0.0
  outer loop
    vertex 32.652666387282046 59.34272661663397 1.5
    vertex 33.56644846721993 58.15186262481132 3.9999999999999996
    vertex 33.56644846721993 58.15186262481132 1.5
  endloop
endfacet
facet normal 0.8660254037844384 0.5000000000000006 0.0
  outer loop
    vertex 33.56644846721993 58.15186262481132 3.9999999999999996
    vertex 32.652666387282046 59.34272661663397 1.5
    vertex 32.652666387282046 59.34272661663397 3.9999999999999996
  endloop
endfacet
facet normal 0.8660254037844384 0.5000000000000006 0.0
  outer loop
    vertex 33.56644846721993 58.15186262481132 1.5
    vertex 34.140875896621544 56.76507213415081 3.9999999999999996
    vertex 34.140875896621544 56.76507213415081 1.5
  endloop
endfacet
facet normal 0.9659258262890688 0.2588190451025194 0.0
  outer loop
    vertex 34.140875896621544 56.76507213415081 3.9999999999999996
    vertex 33.56644846721993 58.15186262481132 1.5
    vertex 33.56644846721993 58.15186262481132 3.9999999999999996
  endloop
endfacet
facet normal 0.9659258262890688 0.2588190451025194 0.0
  outer loop
    vertex 34.140875896621544 56.76507213415081 1.5
    vertex 34.3368023954594 55.27686262481132 3.9999999999999996
    vertex 34.3368023954594 55.27686262481132 1.5
  endloop
endfacet
facet normal 1.0 0.0 0.0
  outer loop
    vertex 34.3368023954594 55.27686262481132 3.9999999999999996
    vertex 34.140875896621544 56.76507213415081 1.5
    vertex 34.140875896621544 56.76507213415081 3.9999999999999996
  endloop
endfacet
facet normal -2.584221869737603e-16 1.0 0.0
  outer loop
    vertex 28.586802395459397 61.02686262481132 3.9999999999999996
    vertex 30.075011904798895 60.83093612597346 1.5
    vertex 28.586802395459397 61.02686262481132 1.5
  endloop
endfacet
facet normal 0.2588190451025199 0.9659258262890684 0.0
  outer loop
    vertex 30.075011904798895 60.83093612597346 1.5
    vertex 28.586802395459397 61.02686262481132 3.9999999999999996
    vertex 30.075011904798895 60.83093612597346 3.9999999999999996
  endloop
endfacet
facet normal 0.2588190451025199 0.9659258262890684 0.0
  outer loop
    vertex 30.075011904798895 60.83093612597346 3.9999999999999996
    vertex 31.461802395459397 60.25650869657185 1.5
    vertex 30.075011904798895 60.83093612597346 1.5
  endloop
endfacet
facet normal 0.4999999999999997 0.8660254037844389 0.0
  outer loop
    vertex 31.461802395459397 60.25650869657185 1.5
    vertex 30.075011904798895 60.83093612597346 3.9999999999999996
    vertex 31.461802395459397 60.25650869657185 3.9999999999999996
  endloop
endfacet
facet normal -0.8660254037844379 0.5000000000000012 0.0
  outer loop
    vertex 23.607156323698877 58.15186262481132 3.9999999999999996
    vertex 23.032728894297257 56.76507213415083 1.5
    vertex 23.032728894297257 56.76507213415083 3.9999999999999996
  endloop
endfacet
facet normal -0.9659258262890681 0.25881904510252135 0.0
  outer loop
    vertex 23.032728894297257 56.76507213415083 1.5
    vertex 23.607156323698877 58.15186262481132 3.9999999999999996
    vertex 23.607156323698877 58.15186262481132 1.5
  endloop
endfacet
facet normal -0.7071067811865486 0.7071067811865465 0.0
  outer loop
    vertex 24.52093840363675 59.34272661663397 3.9999999999999996
    vertex 23.607156323698877 58.15186262481132 1.5
    vertex 23.607156323698877 58.15186262481132 3.9999999999999996
  endloop
endfacet
facet normal -0.8660254037844379 0.5000000000000012 0.0
  outer loop
    vertex 23.607156323698877 58.15186262481132 1.5
    vertex 24.52093840363675 59.34272661663397 3.9999999999999996
    vertex 24.52093840363675 59.34272661663397 1.5
  endloop
endfacet
facet normal -1.1001593942528537e-32 3.882915509127716e-33 1.0
  outer loop
    vertex 20.859395785146855 53.20631026399115 1.5
    vertex 20.859395785146855 57.347414985631495 1.5
    vertex 20.5868023954594 55.27686262481132 1.5
  endloop
endfacet
facet normal -1.1001593942528537e-32 3.882915509127716e-33 1.0
  outer loop
    vertex 20.859395785146855 57.347414985631495 1.5
    vertex 20.859395785146855 53.20631026399115 1.5
    vertex 21.65859916518389 51.276862624811315 1.5
  endloop
endfacet
facet normal -1.1001593942528537e-32 3.882915509127716e-33 1.0
  outer loop
    vertex 20.859395785146855 57.347414985631495 1.5
    vertex 21.65859916518389 51.276862624811315 1.5
    vertex 21.658599165183894 59.27686262481132 1.5
  endloop
endfacet
facet normal -1.1001593942528537e-32 3.882915509127716e-33 1.0
  outer loop
    vertex 21.658599165183894 59.27686262481132 1.5
    vertex 21.65859916518389 51.276862624811315 1.5
    vertex 22.218454893046793 54.27686262481132 1.5
  endloop
endfacet
facet normal -1.1001593942528537e-32 3.882915509127716e-33 1.0
  outer loop
    vertex 22.218454893046793 54.27686262481132 1.5
    vertex 21.65859916518389 51.276862624811315 1.5
    vertex 22.929948145967018 49.620008375318946 1.5
  endloop
endfacet
facet normal -1.1001593942528537e-32 3.882915509127716e-33 1.0
  outer loop
    vertex 22.218454893046793 54.27686262481132 1.5
    vertex 22.929948145967018 49.620008375318946 1.5
    vertex 22.968454893046793 54.27686262481132 1.5
  endloop
endfacet
facet normal -1.1001593942528537e-32 3.882915509127716e-33 1.0
  outer loop
    vertex 22.968454893046793 54.27686262481132 1.5
    vertex 22.929948145967018 49.620008375318946 1.5
    vertex 23.032728894297254 53.78865311547183 1.5
  endloop
endfacet
facet normal -1.1001593942528537e-32 3.882915509127716e-33 1.0
  outer loop
    vertex 23.032728894297254 53.78865311547183 1.5
    vertex 22.929948145967018 49.620008375318946 1.5
    vertex 24.5868023954594 48.348659394535815 1.5
  endloop
endfacet
facet normal -1.1001593942528537e-32 3.882915509127716e-33 1.0
  outer loop
    vertex 23.032728894297254 53.78865311547183 1.5
    vertex 24.5868023954594 48.348659394535815 1.5
    vertex 23.60715632369887 52.40186262481132 1.5
  endloop
endfacet
facet normal -1.1001593942528537e-32 3.882915509127716e-33 1.0
  outer loop
    vertex 23.60715632369887 52.40186262481132 1.5
    vertex 24.5868023954594 48.348659394535815 1.5
    vertex 24.520938403636748 51.21099863298868 1.5
  endloop
endfacet
facet normal -1.1001593942528537e-32 3.882915509127716e-33 1.0
  outer loop
    vertex 24.520938403636748 51.21099863298868 1.5
    vertex 24.5868023954594 48.348659394535815 1.5
    vertex 25.711802395459397 50.2972165530508 1.5
  endloop
endfacet
facet normal -1.1001593942528537e-32 3.882915509127716e-33 1.0
  outer loop
    vertex 25.711802395459397 50.2972165530508 1.5
    vertex 24.5868023954594 48.348659394535815 1.5
    vertex 26.51625003463923 47.54945601449878 1.5
  endloop
endfacet
facet normal -1.1001593942528537e-32 3.882915509127716e-33 1.0
  outer loop
    vertex 25.711802395459397 50.2972165530508 1.5
    vertex 26.51625003463923 47.54945601449878 1.5
    vertex 27.0985928861199 49.72278912364918 1.5
  endloop
endfacet
facet normal -1.1001593942528537e-32 3.882915509127716e-33 1.0
  outer loop
    vertex 27.0985928861199 49.72278912364918 1.5
    vertex 26.51625003463923 47.54945601449878 1.5
    vertex 28.586802395459397 47.27686262481132 1.5
  endloop
endfacet
facet normal -1.1001593942528537e-32 3.882915509127716e-33 1.0
  outer loop
    vertex 27.0985928861199 49.72278912364918 1.5
    vertex 28.586802395459397 47.27686262481132 1.5
    vertex 28.586802395459397 49.52686262481132 1.5
  endloop
endfacet
facet normal -1.1001593942528537e-32 3.882915509127716e-33 1.0
  outer loop
    vertex 28.586802395459397 49.52686262481132 1.5
    vertex 28.586802395459397 47.27686262481132 1.5
    vertex 30.657354756279563 47.54945601449878 1.5
  endloop
endfacet
facet normal -1.1001593942528537e-32 3.882915509127716e-33 1.0
  outer loop
    vertex 28.586802395459397 49.52686262481132 1.5
    vertex 30.657354756279563 47.54945601449878 1.5
    vertex 30.075011904798888 49.72278912364918 1.5
  endloop
endfacet
facet normal -1.1001593942528537e-32 3.882915509127716e-33 1.0
  outer loop
    vertex 30.075011904798888 49.72278912364918 1.5
    vertex 30.657354756279563 47.54945601449878 1.5
    vertex 31.461802395459397 50.2972165530508 1.5
  endloop
endfacet
facet normal -1.1001593942528537e-32 3.882915509127716e-33 1.0
  outer loop
    vertex 31.461802395459397 50.2972165530508 1.5
    vertex 30.657354756279563 47.54945601449878 1.5
    vertex 32.586802395459394 48.34865939453581 1.5
  endloop
endfacet
facet normal -1.1001593942528537e-32 3.882915509127716e-33 1.0
  outer loop
    vertex 31.461802395459397 50.2972165530508 1.5
    vertex 32.586802395459394 48.34865939453581 1.5
    vertex 32.652666387282046 51.21099863298868 1.5
  endloop
endfacet
facet normal -1.1001593942528537e-32 3.882915509127716e-33 1.0
  outer loop
    vertex 32.652666387282046 51.21099863298868 1.5
    vertex 32.586802395459394 48.34865939453581 1.5
    vertex 34.24365664495178 49.62000837531894 1.5
  endloop
endfacet
facet normal -1.1001593942528537e-32 3.882915509127716e-33 1.0
  outer loop
    vertex 32.652666387282046 51.21099863298868 1.5
    vertex 34.24365664495178 49.62000837531894 1.5
    vertex 33.56644846721992 52.40186262481132 1.5
  endloop
endfacet
facet normal -1.1001593942528537e-32 3.882915509127716e-33 1.0
  outer loop
    vertex 33.56644846721992 52.40186262481132 1.5
    vertex 34.24365664495178 49.62000837531894 1.5
    vertex 34.140875896621544 53.78865311547183 1.5
  endloop
endfacet
facet normal -1.1001593942528537e-32 3.882915509127716e-33 1.0
  outer loop
    vertex 34.140875896621544 53.78865311547183 1.5
    vertex 34.24365664495178 49.62000837531894 1.5
    vertex 34.3368023954594 55.27686262481132 1.5
  endloop
endfacet
facet normal -1.1001593942528537e-32 3.882915509127716e-33 1.0
  outer loop
    vertex 34.3368023954594 55.27686262481132 1.5
    vertex 34.24365664495178 49.62000837531894 1.5
    vertex 35.51500562573491 51.276862624811315 1.5
  endloop
endfacet
facet normal -1.1001593942528537e-32 3.882915509127716e-33 1.0
  outer loop
    vertex 21.658599165183894 59.27686262481132 1.5
    vertex 22.218454893046797 56.27686262481132 1.5
    vertex 22.92994814596702 60.933716874303705 1.5
  endloop
endfacet
facet normal -1.1001593942528537e-32 3.882915509127716e-33 1.0
  outer loop
    vertex 22.218454893046797 56.27686262481132 1.5
    vertex 21.658599165183894 59.27686262481132 1.5
    vertex 22.218454893046793 54.27686262481132 1.5
  endloop
endfacet
facet normal -1.1001593942528537e-32 3.882915509127716e-33 1.0
  outer loop
    vertex 22.92994814596702 60.933716874303705 1.5
    vertex 22.218454893046797 56.27686262481132 1.5
    vertex 22.968454893046793 56.27686262481132 1.5
  endloop
endfacet
facet normal -1.1001593942528537e-32 3.882915509127716e-33 1.0
  outer loop
    vertex 22.92994814596702 60.933716874303705 1.5
    vertex 22.968454893046793 56.27686262481132 1.5
    vertex 23.032728894297257 56.76507213415083 1.5
  endloop
endfacet
facet normal -1.1001593942528537e-32 3.882915509127716e-33 1.0
  outer loop
    vertex 22.92994814596702 60.933716874303705 1.5
    vertex 23.032728894297257 56.76507213415083 1.5
    vertex 24.586802395459404 62.205065855086836 1.5
  endloop
endfacet
facet normal -1.1001593942528537e-32 3.882915509127716e-33 1.0
  outer loop
    vertex 24.586802395459404 62.205065855086836 1.5
    vertex 23.032728894297257 56.76507213415083 1.5
    vertex 23.607156323698877 58.15186262481132 1.5
  endloop
endfacet
facet normal -1.1001593942528537e-32 3.882915509127716e-33 1.0
  outer loop
    vertex 24.586802395459404 62.205065855086836 1.5
    vertex 23.607156323698877 58.15186262481132 1.5
    vertex 24.52093840363675 59.34272661663397 1.5
  endloop
endfacet
facet normal -1.1001593942528537e-32 3.882915509127716e-33 1.0
  outer loop
    vertex 24.586802395459404 62.205065855086836 1.5
    vertex 24.52093840363675 59.34272661663397 1.5
    vertex 25.711802395459397 60.25650869657185 1.5
  endloop
endfacet
facet normal -1.1001593942528537e-32 3.882915509127716e-33 1.0
  outer loop
    vertex 24.586802395459404 62.205065855086836 1.5
    vertex 25.711802395459397 60.25650869657185 1.5
    vertex 26.51625003463924 63.004269235123864 1.5
  endloop
endfacet
facet normal -1.1001593942528537e-32 3.882915509127716e-33 1.0
  outer loop
    vertex 26.51625003463924 63.004269235123864 1.5
    vertex 25.711802395459397 60.25650869657185 1.5
    vertex 27.098592886119906 60.83093612597346 1.5
  endloop
endfacet
facet normal -1.1001593942528537e-32 3.882915509127716e-33 1.0
  outer loop
    vertex 26.51625003463924 63.004269235123864 1.5
    vertex 27.098592886119906 60.83093612597346 1.5
    vertex 28.586802395459397 63.276862624811315 1.5
  endloop
endfacet
facet normal -1.1001593942528537e-32 3.882915509127716e-33 1.0
  outer loop
    vertex 28.586802395459397 63.276862624811315 1.5
    vertex 27.098592886119906 60.83093612597346 1.5
    vertex 28.586802395459397 61.02686262481132 1.5
  endloop
endfacet
facet normal -1.1001593942528537e-32 3.882915509127716e-33 1.0
  outer loop
    vertex 28.586802395459397 63.276862624811315 1.5
    vertex 28.586802395459397 61.02686262481132 1.5
    vertex 30.075011904798895 60.83093612597346 1.5
  endloop
endfacet
facet normal -1.1001593942528537e-32 3.882915509127716e-33 1.0
  outer loop
    vertex 28.586802395459397 63.276862624811315 1.5
    vertex 30.075011904798895 60.83093612597346 1.5
    vertex 30.65735475627957 63.004269235123864 1.5
  endloop
endfacet
facet normal -1.1001593942528537e-32 3.882915509127716e-33 1.0
  outer loop
    vertex 30.65735475627957 63.004269235123864 1.5
    vertex 30.075011904798895 60.83093612597346 1.5
    vertex 31.461802395459397 60.25650869657185 1.5
  endloop
endfacet
facet normal -1.1001593942528537e-32 3.882915509127716e-33 1.0
  outer loop
    vertex 30.65735475627957 63.004269235123864 1.5
    vertex 31.461802395459397 60.25650869657185 1.5
    vertex 32.5868023954594 62.20506585508682 1.5
  endloop
endfacet
facet normal -1.1001593942528537e-32 3.882915509127716e-33 1.0
  outer loop
    vertex 32.5868023954594 62.20506585508682 1.5
    vertex 31.461802395459397 60.25650869657185 1.5
    vertex 32.652666387282046 59.34272661663397 1.5
  endloop
endfacet
facet normal -1.1001593942528537e-32 3.882915509127716e-33 1.0
  outer loop
    vertex 32.5868023954594 62.20506585508682 1.5
    vertex 32.652666387282046 59.34272661663397 1.5
    vertex 34.243656644951784 60.93371687430369 1.5
  endloop
endfacet
facet normal -1.1001593942528537e-32 3.882915509127716e-33 1.0
  outer loop
    vertex 34.243656644951784 60.93371687430369 1.5
    vertex 32.652666387282046 59.34272661663397 1.5
    vertex 33.56644846721993 58.15186262481132 1.5
  endloop
endfacet
facet normal -1.1001593942528537e-32 3.882915509127716e-33 1.0
  outer loop
    vertex 34.243656644951784 60.93371687430369 1.5
    vertex 33.56644846721993 58.15186262481132 1.5
    vertex 34.140875896621544 56.76507213415081 1.5
  endloop
endfacet
facet normal -1.1001593942528537e-32 3.882915509127716e-33 1.0
  outer loop
    vertex 34.243656644951784 60.93371687430369 1.5
    vertex 34.140875896621544 56.76507213415081 1.5
    vertex 34.3368023954594 55.27686262481132 1.5
  endloop
endfacet
facet normal -1.1001593942528537e-32 3.882915509127716e-33 1.0
  outer loop
    vertex 34.243656644951784 60.93371687430369 1.5
    vertex 34.3368023954594 55.27686262481132 1.5
    vertex 35.51500562573491 59.276862624811315 1.5
  endloop
endfacet
facet normal -1.1001593942528537e-32 3.882915509127716e-33 1.0
  outer loop
    vertex 35.51500562573491 59.276862624811315 1.5
    vertex 34.3368023954594 55.27686262481132 1.5
    vertex 35.51500562573491 51.276862624811315 1.5
  endloop
endfacet
facet normal -1.1001593942528537e-32 3.882915509127716e-33 1.0
  outer loop
    vertex 35.51500562573491 59.276862624811315 1.5
    vertex 35.51500562573491 51.276862624811315 1.5
    vertex 36.31420900577194 53.20631026399115 1.5
  endloop
endfacet
facet normal -1.1001593942528537e-32 3.882915509127716e-33 1.0
  outer loop
    vertex 35.51500562573491 59.276862624811315 1.5
    vertex 36.31420900577194 53.20631026399115 1.5
    vertex 36.31420900577194 57.34741498563148 1.5
  endloop
endfacet
facet normal -1.1001593942528537e-32 3.882915509127716e-33 1.0
  outer loop
    vertex 36.31420900577194 57.34741498563148 1.5
    vertex 36.31420900577194 53.20631026399115 1.5
    vertex 36.586802395459394 55.27686262481132 1.5
  endloop
endfacet
facet normal -0.499999999999999 0.8660254037844392 0.0
  outer loop
    vertex 25.711802395459397 60.25650869657185 3.9999999999999996
    vertex 27.098592886119906 60.83093612597346 1.5
    vertex 25.711802395459397 60.25650869657185 1.5
  endloop
endfacet
facet normal -0.25881904510251946 0.9659258262890685 0.0
  outer loop
    vertex 27.098592886119906 60.83093612597346 1.5
    vertex 25.711802395459397 60.25650869657185 3.9999999999999996
    vertex 27.098592886119906 60.83093612597346 3.9999999999999996
  endloop
endfacet
facet normal -0.25881904510251946 0.9659258262890685 0.0
  outer loop
    vertex 27.098592886119906 60.83093612597346 3.9999999999999996
    vertex 28.586802395459397 61.02686262481132 1.5
    vertex 27.098592886119906 60.83093612597346 1.5
  endloop
endfacet
facet normal -2.584221869737603e-16 1.0 0.0
  outer loop
    vertex 28.586802395459397 61.02686262481132 1.5
    vertex 27.098592886119906 60.83093612597346 3.9999999999999996
    vertex 28.586802395459397 61.02686262481132 3.9999999999999996
  endloop
endfacet
facet normal -0.965925826289069 -0.2588190451025178 0.0
  outer loop
    vertex 23.032728894297254 53.78865311547183 3.9999999999999996
    vertex 23.60715632369887 52.40186262481132 1.5
    vertex 23.60715632369887 52.40186262481132 3.9999999999999996
  endloop
endfacet
facet normal -0.8660254037844387 -0.4999999999999999 0.0
  outer loop
    vertex 23.60715632369887 52.40186262481132 1.5
    vertex 23.032728894297254 53.78865311547183 3.9999999999999996
    vertex 23.032728894297254 53.78865311547183 1.5
  endloop
endfacet
facet normal -0.2588190451025215 -0.9659258262890681 0.0
  outer loop
    vertex 27.0985928861199 49.72278912364918 3.9999999999999996
    vertex 25.711802395459397 50.2972165530508 1.5
    vertex 27.0985928861199 49.72278912364918 1.5
  endloop
endfacet
facet normal -0.5000000000000009 -0.866025403784438 0.0
  outer loop
    vertex 25.711802395459397 50.2972165530508 1.5
    vertex 27.0985928861199 49.72278912364918 3.9999999999999996
    vertex 25.711802395459397 50.2972165530508 3.9999999999999996
  endloop
endfacet
facet normal -0.5000000000000009 -0.866025403784438 0.0
  outer loop
    vertex 25.711802395459397 50.2972165530508 3.9999999999999996
    vertex 24.520938403636748 51.21099863298868 1.5
    vertex 25.711802395459397 50.2972165530508 1.5
  endloop
endfacet
facet normal -0.7071067811865466 -0.7071067811865485 0.0
  outer loop
    vertex 24.520938403636748 51.21099863298868 1.5
    vertex 25.711802395459397 50.2972165530508 3.9999999999999996
    vertex 24.520938403636748 51.21099863298868 3.9999999999999996
  endloop
endfacet
facet normal 1.0 0.0 0.0
  outer loop
    vertex 34.3368023954594 55.27686262481132 1.5
    vertex 34.140875896621544 53.78865311547183 3.9999999999999996
    vertex 34.140875896621544 53.78865311547183 1.5
  endloop
endfacet
facet normal 0.9659258262890681 -0.2588190451025211 0.0
  outer loop
    vertex 34.140875896621544 53.78865311547183 3.9999999999999996
    vertex 34.3368023954594 55.27686262481132 1.5
    vertex 34.3368023954594 55.27686262481132 3.9999999999999996
  endloop
endfacet
facet normal 0.9659258262890681 -0.2588190451025211 0.0
  outer loop
    vertex 34.140875896621544 53.78865311547183 1.5
    vertex 33.56644846721992 52.40186262481132 3.9999999999999996
    vertex 33.56644846721992 52.40186262481132 1.5
  endloop
endfacet
facet normal 0.8660254037844383 -0.5000000000000007 0.0
  outer loop
    vertex 33.56644846721992 52.40186262481132 3.9999999999999996
    vertex 34.140875896621544 53.78865311547183 1.5
    vertex 34.140875896621544 53.78865311547183 3.9999999999999996
  endloop
endfacet
facet normal 0.8660254037844383 -0.5000000000000007 0.0
  outer loop
    vertex 33.56644846721992 52.40186262481132 1.5
    vertex 32.652666387282046 51.21099863298868 3.9999999999999996
    vertex 32.652666387282046 51.21099863298868 1.5
  endloop
endfacet
facet normal 0.7071067811865476 -0.7071067811865476 0.0
  outer loop
    vertex 32.652666387282046 51.21099863298868 3.9999999999999996
    vertex 33.56644846721992 52.40186262481132 1.5
    vertex 33.56644846721992 52.40186262481132 3.9999999999999996
  endloop
endfacet
facet normal 0.7071067811865476 -0.7071067811865476 0.0
  outer loop
    vertex 32.652666387282046 51.21099863298868 3.9999999999999996
    vertex 31.461802395459397 50.2972165530508 1.5
    vertex 32.652666387282046 51.21099863298868 1.5
  endloop
endfacet
facet normal 0.5000000000000007 -0.8660254037844383 0.0
  outer loop
    vertex 31.461802395459397 50.2972165530508 1.5
    vertex 32.652666387282046 51.21099863298868 3.9999999999999996
    vertex 31.461802395459397 50.2972165530508 3.9999999999999996
  endloop
endfacet
facet normal -0.0 -0.0 1.0
  outer loop
    vertex 23.032728894297254 53.78865311547183 3.9999999999999996
    vertex 23.968454893046793 54.27686262481132 3.9999999999999996
    vertex 22.968454893046793 54.27686262481132 3.9999999999999996
  endloop
endfacet
facet normal -0.0 -0.0 1.0
  outer loop
    vertex 23.968454893046793 54.27686262481132 3.9999999999999996
    vertex 23.032728894297254 53.78865311547183 3.9999999999999996
    vertex 23.60715632369887 52.40186262481132 3.9999999999999996
  endloop
endfacet
facet normal -0.0 -0.0 1.0
  outer loop
    vertex 23.968454893046793 54.27686262481132 3.9999999999999996
    vertex 23.60715632369887 52.40186262481132 3.9999999999999996
    vertex 23.99865472058632 54.04747216057435 3.9999999999999996
  endloop
endfacet
facet normal -0.0 -0.0 1.0
  outer loop
    vertex 23.99865472058632 54.04747216057435 3.9999999999999996
    vertex 23.60715632369887 52.40186262481132 3.9999999999999996
    vertex 24.520938403636748 51.21099863298868 3.9999999999999996
  endloop
endfacet
facet normal -0.0 -0.0 1.0
  outer loop
    vertex 23.99865472058632 54.04747216057435 3.9999999999999996
    vertex 24.520938403636748 51.21099863298868 3.9999999999999996
    vertex 24.47318172748331 52.90186262481132 3.9999999999999996
  endloop
endfacet
facet normal -0.0 -0.0 1.0
  outer loop
    vertex 24.47318172748331 52.90186262481132 3.9999999999999996
    vertex 24.520938403636748 51.21099863298868 3.9999999999999996
    vertex 25.228045184823294 51.91810541417522 3.9999999999999996
  endloop
endfacet
facet normal -0.0 -0.0 1.0
  outer loop
    vertex 25.228045184823294 51.91810541417522 3.9999999999999996
    vertex 24.520938403636748 51.21099863298868 3.9999999999999996
    vertex 25.711802395459397 50.2972165530508 3.9999999999999996
  endloop
endfacet
facet normal -0.0 -0.0 1.0
  outer loop
    vertex 25.228045184823294 51.91810541417522 3.9999999999999996
    vertex 25.711802395459397 50.2972165530508 3.9999999999999996
    vertex 26.211802395459397 51.163241956835236 3.9999999999999996
  endloop
endfacet
facet normal -0.0 -0.0 1.0
  outer loop
    vertex 26.211802395459397 51.163241956835236 3.9999999999999996
    vertex 25.711802395459397 50.2972165530508 3.9999999999999996
    vertex 27.0985928861199 49.72278912364918 3.9999999999999996
  endloop
endfacet
facet normal -0.0 -0.0 1.0
  outer loop
    vertex 26.211802395459397 51.163241956835236 3.9999999999999996
    vertex 27.0985928861199 49.72278912364918 3.9999999999999996
    vertex 27.35741193122242 50.688714949938245 3.9999999999999996
  endloop
endfacet
facet normal -0.0 -0.0 1.0
  outer loop
    vertex 27.35741193122242 50.688714949938245 3.9999999999999996
    vertex 27.0985928861199 49.72278912364918 3.9999999999999996
    vertex 28.586802395459397 49.52686262481132 3.9999999999999996
  endloop
endfacet
facet normal -0.0 -0.0 1.0
  outer loop
    vertex 27.35741193122242 50.688714949938245 3.9999999999999996
    vertex 28.586802395459397 49.52686262481132 3.9999999999999996
    vertex 28.586802395459397 50.526862624811315 3.9999999999999996
  endloop
endfacet
facet normal -0.0 -0.0 1.0
  outer loop
    vertex 28.586802395459397 50.526862624811315 3.9999999999999996
    vertex 28.586802395459397 49.52686262481132 3.9999999999999996
    vertex 30.075011904798888 49.72278912364918 3.9999999999999996
  endloop
endfacet
facet normal -0.0 -0.0 1.0
  outer loop
    vertex 28.586802395459397 50.526862624811315 3.9999999999999996
    vertex 30.075011904798888 49.72278912364918 3.9999999999999996
    vertex 29.816192859696372 50.688714949938245 3.9999999999999996
  endloop
endfacet
facet normal -0.0 -0.0 1.0
  outer loop
    vertex 29.816192859696372 50.688714949938245 3.9999999999999996
    vertex 30.075011904798888 49.72278912364918 3.9999999999999996
    vertex 30.9618023954594 51.163241956835236 3.9999999999999996
  endloop
endfacet
facet normal -0.0 -0.0 1.0
  outer loop
    vertex 30.9618023954594 51.163241956835236 3.9999999999999996
    vertex 30.075011904798888 49.72278912364918 3.9999999999999996
    vertex 31.461802395459397 50.2972165530508 3.9999999999999996
  endloop
endfacet
facet normal -0.0 -0.0 1.0
  outer loop
    vertex 30.9618023954594 51.163241956835236 3.9999999999999996
    vertex 31.461802395459397 50.2972165530508 3.9999999999999996
    vertex 31.9455596060955 51.91810541417522 3.9999999999999996
  endloop
endfacet
facet normal -0.0 -0.0 1.0
  outer loop
    vertex 31.9455596060955 51.91810541417522 3.9999999999999996
    vertex 31.461802395459397 50.2972165530508 3.9999999999999996
    vertex 32.652666387282046 51.21099863298868 3.9999999999999996
  endloop
endfacet
facet normal -0.0 -0.0 1.0
  outer loop
    vertex 31.9455596060955 51.91810541417522 3.9999999999999996
    vertex 32.652666387282046 51.21099863298868 3.9999999999999996
    vertex 32.70042306343549 52.90186262481132 3.9999999999999996
  endloop
endfacet
facet normal -0.0 -0.0 1.0
  outer loop
    vertex 32.70042306343549 52.90186262481132 3.9999999999999996
    vertex 32.652666387282046 51.21099863298868 3.9999999999999996
    vertex 33.56644846721992 52.40186262481132 3.9999999999999996
  endloop
endfacet
facet normal -0.0 -0.0 1.0
  outer loop
    vertex 32.70042306343549 52.90186262481132 3.9999999999999996
    vertex 33.56644846721992 52.40186262481132 3.9999999999999996
    vertex 33.17495007033248 54.047472160574344 3.9999999999999996
  endloop
endfacet
facet normal -0.0 -0.0 1.0
  outer loop
    vertex 33.17495007033248 54.047472160574344 3.9999999999999996
    vertex 33.56644846721992 52.40186262481132 3.9999999999999996
    vertex 33.3368023954594 55.27686262481132 3.9999999999999996
  endloop
endfacet
facet normal -0.0 -0.0 1.0
  outer loop
    vertex 23.968454893046793 56.27686262481132 3.9999999999999996
    vertex 23.032728894297257 56.76507213415083 3.9999999999999996
    vertex 22.968454893046793 56.27686262481132 3.9999999999999996
  endloop
endfacet
facet normal -0.0 -0.0 1.0
  outer loop
    vertex 23.032728894297257 56.76507213415083 3.9999999999999996
    vertex 23.968454893046793 56.27686262481132 3.9999999999999996
    vertex 23.607156323698877 58.15186262481132 3.9999999999999996
  endloop
endfacet
facet normal -0.0 -0.0 1.0
  outer loop
    vertex 23.607156323698877 58.15186262481132 3.9999999999999996
    vertex 23.968454893046793 56.27686262481132 3.9999999999999996
    vertex 23.998654720586323 56.5062530890483 3.9999999999999996
  endloop
endfacet
facet normal -0.0 -0.0 1.0
  outer loop
    vertex 23.607156323698877 58.15186262481132 3.9999999999999996
    vertex 23.998654720586323 56.5062530890483 3.9999999999999996
    vertex 24.52093840363675 59.34272661663397 3.9999999999999996
  endloop
endfacet
facet normal -0.0 -0.0 1.0
  outer loop
    vertex 24.52093840363675 59.34272661663397 3.9999999999999996
    vertex 23.998654720586323 56.5062530890483 3.9999999999999996
    vertex 24.473181727483315 57.65186262481132 3.9999999999999996
  endloop
endfacet
facet normal -0.0 -0.0 1.0
  outer loop
    vertex 24.52093840363675 59.34272661663397 3.9999999999999996
    vertex 24.473181727483315 57.65186262481132 3.9999999999999996
    vertex 25.228045184823298 58.63561983544743 3.9999999999999996
  endloop
endfacet
facet normal -0.0 -0.0 1.0
  outer loop
    vertex 24.52093840363675 59.34272661663397 3.9999999999999996
    vertex 25.228045184823298 58.63561983544743 3.9999999999999996
    vertex 25.711802395459397 60.25650869657185 3.9999999999999996
  endloop
endfacet
facet normal -0.0 -0.0 1.0
  outer loop
    vertex 25.711802395459397 60.25650869657185 3.9999999999999996
    vertex 25.228045184823298 58.63561983544743 3.9999999999999996
    vertex 26.211802395459397 59.3904832927874 3.9999999999999996
  endloop
endfacet
facet normal -0.0 -0.0 1.0
  outer loop
    vertex 25.711802395459397 60.25650869657185 3.9999999999999996
    vertex 26.211802395459397 59.3904832927874 3.9999999999999996
    vertex 27.098592886119906 60.83093612597346 3.9999999999999996
  endloop
endfacet
facet normal -0.0 -0.0 1.0
  outer loop
    vertex 27.098592886119906 60.83093612597346 3.9999999999999996
    vertex 26.211802395459397 59.3904832927874 3.9999999999999996
    vertex 27.357411931222423 59.8650102996844 3.9999999999999996
  endloop
endfacet
facet normal -0.0 -0.0 1.0
  outer loop
    vertex 27.098592886119906 60.83093612597346 3.9999999999999996
    vertex 27.357411931222423 59.8650102996844 3.9999999999999996
    vertex 28.586802395459397 61.02686262481132 3.9999999999999996
  endloop
endfacet
facet normal -0.0 -0.0 1.0
  outer loop
    vertex 28.586802395459397 61.02686262481132 3.9999999999999996
    vertex 27.357411931222423 59.8650102996844 3.9999999999999996
    vertex 28.586802395459397 60.02686262481132 3.9999999999999996
  endloop
endfacet
facet normal -0.0 -0.0 1.0
  outer loop
    vertex 28.586802395459397 61.02686262481132 3.9999999999999996
    vertex 28.586802395459397 60.02686262481132 3.9999999999999996
    vertex 29.816192859696372 59.8650102996844 3.9999999999999996
  endloop
endfacet
facet normal -0.0 -0.0 1.0
  outer loop
    vertex 28.586802395459397 61.02686262481132 3.9999999999999996
    vertex 29.816192859696372 59.8650102996844 3.9999999999999996
    vertex 30.075011904798895 60.83093612597346 3.9999999999999996
  endloop
endfacet
facet normal -0.0 -0.0 1.0
  outer loop
    vertex 30.075011904798895 60.83093612597346 3.9999999999999996
    vertex 29.816192859696372 59.8650102996844 3.9999999999999996
    vertex 30.9618023954594 59.3904832927874 3.9999999999999996
  endloop
endfacet
facet normal -0.0 -0.0 1.0
  outer loop
    vertex 30.075011904798895 60.83093612597346 3.9999999999999996
    vertex 30.9618023954594 59.3904832927874 3.9999999999999996
    vertex 31.461802395459397 60.25650869657185 3.9999999999999996
  endloop
endfacet
facet normal -0.0 -0.0 1.0
  outer loop
    vertex 31.461802395459397 60.25650869657185 3.9999999999999996
    vertex 30.9618023954594 59.3904832927874 3.9999999999999996
    vertex 31.9455596060955 58.63561983544742 3.9999999999999996
  endloop
endfacet
facet normal -0.0 -0.0 1.0
  outer loop
    vertex 31.461802395459397 60.25650869657185 3.9999999999999996
    vertex 31.9455596060955 58.63561983544742 3.9999999999999996
    vertex 32.652666387282046 59.34272661663397 3.9999999999999996
  endloop
endfacet
facet normal -0.0 -0.0 1.0
  outer loop
    vertex 32.652666387282046 59.34272661663397 3.9999999999999996
    vertex 31.9455596060955 58.63561983544742 3.9999999999999996
    vertex 32.70042306343549 57.65186262481132 3.9999999999999996
  endloop
endfacet
facet normal -0.0 -0.0 1.0
  outer loop
    vertex 32.652666387282046 59.34272661663397 3.9999999999999996
    vertex 32.70042306343549 57.65186262481132 3.9999999999999996
    vertex 33.56644846721993 58.15186262481132 3.9999999999999996
  endloop
endfacet
facet normal -0.0 -0.0 1.0
  outer loop
    vertex 33.56644846721993 58.15186262481132 3.9999999999999996
    vertex 32.70042306343549 57.65186262481132 3.9999999999999996
    vertex 33.17495007033248 56.50625308904829 3.9999999999999996
  endloop
endfacet
facet normal -0.0 -0.0 1.0
  outer loop
    vertex 33.56644846721993 58.15186262481132 3.9999999999999996
    vertex 33.17495007033248 56.50625308904829 3.9999999999999996
    vertex 33.3368023954594 55.27686262481132 3.9999999999999996
  endloop
endfacet
facet normal -0.0 -0.0 1.0
  outer loop
    vertex 33.56644846721993 58.15186262481132 3.9999999999999996
    vertex 33.3368023954594 55.27686262481132 3.9999999999999996
    vertex 33.56644846721992 52.40186262481132 3.9999999999999996
  endloop
endfacet
facet normal -0.0 -0.0 1.0
  outer loop
    vertex 33.56644846721993 58.15186262481132 3.9999999999999996
    vertex 33.56644846721992 52.40186262481132 3.9999999999999996
    vertex 34.140875896621544 53.78865311547183 3.9999999999999996
  endloop
endfacet
facet normal -0.0 -0.0 1.0
  outer loop
    vertex 33.56644846721993 58.15186262481132 3.9999999999999996
    vertex 34.140875896621544 53.78865311547183 3.9999999999999996
    vertex 34.140875896621544 56.76507213415081 3.9999999999999996
  endloop
endfacet
facet normal -0.0 -0.0 1.0
  outer loop
    vertex 34.140875896621544 56.76507213415081 3.9999999999999996
    vertex 34.140875896621544 53.78865311547183 3.9999999999999996
    vertex 34.3368023954594 55.27686262481132 3.9999999999999996
  endloop
endfacet
endsolid Plotter-v3-z-PenMount
