solid Rod-Robin-All-Parts
facet normal 0.4999999999999989 0.8660254037844394 0.0
  outer loop
    vertex 343.67134137500653 3.663894432550096 17.000000000002142
    vertex 347.8282633131718 1.2638944325501005 13.000000000002151
    vertex 343.67134137500653 3.663894432550096 13.000000000002151
  endloop
endfacet
facet normal 0.4999999999999989 0.8660254037844394 0.0
  outer loop
    vertex 347.8282633131718 1.2638944325501005 13.000000000002151
    vertex 343.67134137500653 3.663894432550096 17.000000000002142
    vertex 347.8282633131718 1.2638944325501005 17.000000000002142
  endloop
endfacet
facet normal 0.0 0.0 -1.0
  outer loop
    vertex 346.27534904255674 11.859449390284512 2.1440557662621984e-12
    vertex 346.22826331317185 8.08536238599595 2.1440557662621984e-12
    vertex 344.8282633131718 11.260046855256737 2.1440557662621984e-12
  endloop
endfacet
facet normal 0.0 0.0 -1.0
  outer loop
    vertex 346.22826331317185 8.08536238599595 2.1440557662621984e-12
    vertex 346.27534904255674 11.859449390284512 2.1440557662621984e-12
    vertex 346.52826331317186 8.315560482389644 2.1440557662621984e-12
  endloop
endfacet
facet normal 0.0 0.0 -1.0
  outer loop
    vertex 346.52826331317186 8.315560482389644 2.1440557662621984e-12
    vertex 346.27534904255674 11.859449390284512 2.1440557662621984e-12
    vertex 347.8282633131718 12.063894432550104 2.1440557662621984e-12
  endloop
endfacet
facet normal 0.0 0.0 -1.0
  outer loop
    vertex 346.52826331317186 8.315560482389644 2.1440557662621984e-12
    vertex 347.8282633131718 12.063894432550104 2.1440557662621984e-12
    vertex 347.1553337959052 8.575301580901677 2.1440557662621984e-12
  endloop
endfacet
facet normal 0.0 0.0 -1.0
  outer loop
    vertex 347.1553337959052 8.575301580901677 2.1440557662621984e-12
    vertex 347.8282633131718 12.063894432550104 2.1440557662621984e-12
    vertex 347.8282633131718 8.663894432550098 2.1440557662621984e-12
  endloop
endfacet
facet normal 0.0 0.0 -1.0
  outer loop
    vertex 347.8282633131718 8.663894432550098 2.1440557662621984e-12
    vertex 347.8282633131718 12.063894432550104 2.1440557662621984e-12
    vertex 349.38117758378695 11.859449390284512 2.1440557662621984e-12
  endloop
endfacet
facet normal 0.0 0.0 -1.0
  outer loop
    vertex 347.8282633131718 8.663894432550098 2.1440557662621984e-12
    vertex 349.38117758378695 11.859449390284512 2.1440557662621984e-12
    vertex 348.50119283043836 8.575301580901677 2.1440557662621984e-12
  endloop
endfacet
facet normal 0.0 0.0 -1.0
  outer loop
    vertex 348.50119283043836 8.575301580901677 2.1440557662621984e-12
    vertex 349.38117758378695 11.859449390284512 2.1440557662621984e-12
    vertex 349.12826331317183 8.315560482389644 2.1440557662621984e-12
  endloop
endfacet
facet normal 0.0 0.0 -1.0
  outer loop
    vertex 349.12826331317183 8.315560482389644 2.1440557662621984e-12
    vertex 349.38117758378695 11.859449390284512 2.1440557662621984e-12
    vertex 349.42826331317184 8.08536238599595 2.1440557662621984e-12
  endloop
endfacet
facet normal 0.0 0.0 -1.0
  outer loop
    vertex 349.42826331317184 8.08536238599595 2.1440557662621984e-12
    vertex 349.38117758378695 11.859449390284512 2.1440557662621984e-12
    vertex 350.8282633131718 11.260046855256737 2.1440557662621984e-12
  endloop
endfacet
facet normal 0.0 0.0 -1.0
  outer loop
    vertex 349.42826331317184 8.08536238599595 2.1440557662621984e-12
    vertex 350.8282633131718 11.260046855256737 2.1440557662621984e-12
    vertex 349.42826331317184 4.042426479104256 2.1440557662621984e-12
  endloop
endfacet
facet normal 0.0 0.0 -1.0
  outer loop
    vertex 342.0327083554374 7.616808703165228 2.1440557662621984e-12
    vertex 342.0327083554374 4.510980161934977 2.1440557662621984e-12
    vertex 341.8282633131719 6.063894432550103 2.1440557662621984e-12
  endloop
endfacet
facet normal 0.0 0.0 -1.0
  outer loop
    vertex 342.0327083554374 4.510980161934977 2.1440557662621984e-12
    vertex 342.0327083554374 7.616808703165228 2.1440557662621984e-12
    vertex 342.6321108904652 9.063894432550109 2.1440557662621984e-12
  endloop
endfacet
facet normal 0.0 0.0 -1.0
  outer loop
    vertex 342.0327083554374 4.510980161934977 2.1440557662621984e-12
    vertex 342.6321108904652 9.063894432550109 2.1440557662621984e-12
    vertex 342.6321108904652 3.0638944325501085 2.1440557662621984e-12
  endloop
endfacet
facet normal 0.0 0.0 -1.0
  outer loop
    vertex 342.6321108904652 3.0638944325501085 2.1440557662621984e-12
    vertex 342.6321108904652 9.063894432550109 2.1440557662621984e-12
    vertex 343.58562262605255 10.306535119669388 2.1440557662621984e-12
  endloop
endfacet
facet normal 0.0 0.0 -1.0
  outer loop
    vertex 342.6321108904652 3.0638944325501085 2.1440557662621984e-12
    vertex 343.58562262605255 10.306535119669388 2.1440557662621984e-12
    vertex 343.58562262605255 1.8212537454308186 2.1440557662621984e-12
  endloop
endfacet
facet normal 0.0 0.0 -1.0
  outer loop
    vertex 343.58562262605255 1.8212537454308186 2.1440557662621984e-12
    vertex 343.58562262605255 10.306535119669388 2.1440557662621984e-12
    vertex 344.8282633131718 11.260046855256737 2.1440557662621984e-12
  endloop
endfacet
facet normal 0.0 0.0 -1.0
  outer loop
    vertex 343.58562262605255 1.8212537454308186 2.1440557662621984e-12
    vertex 344.8282633131718 11.260046855256737 2.1440557662621984e-12
    vertex 344.8282633131718 0.8677420098434679 2.1440557662621984e-12
  endloop
endfacet
facet normal 0.0 0.0 -1.0
  outer loop
    vertex 344.8282633131718 0.8677420098434679 2.1440557662621984e-12
    vertex 344.8282633131718 11.260046855256737 2.1440557662621984e-12
    vertex 346.27534904255674 0.26833947481569326 2.1440557662621984e-12
  endloop
endfacet
facet normal 0.0 0.0 -1.0
  outer loop
    vertex 346.27534904255674 0.26833947481569326 2.1440557662621984e-12
    vertex 344.8282633131718 11.260046855256737 2.1440557662621984e-12
    vertex 346.22826331317185 4.042426479104256 2.1440557662621984e-12
  endloop
endfacet
facet normal 0.0 0.0 -1.0
  outer loop
    vertex 346.22826331317185 4.042426479104256 2.1440557662621984e-12
    vertex 344.8282633131718 11.260046855256737 2.1440557662621984e-12
    vertex 346.22826331317185 8.08536238599595 2.1440557662621984e-12
  endloop
endfacet
facet normal 0.0 0.0 -1.0
  outer loop
    vertex 346.27534904255674 0.26833947481569326 2.1440557662621984e-12
    vertex 346.22826331317185 4.042426479104256 2.1440557662621984e-12
    vertex 346.52826331317186 3.812228382710562 2.1440557662621984e-12
  endloop
endfacet
facet normal 0.0 0.0 -1.0
  outer loop
    vertex 346.27534904255674 0.26833947481569326 2.1440557662621984e-12
    vertex 346.52826331317186 3.812228382710562 2.1440557662621984e-12
    vertex 347.8282633131718 0.06389443255010273 2.1440557662621984e-12
  endloop
endfacet
facet normal 0.0 0.0 -1.0
  outer loop
    vertex 347.8282633131718 0.06389443255010273 2.1440557662621984e-12
    vertex 346.52826331317186 3.812228382710562 2.1440557662621984e-12
    vertex 347.1553337959052 3.5524872841985293 2.1440557662621984e-12
  endloop
endfacet
facet normal 0.0 0.0 -1.0
  outer loop
    vertex 347.8282633131718 0.06389443255010273 2.1440557662621984e-12
    vertex 347.1553337959052 3.5524872841985293 2.1440557662621984e-12
    vertex 347.8282633131718 3.463894432550108 2.1440557662621984e-12
  endloop
endfacet
facet normal 0.0 0.0 -1.0
  outer loop
    vertex 347.8282633131718 0.06389443255010273 2.1440557662621984e-12
    vertex 347.8282633131718 3.463894432550108 2.1440557662621984e-12
    vertex 348.50119283043836 3.5524872841985293 2.1440557662621984e-12
  endloop
endfacet
facet normal 0.0 0.0 -1.0
  outer loop
    vertex 347.8282633131718 0.06389443255010273 2.1440557662621984e-12
    vertex 348.50119283043836 3.5524872841985293 2.1440557662621984e-12
    vertex 349.38117758378695 0.26833947481569326 2.1440557662621984e-12
  endloop
endfacet
facet normal 0.0 0.0 -1.0
  outer loop
    vertex 349.38117758378695 0.26833947481569326 2.1440557662621984e-12
    vertex 348.50119283043836 3.5524872841985293 2.1440557662621984e-12
    vertex 349.12826331317183 3.812228382710562 2.1440557662621984e-12
  endloop
endfacet
facet normal 0.0 0.0 -1.0
  outer loop
    vertex 349.38117758378695 0.26833947481569326 2.1440557662621984e-12
    vertex 349.12826331317183 3.812228382710562 2.1440557662621984e-12
    vertex 349.42826331317184 4.042426479104256 2.1440557662621984e-12
  endloop
endfacet
facet normal 0.0 0.0 -1.0
  outer loop
    vertex 349.38117758378695 0.26833947481569326 2.1440557662621984e-12
    vertex 349.42826331317184 4.042426479104256 2.1440557662621984e-12
    vertex 350.8282633131718 0.8677420098434679 2.1440557662621984e-12
  endloop
endfacet
facet normal 0.0 0.0 -1.0
  outer loop
    vertex 350.8282633131718 0.8677420098434679 2.1440557662621984e-12
    vertex 349.42826331317184 4.042426479104256 2.1440557662621984e-12
    vertex 350.8282633131718 11.260046855256737 2.1440557662621984e-12
  endloop
endfacet
facet normal 0.0 0.0 -1.0
  outer loop
    vertex 350.8282633131718 0.8677420098434679 2.1440557662621984e-12
    vertex 350.8282633131718 11.260046855256737 2.1440557662621984e-12
    vertex 352.07090400029114 10.306535119669388 2.1440557662621984e-12
  endloop
endfacet
facet normal 0.0 0.0 -1.0
  outer loop
    vertex 350.8282633131718 0.8677420098434679 2.1440557662621984e-12
    vertex 352.07090400029114 10.306535119669388 2.1440557662621984e-12
    vertex 352.07090400029114 1.8212537454308186 2.1440557662621984e-12
  endloop
endfacet
facet normal 0.0 0.0 -1.0
  outer loop
    vertex 352.07090400029114 1.8212537454308186 2.1440557662621984e-12
    vertex 352.07090400029114 10.306535119669388 2.1440557662621984e-12
    vertex 353.02441573587845 9.063894432550098 2.1440557662621984e-12
  endloop
endfacet
facet normal 0.0 0.0 -1.0
  outer loop
    vertex 352.07090400029114 1.8212537454308186 2.1440557662621984e-12
    vertex 353.02441573587845 9.063894432550098 2.1440557662621984e-12
    vertex 353.02441573587845 3.0638944325500974 2.1440557662621984e-12
  endloop
endfacet
facet normal 0.0 0.0 -1.0
  outer loop
    vertex 353.02441573587845 3.0638944325500974 2.1440557662621984e-12
    vertex 353.02441573587845 9.063894432550098 2.1440557662621984e-12
    vertex 353.62381827090627 7.616808703165228 2.1440557662621984e-12
  endloop
endfacet
facet normal 0.0 0.0 -1.0
  outer loop
    vertex 353.02441573587845 3.0638944325500974 2.1440557662621984e-12
    vertex 353.62381827090627 7.616808703165228 2.1440557662621984e-12
    vertex 353.62381827090627 4.510980161934977 2.1440557662621984e-12
  endloop
endfacet
facet normal 0.0 0.0 -1.0
  outer loop
    vertex 353.62381827090627 4.510980161934977 2.1440557662621984e-12
    vertex 353.62381827090627 7.616808703165228 2.1440557662621984e-12
    vertex 353.8282633131718 6.063894432550103 2.1440557662621984e-12
  endloop
endfacet
facet normal -0.9659258262890682 -0.25881904510252063 0.0
  outer loop
    vertex 342.0327083554374 4.510980161934977 17.000000000002142
    vertex 342.6321108904652 3.0638944325501085 2.1440557662621984e-12
    vertex 342.6321108904652 3.0638944325501085 17.000000000002142
  endloop
endfacet
facet normal -0.8660254037844387 -0.5 0.0
  outer loop
    vertex 342.6321108904652 3.0638944325501085 2.1440557662621984e-12
    vertex 342.0327083554374 4.510980161934977 17.000000000002142
    vertex 342.0327083554374 4.510980161934977 2.1440557662621984e-12
  endloop
endfacet
facet normal -0.8660254037844387 -0.5 0.0
  outer loop
    vertex 342.6321108904652 3.0638944325501085 17.000000000002142
    vertex 343.58562262605255 1.8212537454308186 2.1440557662621984e-12
    vertex 343.58562262605255 1.8212537454308186 17.000000000002142
  endloop
endfacet
facet normal -0.7071067811865491 -0.7071067811865459 0.0
  outer loop
    vertex 343.58562262605255 1.8212537454308186 2.1440557662621984e-12
    vertex 342.6321108904652 3.0638944325501085 17.000000000002142
    vertex 342.6321108904652 3.0638944325501085 2.1440557662621984e-12
  endloop
endfacet
facet normal -0.9659258262890688 0.25881904510251935 0.0
  outer loop
    vertex 342.0327083554374 7.616808703165228 17.000000000002142
    vertex 341.8282633131719 6.063894432550103 2.1440557662621984e-12
    vertex 341.8282633131719 6.063894432550103 17.000000000002142
  endloop
endfacet
facet normal -1.0 0.0 0.0
  outer loop
    vertex 341.8282633131719 6.063894432550103 2.1440557662621984e-12
    vertex 342.0327083554374 7.616808703165228 17.000000000002142
    vertex 342.0327083554374 7.616808703165228 2.1440557662621984e-12
  endloop
endfacet
facet normal -0.5000000000000007 -0.8660254037844384 0.0
  outer loop
    vertex 344.8282633131718 0.8677420098434679 17.000000000002142
    vertex 343.58562262605255 1.8212537454308186 2.1440557662621984e-12
    vertex 344.8282633131718 0.8677420098434679 2.1440557662621984e-12
  endloop
endfacet
facet normal -0.7071067811865491 -0.7071067811865459 0.0
  outer loop
    vertex 343.58562262605255 1.8212537454308186 2.1440557662621984e-12
    vertex 344.8282633131718 0.8677420098434679 17.000000000002142
    vertex 343.58562262605255 1.8212537454308186 17.000000000002142
  endloop
endfacet
facet normal -1.0 0.0 0.0
  outer loop
    vertex 341.8282633131719 6.063894432550103 17.000000000002142
    vertex 342.0327083554374 4.510980161934977 2.1440557662621984e-12
    vertex 342.0327083554374 4.510980161934977 17.000000000002142
  endloop
endfacet
facet normal -0.9659258262890682 -0.25881904510252063 0.0
  outer loop
    vertex 342.0327083554374 4.510980161934977 2.1440557662621984e-12
    vertex 341.8282633131719 6.063894432550103 17.000000000002142
    vertex 341.8282633131719 6.063894432550103 2.1440557662621984e-12
  endloop
endfacet
facet normal -0.25881904510252063 0.9659258262890682 0.0
  outer loop
    vertex 346.27534904255674 11.859449390284512 17.000000000002142
    vertex 347.8282633131718 12.063894432550104 2.1440557662621984e-12
    vertex 346.27534904255674 11.859449390284512 2.1440557662621984e-12
  endloop
endfacet
facet normal 0.0 1.0 0.0
  outer loop
    vertex 347.8282633131718 12.063894432550104 2.1440557662621984e-12
    vertex 346.27534904255674 11.859449390284512 17.000000000002142
    vertex 347.8282633131718 12.063894432550104 17.000000000002142
  endloop
endfacet
facet normal 0.0 1.0 0.0
  outer loop
    vertex 347.8282633131718 12.063894432550104 17.000000000002142
    vertex 349.38117758378695 11.859449390284512 2.1440557662621984e-12
    vertex 347.8282633131718 12.063894432550104 2.1440557662621984e-12
  endloop
endfacet
facet normal 0.25881904510251935 0.9659258262890688 0.0
  outer loop
    vertex 349.38117758378695 11.859449390284512 2.1440557662621984e-12
    vertex 347.8282633131718 12.063894432550104 17.000000000002142
    vertex 349.38117758378695 11.859449390284512 17.000000000002142
  endloop
endfacet
facet normal -0.5 0.8660254037844387 0.0
  outer loop
    vertex 344.8282633131718 11.260046855256737 17.000000000002142
    vertex 346.27534904255674 11.859449390284512 2.1440557662621984e-12
    vertex 344.8282633131718 11.260046855256737 2.1440557662621984e-12
  endloop
endfacet
facet normal -0.25881904510252063 0.9659258262890682 0.0
  outer loop
    vertex 346.27534904255674 11.859449390284512 2.1440557662621984e-12
    vertex 344.8282633131718 11.260046855256737 17.000000000002142
    vertex 346.27534904255674 11.859449390284512 17.000000000002142
  endloop
endfacet
facet normal 0.7071067811865491 0.7071067811865459 0.0
  outer loop
    vertex 352.07090400029114 10.306535119669388 2.1440557662621984e-12
    vertex 353.02441573587845 9.063894432550098 17.000000000002142
    vertex 353.02441573587845 9.063894432550098 2.1440557662621984e-12
  endloop
endfacet
facet normal 0.8660254037844387 0.5 0.0
  outer loop
    vertex 353.02441573587845 9.063894432550098 17.000000000002142
    vertex 352.07090400029114 10.306535119669388 2.1440557662621984e-12
    vertex 352.07090400029114 10.306535119669388 17.000000000002142
  endloop
endfacet
facet normal 0.8660254037844387 0.5 0.0
  outer loop
    vertex 353.02441573587845 9.063894432550098 2.1440557662621984e-12
    vertex 353.62381827090627 7.616808703165228 17.000000000002142
    vertex 353.62381827090627 7.616808703165228 2.1440557662621984e-12
  endloop
endfacet
facet normal 0.9659258262890682 0.25881904510252063 0.0
  outer loop
    vertex 353.62381827090627 7.616808703165228 17.000000000002142
    vertex 353.02441573587845 9.063894432550098 2.1440557662621984e-12
    vertex 353.02441573587845 9.063894432550098 17.000000000002142
  endloop
endfacet
facet normal 0.9659258262890682 0.25881904510252063 0.0
  outer loop
    vertex 353.62381827090627 7.616808703165228 2.1440557662621984e-12
    vertex 353.8282633131718 6.063894432550103 17.000000000002142
    vertex 353.8282633131718 6.063894432550103 2.1440557662621984e-12
  endloop
endfacet
facet normal 1.0 0.0 0.0
  outer loop
    vertex 353.8282633131718 6.063894432550103 17.000000000002142
    vertex 353.62381827090627 7.616808703165228 2.1440557662621984e-12
    vertex 353.62381827090627 7.616808703165228 17.000000000002142
  endloop
endfacet
facet normal 0.25881904510251935 0.9659258262890688 0.0
  outer loop
    vertex 349.38117758378695 11.859449390284512 17.000000000002142
    vertex 350.8282633131718 11.260046855256737 2.1440557662621984e-12
    vertex 349.38117758378695 11.859449390284512 2.1440557662621984e-12
  endloop
endfacet
facet normal 0.5000000000000007 0.8660254037844384 0.0
  outer loop
    vertex 350.8282633131718 11.260046855256737 2.1440557662621984e-12
    vertex 349.38117758378695 11.859449390284512 17.000000000002142
    vertex 350.8282633131718 11.260046855256737 17.000000000002142
  endloop
endfacet
facet normal 0.5000000000000007 0.8660254037844384 0.0
  outer loop
    vertex 350.8282633131718 11.260046855256737 17.000000000002142
    vertex 352.07090400029114 10.306535119669388 2.1440557662621984e-12
    vertex 350.8282633131718 11.260046855256737 2.1440557662621984e-12
  endloop
endfacet
facet normal 0.7071067811865491 0.7071067811865459 0.0
  outer loop
    vertex 352.07090400029114 10.306535119669388 2.1440557662621984e-12
    vertex 350.8282633131718 11.260046855256737 17.000000000002142
    vertex 352.07090400029114 10.306535119669388 17.000000000002142
  endloop
endfacet
facet normal -0.8660254037844384 0.5000000000000007 0.0
  outer loop
    vertex 342.6321108904652 9.063894432550109 17.000000000002142
    vertex 342.0327083554374 7.616808703165228 2.1440557662621984e-12
    vertex 342.0327083554374 7.616808703165228 17.000000000002142
  endloop
endfacet
facet normal -0.9659258262890688 0.25881904510251935 0.0
  outer loop
    vertex 342.0327083554374 7.616808703165228 2.1440557662621984e-12
    vertex 342.6321108904652 9.063894432550109 17.000000000002142
    vertex 342.6321108904652 9.063894432550109 2.1440557662621984e-12
  endloop
endfacet
facet normal -0.7071067811865459 0.7071067811865491 0.0
  outer loop
    vertex 343.58562262605255 10.306535119669388 17.000000000002142
    vertex 342.6321108904652 9.063894432550109 2.1440557662621984e-12
    vertex 342.6321108904652 9.063894432550109 17.000000000002142
  endloop
endfacet
facet normal -0.8660254037844384 0.5000000000000007 0.0
  outer loop
    vertex 342.6321108904652 9.063894432550109 2.1440557662621984e-12
    vertex 343.58562262605255 10.306535119669388 17.000000000002142
    vertex 343.58562262605255 10.306535119669388 2.1440557662621984e-12
  endloop
endfacet
facet normal -0.7071067811865459 0.7071067811865491 0.0
  outer loop
    vertex 343.58562262605255 10.306535119669388 17.000000000002142
    vertex 344.8282633131718 11.260046855256737 2.1440557662621984e-12
    vertex 343.58562262605255 10.306535119669388 2.1440557662621984e-12
  endloop
endfacet
facet normal -0.5 0.8660254037844387 0.0
  outer loop
    vertex 344.8282633131718 11.260046855256737 2.1440557662621984e-12
    vertex 343.58562262605255 10.306535119669388 17.000000000002142
    vertex 344.8282633131718 11.260046855256737 17.000000000002142
  endloop
endfacet
facet normal 0.8660254037844384 -0.5000000000000007 0.0
  outer loop
    vertex 353.02441573587845 3.0638944325500974 2.1440557662621984e-12
    vertex 352.07090400029114 1.8212537454308186 17.000000000002142
    vertex 352.07090400029114 1.8212537454308186 2.1440557662621984e-12
  endloop
endfacet
facet normal 0.7071067811865459 -0.7071067811865491 0.0
  outer loop
    vertex 352.07090400029114 1.8212537454308186 17.000000000002142
    vertex 353.02441573587845 3.0638944325500974 2.1440557662621984e-12
    vertex 353.02441573587845 3.0638944325500974 17.000000000002142
  endloop
endfacet
facet normal 0.7071067811865459 -0.7071067811865491 0.0
  outer loop
    vertex 352.07090400029114 1.8212537454308186 17.000000000002142
    vertex 350.8282633131718 0.8677420098434679 2.1440557662621984e-12
    vertex 352.07090400029114 1.8212537454308186 2.1440557662621984e-12
  endloop
endfacet
facet normal 0.5 -0.8660254037844387 0.0
  outer loop
    vertex 350.8282633131718 0.8677420098434679 2.1440557662621984e-12
    vertex 352.07090400029114 1.8212537454308186 17.000000000002142
    vertex 350.8282633131718 0.8677420098434679 17.000000000002142
  endloop
endfacet
facet normal 0.9659258262890688 -0.25881904510251935 0.0
  outer loop
    vertex 353.62381827090627 4.510980161934977 2.1440557662621984e-12
    vertex 353.02441573587845 3.0638944325500974 17.000000000002142
    vertex 353.02441573587845 3.0638944325500974 2.1440557662621984e-12
  endloop
endfacet
facet normal 0.8660254037844384 -0.5000000000000007 0.0
  outer loop
    vertex 353.02441573587845 3.0638944325500974 17.000000000002142
    vertex 353.62381827090627 4.510980161934977 2.1440557662621984e-12
    vertex 353.62381827090627 4.510980161934977 17.000000000002142
  endloop
endfacet
facet normal 1.0 0.0 0.0
  outer loop
    vertex 353.8282633131718 6.063894432550103 2.1440557662621984e-12
    vertex 353.62381827090627 4.510980161934977 17.000000000002142
    vertex 353.62381827090627 4.510980161934977 2.1440557662621984e-12
  endloop
endfacet
facet normal 0.9659258262890688 -0.25881904510251935 0.0
  outer loop
    vertex 353.62381827090627 4.510980161934977 17.000000000002142
    vertex 353.8282633131718 6.063894432550103 2.1440557662621984e-12
    vertex 353.8282633131718 6.063894432550103 17.000000000002142
  endloop
endfacet
facet normal 0.0 -1.0 0.0
  outer loop
    vertex 347.8282633131718 8.663894432550098 7.000000000002144
    vertex 347.1553337959052 8.575301580901677 2.1440557662621984e-12
    vertex 347.8282633131718 8.663894432550098 2.1440557662621984e-12
  endloop
endfacet
facet normal 0.2588190451025182 -0.965925826289069 0.0
  outer loop
    vertex 347.1553337959052 8.575301580901677 2.1440557662621984e-12
    vertex 347.8282633131718 8.663894432550098 7.000000000002144
    vertex 347.1553337959052 8.575301580901677 7.000000000002144
  endloop
endfacet
facet normal 0.6087614290087296 0.7933533402912283 0.0
  outer loop
    vertex 346.22826331317185 4.042426479104256 7.000000000002144
    vertex 346.52826331317186 3.812228382710562 2.1440557662621984e-12
    vertex 346.22826331317185 4.042426479104256 2.1440557662621984e-12
  endloop
endfacet
facet normal 0.5000000000000033 0.8660254037844367 0.0
  outer loop
    vertex 346.52826331317186 3.812228382710562 2.1440557662621984e-12
    vertex 346.22826331317185 4.042426479104256 7.000000000002144
    vertex 346.52826331317186 3.812228382710562 7.000000000002144
  endloop
endfacet
facet normal 0.5000000000000033 0.8660254037844367 0.0
  outer loop
    vertex 346.52826331317186 3.812228382710562 7.000000000002144
    vertex 347.1553337959052 3.5524872841985293 2.1440557662621984e-12
    vertex 346.52826331317186 3.812228382710562 2.1440557662621984e-12
  endloop
endfacet
facet normal 0.25881904510251824 0.965925826289069 0.0
  outer loop
    vertex 347.1553337959052 3.5524872841985293 2.1440557662621984e-12
    vertex 346.52826331317186 3.812228382710562 7.000000000002144
    vertex 347.1553337959052 3.5524872841985293 7.000000000002144
  endloop
endfacet
facet normal -0.5000000000000033 0.8660254037844367 0.0
  outer loop
    vertex 349.12826331317183 3.812228382710562 7.000000000002144
    vertex 349.42826331317184 4.042426479104256 2.1440557662621984e-12
    vertex 349.12826331317183 3.812228382710562 2.1440557662621984e-12
  endloop
endfacet
facet normal -0.6087614290087296 0.7933533402912283 0.0
  outer loop
    vertex 349.42826331317184 4.042426479104256 2.1440557662621984e-12
    vertex 349.12826331317183 3.812228382710562 7.000000000002144
    vertex 349.42826331317184 4.042426479104256 7.000000000002144
  endloop
endfacet
facet normal -1.0 0.0 0.0
  outer loop
    vertex 349.42826331317184 4.104910923992943 7.000000000002144
    vertex 349.42826331317184 4.042426479104256 2.1440557662621984e-12
    vertex 349.42826331317184 4.042426479104256 7.000000000002144
  endloop
endfacet
facet normal -1.0 0.0 0.0
  outer loop
    vertex 349.42826331317184 4.042426479104256 2.1440557662621984e-12
    vertex 349.42826331317184 4.104910923992943 7.000000000002144
    vertex 349.42826331317184 8.08536238599595 2.1440557662621984e-12
  endloop
endfacet
facet normal -1.0 0.0 0.0
  outer loop
    vertex 349.42826331317184 8.08536238599595 2.1440557662621984e-12
    vertex 349.42826331317184 4.104910923992943 7.000000000002144
    vertex 349.42826331317184 8.022877941107252 7.000000000002144
  endloop
endfacet
facet normal -1.0 0.0 0.0
  outer loop
    vertex 349.42826331317184 8.08536238599595 2.1440557662621984e-12
    vertex 349.42826331317184 8.022877941107252 7.000000000002144
    vertex 349.42826331317184 8.08536238599595 7.000000000002144
  endloop
endfacet
facet normal -0.6087614290087296 -0.7933533402912283 0.0
  outer loop
    vertex 349.42826331317184 8.08536238599595 7.000000000002144
    vertex 349.12826331317183 8.315560482389644 2.1440557662621984e-12
    vertex 349.42826331317184 8.08536238599595 2.1440557662621984e-12
  endloop
endfacet
facet normal -0.5000000000000033 -0.8660254037844367 0.0
  outer loop
    vertex 349.12826331317183 8.315560482389644 2.1440557662621984e-12
    vertex 349.42826331317184 8.08536238599595 7.000000000002144
    vertex 349.12826331317183 8.315560482389644 7.000000000002144
  endloop
endfacet
facet normal -0.25881904510251935 -0.9659258262890688 0.0
  outer loop
    vertex 346.27534904255674 0.26833947481569326 17.000000000002142
    vertex 344.8282633131718 0.8677420098434679 2.1440557662621984e-12
    vertex 346.27534904255674 0.26833947481569326 2.1440557662621984e-12
  endloop
endfacet
facet normal -0.5000000000000007 -0.8660254037844384 0.0
  outer loop
    vertex 344.8282633131718 0.8677420098434679 2.1440557662621984e-12
    vertex 346.27534904255674 0.26833947481569326 17.000000000002142
    vertex 344.8282633131718 0.8677420098434679 17.000000000002142
  endloop
endfacet
facet normal 0.25881904510252063 -0.9659258262890682 0.0
  outer loop
    vertex 349.38117758378695 0.26833947481569326 17.000000000002142
    vertex 347.8282633131718 0.06389443255010273 2.1440557662621984e-12
    vertex 349.38117758378695 0.26833947481569326 2.1440557662621984e-12
  endloop
endfacet
facet normal 0.0 -1.0 0.0
  outer loop
    vertex 347.8282633131718 0.06389443255010273 2.1440557662621984e-12
    vertex 349.38117758378695 0.26833947481569326 17.000000000002142
    vertex 347.8282633131718 0.06389443255010273 17.000000000002142
  endloop
endfacet
facet normal 0.0 -1.0 0.0
  outer loop
    vertex 347.8282633131718 0.06389443255010273 17.000000000002142
    vertex 346.27534904255674 0.26833947481569326 2.1440557662621984e-12
    vertex 347.8282633131718 0.06389443255010273 2.1440557662621984e-12
  endloop
endfacet
facet normal -0.25881904510251935 -0.9659258262890688 0.0
  outer loop
    vertex 346.27534904255674 0.26833947481569326 2.1440557662621984e-12
    vertex 347.8282633131718 0.06389443255010273 17.000000000002142
    vertex 346.27534904255674 0.26833947481569326 17.000000000002142
  endloop
endfacet
facet normal 1.0 0.0 0.0
  outer loop
    vertex 346.22826331317185 8.08536238599595 2.1440557662621984e-12
    vertex 346.22826331317185 4.042426479104256 7.000000000002144
    vertex 346.22826331317185 4.042426479104256 2.1440557662621984e-12
  endloop
endfacet
facet normal 1.0 0.0 0.0
  outer loop
    vertex 346.22826331317185 4.042426479104256 7.000000000002144
    vertex 346.22826331317185 8.08536238599595 2.1440557662621984e-12
    vertex 346.22826331317185 4.104910923992954 7.000000000002144
  endloop
endfacet
facet normal 1.0 0.0 0.0
  outer loop
    vertex 346.22826331317185 4.104910923992954 7.000000000002144
    vertex 346.22826331317185 8.08536238599595 2.1440557662621984e-12
    vertex 346.22826331317185 8.022877941107263 7.000000000002144
  endloop
endfacet
facet normal 1.0 0.0 0.0
  outer loop
    vertex 346.22826331317185 8.022877941107263 7.000000000002144
    vertex 346.22826331317185 8.08536238599595 2.1440557662621984e-12
    vertex 346.22826331317185 8.08536238599595 7.000000000002144
  endloop
endfacet
facet normal 0.25881904510251824 0.965925826289069 0.0
  outer loop
    vertex 347.1553337959052 3.5524872841985293 7.000000000002144
    vertex 347.8282633131718 3.463894432550108 2.1440557662621984e-12
    vertex 347.1553337959052 3.5524872841985293 2.1440557662621984e-12
  endloop
endfacet
facet normal 0.0 1.0 0.0
  outer loop
    vertex 347.8282633131718 3.463894432550108 2.1440557662621984e-12
    vertex 347.1553337959052 3.5524872841985293 7.000000000002144
    vertex 347.8282633131718 3.463894432550108 7.000000000002144
  endloop
endfacet
facet normal 0.0 1.0 0.0
  outer loop
    vertex 347.8282633131718 3.463894432550108 7.000000000002144
    vertex 348.50119283043836 3.5524872841985293 2.1440557662621984e-12
    vertex 347.8282633131718 3.463894432550108 2.1440557662621984e-12
  endloop
endfacet
facet normal -0.2588190451025182 0.965925826289069 0.0
  outer loop
    vertex 348.50119283043836 3.5524872841985293 2.1440557662621984e-12
    vertex 347.8282633131718 3.463894432550108 7.000000000002144
    vertex 348.50119283043836 3.5524872841985293 7.000000000002144
  endloop
endfacet
facet normal 0.5 -0.8660254037844387 0.0
  outer loop
    vertex 350.8282633131718 0.8677420098434679 17.000000000002142
    vertex 349.38117758378695 0.26833947481569326 2.1440557662621984e-12
    vertex 350.8282633131718 0.8677420098434679 2.1440557662621984e-12
  endloop
endfacet
facet normal 0.25881904510252063 -0.9659258262890682 0.0
  outer loop
    vertex 349.38117758378695 0.26833947481569326 2.1440557662621984e-12
    vertex 350.8282633131718 0.8677420098434679 17.000000000002142
    vertex 349.38117758378695 0.26833947481569326 17.000000000002142
  endloop
endfacet
facet normal -0.2588190451025182 0.965925826289069 0.0
  outer loop
    vertex 348.50119283043836 3.5524872841985293 7.000000000002144
    vertex 349.12826331317183 3.812228382710562 2.1440557662621984e-12
    vertex 348.50119283043836 3.5524872841985293 2.1440557662621984e-12
  endloop
endfacet
facet normal -0.5000000000000033 0.8660254037844367 0.0
  outer loop
    vertex 349.12826331317183 3.812228382710562 2.1440557662621984e-12
    vertex 348.50119283043836 3.5524872841985293 7.000000000002144
    vertex 349.12826331317183 3.812228382710562 7.000000000002144
  endloop
endfacet
facet normal 0.866025403784438 0.5000000000000011 0.0
  outer loop
    vertex 345.6198985335215 4.7888944325501 7.000000000002144
    vertex 346.0251410211461 4.260772140524407 13.000000000002151
    vertex 346.0251410211461 4.260772140524407 7.000000000002144
  endloop
endfacet
facet normal 0.7071067811865441 0.7071067811865511 1.1712919902119015e-16
  outer loop
    vertex 346.0251410211461 4.260772140524407 13.000000000002151
    vertex 345.6198985335215 4.7888944325501 7.000000000002144
    vertex 345.6198985335215 4.7888944325501 13.000000000002151
  endloop
endfacet
facet normal 0.9659258262890683 0.25881904510252063 0.0
  outer loop
    vertex 345.3651524561347 5.403905867538675 7.000000000002144
    vertex 345.6198985335215 4.7888944325501 13.000000000002151
    vertex 345.6198985335215 4.7888944325501 7.000000000002144
  endloop
endfacet
facet normal 0.866025403784438 0.5000000000000011 0.0
  outer loop
    vertex 345.6198985335215 4.7888944325501 13.000000000002151
    vertex 345.3651524561347 5.403905867538675 7.000000000002144
    vertex 345.3651524561347 5.403905867538675 13.000000000002151
  endloop
endfacet
facet normal 0.7071067811865441 0.7071067811865511 1.1712919902119015e-16
  outer loop
    vertex 346.0251410211461 4.260772140524407 13.000000000002151
    vertex 346.22826331317185 4.104910923992954 7.000000000002144
    vertex 346.0251410211461 4.260772140524407 7.000000000002144
  endloop
endfacet
facet normal 0.6087614290087093 0.7933533402912438 2.322542849727784e-16
  outer loop
    vertex 346.22826331317185 4.104910923992954 7.000000000002144
    vertex 346.0251410211461 4.260772140524407 13.000000000002151
    vertex 346.55326331317184 3.855529652899791 7.000000000002144
  endloop
endfacet
facet normal 0.49999999999999956 0.8660254037844388 1.171291990211898e-16
  outer loop
    vertex 346.55326331317184 3.855529652899791 7.000000000002144
    vertex 346.0251410211461 4.260772140524407 13.000000000002151
    vertex 346.55326331317184 3.855529652899791 13.000000000002151
  endloop
endfacet
facet normal 0.0 0.0 1.0
  outer loop
    vertex 342.0327083554374 4.510980161934977 17.000000000002142
    vertex 342.0327083554374 7.616808703165228 17.000000000002142
    vertex 341.8282633131719 6.063894432550103 17.000000000002142
  endloop
endfacet
facet normal 0.0 0.0 1.0
  outer loop
    vertex 342.0327083554374 7.616808703165228 17.000000000002142
    vertex 342.0327083554374 4.510980161934977 17.000000000002142
    vertex 342.6321108904652 3.0638944325501085 17.000000000002142
  endloop
endfacet
facet normal 0.0 0.0 1.0
  outer loop
    vertex 342.0327083554374 7.616808703165228 17.000000000002142
    vertex 342.6321108904652 3.0638944325501085 17.000000000002142
    vertex 342.6321108904652 9.063894432550109 17.000000000002142
  endloop
endfacet
facet normal 0.0 0.0 1.0
  outer loop
    vertex 342.6321108904652 9.063894432550109 17.000000000002142
    vertex 342.6321108904652 3.0638944325501085 17.000000000002142
    vertex 343.58562262605255 1.8212537454308186 17.000000000002142
  endloop
endfacet
facet normal 0.0 0.0 1.0
  outer loop
    vertex 342.6321108904652 9.063894432550109 17.000000000002142
    vertex 343.58562262605255 1.8212537454308186 17.000000000002142
    vertex 343.58562262605255 10.306535119669388 17.000000000002142
  endloop
endfacet
facet normal 0.0 0.0 1.0
  outer loop
    vertex 343.58562262605255 10.306535119669388 17.000000000002142
    vertex 343.58562262605255 1.8212537454308186 17.000000000002142
    vertex 343.67134137500653 3.663894432550096 17.000000000002142
  endloop
endfacet
facet normal 0.0 0.0 1.0
  outer loop
    vertex 343.67134137500653 3.663894432550096 17.000000000002142
    vertex 343.58562262605255 1.8212537454308186 17.000000000002142
    vertex 344.8282633131718 0.8677420098434679 17.000000000002142
  endloop
endfacet
facet normal 0.0 0.0 1.0
  outer loop
    vertex 343.67134137500653 3.663894432550096 17.000000000002142
    vertex 344.8282633131718 0.8677420098434679 17.000000000002142
    vertex 347.8282633131718 1.2638944325501005 17.000000000002142
  endloop
endfacet
facet normal 0.0 0.0 1.0
  outer loop
    vertex 347.8282633131718 1.2638944325501005 17.000000000002142
    vertex 344.8282633131718 0.8677420098434679 17.000000000002142
    vertex 346.27534904255674 0.26833947481569326 17.000000000002142
  endloop
endfacet
facet normal 0.0 0.0 1.0
  outer loop
    vertex 347.8282633131718 1.2638944325501005 17.000000000002142
    vertex 346.27534904255674 0.26833947481569326 17.000000000002142
    vertex 347.8282633131718 0.06389443255010273 17.000000000002142
  endloop
endfacet
facet normal 0.0 0.0 1.0
  outer loop
    vertex 347.8282633131718 1.2638944325501005 17.000000000002142
    vertex 347.8282633131718 0.06389443255010273 17.000000000002142
    vertex 349.38117758378695 0.26833947481569326 17.000000000002142
  endloop
endfacet
facet normal 0.0 0.0 1.0
  outer loop
    vertex 347.8282633131718 1.2638944325501005 17.000000000002142
    vertex 349.38117758378695 0.26833947481569326 17.000000000002142
    vertex 351.98518525133716 3.6638944325501073 17.000000000002142
  endloop
endfacet
facet normal 0.0 0.0 1.0
  outer loop
    vertex 351.98518525133716 3.6638944325501073 17.000000000002142
    vertex 349.38117758378695 0.26833947481569326 17.000000000002142
    vertex 350.8282633131718 0.8677420098434679 17.000000000002142
  endloop
endfacet
facet normal 0.0 0.0 1.0
  outer loop
    vertex 351.98518525133716 3.6638944325501073 17.000000000002142
    vertex 350.8282633131718 0.8677420098434679 17.000000000002142
    vertex 352.07090400029114 1.8212537454308186 17.000000000002142
  endloop
endfacet
facet normal 0.0 0.0 1.0
  outer loop
    vertex 351.98518525133716 3.6638944325501073 17.000000000002142
    vertex 352.07090400029114 1.8212537454308186 17.000000000002142
    vertex 351.98518525133716 8.46389443255011 17.000000000002142
  endloop
endfacet
facet normal 0.0 0.0 1.0
  outer loop
    vertex 343.58562262605255 10.306535119669388 17.000000000002142
    vertex 343.67134137500653 8.463894432550099 17.000000000002142
    vertex 344.8282633131718 11.260046855256737 17.000000000002142
  endloop
endfacet
facet normal 0.0 0.0 1.0
  outer loop
    vertex 343.67134137500653 8.463894432550099 17.000000000002142
    vertex 343.58562262605255 10.306535119669388 17.000000000002142
    vertex 343.67134137500653 3.663894432550096 17.000000000002142
  endloop
endfacet
facet normal 0.0 0.0 1.0
  outer loop
    vertex 344.8282633131718 11.260046855256737 17.000000000002142
    vertex 343.67134137500653 8.463894432550099 17.000000000002142
    vertex 347.8282633131718 10.863894432550106 17.000000000002142
  endloop
endfacet
facet normal 0.0 0.0 1.0
  outer loop
    vertex 344.8282633131718 11.260046855256737 17.000000000002142
    vertex 347.8282633131718 10.863894432550106 17.000000000002142
    vertex 346.27534904255674 11.859449390284512 17.000000000002142
  endloop
endfacet
facet normal 0.0 0.0 1.0
  outer loop
    vertex 346.27534904255674 11.859449390284512 17.000000000002142
    vertex 347.8282633131718 10.863894432550106 17.000000000002142
    vertex 347.8282633131718 12.063894432550104 17.000000000002142
  endloop
endfacet
facet normal 0.0 0.0 1.0
  outer loop
    vertex 347.8282633131718 12.063894432550104 17.000000000002142
    vertex 347.8282633131718 10.863894432550106 17.000000000002142
    vertex 351.98518525133716 8.46389443255011 17.000000000002142
  endloop
endfacet
facet normal 0.0 0.0 1.0
  outer loop
    vertex 347.8282633131718 12.063894432550104 17.000000000002142
    vertex 351.98518525133716 8.46389443255011 17.000000000002142
    vertex 349.38117758378695 11.859449390284512 17.000000000002142
  endloop
endfacet
facet normal 0.0 0.0 1.0
  outer loop
    vertex 349.38117758378695 11.859449390284512 17.000000000002142
    vertex 351.98518525133716 8.46389443255011 17.000000000002142
    vertex 350.8282633131718 11.260046855256737 17.000000000002142
  endloop
endfacet
facet normal 0.0 0.0 1.0
  outer loop
    vertex 350.8282633131718 11.260046855256737 17.000000000002142
    vertex 351.98518525133716 8.46389443255011 17.000000000002142
    vertex 352.07090400029114 10.306535119669388 17.000000000002142
  endloop
endfacet
facet normal 0.0 0.0 1.0
  outer loop
    vertex 352.07090400029114 10.306535119669388 17.000000000002142
    vertex 351.98518525133716 8.46389443255011 17.000000000002142
    vertex 352.07090400029114 1.8212537454308186 17.000000000002142
  endloop
endfacet
facet normal 0.0 0.0 1.0
  outer loop
    vertex 352.07090400029114 10.306535119669388 17.000000000002142
    vertex 352.07090400029114 1.8212537454308186 17.000000000002142
    vertex 353.02441573587845 3.0638944325500974 17.000000000002142
  endloop
endfacet
facet normal 0.0 0.0 1.0
  outer loop
    vertex 352.07090400029114 10.306535119669388 17.000000000002142
    vertex 353.02441573587845 3.0638944325500974 17.000000000002142
    vertex 353.02441573587845 9.063894432550098 17.000000000002142
  endloop
endfacet
facet normal 0.0 0.0 1.0
  outer loop
    vertex 353.02441573587845 9.063894432550098 17.000000000002142
    vertex 353.02441573587845 3.0638944325500974 17.000000000002142
    vertex 353.62381827090627 4.510980161934977 17.000000000002142
  endloop
endfacet
facet normal 0.0 0.0 1.0
  outer loop
    vertex 353.02441573587845 9.063894432550098 17.000000000002142
    vertex 353.62381827090627 4.510980161934977 17.000000000002142
    vertex 353.62381827090627 7.616808703165228 17.000000000002142
  endloop
endfacet
facet normal 0.0 0.0 1.0
  outer loop
    vertex 353.62381827090627 7.616808703165228 17.000000000002142
    vertex 353.62381827090627 4.510980161934977 17.000000000002142
    vertex 353.8282633131718 6.063894432550103 17.000000000002142
  endloop
endfacet
facet normal -1.0 0.0 0.0
  outer loop
    vertex 351.98518525133716 8.46389443255011 17.000000000002142
    vertex 351.98518525133716 3.6638944325501073 13.000000000002151
    vertex 351.98518525133716 3.6638944325501073 17.000000000002142
  endloop
endfacet
facet normal -1.0 0.0 0.0
  outer loop
    vertex 351.98518525133716 3.6638944325501073 13.000000000002151
    vertex 351.98518525133716 8.46389443255011 17.000000000002142
    vertex 351.98518525133716 8.46389443255011 13.000000000002151
  endloop
endfacet
facet normal -0.25881904510252063 0.9659258262890683 0.0
  outer loop
    vertex 348.48825187818323 3.600783575512979 13.000000000002151
    vertex 349.1032633131718 3.855529652899791 7.000000000002144
    vertex 348.48825187818323 3.600783575512979 7.000000000002144
  endloop
endfacet
facet normal -0.500000000000001 0.866025403784438 -5.838328496102869e-17
  outer loop
    vertex 349.1032633131718 3.855529652899791 7.000000000002144
    vertex 348.48825187818323 3.600783575512979 13.000000000002151
    vertex 349.1032633131718 3.855529652899791 13.000000000002151
  endloop
endfacet
facet normal 0.0 1.0 0.0
  outer loop
    vertex 347.8282633131718 3.513894432550108 13.000000000002151
    vertex 348.48825187818323 3.600783575512979 7.000000000002144
    vertex 347.8282633131718 3.513894432550108 7.000000000002144
  endloop
endfacet
facet normal -0.25881904510252063 0.9659258262890683 0.0
  outer loop
    vertex 348.48825187818323 3.600783575512979 7.000000000002144
    vertex 347.8282633131718 3.513894432550108 13.000000000002151
    vertex 348.48825187818323 3.600783575512979 13.000000000002151
  endloop
endfacet
facet normal 1.0 0.0 0.0
  outer loop
    vertex 345.2782633131718 6.063894432550103 7.000000000002144
    vertex 345.3651524561347 5.403905867538675 13.000000000002151
    vertex 345.3651524561347 5.403905867538675 7.000000000002144
  endloop
endfacet
facet normal 0.9659258262890683 0.25881904510252063 0.0
  outer loop
    vertex 345.3651524561347 5.403905867538675 13.000000000002151
    vertex 345.2782633131718 6.063894432550103 7.000000000002144
    vertex 345.2782633131718 6.063894432550103 13.000000000002151
  endloop
endfacet
facet normal -0.866025403784438 -0.5000000000000011 0.0
  outer loop
    vertex 350.0366280928222 7.338894432550107 13.000000000002151
    vertex 350.29137417020894 6.723882997561531 7.000000000002144
    vertex 350.29137417020894 6.723882997561531 13.000000000002151
  endloop
endfacet
facet normal -0.9659258262890683 -0.25881904510252063 0.0
  outer loop
    vertex 350.29137417020894 6.723882997561531 7.000000000002144
    vertex 350.0366280928222 7.338894432550107 13.000000000002151
    vertex 350.0366280928222 7.338894432550107 7.000000000002144
  endloop
endfacet
facet normal -0.5000000000000007 0.8660254037844384 0.0
  outer loop
    vertex 347.8282633131718 1.2638944325501005 17.000000000002142
    vertex 351.98518525133716 3.6638944325501073 13.000000000002151
    vertex 347.8282633131718 1.2638944325501005 13.000000000002151
  endloop
endfacet
facet normal -0.5000000000000007 0.8660254037844384 0.0
  outer loop
    vertex 351.98518525133716 3.6638944325501073 13.000000000002151
    vertex 347.8282633131718 1.2638944325501005 17.000000000002142
    vertex 351.98518525133716 3.6638944325501073 17.000000000002142
  endloop
endfacet
facet normal 0.0 0.0 1.0
  outer loop
    vertex 343.67134137500653 3.663894432550096 13.000000000002151
    vertex 345.6198985335215 4.7888944325501 13.000000000002151
    vertex 343.67134137500653 8.463894432550099 13.000000000002151
  endloop
endfacet
facet normal 0.0 0.0 1.0
  outer loop
    vertex 345.6198985335215 4.7888944325501 13.000000000002151
    vertex 343.67134137500653 3.663894432550096 13.000000000002151
    vertex 347.8282633131718 1.2638944325501005 13.000000000002151
  endloop
endfacet
facet normal 0.0 0.0 1.0
  outer loop
    vertex 343.67134137500653 8.463894432550099 13.000000000002151
    vertex 345.6198985335215 4.7888944325501 13.000000000002151
    vertex 345.3651524561347 5.403905867538675 13.000000000002151
  endloop
endfacet
facet normal 0.0 0.0 1.0
  outer loop
    vertex 343.67134137500653 8.463894432550099 13.000000000002151
    vertex 345.3651524561347 5.403905867538675 13.000000000002151
    vertex 345.2782633131718 6.063894432550103 13.000000000002151
  endloop
endfacet
facet normal 0.0 0.0 1.0
  outer loop
    vertex 345.6198985335215 4.7888944325501 13.000000000002151
    vertex 347.8282633131718 1.2638944325501005 13.000000000002151
    vertex 346.0251410211461 4.260772140524407 13.000000000002151
  endloop
endfacet
facet normal 0.0 0.0 1.0
  outer loop
    vertex 346.0251410211461 4.260772140524407 13.000000000002151
    vertex 347.8282633131718 1.2638944325501005 13.000000000002151
    vertex 346.55326331317184 3.855529652899791 13.000000000002151
  endloop
endfacet
facet normal 0.0 0.0 1.0
  outer loop
    vertex 346.55326331317184 3.855529652899791 13.000000000002151
    vertex 347.8282633131718 1.2638944325501005 13.000000000002151
    vertex 347.1682747481604 3.600783575512979 13.000000000002151
  endloop
endfacet
facet normal 0.0 0.0 1.0
  outer loop
    vertex 347.1682747481604 3.600783575512979 13.000000000002151
    vertex 347.8282633131718 1.2638944325501005 13.000000000002151
    vertex 347.8282633131718 3.513894432550108 13.000000000002151
  endloop
endfacet
facet normal 0.0 0.0 1.0
  outer loop
    vertex 347.8282633131718 3.513894432550108 13.000000000002151
    vertex 347.8282633131718 1.2638944325501005 13.000000000002151
    vertex 351.98518525133716 3.6638944325501073 13.000000000002151
  endloop
endfacet
facet normal 0.0 0.0 1.0
  outer loop
    vertex 347.8282633131718 3.513894432550108 13.000000000002151
    vertex 351.98518525133716 3.6638944325501073 13.000000000002151
    vertex 348.48825187818323 3.600783575512979 13.000000000002151
  endloop
endfacet
facet normal 0.0 0.0 1.0
  outer loop
    vertex 348.48825187818323 3.600783575512979 13.000000000002151
    vertex 351.98518525133716 3.6638944325501073 13.000000000002151
    vertex 349.1032633131718 3.855529652899791 13.000000000002151
  endloop
endfacet
facet normal 0.0 0.0 1.0
  outer loop
    vertex 349.1032633131718 3.855529652899791 13.000000000002151
    vertex 351.98518525133716 3.6638944325501073 13.000000000002151
    vertex 349.6313856051975 4.260772140524407 13.000000000002151
  endloop
endfacet
facet normal 0.0 0.0 1.0
  outer loop
    vertex 349.6313856051975 4.260772140524407 13.000000000002151
    vertex 351.98518525133716 3.6638944325501073 13.000000000002151
    vertex 350.0366280928222 4.788894432550111 13.000000000002151
  endloop
endfacet
facet normal 0.0 0.0 1.0
  outer loop
    vertex 350.0366280928222 4.788894432550111 13.000000000002151
    vertex 351.98518525133716 3.6638944325501073 13.000000000002151
    vertex 350.29137417020894 5.403905867538675 13.000000000002151
  endloop
endfacet
facet normal 0.0 0.0 1.0
  outer loop
    vertex 350.29137417020894 5.403905867538675 13.000000000002151
    vertex 351.98518525133716 3.6638944325501073 13.000000000002151
    vertex 350.3782633131718 6.063894432550103 13.000000000002151
  endloop
endfacet
facet normal 0.0 0.0 1.0
  outer loop
    vertex 343.67134137500653 8.463894432550099 13.000000000002151
    vertex 345.6198985335215 7.338894432550095 13.000000000002151
    vertex 347.8282633131718 10.863894432550106 13.000000000002151
  endloop
endfacet
facet normal 0.0 0.0 1.0
  outer loop
    vertex 345.6198985335215 7.338894432550095 13.000000000002151
    vertex 343.67134137500653 8.463894432550099 13.000000000002151
    vertex 345.3651524561347 6.723882997561531 13.000000000002151
  endloop
endfacet
facet normal 0.0 0.0 1.0
  outer loop
    vertex 345.3651524561347 6.723882997561531 13.000000000002151
    vertex 343.67134137500653 8.463894432550099 13.000000000002151
    vertex 345.2782633131718 6.063894432550103 13.000000000002151
  endloop
endfacet
facet normal 0.0 0.0 1.0
  outer loop
    vertex 347.8282633131718 10.863894432550106 13.000000000002151
    vertex 345.6198985335215 7.338894432550095 13.000000000002151
    vertex 346.0251410211461 7.867016724575799 13.000000000002151
  endloop
endfacet
facet normal 0.0 0.0 1.0
  outer loop
    vertex 347.8282633131718 10.863894432550106 13.000000000002151
    vertex 346.0251410211461 7.867016724575799 13.000000000002151
    vertex 346.55326331317184 8.272259212200415 13.000000000002151
  endloop
endfacet
facet normal 0.0 0.0 1.0
  outer loop
    vertex 347.8282633131718 10.863894432550106 13.000000000002151
    vertex 346.55326331317184 8.272259212200415 13.000000000002151
    vertex 347.1682747481604 8.527005289587228 13.000000000002151
  endloop
endfacet
facet normal 0.0 0.0 1.0
  outer loop
    vertex 347.8282633131718 10.863894432550106 13.000000000002151
    vertex 347.1682747481604 8.527005289587228 13.000000000002151
    vertex 347.8282633131718 8.613894432550099 13.000000000002151
  endloop
endfacet
facet normal 0.0 0.0 1.0
  outer loop
    vertex 347.8282633131718 10.863894432550106 13.000000000002151
    vertex 347.8282633131718 8.613894432550099 13.000000000002151
    vertex 348.48825187818323 8.527005289587228 13.000000000002151
  endloop
endfacet
facet normal 0.0 0.0 1.0
  outer loop
    vertex 347.8282633131718 10.863894432550106 13.000000000002151
    vertex 348.48825187818323 8.527005289587228 13.000000000002151
    vertex 351.98518525133716 8.46389443255011 13.000000000002151
  endloop
endfacet
facet normal 0.0 0.0 1.0
  outer loop
    vertex 351.98518525133716 8.46389443255011 13.000000000002151
    vertex 348.48825187818323 8.527005289587228 13.000000000002151
    vertex 349.1032633131718 8.272259212200415 13.000000000002151
  endloop
endfacet
facet normal 0.0 0.0 1.0
  outer loop
    vertex 351.98518525133716 8.46389443255011 13.000000000002151
    vertex 349.1032633131718 8.272259212200415 13.000000000002151
    vertex 349.6313856051975 7.867016724575799 13.000000000002151
  endloop
endfacet
facet normal 0.0 0.0 1.0
  outer loop
    vertex 351.98518525133716 8.46389443255011 13.000000000002151
    vertex 349.6313856051975 7.867016724575799 13.000000000002151
    vertex 350.0366280928222 7.338894432550107 13.000000000002151
  endloop
endfacet
facet normal 0.0 0.0 1.0
  outer loop
    vertex 351.98518525133716 8.46389443255011 13.000000000002151
    vertex 350.0366280928222 7.338894432550107 13.000000000002151
    vertex 350.29137417020894 6.723882997561531 13.000000000002151
  endloop
endfacet
facet normal 0.0 0.0 1.0
  outer loop
    vertex 351.98518525133716 8.46389443255011 13.000000000002151
    vertex 350.29137417020894 6.723882997561531 13.000000000002151
    vertex 350.3782633131718 6.063894432550103 13.000000000002151
  endloop
endfacet
facet normal 0.0 0.0 1.0
  outer loop
    vertex 351.98518525133716 8.46389443255011 13.000000000002151
    vertex 350.3782633131718 6.063894432550103 13.000000000002151
    vertex 351.98518525133716 3.6638944325501073 13.000000000002151
  endloop
endfacet
facet normal 1.0 0.0 0.0
  outer loop
    vertex 343.67134137500653 8.463894432550099 13.000000000002151
    vertex 343.67134137500653 3.663894432550096 17.000000000002142
    vertex 343.67134137500653 3.663894432550096 13.000000000002151
  endloop
endfacet
facet normal 1.0 0.0 0.0
  outer loop
    vertex 343.67134137500653 3.663894432550096 17.000000000002142
    vertex 343.67134137500653 8.463894432550099 13.000000000002151
    vertex 343.67134137500653 8.463894432550099 17.000000000002142
  endloop
endfacet
facet normal -0.4999999999999989 -0.8660254037844394 -0.0
  outer loop
    vertex 351.98518525133716 8.46389443255011 17.000000000002142
    vertex 347.8282633131718 10.863894432550106 13.000000000002151
    vertex 351.98518525133716 8.46389443255011 13.000000000002151
  endloop
endfacet
facet normal -0.4999999999999989 -0.8660254037844394 -0.0
  outer loop
    vertex 347.8282633131718 10.863894432550106 13.000000000002151
    vertex 351.98518525133716 8.46389443255011 17.000000000002142
    vertex 347.8282633131718 10.863894432550106 17.000000000002142
  endloop
endfacet
facet normal 0.5000000000000007 -0.8660254037844384 0.0
  outer loop
    vertex 347.8282633131718 10.863894432550106 17.000000000002142
    vertex 343.67134137500653 8.463894432550099 13.000000000002151
    vertex 347.8282633131718 10.863894432550106 13.000000000002151
  endloop
endfacet
facet normal 0.5000000000000007 -0.8660254037844384 0.0
  outer loop
    vertex 343.67134137500653 8.463894432550099 13.000000000002151
    vertex 347.8282633131718 10.863894432550106 17.000000000002142
    vertex 343.67134137500653 8.463894432550099 17.000000000002142
  endloop
endfacet
facet normal 0.2588190451025182 -0.965925826289069 0.0
  outer loop
    vertex 347.1553337959052 8.575301580901677 7.000000000002144
    vertex 346.52826331317186 8.315560482389644 2.1440557662621984e-12
    vertex 347.1553337959052 8.575301580901677 2.1440557662621984e-12
  endloop
endfacet
facet normal 0.5000000000000033 -0.8660254037844367 0.0
  outer loop
    vertex 346.52826331317186 8.315560482389644 2.1440557662621984e-12
    vertex 347.1553337959052 8.575301580901677 7.000000000002144
    vertex 346.52826331317186 8.315560482389644 7.000000000002144
  endloop
endfacet
facet normal -0.25881904510251824 -0.965925826289069 0.0
  outer loop
    vertex 348.50119283043836 8.575301580901677 7.000000000002144
    vertex 347.8282633131718 8.663894432550098 2.1440557662621984e-12
    vertex 348.50119283043836 8.575301580901677 2.1440557662621984e-12
  endloop
endfacet
facet normal 0.0 -1.0 0.0
  outer loop
    vertex 347.8282633131718 8.663894432550098 2.1440557662621984e-12
    vertex 348.50119283043836 8.575301580901677 7.000000000002144
    vertex 347.8282633131718 8.663894432550098 7.000000000002144
  endloop
endfacet
facet normal -0.8660254037844389 0.49999999999999944 0.0
  outer loop
    vertex 350.0366280928222 4.788894432550111 13.000000000002151
    vertex 349.6313856051975 4.260772140524407 7.000000000002144
    vertex 349.6313856051975 4.260772140524407 13.000000000002151
  endloop
endfacet
facet normal -0.7071067811865511 0.7071067811865439 -5.83832849610288e-17
  outer loop
    vertex 349.6313856051975 4.260772140524407 7.000000000002144
    vertex 350.0366280928222 4.788894432550111 13.000000000002151
    vertex 350.0366280928222 4.788894432550111 7.000000000002144
  endloop
endfacet
facet normal -0.500000000000001 0.866025403784438 -5.838328496102869e-17
  outer loop
    vertex 349.1032633131718 3.855529652899791 13.000000000002151
    vertex 349.42826331317184 4.104910923992943 7.000000000002144
    vertex 349.1032633131718 3.855529652899791 7.000000000002144
  endloop
endfacet
facet normal -0.608761429008717 0.7933533402912379 -1.157676157294696e-16
  outer loop
    vertex 349.42826331317184 4.104910923992943 7.000000000002144
    vertex 349.1032633131718 3.855529652899791 13.000000000002151
    vertex 349.6313856051975 4.260772140524407 7.000000000002144
  endloop
endfacet
facet normal -0.7071067811865511 0.7071067811865439 -5.83832849610288e-17
  outer loop
    vertex 349.6313856051975 4.260772140524407 7.000000000002144
    vertex 349.1032633131718 3.855529652899791 13.000000000002151
    vertex 349.6313856051975 4.260772140524407 13.000000000002151
  endloop
endfacet
facet normal 0.49999999999999956 0.8660254037844388 1.171291990211898e-16
  outer loop
    vertex 346.55326331317184 3.855529652899791 13.000000000002151
    vertex 347.1682747481604 3.600783575512979 7.000000000002144
    vertex 346.55326331317184 3.855529652899791 7.000000000002144
  endloop
endfacet
facet normal 0.2588190451025238 0.9659258262890674 0.0
  outer loop
    vertex 347.1682747481604 3.600783575512979 7.000000000002144
    vertex 346.55326331317184 3.855529652899791 13.000000000002151
    vertex 347.1682747481604 3.600783575512979 13.000000000002151
  endloop
endfacet
facet normal 0.2588190451025238 0.9659258262890674 0.0
  outer loop
    vertex 347.1682747481604 3.600783575512979 13.000000000002151
    vertex 347.8282633131718 3.513894432550108 7.000000000002144
    vertex 347.1682747481604 3.600783575512979 7.000000000002144
  endloop
endfacet
facet normal 0.0 1.0 0.0
  outer loop
    vertex 347.8282633131718 3.513894432550108 7.000000000002144
    vertex 347.1682747481604 3.600783575512979 13.000000000002151
    vertex 347.8282633131718 3.513894432550108 13.000000000002151
  endloop
endfacet
facet normal 0.7071067811865511 -0.7071067811865439 -5.83832849610288e-17
  outer loop
    vertex 346.0251410211461 7.867016724575799 7.000000000002144
    vertex 345.6198985335215 7.338894432550095 13.000000000002151
    vertex 345.6198985335215 7.338894432550095 7.000000000002144
  endloop
endfacet
facet normal 0.8660254037844389 -0.49999999999999944 0.0
  outer loop
    vertex 345.6198985335215 7.338894432550095 13.000000000002151
    vertex 346.0251410211461 7.867016724575799 7.000000000002144
    vertex 346.0251410211461 7.867016724575799 13.000000000002151
  endloop
endfacet
facet normal 0.500000000000001 -0.866025403784438 -5.838328496102869e-17
  outer loop
    vertex 346.55326331317184 8.272259212200415 13.000000000002151
    vertex 346.22826331317185 8.022877941107263 7.000000000002144
    vertex 346.55326331317184 8.272259212200415 7.000000000002144
  endloop
endfacet
facet normal 0.608761429008717 -0.7933533402912379 -1.157676157294696e-16
  outer loop
    vertex 346.22826331317185 8.022877941107263 7.000000000002144
    vertex 346.55326331317184 8.272259212200415 13.000000000002151
    vertex 346.0251410211461 7.867016724575799 7.000000000002144
  endloop
endfacet
facet normal 0.7071067811865511 -0.7071067811865439 -5.83832849610288e-17
  outer loop
    vertex 346.0251410211461 7.867016724575799 7.000000000002144
    vertex 346.55326331317184 8.272259212200415 13.000000000002151
    vertex 346.0251410211461 7.867016724575799 13.000000000002151
  endloop
endfacet
facet normal 0.8660254037844389 -0.49999999999999944 0.0
  outer loop
    vertex 345.6198985335215 7.338894432550095 7.000000000002144
    vertex 345.3651524561347 6.723882997561531 13.000000000002151
    vertex 345.3651524561347 6.723882997561531 7.000000000002144
  endloop
endfacet
facet normal 0.9659258262890674 -0.2588190451025238 0.0
  outer loop
    vertex 345.3651524561347 6.723882997561531 13.000000000002151
    vertex 345.6198985335215 7.338894432550095 7.000000000002144
    vertex 345.6198985335215 7.338894432550095 13.000000000002151
  endloop
endfacet
facet normal -0.5000000000000033 -0.8660254037844367 0.0
  outer loop
    vertex 349.12826331317183 8.315560482389644 7.000000000002144
    vertex 348.50119283043836 8.575301580901677 2.1440557662621984e-12
    vertex 349.12826331317183 8.315560482389644 2.1440557662621984e-12
  endloop
endfacet
facet normal -0.25881904510251824 -0.965925826289069 0.0
  outer loop
    vertex 348.50119283043836 8.575301580901677 2.1440557662621984e-12
    vertex 349.12826331317183 8.315560482389644 7.000000000002144
    vertex 348.50119283043836 8.575301580901677 7.000000000002144
  endloop
endfacet
facet normal -0.7071067811865441 -0.7071067811865511 1.1839840086816901e-16
  outer loop
    vertex 349.6313856051975 7.867016724575799 13.000000000002151
    vertex 350.0366280928222 7.338894432550107 7.000000000002144
    vertex 350.0366280928222 7.338894432550107 13.000000000002151
  endloop
endfacet
facet normal -0.866025403784438 -0.5000000000000011 0.0
  outer loop
    vertex 350.0366280928222 7.338894432550107 7.000000000002144
    vertex 349.6313856051975 7.867016724575799 13.000000000002151
    vertex 349.6313856051975 7.867016724575799 7.000000000002144
  endloop
endfacet
facet normal 0.25881904510252063 -0.9659258262890683 0.0
  outer loop
    vertex 347.1682747481604 8.527005289587228 13.000000000002151
    vertex 346.55326331317184 8.272259212200415 7.000000000002144
    vertex 347.1682747481604 8.527005289587228 7.000000000002144
  endloop
endfacet
facet normal 0.500000000000001 -0.866025403784438 -5.838328496102869e-17
  outer loop
    vertex 346.55326331317184 8.272259212200415 7.000000000002144
    vertex 347.1682747481604 8.527005289587228 13.000000000002151
    vertex 346.55326331317184 8.272259212200415 13.000000000002151
  endloop
endfacet
facet normal -1.0 0.0 0.0
  outer loop
    vertex 350.3782633131718 6.063894432550103 13.000000000002151
    vertex 350.29137417020894 5.403905867538675 7.000000000002144
    vertex 350.29137417020894 5.403905867538675 13.000000000002151
  endloop
endfacet
facet normal -0.9659258262890674 0.2588190451025238 0.0
  outer loop
    vertex 350.29137417020894 5.403905867538675 7.000000000002144
    vertex 350.3782633131718 6.063894432550103 13.000000000002151
    vertex 350.3782633131718 6.063894432550103 7.000000000002144
  endloop
endfacet
facet normal -0.2588190451025238 -0.9659258262890674 0.0
  outer loop
    vertex 348.48825187818323 8.527005289587228 13.000000000002151
    vertex 347.8282633131718 8.613894432550099 7.000000000002144
    vertex 348.48825187818323 8.527005289587228 7.000000000002144
  endloop
endfacet
facet normal 0.0 -1.0 0.0
  outer loop
    vertex 347.8282633131718 8.613894432550099 7.000000000002144
    vertex 348.48825187818323 8.527005289587228 13.000000000002151
    vertex 347.8282633131718 8.613894432550099 13.000000000002151
  endloop
endfacet
facet normal -0.49999999999999956 -0.8660254037844388 1.1839840086816865e-16
  outer loop
    vertex 349.1032633131718 8.272259212200415 13.000000000002151
    vertex 348.48825187818323 8.527005289587228 7.000000000002144
    vertex 349.1032633131718 8.272259212200415 7.000000000002144
  endloop
endfacet
facet normal -0.2588190451025238 -0.9659258262890674 0.0
  outer loop
    vertex 348.48825187818323 8.527005289587228 7.000000000002144
    vertex 349.1032633131718 8.272259212200415 13.000000000002151
    vertex 348.48825187818323 8.527005289587228 13.000000000002151
  endloop
endfacet
facet normal -0.7071067811865441 -0.7071067811865511 1.1839840086816901e-16
  outer loop
    vertex 349.6313856051975 7.867016724575799 13.000000000002151
    vertex 349.42826331317184 8.022877941107252 7.000000000002144
    vertex 349.6313856051975 7.867016724575799 7.000000000002144
  endloop
endfacet
facet normal -0.6087614290087093 -0.7933533402912438 2.34770972271245e-16
  outer loop
    vertex 349.42826331317184 8.022877941107252 7.000000000002144
    vertex 349.6313856051975 7.867016724575799 13.000000000002151
    vertex 349.1032633131718 8.272259212200415 7.000000000002144
  endloop
endfacet
facet normal -0.49999999999999956 -0.8660254037844388 1.1839840086816865e-16
  outer loop
    vertex 349.1032633131718 8.272259212200415 7.000000000002144
    vertex 349.6313856051975 7.867016724575799 13.000000000002151
    vertex 349.1032633131718 8.272259212200415 13.000000000002151
  endloop
endfacet
facet normal 0.0 -1.0 0.0
  outer loop
    vertex 347.8282633131718 8.613894432550099 13.000000000002151
    vertex 347.1682747481604 8.527005289587228 7.000000000002144
    vertex 347.8282633131718 8.613894432550099 7.000000000002144
  endloop
endfacet
facet normal 0.25881904510252063 -0.9659258262890683 0.0
  outer loop
    vertex 347.1682747481604 8.527005289587228 7.000000000002144
    vertex 347.8282633131718 8.613894432550099 13.000000000002151
    vertex 347.1682747481604 8.527005289587228 13.000000000002151
  endloop
endfacet
facet normal -0.9659258262890683 -0.25881904510252063 0.0
  outer loop
    vertex 350.29137417020894 6.723882997561531 13.000000000002151
    vertex 350.3782633131718 6.063894432550103 7.000000000002144
    vertex 350.3782633131718 6.063894432550103 13.000000000002151
  endloop
endfacet
facet normal -1.0 0.0 0.0
  outer loop
    vertex 350.3782633131718 6.063894432550103 7.000000000002144
    vertex 350.29137417020894 6.723882997561531 13.000000000002151
    vertex 350.29137417020894 6.723882997561531 7.000000000002144
  endloop
endfacet
facet normal 0.0 0.0 1.0
  outer loop
    vertex 345.3651524561347 5.403905867538675 7.000000000002144
    vertex 345.3651524561347 6.723882997561531 7.000000000002144
    vertex 345.2782633131718 6.063894432550103 7.000000000002144
  endloop
endfacet
facet normal 0.0 0.0 1.0
  outer loop
    vertex 345.3651524561347 6.723882997561531 7.000000000002144
    vertex 345.3651524561347 5.403905867538675 7.000000000002144
    vertex 345.6198985335215 4.7888944325501 7.000000000002144
  endloop
endfacet
facet normal 0.0 0.0 1.0
  outer loop
    vertex 345.3651524561347 6.723882997561531 7.000000000002144
    vertex 345.6198985335215 4.7888944325501 7.000000000002144
    vertex 345.6198985335215 7.338894432550095 7.000000000002144
  endloop
endfacet
facet normal 0.0 0.0 1.0
  outer loop
    vertex 345.6198985335215 7.338894432550095 7.000000000002144
    vertex 345.6198985335215 4.7888944325501 7.000000000002144
    vertex 346.0251410211461 4.260772140524407 7.000000000002144
  endloop
endfacet
facet normal 0.0 0.0 1.0
  outer loop
    vertex 345.6198985335215 7.338894432550095 7.000000000002144
    vertex 346.0251410211461 4.260772140524407 7.000000000002144
    vertex 346.0251410211461 7.867016724575799 7.000000000002144
  endloop
endfacet
facet normal 0.0 0.0 1.0
  outer loop
    vertex 346.0251410211461 7.867016724575799 7.000000000002144
    vertex 346.0251410211461 4.260772140524407 7.000000000002144
    vertex 346.22826331317185 4.104910923992954 7.000000000002144
  endloop
endfacet
facet normal 0.0 0.0 1.0
  outer loop
    vertex 346.0251410211461 7.867016724575799 7.000000000002144
    vertex 346.22826331317185 4.104910923992954 7.000000000002144
    vertex 346.22826331317185 8.022877941107263 7.000000000002144
  endloop
endfacet
facet normal -0.9659258262890674 0.2588190451025238 0.0
  outer loop
    vertex 350.29137417020894 5.403905867538675 13.000000000002151
    vertex 350.0366280928222 4.788894432550111 7.000000000002144
    vertex 350.0366280928222 4.788894432550111 13.000000000002151
  endloop
endfacet
facet normal -0.8660254037844389 0.49999999999999944 0.0
  outer loop
    vertex 350.0366280928222 4.788894432550111 7.000000000002144
    vertex 350.29137417020894 5.403905867538675 13.000000000002151
    vertex 350.29137417020894 5.403905867538675 7.000000000002144
  endloop
endfacet
facet normal 0.0 0.0 -1.0
  outer loop
    vertex 346.52826331317186 8.315560482389644 7.000000000002144
    vertex 346.22826331317185 8.022877941107263 7.000000000002144
    vertex 346.22826331317185 8.08536238599595 7.000000000002144
  endloop
endfacet
facet normal 0.0 0.0 -1.0
  outer loop
    vertex 346.22826331317185 8.022877941107263 7.000000000002144
    vertex 346.52826331317186 8.315560482389644 7.000000000002144
    vertex 346.55326331317184 8.272259212200415 7.000000000002144
  endloop
endfacet
facet normal 0.0 0.0 -1.0
  outer loop
    vertex 346.55326331317184 8.272259212200415 7.000000000002144
    vertex 346.52826331317186 8.315560482389644 7.000000000002144
    vertex 347.1553337959052 8.575301580901677 7.000000000002144
  endloop
endfacet
facet normal 0.0 0.0 -1.0
  outer loop
    vertex 346.55326331317184 8.272259212200415 7.000000000002144
    vertex 347.1553337959052 8.575301580901677 7.000000000002144
    vertex 347.1682747481604 8.527005289587228 7.000000000002144
  endloop
endfacet
facet normal 0.0 0.0 -1.0
  outer loop
    vertex 347.1682747481604 8.527005289587228 7.000000000002144
    vertex 347.1553337959052 8.575301580901677 7.000000000002144
    vertex 347.8282633131718 8.663894432550098 7.000000000002144
  endloop
endfacet
facet normal 0.0 0.0 -1.0
  outer loop
    vertex 347.1682747481604 8.527005289587228 7.000000000002144
    vertex 347.8282633131718 8.663894432550098 7.000000000002144
    vertex 347.8282633131718 8.613894432550099 7.000000000002144
  endloop
endfacet
facet normal 0.0 0.0 -1.0
  outer loop
    vertex 347.8282633131718 8.613894432550099 7.000000000002144
    vertex 347.8282633131718 8.663894432550098 7.000000000002144
    vertex 348.50119283043836 8.575301580901677 7.000000000002144
  endloop
endfacet
facet normal 0.0 0.0 -1.0
  outer loop
    vertex 347.8282633131718 8.613894432550099 7.000000000002144
    vertex 348.50119283043836 8.575301580901677 7.000000000002144
    vertex 348.48825187818323 8.527005289587228 7.000000000002144
  endloop
endfacet
facet normal 0.0 0.0 -1.0
  outer loop
    vertex 348.48825187818323 8.527005289587228 7.000000000002144
    vertex 348.50119283043836 8.575301580901677 7.000000000002144
    vertex 349.1032633131718 8.272259212200415 7.000000000002144
  endloop
endfacet
facet normal 0.0 0.0 -1.0
  outer loop
    vertex 349.1032633131718 8.272259212200415 7.000000000002144
    vertex 348.50119283043836 8.575301580901677 7.000000000002144
    vertex 349.12826331317183 8.315560482389644 7.000000000002144
  endloop
endfacet
facet normal 0.0 0.0 -1.0
  outer loop
    vertex 349.1032633131718 8.272259212200415 7.000000000002144
    vertex 349.12826331317183 8.315560482389644 7.000000000002144
    vertex 349.42826331317184 8.022877941107252 7.000000000002144
  endloop
endfacet
facet normal 0.0 0.0 -1.0
  outer loop
    vertex 349.42826331317184 8.022877941107252 7.000000000002144
    vertex 349.12826331317183 8.315560482389644 7.000000000002144
    vertex 349.42826331317184 8.08536238599595 7.000000000002144
  endloop
endfacet
facet normal 0.0 0.0 -1.0
  outer loop
    vertex 346.55326331317184 3.855529652899791 7.000000000002144
    vertex 346.22826331317185 4.042426479104256 7.000000000002144
    vertex 346.22826331317185 4.104910923992954 7.000000000002144
  endloop
endfacet
facet normal 0.0 0.0 -1.0
  outer loop
    vertex 346.22826331317185 4.042426479104256 7.000000000002144
    vertex 346.55326331317184 3.855529652899791 7.000000000002144
    vertex 346.52826331317186 3.812228382710562 7.000000000002144
  endloop
endfacet
facet normal 0.0 0.0 -1.0
  outer loop
    vertex 346.52826331317186 3.812228382710562 7.000000000002144
    vertex 346.55326331317184 3.855529652899791 7.000000000002144
    vertex 347.1553337959052 3.5524872841985293 7.000000000002144
  endloop
endfacet
facet normal 0.0 0.0 -1.0
  outer loop
    vertex 347.1553337959052 3.5524872841985293 7.000000000002144
    vertex 346.55326331317184 3.855529652899791 7.000000000002144
    vertex 347.1682747481604 3.600783575512979 7.000000000002144
  endloop
endfacet
facet normal 0.0 0.0 -1.0
  outer loop
    vertex 347.1553337959052 3.5524872841985293 7.000000000002144
    vertex 347.1682747481604 3.600783575512979 7.000000000002144
    vertex 347.8282633131718 3.463894432550108 7.000000000002144
  endloop
endfacet
facet normal 0.0 0.0 -1.0
  outer loop
    vertex 347.8282633131718 3.463894432550108 7.000000000002144
    vertex 347.1682747481604 3.600783575512979 7.000000000002144
    vertex 347.8282633131718 3.513894432550108 7.000000000002144
  endloop
endfacet
facet normal 0.0 0.0 -1.0
  outer loop
    vertex 347.8282633131718 3.463894432550108 7.000000000002144
    vertex 347.8282633131718 3.513894432550108 7.000000000002144
    vertex 348.48825187818323 3.600783575512979 7.000000000002144
  endloop
endfacet
facet normal 0.0 0.0 -1.0
  outer loop
    vertex 347.8282633131718 3.463894432550108 7.000000000002144
    vertex 348.48825187818323 3.600783575512979 7.000000000002144
    vertex 348.50119283043836 3.5524872841985293 7.000000000002144
  endloop
endfacet
facet normal 0.0 0.0 -1.0
  outer loop
    vertex 348.50119283043836 3.5524872841985293 7.000000000002144
    vertex 348.48825187818323 3.600783575512979 7.000000000002144
    vertex 349.1032633131718 3.855529652899791 7.000000000002144
  endloop
endfacet
facet normal 0.0 0.0 -1.0
  outer loop
    vertex 348.50119283043836 3.5524872841985293 7.000000000002144
    vertex 349.1032633131718 3.855529652899791 7.000000000002144
    vertex 349.12826331317183 3.812228382710562 7.000000000002144
  endloop
endfacet
facet normal 0.0 0.0 -1.0
  outer loop
    vertex 349.12826331317183 3.812228382710562 7.000000000002144
    vertex 349.1032633131718 3.855529652899791 7.000000000002144
    vertex 349.42826331317184 4.104910923992943 7.000000000002144
  endloop
endfacet
facet normal 0.0 0.0 -1.0
  outer loop
    vertex 349.12826331317183 3.812228382710562 7.000000000002144
    vertex 349.42826331317184 4.104910923992943 7.000000000002144
    vertex 349.42826331317184 4.042426479104256 7.000000000002144
  endloop
endfacet
facet normal 0.9659258262890674 -0.2588190451025238 0.0
  outer loop
    vertex 345.3651524561347 6.723882997561531 7.000000000002144
    vertex 345.2782633131718 6.063894432550103 13.000000000002151
    vertex 345.2782633131718 6.063894432550103 7.000000000002144
  endloop
endfacet
facet normal 1.0 0.0 0.0
  outer loop
    vertex 345.2782633131718 6.063894432550103 13.000000000002151
    vertex 345.3651524561347 6.723882997561531 7.000000000002144
    vertex 345.3651524561347 6.723882997561531 13.000000000002151
  endloop
endfacet
facet normal 0.0 0.0 1.0
  outer loop
    vertex 349.6313856051975 4.260772140524407 7.000000000002144
    vertex 349.42826331317184 8.022877941107252 7.000000000002144
    vertex 349.42826331317184 4.104910923992943 7.000000000002144
  endloop
endfacet
facet normal 0.0 0.0 1.0
  outer loop
    vertex 349.42826331317184 8.022877941107252 7.000000000002144
    vertex 349.6313856051975 4.260772140524407 7.000000000002144
    vertex 349.6313856051975 7.867016724575799 7.000000000002144
  endloop
endfacet
facet normal 0.0 0.0 1.0
  outer loop
    vertex 349.6313856051975 7.867016724575799 7.000000000002144
    vertex 349.6313856051975 4.260772140524407 7.000000000002144
    vertex 350.0366280928222 4.788894432550111 7.000000000002144
  endloop
endfacet
facet normal 0.0 0.0 1.0
  outer loop
    vertex 349.6313856051975 7.867016724575799 7.000000000002144
    vertex 350.0366280928222 4.788894432550111 7.000000000002144
    vertex 350.0366280928222 7.338894432550107 7.000000000002144
  endloop
endfacet
facet normal 0.0 0.0 1.0
  outer loop
    vertex 350.0366280928222 7.338894432550107 7.000000000002144
    vertex 350.0366280928222 4.788894432550111 7.000000000002144
    vertex 350.29137417020894 5.403905867538675 7.000000000002144
  endloop
endfacet
facet normal 0.0 0.0 1.0
  outer loop
    vertex 350.0366280928222 7.338894432550107 7.000000000002144
    vertex 350.29137417020894 5.403905867538675 7.000000000002144
    vertex 350.29137417020894 6.723882997561531 7.000000000002144
  endloop
endfacet
facet normal 0.0 0.0 1.0
  outer loop
    vertex 350.29137417020894 6.723882997561531 7.000000000002144
    vertex 350.29137417020894 5.403905867538675 7.000000000002144
    vertex 350.3782633131718 6.063894432550103 7.000000000002144
  endloop
endfacet
facet normal 0.5000000000000033 -0.8660254037844367 0.0
  outer loop
    vertex 346.52826331317186 8.315560482389644 7.000000000002144
    vertex 346.22826331317185 8.08536238599595 2.1440557662621984e-12
    vertex 346.52826331317186 8.315560482389644 2.1440557662621984e-12
  endloop
endfacet
facet normal 0.6087614290087296 -0.7933533402912283 0.0
  outer loop
    vertex 346.22826331317185 8.08536238599595 2.1440557662621984e-12
    vertex 346.52826331317186 8.315560482389644 7.000000000002144
    vertex 346.22826331317185 8.08536238599595 7.000000000002144
  endloop
endfacet
endsolid Rod-Robin-All-Parts
