solid Rod-Robin-All-Parts
facet normal -1.0 0.0 0.0
  outer loop
    vertex 421.2562629359595 33.063894432550086 6.800000000002116
    vertex 421.2562629359595 31.163894432550055 2.800000000002142
    vertex 421.2562629359595 31.163894432550055 6.800000000002116
  endloop
endfacet
facet normal -1.0 0.0 0.0
  outer loop
    vertex 421.2562629359595 18.963894432550084 6.800000000002116
    vertex 421.2562629359595 17.063894432550075 0.8000000000021412
    vertex 421.2562629359595 17.063894432550075 6.800000000002116
  endloop
endfacet
facet normal -1.0 0.0 0.0
  outer loop
    vertex 421.2562629359595 17.063894432550075 0.8000000000021412
    vertex 421.2562629359595 18.963894432550084 6.800000000002116
    vertex 421.2562629359595 18.963894432550084 2.80000000000212
  endloop
endfacet
facet normal -1.0 0.0 0.0
  outer loop
    vertex 421.2562629359595 17.063894432550075 0.8000000000021412
    vertex 421.2562629359595 18.963894432550084 2.80000000000212
    vertex 421.2562629359595 33.063894432550086 0.8000000000021412
  endloop
endfacet
facet normal -1.0 0.0 0.0
  outer loop
    vertex 421.2562629359595 33.063894432550086 0.8000000000021412
    vertex 421.2562629359595 18.963894432550084 2.80000000000212
    vertex 421.2562629359595 31.163894432550055 2.800000000002142
  endloop
endfacet
facet normal -1.0 0.0 0.0
  outer loop
    vertex 421.2562629359595 33.063894432550086 0.8000000000021412
    vertex 421.2562629359595 31.163894432550055 2.800000000002142
    vertex 421.2562629359595 33.063894432550086 6.800000000002116
  endloop
endfacet
facet normal 1.0 -6.285786369556432e-15 6.684364995669217e-15
  outer loop
    vertex 449.05626293595924 18.963894432550084 6.800000000002116
    vertex 449.05626293595924 17.063894432550075 6.800000000002116
    vertex 449.05626293595924 18.963894432550084 2.800000000002142
  endloop
endfacet
facet normal 1.0 -6.285786369556432e-15 6.684364995669217e-15
  outer loop
    vertex 449.05626293595947 17.063894432550075 0.8000000000021412
    vertex 449.05626293595924 18.963894432550084 2.800000000002142
    vertex 449.05626293595924 17.063894432550075 6.800000000002116
  endloop
endfacet
facet normal 1.0 -6.285786369556432e-15 6.684364995669217e-15
  outer loop
    vertex 449.05626293595924 18.963894432550084 2.800000000002142
    vertex 449.05626293595947 17.063894432550075 0.8000000000021412
    vertex 449.05626293595947 33.063894432550086 0.8000000000021412
  endloop
endfacet
facet normal 1.0 -6.285786369556432e-15 6.684364995669217e-15
  outer loop
    vertex 449.05626293595924 18.963894432550084 2.800000000002142
    vertex 449.05626293595947 33.063894432550086 0.8000000000021412
    vertex 449.05626293595924 31.163894432550055 2.8000000000021648
  endloop
endfacet
facet normal 1.0 -6.285786369556432e-15 6.684364995669217e-15
  outer loop
    vertex 449.05626293595924 31.163894432550055 2.8000000000021648
    vertex 449.05626293595947 33.063894432550086 0.8000000000021412
    vertex 449.05626293595947 31.163894432550055 6.800000000002116
  endloop
endfacet
facet normal 1.0 -6.285786369556432e-15 6.684364995669217e-15
  outer loop
    vertex 449.05626293595947 31.163894432550055 6.800000000002116
    vertex 449.05626293595947 33.063894432550086 0.8000000000021412
    vertex 449.05626293595947 33.063894432550086 6.800000000002116
  endloop
endfacet
facet normal -8.115011460569571e-16 -1.84915834921174e-15 1.0
  outer loop
    vertex 421.2562629359595 18.963894432550084 2.80000000000212
    vertex 429.38849598299305 23.29612747958371 2.8000000000021648
    vertex 421.2562629359595 31.163894432550055 2.800000000002142
  endloop
endfacet
facet normal -8.115011460569571e-16 -1.84915834921174e-15 1.0
  outer loop
    vertex 429.38849598299305 23.29612747958371 2.8000000000021648
    vertex 421.2562629359595 18.963894432550084 2.80000000000212
    vertex 429.9062629359594 22.898830923088976 2.8000000000021252
  endloop
endfacet
facet normal -8.115011460569571e-16 -1.84915834921174e-15 1.0
  outer loop
    vertex 429.9062629359594 22.898830923088976 2.8000000000021252
    vertex 421.2562629359595 18.963894432550084 2.80000000000212
    vertex 430.50921532320314 22.64907986682742 2.8000000000021705
  endloop
endfacet
facet normal -8.115011460569571e-16 -1.84915834921174e-15 1.0
  outer loop
    vertex 430.50921532320314 22.64907986682742 2.8000000000021705
    vertex 421.2562629359595 18.963894432550084 2.80000000000212
    vertex 449.05626293595924 18.963894432550084 2.800000000002142
  endloop
endfacet
facet normal -8.115011460569571e-16 -1.84915834921174e-15 1.0
  outer loop
    vertex 421.2562629359595 31.163894432550055 2.800000000002142
    vertex 429.38849598299305 23.29612747958371 2.8000000000021648
    vertex 428.9911994264983 23.813894432550075 2.8000000000021763
  endloop
endfacet
facet normal -8.115011460569571e-16 -1.84915834921174e-15 1.0
  outer loop
    vertex 421.2562629359595 31.163894432550055 2.800000000002142
    vertex 428.9911994264983 23.813894432550075 2.8000000000021763
    vertex 428.7414483702367 24.416846819793772 2.800000000002131
  endloop
endfacet
facet normal -8.115011460569571e-16 -1.84915834921174e-15 1.0
  outer loop
    vertex 421.2562629359595 31.163894432550055 2.800000000002142
    vertex 428.7414483702367 24.416846819793772 2.800000000002131
    vertex 428.6562629359594 25.063894432550082 2.800000000002131
  endloop
endfacet
facet normal -8.115011460569571e-16 -1.84915834921174e-15 1.0
  outer loop
    vertex 430.50921532320314 22.64907986682742 2.8000000000021705
    vertex 449.05626293595924 18.963894432550084 2.800000000002142
    vertex 431.1562629359594 22.56389443255009 2.800000000002131
  endloop
endfacet
facet normal -8.115011460569571e-16 -1.84915834921174e-15 1.0
  outer loop
    vertex 431.1562629359594 22.56389443255009 2.800000000002131
    vertex 449.05626293595924 18.963894432550084 2.800000000002142
    vertex 431.8033105487158 22.64907986682742 2.8000000000021874
  endloop
endfacet
facet normal -8.115011460569571e-16 -1.84915834921174e-15 1.0
  outer loop
    vertex 431.8033105487158 22.64907986682742 2.8000000000021874
    vertex 449.05626293595924 18.963894432550084 2.800000000002142
    vertex 432.40626293595943 22.898830923088976 2.800000000002148
  endloop
endfacet
facet normal -8.115011460569571e-16 -1.84915834921174e-15 1.0
  outer loop
    vertex 432.40626293595943 22.898830923088976 2.800000000002148
    vertex 449.05626293595924 18.963894432550084 2.800000000002142
    vertex 432.92402988892576 23.29612747958371 2.800000000002148
  endloop
endfacet
facet normal -8.115011460569571e-16 -1.84915834921174e-15 1.0
  outer loop
    vertex 432.92402988892576 23.29612747958371 2.800000000002148
    vertex 449.05626293595924 18.963894432550084 2.800000000002142
    vertex 433.32132644542054 23.813894432550075 2.8000000000021874
  endloop
endfacet
facet normal -8.115011460569571e-16 -1.84915834921174e-15 1.0
  outer loop
    vertex 433.32132644542054 23.813894432550075 2.8000000000021874
    vertex 449.05626293595924 18.963894432550084 2.800000000002142
    vertex 433.571077501682 24.416846819793793 2.8000000000021252
  endloop
endfacet
facet normal -8.115011460569571e-16 -1.84915834921174e-15 1.0
  outer loop
    vertex 433.571077501682 24.416846819793793 2.8000000000021252
    vertex 449.05626293595924 18.963894432550084 2.800000000002142
    vertex 433.6562629359593 25.063894432550082 2.80000000000212
  endloop
endfacet
facet normal -8.115011460569571e-16 -1.84915834921174e-15 1.0
  outer loop
    vertex 421.2562629359595 31.163894432550055 2.800000000002142
    vertex 430.50921532320314 27.47870899827273 2.8000000000021705
    vertex 449.05626293595924 31.163894432550055 2.8000000000021648
  endloop
endfacet
facet normal -8.115011460569571e-16 -1.84915834921174e-15 1.0
  outer loop
    vertex 430.50921532320314 27.47870899827273 2.8000000000021705
    vertex 421.2562629359595 31.163894432550055 2.800000000002142
    vertex 429.9062629359594 27.228957942011174 2.800000000002137
  endloop
endfacet
facet normal -8.115011460569571e-16 -1.84915834921174e-15 1.0
  outer loop
    vertex 429.9062629359594 27.228957942011174 2.800000000002137
    vertex 421.2562629359595 31.163894432550055 2.800000000002142
    vertex 429.38849598299305 26.83166138551644 2.8000000000021648
  endloop
endfacet
facet normal -8.115011460569571e-16 -1.84915834921174e-15 1.0
  outer loop
    vertex 429.38849598299305 26.83166138551644 2.8000000000021648
    vertex 421.2562629359595 31.163894432550055 2.800000000002142
    vertex 428.9911994264983 26.313894432550075 2.8000000000021763
  endloop
endfacet
facet normal -8.115011460569571e-16 -1.84915834921174e-15 1.0
  outer loop
    vertex 428.9911994264983 26.313894432550075 2.8000000000021763
    vertex 421.2562629359595 31.163894432550055 2.800000000002142
    vertex 428.7414483702367 25.71094204530638 2.800000000002131
  endloop
endfacet
facet normal -8.115011460569571e-16 -1.84915834921174e-15 1.0
  outer loop
    vertex 428.7414483702367 25.71094204530638 2.800000000002131
    vertex 421.2562629359595 31.163894432550055 2.800000000002142
    vertex 428.6562629359594 25.063894432550082 2.800000000002131
  endloop
endfacet
facet normal -8.115011460569571e-16 -1.84915834921174e-15 1.0
  outer loop
    vertex 449.05626293595924 31.163894432550055 2.8000000000021648
    vertex 430.50921532320314 27.47870899827273 2.8000000000021705
    vertex 431.1562629359594 27.56389443255006 2.800000000002131
  endloop
endfacet
facet normal -8.115011460569571e-16 -1.84915834921174e-15 1.0
  outer loop
    vertex 449.05626293595924 31.163894432550055 2.8000000000021648
    vertex 431.1562629359594 27.56389443255006 2.800000000002131
    vertex 431.8033105487158 27.47870899827273 2.8000000000021537
  endloop
endfacet
facet normal -8.115011460569571e-16 -1.84915834921174e-15 1.0
  outer loop
    vertex 449.05626293595924 31.163894432550055 2.8000000000021648
    vertex 431.8033105487158 27.47870899827273 2.8000000000021537
    vertex 432.40626293595943 27.228957942011174 2.800000000002148
  endloop
endfacet
facet normal -8.115011460569571e-16 -1.84915834921174e-15 1.0
  outer loop
    vertex 449.05626293595924 31.163894432550055 2.8000000000021648
    vertex 432.40626293595943 27.228957942011174 2.800000000002148
    vertex 432.92402988892576 26.83166138551644 2.800000000002148
  endloop
endfacet
facet normal -8.115011460569571e-16 -1.84915834921174e-15 1.0
  outer loop
    vertex 449.05626293595924 31.163894432550055 2.8000000000021648
    vertex 432.92402988892576 26.83166138551644 2.800000000002148
    vertex 433.32132644542054 26.313894432550075 2.8000000000021874
  endloop
endfacet
facet normal -8.115011460569571e-16 -1.84915834921174e-15 1.0
  outer loop
    vertex 449.05626293595924 31.163894432550055 2.8000000000021648
    vertex 433.32132644542054 26.313894432550075 2.8000000000021874
    vertex 433.571077501682 25.71094204530638 2.8000000000021252
  endloop
endfacet
facet normal -8.115011460569571e-16 -1.84915834921174e-15 1.0
  outer loop
    vertex 449.05626293595924 31.163894432550055 2.8000000000021648
    vertex 433.571077501682 25.71094204530638 2.8000000000021252
    vertex 433.6562629359593 25.063894432550082 2.80000000000212
  endloop
endfacet
facet normal -8.115011460569571e-16 -1.84915834921174e-15 1.0
  outer loop
    vertex 449.05626293595924 31.163894432550055 2.8000000000021648
    vertex 433.6562629359593 25.063894432550082 2.80000000000212
    vertex 449.05626293595924 18.963894432550084 2.800000000002142
  endloop
endfacet
facet normal 0.0 -1.0 0.0
  outer loop
    vertex 449.05626293595924 17.063894432550075 6.800000000002116
    vertex 421.2562629359595 17.063894432550075 0.8000000000021412
    vertex 449.05626293595947 17.063894432550075 0.8000000000021412
  endloop
endfacet
facet normal 0.0 -1.0 0.0
  outer loop
    vertex 421.2562629359595 17.063894432550075 0.8000000000021412
    vertex 449.05626293595924 17.063894432550075 6.800000000002116
    vertex 421.2562629359595 17.063894432550075 6.800000000002116
  endloop
endfacet
facet normal 0.25881904510250503 0.9659258262890725 1.8524858642800402e-18
  outer loop
    vertex 430.50921532320314 22.64907986682742 2.1763091329063397e-12
    vertex 431.1562629359594 22.56389443255009 2.800000000002131
    vertex 431.1562629359594 22.56389443255009 2.1368296021506693e-12
  endloop
endfacet
facet normal 1.696675324131091e-14 1.0 -4.1300839024458074e-19
  outer loop
    vertex 431.1562629359594 22.56389443255009 2.800000000002131
    vertex 430.50921532320314 22.64907986682742 2.1763091329063397e-12
    vertex 430.50921532320314 22.64907986682742 2.8000000000021705
  endloop
endfacet
facet normal 0.8660254037844282 0.5000000000000183 -2.811186565726903e-18
  outer loop
    vertex 428.9911994264983 23.813894432550075 2.1819490658714358e-12
    vertex 429.38849598299305 23.29612747958371 2.8000000000021648
    vertex 429.38849598299305 23.29612747958371 2.170669199941244e-12
  endloop
endfacet
facet normal 0.7071067811865551 0.70710678118654 -1.0070782837716827e-18
  outer loop
    vertex 429.38849598299305 23.29612747958371 2.8000000000021648
    vertex 428.9911994264983 23.813894432550075 2.1819490658714358e-12
    vertex 428.9911994264983 23.813894432550075 2.8000000000021763
  endloop
endfacet
facet normal -0.7071067811865545 -0.7071067811865407 -2.123265353330961e-19
  outer loop
    vertex 432.92402988892576 26.83166138551644 2.800000000002148
    vertex 432.40626293595943 27.228957942011174 2.153749401045957e-12
    vertex 432.92402988892576 26.83166138551644 2.153749401045957e-12
  endloop
endfacet
facet normal -0.5000000000000313 -0.8660254037844205 -1.8798328776333336e-15
  outer loop
    vertex 432.40626293595943 27.228957942011174 2.153749401045957e-12
    vertex 432.92402988892576 26.83166138551644 2.800000000002148
    vertex 432.40626293595943 27.228957942011174 2.800000000002148
  endloop
endfacet
facet normal -1.0 5.524888135301055e-16 8.558852071519269e-19
  outer loop
    vertex 433.6562629359593 25.063894432550082 2.80000000000212
    vertex 433.571077501682 24.416846819793793 2.1311896691855735e-12
    vertex 433.571077501682 24.416846819793793 2.8000000000021252
  endloop
endfacet
facet normal -0.9659258262890857 0.25881904510245585 1.21794556991011e-18
  outer loop
    vertex 433.571077501682 24.416846819793793 2.1311896691855735e-12
    vertex 433.6562629359593 25.063894432550082 2.80000000000212
    vertex 433.6562629359593 25.063894432550082 2.125549736220478e-12
  endloop
endfacet
facet normal -0.9659258262890817 -0.2588190451024701 4.661704466349866e-18
  outer loop
    vertex 433.571077501682 25.71094204530638 2.8000000000021252
    vertex 433.6562629359593 25.063894432550082 2.125549736220478e-12
    vertex 433.6562629359593 25.063894432550082 2.80000000000212
  endloop
endfacet
facet normal -1.0 5.435777036344645e-16 8.558852071519267e-19
  outer loop
    vertex 433.6562629359593 25.063894432550082 2.125549736220478e-12
    vertex 433.571077501682 25.71094204530638 2.8000000000021252
    vertex 433.571077501682 25.71094204530638 2.1311896691855735e-12
  endloop
endfacet
facet normal -0.7071067811865545 -0.7071067811865407 -2.123265353330961e-19
  outer loop
    vertex 432.92402988892576 26.83166138551644 2.800000000002148
    vertex 433.32132644542054 26.313894432550075 2.1932289318016272e-12
    vertex 433.32132644542054 26.313894432550075 2.8000000000021874
  endloop
endfacet
facet normal -0.8660254037844597 -0.49999999999996375 4.021435327440943e-18
  outer loop
    vertex 433.32132644542054 26.313894432550075 2.1932289318016272e-12
    vertex 432.92402988892576 26.83166138551644 2.800000000002148
    vertex 432.92402988892576 26.83166138551644 2.153749401045957e-12
  endloop
endfacet
facet normal -0.25881904510251064 -0.965925826289071 -3.89331583470364e-15
  outer loop
    vertex 431.8033105487158 27.47870899827275 2.1593893340110525e-12
    vertex 431.1562629359594 27.56389443255006 2.800000000002131
    vertex 431.1562629359594 27.56389443255006 2.1368296021506693e-12
  endloop
endfacet
facet normal 1.9123241836057625e-14 -0.9999999999999999 -4.027912583375722e-15
  outer loop
    vertex 431.1562629359594 27.56389443255006 2.800000000002131
    vertex 431.8033105487158 27.47870899827275 2.1593893340110525e-12
    vertex 431.8033105487158 27.47870899827273 2.8000000000021537
  endloop
endfacet
facet normal -0.8660254037844582 -0.4999999999999662 4.021435327440844e-18
  outer loop
    vertex 433.32132644542054 26.313894432550075 2.8000000000021874
    vertex 433.571077501682 25.71094204530638 2.1311896691855735e-12
    vertex 433.571077501682 25.71094204530638 2.8000000000021252
  endloop
endfacet
facet normal -0.9659258262890841 -0.25881904510246173 4.661704466349615e-18
  outer loop
    vertex 433.571077501682 25.71094204530638 2.1311896691855735e-12
    vertex 433.32132644542054 26.313894432550075 2.8000000000021874
    vertex 433.32132644542054 26.313894432550075 2.1932289318016272e-12
  endloop
endfacet
facet normal 1.9123241836057625e-14 -0.9999999999999999 -4.027912583375722e-15
  outer loop
    vertex 431.1562629359594 27.56389443255006 2.800000000002131
    vertex 430.50921532320314 27.47870899827275 2.1763091329063397e-12
    vertex 431.1562629359594 27.56389443255006 2.1368296021506693e-12
  endloop
endfacet
facet normal 0.25881904510250353 -0.9659258262890728 -3.8908571336155736e-15
  outer loop
    vertex 430.50921532320314 27.47870899827275 2.1763091329063397e-12
    vertex 431.1562629359594 27.56389443255006 2.800000000002131
    vertex 430.50921532320314 27.47870899827273 2.8000000000021705
  endloop
endfacet
facet normal 0.0 0.0 1.0
  outer loop
    vertex 449.05626293595947 31.163894432550055 6.800000000002116
    vertex 421.2562629359595 33.063894432550086 6.800000000002116
    vertex 421.2562629359595 31.163894432550055 6.800000000002116
  endloop
endfacet
facet normal 0.0 0.0 1.0
  outer loop
    vertex 421.2562629359595 33.063894432550086 6.800000000002116
    vertex 449.05626293595947 31.163894432550055 6.800000000002116
    vertex 449.05626293595947 33.063894432550086 6.800000000002116
  endloop
endfacet
facet normal 0.0 1.0 0.0
  outer loop
    vertex 421.2562629359595 33.063894432550086 6.800000000002116
    vertex 449.05626293595947 33.063894432550086 0.8000000000021412
    vertex 421.2562629359595 33.063894432550086 0.8000000000021412
  endloop
endfacet
facet normal 0.0 1.0 0.0
  outer loop
    vertex 449.05626293595947 33.063894432550086 0.8000000000021412
    vertex 421.2562629359595 33.063894432550086 6.800000000002116
    vertex 449.05626293595947 33.063894432550086 6.800000000002116
  endloop
endfacet
facet normal 0.0 -1.0 0.0
  outer loop
    vertex 449.05626293595924 31.163894432550055 2.8000000000021648
    vertex 421.2562629359595 31.163894432550055 6.800000000002116
    vertex 421.2562629359595 31.163894432550055 2.800000000002142
  endloop
endfacet
facet normal 0.0 -1.0 0.0
  outer loop
    vertex 421.2562629359595 31.163894432550055 6.800000000002116
    vertex 449.05626293595924 31.163894432550055 2.8000000000021648
    vertex 449.05626293595947 31.163894432550055 6.800000000002116
  endloop
endfacet
facet normal 0.25881904510250353 -0.9659258262890728 -3.8908571336155736e-15
  outer loop
    vertex 430.50921532320314 27.47870899827275 2.1763091329063397e-12
    vertex 429.9062629359594 27.228957942011174 2.800000000002137
    vertex 429.9062629359594 27.228957942011174 2.1368296021506693e-12
  endloop
endfacet
facet normal 0.5000000000000079 -0.866025403784434 -1.8746954709502953e-15
  outer loop
    vertex 429.9062629359594 27.228957942011174 2.800000000002137
    vertex 430.50921532320314 27.47870899827275 2.1763091329063397e-12
    vertex 430.50921532320314 27.47870899827273 2.8000000000021705
  endloop
endfacet
facet normal 0.7071067811865502 0.7071067811865449 -1.0070782837715658e-18
  outer loop
    vertex 429.38849598299305 23.29612747958371 2.170669199941244e-12
    vertex 429.9062629359594 22.898830923088976 2.8000000000021252
    vertex 429.9062629359594 22.898830923088976 2.125549736220478e-12
  endloop
endfacet
facet normal 0.5000000000000009 0.866025403784438 2.762074511649345e-18
  outer loop
    vertex 429.9062629359594 22.898830923088976 2.8000000000021252
    vertex 429.38849598299305 23.29612747958371 2.170669199941244e-12
    vertex 429.38849598299305 23.29612747958371 2.8000000000021648
  endloop
endfacet
facet normal 1.0 -1.7109330999642062e-15 0.0
  outer loop
    vertex 428.6562629359594 25.063894432550082 2.1368296021506693e-12
    vertex 428.7414483702367 24.416846819793772 2.800000000002131
    vertex 428.7414483702367 24.416846819793772 2.1368296021506693e-12
  endloop
endfacet
facet normal 0.9659258262890662 0.2588190451025288 -1.1853134735526889e-18
  outer loop
    vertex 428.7414483702367 24.416846819793772 2.800000000002131
    vertex 428.6562629359594 25.063894432550082 2.1368296021506693e-12
    vertex 428.6562629359594 25.063894432550082 2.800000000002131
  endloop
endfacet
facet normal 0.9659258262890676 0.2588190451025232 -1.1853134735526365e-18
  outer loop
    vertex 428.7414483702367 24.416846819793772 2.1368296021506693e-12
    vertex 428.9911994264983 23.813894432550075 2.8000000000021763
    vertex 428.9911994264983 23.813894432550075 2.1819490658714358e-12
  endloop
endfacet
facet normal 0.8660254037844259 0.5000000000000221 -2.811186565726918e-18
  outer loop
    vertex 428.9911994264983 23.813894432550075 2.8000000000021763
    vertex 428.7414483702367 24.416846819793772 2.1368296021506693e-12
    vertex 428.7414483702367 24.416846819793772 2.800000000002131
  endloop
endfacet
facet normal 0.8660254037844282 -0.5000000000000183 -2.811186565726903e-18
  outer loop
    vertex 428.9911994264983 26.313894432550075 2.1819490658714358e-12
    vertex 428.7414483702367 25.71094204530638 2.800000000002131
    vertex 428.7414483702367 25.71094204530638 2.1368296021506693e-12
  endloop
endfacet
facet normal 0.9659258262890656 -0.2588190451025304 -1.1853134735526883e-18
  outer loop
    vertex 428.7414483702367 25.71094204530638 2.800000000002131
    vertex 428.9911994264983 26.313894432550075 2.1819490658714358e-12
    vertex 428.9911994264983 26.313894432550075 2.8000000000021763
  endloop
endfacet
facet normal 0.9659258262890673 -0.25881904510252485 -1.1853134735526363e-18
  outer loop
    vertex 428.7414483702367 25.71094204530638 2.1368296021506693e-12
    vertex 428.6562629359594 25.063894432550082 2.800000000002131
    vertex 428.6562629359594 25.063894432550082 2.1368296021506693e-12
  endloop
endfacet
facet normal 1.0 -1.7109330999642062e-15 0.0
  outer loop
    vertex 428.6562629359594 25.063894432550082 2.800000000002131
    vertex 428.7414483702367 25.71094204530638 2.1368296021506693e-12
    vertex 428.7414483702367 25.71094204530638 2.800000000002131
  endloop
endfacet
facet normal 0.5000000000000079 -0.866025403784434 -1.8746954709502953e-15
  outer loop
    vertex 429.9062629359594 27.228957942011174 2.800000000002137
    vertex 429.38849598299305 26.83166138551644 2.170669199941244e-12
    vertex 429.9062629359594 27.228957942011174 2.1368296021506693e-12
  endloop
endfacet
facet normal 0.7071067811865507 -0.7071067811865442 1.0616326768561653e-19
  outer loop
    vertex 429.38849598299305 26.83166138551644 2.170669199941244e-12
    vertex 429.9062629359594 27.228957942011174 2.800000000002137
    vertex 429.38849598299305 26.83166138551644 2.8000000000021648
  endloop
endfacet
facet normal 0.7071067811865507 -0.7071067811865442 1.0616326768561653e-19
  outer loop
    vertex 429.38849598299305 26.83166138551644 2.170669199941244e-12
    vertex 428.9911994264983 26.313894432550075 2.8000000000021763
    vertex 428.9911994264983 26.313894432550075 2.1819490658714358e-12
  endloop
endfacet
facet normal 0.8660254037844259 -0.5000000000000221 -2.811186565726918e-18
  outer loop
    vertex 428.9911994264983 26.313894432550075 2.8000000000021763
    vertex 429.38849598299305 26.83166138551644 2.170669199941244e-12
    vertex 429.38849598299305 26.83166138551644 2.8000000000021648
  endloop
endfacet
facet normal -0.2588190451025114 0.9659258262890709 -7.02712550946403e-18
  outer loop
    vertex 431.8033105487158 22.64907986682742 2.1932289318016272e-12
    vertex 432.40626293595943 22.898830923088976 2.800000000002148
    vertex 432.40626293595943 22.898830923088976 2.153749401045957e-12
  endloop
endfacet
facet normal -0.500000000000022 0.8660254037844258 -6.9049109581863254e-18
  outer loop
    vertex 432.40626293595943 22.898830923088976 2.800000000002148
    vertex 431.8033105487158 22.64907986682742 2.1932289318016272e-12
    vertex 431.8033105487158 22.64907986682742 2.8000000000021874
  endloop
endfacet
facet normal -0.9659258262890834 0.25881904510246423 1.2179455699101338e-18
  outer loop
    vertex 433.571077501682 24.416846819793793 2.8000000000021252
    vertex 433.32132644542054 23.813894432550075 2.1932289318016272e-12
    vertex 433.32132644542054 23.813894432550075 2.8000000000021874
  endloop
endfacet
facet normal -0.8660254037844628 0.4999999999999579 5.7767643100096535e-19
  outer loop
    vertex 433.32132644542054 23.813894432550075 2.1932289318016272e-12
    vertex 433.571077501682 24.416846819793793 2.8000000000021252
    vertex 433.571077501682 24.416846819793793 2.1311896691855735e-12
  endloop
endfacet
facet normal -0.500000000000022 0.8660254037844258 -6.9049109581863254e-18
  outer loop
    vertex 432.40626293595943 22.898830923088976 2.800000000002148
    vertex 432.92402988892576 23.29612747958371 2.153749401045957e-12
    vertex 432.40626293595943 22.898830923088976 2.153749401045957e-12
  endloop
endfacet
facet normal -0.707106781186551 0.7071067811865441 -2.1232653533308797e-19
  outer loop
    vertex 432.92402988892576 23.29612747958371 2.153749401045957e-12
    vertex 432.40626293595943 22.898830923088976 2.800000000002148
    vertex 432.92402988892576 23.29612747958371 2.800000000002148
  endloop
endfacet
facet normal 1.696675324131091e-14 1.0 -4.1300839024458074e-19
  outer loop
    vertex 431.1562629359594 22.56389443255009 2.800000000002131
    vertex 431.8033105487158 22.64907986682742 2.1932289318016272e-12
    vertex 431.1562629359594 22.56389443255009 2.1368296021506693e-12
  endloop
endfacet
facet normal -0.2588190451025114 0.9659258262890709 -7.02712550946403e-18
  outer loop
    vertex 431.8033105487158 22.64907986682742 2.1932289318016272e-12
    vertex 431.1562629359594 22.56389443255009 2.800000000002131
    vertex 431.8033105487158 22.64907986682742 2.8000000000021874
  endloop
endfacet
facet normal -0.8660254037844399 -0.4999999999999978 0.0
  outer loop
    vertex 409.50562784134837 12.563894432550073 0.8000000000021356
    vertex 413.47859340629566 7.386224902886379 2.1368296021506693e-12
    vertex 413.47859340629566 7.386224902886379 0.8000000000021356
  endloop
endfacet
facet normal -0.7071067811865454 -0.7071067811865498 0.0
  outer loop
    vertex 413.47859340629566 7.386224902886379 2.1368296021506693e-12
    vertex 409.50562784134837 12.563894432550073 0.8000000000021356
    vertex 409.50562784134837 12.563894432550073 2.1368296021506693e-12
  endloop
endfacet
facet normal -0.4999999999999984 -0.8660254037844397 0.0
  outer loop
    vertex 418.65626293595943 3.4132593379391145 0.8000000000021356
    vertex 413.47859340629566 7.386224902886379 2.1368296021506693e-12
    vertex 418.65626293595943 3.4132593379391145 2.1368296021506693e-12
  endloop
endfacet
facet normal -0.7071067811865454 -0.7071067811865498 0.0
  outer loop
    vertex 413.47859340629566 7.386224902886379 2.1368296021506693e-12
    vertex 418.65626293595943 3.4132593379391145 0.8000000000021356
    vertex 413.47859340629566 7.386224902886379 0.8000000000021356
  endloop
endfacet
facet normal -0.8660254037844395 0.49999999999999856 0.0
  outer loop
    vertex 409.50562784134837 37.563894432550065 0.8000000000021356
    vertex 407.0081172787327 31.534370560113103 2.1368296021506693e-12
    vertex 407.0081172787327 31.534370560113103 0.8000000000021356
  endloop
endfacet
facet normal -0.9659258262890683 0.25881904510252085 0.0
  outer loop
    vertex 407.0081172787327 31.534370560113103 2.1368296021506693e-12
    vertex 409.50562784134837 37.563894432550065 0.8000000000021356
    vertex 409.50562784134837 37.563894432550065 2.1368296021506693e-12
  endloop
endfacet
facet normal 0.0 0.0 -1.0
  outer loop
    vertex 407.0081172787327 31.534370560113103 2.1368296021506693e-12
    vertex 407.0081172787327 18.59341830498706 2.1368296021506693e-12
    vertex 406.1562629359594 25.063894432550082 2.1368296021506693e-12
  endloop
endfacet
facet normal 0.0 0.0 -1.0
  outer loop
    vertex 407.0081172787327 18.59341830498706 2.1368296021506693e-12
    vertex 407.0081172787327 31.534370560113103 2.1368296021506693e-12
    vertex 409.50562784134837 37.563894432550065 2.1368296021506693e-12
  endloop
endfacet
facet normal 0.0 0.0 -1.0
  outer loop
    vertex 407.0081172787327 18.59341830498706 2.1368296021506693e-12
    vertex 409.50562784134837 37.563894432550065 2.1368296021506693e-12
    vertex 409.50562784134837 12.563894432550073 2.1368296021506693e-12
  endloop
endfacet
facet normal 0.0 0.0 -1.0
  outer loop
    vertex 409.50562784134837 12.563894432550073 2.1368296021506693e-12
    vertex 409.50562784134837 37.563894432550065 2.1368296021506693e-12
    vertex 413.47859340629566 42.74156396221375 2.1368296021506693e-12
  endloop
endfacet
facet normal 0.0 0.0 -1.0
  outer loop
    vertex 409.50562784134837 12.563894432550073 2.1368296021506693e-12
    vertex 413.47859340629566 42.74156396221375 2.1368296021506693e-12
    vertex 413.47859340629566 7.386224902886379 2.1368296021506693e-12
  endloop
endfacet
facet normal 0.0 0.0 -1.0
  outer loop
    vertex 413.47859340629566 7.386224902886379 2.1368296021506693e-12
    vertex 413.47859340629566 42.74156396221375 2.1368296021506693e-12
    vertex 418.65626293595943 46.71452952716103 2.1368296021506693e-12
  endloop
endfacet
facet normal 0.0 0.0 -1.0
  outer loop
    vertex 413.47859340629566 7.386224902886379 2.1368296021506693e-12
    vertex 418.65626293595943 46.71452952716103 2.1368296021506693e-12
    vertex 418.65626293595943 3.4132593379391145 2.1368296021506693e-12
  endloop
endfacet
facet normal 0.0 0.0 -1.0
  outer loop
    vertex 418.65626293595943 3.4132593379391145 2.1368296021506693e-12
    vertex 418.65626293595943 46.71452952716103 2.1368296021506693e-12
    vertex 424.68578680839636 49.21204008977674 2.1368296021506693e-12
  endloop
endfacet
facet normal 0.0 0.0 -1.0
  outer loop
    vertex 418.65626293595943 3.4132593379391145 2.1368296021506693e-12
    vertex 424.68578680839636 49.21204008977674 2.1368296021506693e-12
    vertex 424.68578680839636 0.9157487753233683 2.1368296021506693e-12
  endloop
endfacet
facet normal 0.0 0.0 -1.0
  outer loop
    vertex 424.68578680839636 0.9157487753233683 2.1368296021506693e-12
    vertex 424.68578680839636 49.21204008977674 2.1368296021506693e-12
    vertex 431.1562629359594 50.06389443255004 2.1368296021506693e-12
  endloop
endfacet
facet normal 0.0 0.0 -1.0
  outer loop
    vertex 424.68578680839636 0.9157487753233683 2.1368296021506693e-12
    vertex 431.1562629359594 50.06389443255004 2.1368296021506693e-12
    vertex 428.6562629359594 25.063894432550082 2.1368296021506693e-12
  endloop
endfacet
facet normal 0.0 0.0 -1.0
  outer loop
    vertex 428.6562629359594 25.063894432550082 2.1368296021506693e-12
    vertex 431.1562629359594 50.06389443255004 2.1368296021506693e-12
    vertex 428.7414483702367 25.71094204530638 2.1368296021506693e-12
  endloop
endfacet
facet normal 0.0 0.0 -1.0
  outer loop
    vertex 428.7414483702367 25.71094204530638 2.1368296021506693e-12
    vertex 431.1562629359594 50.06389443255004 2.1368296021506693e-12
    vertex 428.9911994264983 26.313894432550075 2.1819490658714358e-12
  endloop
endfacet
facet normal 0.0 0.0 -1.0
  outer loop
    vertex 428.9911994264983 26.313894432550075 2.1819490658714358e-12
    vertex 431.1562629359594 50.06389443255004 2.1368296021506693e-12
    vertex 429.38849598299305 26.83166138551644 2.170669199941244e-12
  endloop
endfacet
facet normal 0.0 0.0 -1.0
  outer loop
    vertex 429.38849598299305 26.83166138551644 2.170669199941244e-12
    vertex 431.1562629359594 50.06389443255004 2.1368296021506693e-12
    vertex 429.9062629359594 27.228957942011174 2.1368296021506693e-12
  endloop
endfacet
facet normal 0.0 0.0 -1.0
  outer loop
    vertex 429.9062629359594 27.228957942011174 2.1368296021506693e-12
    vertex 431.1562629359594 50.06389443255004 2.1368296021506693e-12
    vertex 430.50921532320314 27.47870899827275 2.1763091329063397e-12
  endloop
endfacet
facet normal 0.0 0.0 -1.0
  outer loop
    vertex 430.50921532320314 27.47870899827275 2.1763091329063397e-12
    vertex 431.1562629359594 50.06389443255004 2.1368296021506693e-12
    vertex 431.1562629359594 27.56389443255006 2.1368296021506693e-12
  endloop
endfacet
facet normal 0.0 0.0 -1.0
  outer loop
    vertex 431.1562629359594 27.56389443255006 2.1368296021506693e-12
    vertex 431.1562629359594 50.06389443255004 2.1368296021506693e-12
    vertex 437.62673906352234 49.21204008977674 2.1368296021506693e-12
  endloop
endfacet
facet normal 0.0 0.0 -1.0
  outer loop
    vertex 431.1562629359594 27.56389443255006 2.1368296021506693e-12
    vertex 437.62673906352234 49.21204008977674 2.1368296021506693e-12
    vertex 431.8033105487158 27.47870899827275 2.1593893340110525e-12
  endloop
endfacet
facet normal 0.0 0.0 -1.0
  outer loop
    vertex 431.8033105487158 27.47870899827275 2.1593893340110525e-12
    vertex 437.62673906352234 49.21204008977674 2.1368296021506693e-12
    vertex 432.40626293595943 27.228957942011174 2.153749401045957e-12
  endloop
endfacet
facet normal 0.0 0.0 -1.0
  outer loop
    vertex 432.40626293595943 27.228957942011174 2.153749401045957e-12
    vertex 437.62673906352234 49.21204008977674 2.1368296021506693e-12
    vertex 432.92402988892576 26.83166138551644 2.153749401045957e-12
  endloop
endfacet
facet normal 0.0 0.0 -1.0
  outer loop
    vertex 432.92402988892576 26.83166138551644 2.153749401045957e-12
    vertex 437.62673906352234 49.21204008977674 2.1368296021506693e-12
    vertex 433.32132644542054 26.313894432550075 2.1932289318016272e-12
  endloop
endfacet
facet normal 0.0 0.0 -1.0
  outer loop
    vertex 433.32132644542054 26.313894432550075 2.1932289318016272e-12
    vertex 437.62673906352234 49.21204008977674 2.1368296021506693e-12
    vertex 433.571077501682 25.71094204530638 2.1311896691855735e-12
  endloop
endfacet
facet normal 0.0 0.0 -1.0
  outer loop
    vertex 433.571077501682 25.71094204530638 2.1311896691855735e-12
    vertex 437.62673906352234 49.21204008977674 2.1368296021506693e-12
    vertex 433.6562629359593 25.063894432550082 2.125549736220478e-12
  endloop
endfacet
facet normal 0.0 0.0 -1.0
  outer loop
    vertex 433.6562629359593 25.063894432550082 2.125549736220478e-12
    vertex 437.62673906352234 49.21204008977674 2.1368296021506693e-12
    vertex 437.62673906352217 0.9157487753233683 2.1368296021506693e-12
  endloop
endfacet
facet normal 0.0 0.0 -1.0
  outer loop
    vertex 437.62673906352217 0.9157487753233683 2.1368296021506693e-12
    vertex 437.62673906352234 49.21204008977674 2.1368296021506693e-12
    vertex 443.6562629359592 3.413259337939092 2.1368296021506693e-12
  endloop
endfacet
facet normal 0.0 0.0 -1.0
  outer loop
    vertex 443.6562629359592 3.413259337939092 2.1368296021506693e-12
    vertex 437.62673906352234 49.21204008977674 2.1368296021506693e-12
    vertex 443.6562629359592 46.71452952716103 2.1368296021506693e-12
  endloop
endfacet
facet normal 0.0 0.0 -1.0
  outer loop
    vertex 443.6562629359592 3.413259337939092 2.1368296021506693e-12
    vertex 443.6562629359592 46.71452952716103 2.1368296021506693e-12
    vertex 448.833932465623 42.74156396221375 2.1368296021506693e-12
  endloop
endfacet
facet normal 0.0 0.0 -1.0
  outer loop
    vertex 443.6562629359592 3.413259337939092 2.1368296021506693e-12
    vertex 448.833932465623 42.74156396221375 2.1368296021506693e-12
    vertex 448.833932465623 7.386224902886379 2.1368296021506693e-12
  endloop
endfacet
facet normal 0.0 0.0 -1.0
  outer loop
    vertex 448.833932465623 7.386224902886379 2.1368296021506693e-12
    vertex 448.833932465623 42.74156396221375 2.1368296021506693e-12
    vertex 452.80689803057015 37.563894432550065 2.1368296021506693e-12
  endloop
endfacet
facet normal 0.0 0.0 -1.0
  outer loop
    vertex 448.833932465623 7.386224902886379 2.1368296021506693e-12
    vertex 452.80689803057015 37.563894432550065 2.1368296021506693e-12
    vertex 452.80689803057015 12.56389443255005 2.1368296021506693e-12
  endloop
endfacet
facet normal 0.0 0.0 -1.0
  outer loop
    vertex 452.80689803057015 12.56389443255005 2.1368296021506693e-12
    vertex 452.80689803057015 37.563894432550065 2.1368296021506693e-12
    vertex 455.30440859318594 31.53437056011308 2.1368296021506693e-12
  endloop
endfacet
facet normal 0.0 0.0 -1.0
  outer loop
    vertex 452.80689803057015 12.56389443255005 2.1368296021506693e-12
    vertex 455.30440859318594 31.53437056011308 2.1368296021506693e-12
    vertex 455.30440859318594 18.593418304987036 2.1368296021506693e-12
  endloop
endfacet
facet normal 0.0 0.0 -1.0
  outer loop
    vertex 455.30440859318594 18.593418304987036 2.1368296021506693e-12
    vertex 455.30440859318594 31.53437056011308 2.1368296021506693e-12
    vertex 456.15626293595926 25.063894432550082 2.1368296021506693e-12
  endloop
endfacet
facet normal 0.0 0.0 -1.0
  outer loop
    vertex 428.6562629359594 25.063894432550082 2.1368296021506693e-12
    vertex 431.1562629359594 0.0638944325500689 2.1368296021506693e-12
    vertex 424.68578680839636 0.9157487753233683 2.1368296021506693e-12
  endloop
endfacet
facet normal 0.0 0.0 -1.0
  outer loop
    vertex 431.1562629359594 0.0638944325500689 2.1368296021506693e-12
    vertex 428.6562629359594 25.063894432550082 2.1368296021506693e-12
    vertex 428.7414483702367 24.416846819793772 2.1368296021506693e-12
  endloop
endfacet
facet normal 0.0 0.0 -1.0
  outer loop
    vertex 431.1562629359594 0.0638944325500689 2.1368296021506693e-12
    vertex 428.7414483702367 24.416846819793772 2.1368296021506693e-12
    vertex 428.9911994264983 23.813894432550075 2.1819490658714358e-12
  endloop
endfacet
facet normal 0.0 0.0 -1.0
  outer loop
    vertex 431.1562629359594 0.0638944325500689 2.1368296021506693e-12
    vertex 428.9911994264983 23.813894432550075 2.1819490658714358e-12
    vertex 429.38849598299305 23.29612747958371 2.170669199941244e-12
  endloop
endfacet
facet normal 0.0 0.0 -1.0
  outer loop
    vertex 431.1562629359594 0.0638944325500689 2.1368296021506693e-12
    vertex 429.38849598299305 23.29612747958371 2.170669199941244e-12
    vertex 429.9062629359594 22.898830923088976 2.125549736220478e-12
  endloop
endfacet
facet normal 0.0 0.0 -1.0
  outer loop
    vertex 431.1562629359594 0.0638944325500689 2.1368296021506693e-12
    vertex 429.9062629359594 22.898830923088976 2.125549736220478e-12
    vertex 430.50921532320314 22.64907986682742 2.1763091329063397e-12
  endloop
endfacet
facet normal 0.0 0.0 -1.0
  outer loop
    vertex 431.1562629359594 0.0638944325500689 2.1368296021506693e-12
    vertex 430.50921532320314 22.64907986682742 2.1763091329063397e-12
    vertex 431.1562629359594 22.56389443255009 2.1368296021506693e-12
  endloop
endfacet
facet normal 0.0 0.0 -1.0
  outer loop
    vertex 431.1562629359594 0.0638944325500689 2.1368296021506693e-12
    vertex 431.1562629359594 22.56389443255009 2.1368296021506693e-12
    vertex 431.8033105487158 22.64907986682742 2.1932289318016272e-12
  endloop
endfacet
facet normal 0.0 0.0 -1.0
  outer loop
    vertex 431.1562629359594 0.0638944325500689 2.1368296021506693e-12
    vertex 431.8033105487158 22.64907986682742 2.1932289318016272e-12
    vertex 437.62673906352217 0.9157487753233683 2.1368296021506693e-12
  endloop
endfacet
facet normal 0.0 0.0 -1.0
  outer loop
    vertex 437.62673906352217 0.9157487753233683 2.1368296021506693e-12
    vertex 431.8033105487158 22.64907986682742 2.1932289318016272e-12
    vertex 432.40626293595943 22.898830923088976 2.153749401045957e-12
  endloop
endfacet
facet normal 0.0 0.0 -1.0
  outer loop
    vertex 437.62673906352217 0.9157487753233683 2.1368296021506693e-12
    vertex 432.40626293595943 22.898830923088976 2.153749401045957e-12
    vertex 432.92402988892576 23.29612747958371 2.153749401045957e-12
  endloop
endfacet
facet normal 0.0 0.0 -1.0
  outer loop
    vertex 437.62673906352217 0.9157487753233683 2.1368296021506693e-12
    vertex 432.92402988892576 23.29612747958371 2.153749401045957e-12
    vertex 433.32132644542054 23.813894432550075 2.1932289318016272e-12
  endloop
endfacet
facet normal 0.0 0.0 -1.0
  outer loop
    vertex 437.62673906352217 0.9157487753233683 2.1368296021506693e-12
    vertex 433.32132644542054 23.813894432550075 2.1932289318016272e-12
    vertex 433.571077501682 24.416846819793793 2.1311896691855735e-12
  endloop
endfacet
facet normal 0.0 0.0 -1.0
  outer loop
    vertex 437.62673906352217 0.9157487753233683 2.1368296021506693e-12
    vertex 433.571077501682 24.416846819793793 2.1311896691855735e-12
    vertex 433.6562629359593 25.063894432550082 2.125549736220478e-12
  endloop
endfacet
facet normal -0.25881904510252235 -0.9659258262890679 0.0
  outer loop
    vertex 424.68578680839636 0.9157487753233683 0.8000000000021356
    vertex 418.65626293595943 3.4132593379391145 2.1368296021506693e-12
    vertex 424.68578680839636 0.9157487753233683 2.1368296021506693e-12
  endloop
endfacet
facet normal -0.4999999999999984 -0.8660254037844397 0.0
  outer loop
    vertex 418.65626293595943 3.4132593379391145 2.1368296021506693e-12
    vertex 424.68578680839636 0.9157487753233683 0.8000000000021356
    vertex 418.65626293595943 3.4132593379391145 0.8000000000021356
  endloop
endfacet
facet normal 1.826777528607616e-15 -1.0 0.0
  outer loop
    vertex 431.1562629359594 0.0638944325500689 0.8000000000021356
    vertex 424.68578680839636 0.9157487753233683 2.1368296021506693e-12
    vertex 431.1562629359594 0.0638944325500689 2.1368296021506693e-12
  endloop
endfacet
facet normal -0.25881904510252235 -0.9659258262890679 0.0
  outer loop
    vertex 424.68578680839636 0.9157487753233683 2.1368296021506693e-12
    vertex 431.1562629359594 0.0638944325500689 0.8000000000021356
    vertex 424.68578680839636 0.9157487753233683 0.8000000000021356
  endloop
endfacet
facet normal 0.4999999999999993 0.8660254037844392 0.0
  outer loop
    vertex 443.6562629359592 46.71452952716103 0.8000000000021356
    vertex 448.833932465623 42.74156396221375 2.1368296021506693e-12
    vertex 443.6562629359592 46.71452952716103 2.1368296021506693e-12
  endloop
endfacet
facet normal 0.7071067811865495 0.7071067811865457 0.0
  outer loop
    vertex 448.833932465623 42.74156396221375 2.1368296021506693e-12
    vertex 443.6562629359592 46.71452952716103 0.8000000000021356
    vertex 448.833932465623 42.74156396221375 0.8000000000021356
  endloop
endfacet
facet normal 0.0 0.0 1.0
  outer loop
    vertex 407.0081172787327 18.59341830498706 0.8000000000021356
    vertex 407.0081172787327 31.534370560113103 0.8000000000021356
    vertex 406.1562629359594 25.063894432550082 0.8000000000021356
  endloop
endfacet
facet normal 0.0 0.0 1.0
  outer loop
    vertex 407.0081172787327 31.534370560113103 0.8000000000021356
    vertex 407.0081172787327 18.59341830498706 0.8000000000021356
    vertex 409.50562784134837 12.563894432550073 0.8000000000021356
  endloop
endfacet
facet normal 0.0 0.0 1.0
  outer loop
    vertex 407.0081172787327 31.534370560113103 0.8000000000021356
    vertex 409.50562784134837 12.563894432550073 0.8000000000021356
    vertex 409.50562784134837 37.563894432550065 0.8000000000021356
  endloop
endfacet
facet normal 0.0 0.0 1.0
  outer loop
    vertex 409.50562784134837 37.563894432550065 0.8000000000021356
    vertex 409.50562784134837 12.563894432550073 0.8000000000021356
    vertex 413.47859340629566 7.386224902886379 0.8000000000021356
  endloop
endfacet
facet normal 0.0 0.0 1.0
  outer loop
    vertex 409.50562784134837 37.563894432550065 0.8000000000021356
    vertex 413.47859340629566 7.386224902886379 0.8000000000021356
    vertex 413.47859340629566 42.74156396221375 0.8000000000021356
  endloop
endfacet
facet normal 0.0 0.0 1.0
  outer loop
    vertex 413.47859340629566 42.74156396221375 0.8000000000021356
    vertex 413.47859340629566 7.386224902886379 0.8000000000021356
    vertex 418.65626293595943 3.4132593379391145 0.8000000000021356
  endloop
endfacet
facet normal 0.0 0.0 1.0
  outer loop
    vertex 413.47859340629566 42.74156396221375 0.8000000000021356
    vertex 418.65626293595943 3.4132593379391145 0.8000000000021356
    vertex 418.65626293595943 46.71452952716103 0.8000000000021356
  endloop
endfacet
facet normal 0.0 0.0 1.0
  outer loop
    vertex 418.65626293595943 46.71452952716103 0.8000000000021356
    vertex 418.65626293595943 3.4132593379391145 0.8000000000021356
    vertex 421.2562629359595 17.063894432550075 0.8000000000021412
  endloop
endfacet
facet normal 0.0 0.0 1.0
  outer loop
    vertex 421.2562629359595 17.063894432550075 0.8000000000021412
    vertex 418.65626293595943 3.4132593379391145 0.8000000000021356
    vertex 424.68578680839636 0.9157487753233683 0.8000000000021356
  endloop
endfacet
facet normal 0.0 0.0 1.0
  outer loop
    vertex 421.2562629359595 17.063894432550075 0.8000000000021412
    vertex 424.68578680839636 0.9157487753233683 0.8000000000021356
    vertex 449.05626293595947 17.063894432550075 0.8000000000021412
  endloop
endfacet
facet normal 0.0 0.0 1.0
  outer loop
    vertex 449.05626293595947 17.063894432550075 0.8000000000021412
    vertex 424.68578680839636 0.9157487753233683 0.8000000000021356
    vertex 431.1562629359594 0.0638944325500689 0.8000000000021356
  endloop
endfacet
facet normal 0.0 0.0 1.0
  outer loop
    vertex 449.05626293595947 17.063894432550075 0.8000000000021412
    vertex 431.1562629359594 0.0638944325500689 0.8000000000021356
    vertex 437.62673906352217 0.9157487753233683 0.8000000000021356
  endloop
endfacet
facet normal 0.0 0.0 1.0
  outer loop
    vertex 449.05626293595947 17.063894432550075 0.8000000000021412
    vertex 437.62673906352217 0.9157487753233683 0.8000000000021356
    vertex 443.6562629359592 3.413259337939092 0.8000000000021356
  endloop
endfacet
facet normal 0.0 0.0 1.0
  outer loop
    vertex 449.05626293595947 17.063894432550075 0.8000000000021412
    vertex 443.6562629359592 3.413259337939092 0.8000000000021356
    vertex 448.833932465623 7.386224902886379 0.8000000000021356
  endloop
endfacet
facet normal 0.0 0.0 1.0
  outer loop
    vertex 449.05626293595947 17.063894432550075 0.8000000000021412
    vertex 448.833932465623 7.386224902886379 0.8000000000021356
    vertex 452.80689803057015 12.56389443255005 0.8000000000021356
  endloop
endfacet
facet normal 0.0 0.0 1.0
  outer loop
    vertex 449.05626293595947 17.063894432550075 0.8000000000021412
    vertex 452.80689803057015 12.56389443255005 0.8000000000021356
    vertex 449.05626293595947 33.063894432550086 0.8000000000021412
  endloop
endfacet
facet normal 0.0 0.0 1.0
  outer loop
    vertex 418.65626293595943 46.71452952716103 0.8000000000021356
    vertex 421.2562629359595 33.063894432550086 0.8000000000021412
    vertex 424.68578680839636 49.21204008977674 0.8000000000021356
  endloop
endfacet
facet normal 0.0 0.0 1.0
  outer loop
    vertex 421.2562629359595 33.063894432550086 0.8000000000021412
    vertex 418.65626293595943 46.71452952716103 0.8000000000021356
    vertex 421.2562629359595 17.063894432550075 0.8000000000021412
  endloop
endfacet
facet normal 0.0 0.0 1.0
  outer loop
    vertex 424.68578680839636 49.21204008977674 0.8000000000021356
    vertex 421.2562629359595 33.063894432550086 0.8000000000021412
    vertex 449.05626293595947 33.063894432550086 0.8000000000021412
  endloop
endfacet
facet normal 0.0 0.0 1.0
  outer loop
    vertex 424.68578680839636 49.21204008977674 0.8000000000021356
    vertex 449.05626293595947 33.063894432550086 0.8000000000021412
    vertex 431.1562629359594 50.06389443255004 0.8000000000021356
  endloop
endfacet
facet normal 0.0 0.0 1.0
  outer loop
    vertex 431.1562629359594 50.06389443255004 0.8000000000021356
    vertex 449.05626293595947 33.063894432550086 0.8000000000021412
    vertex 437.62673906352234 49.21204008977674 0.8000000000021356
  endloop
endfacet
facet normal 0.0 0.0 1.0
  outer loop
    vertex 437.62673906352234 49.21204008977674 0.8000000000021356
    vertex 449.05626293595947 33.063894432550086 0.8000000000021412
    vertex 443.6562629359592 46.71452952716103 0.8000000000021356
  endloop
endfacet
facet normal 0.0 0.0 1.0
  outer loop
    vertex 443.6562629359592 46.71452952716103 0.8000000000021356
    vertex 449.05626293595947 33.063894432550086 0.8000000000021412
    vertex 448.833932465623 42.74156396221375 0.8000000000021356
  endloop
endfacet
facet normal 0.0 0.0 1.0
  outer loop
    vertex 448.833932465623 42.74156396221375 0.8000000000021356
    vertex 449.05626293595947 33.063894432550086 0.8000000000021412
    vertex 452.80689803057015 37.563894432550065 0.8000000000021356
  endloop
endfacet
facet normal 0.0 0.0 1.0
  outer loop
    vertex 452.80689803057015 37.563894432550065 0.8000000000021356
    vertex 449.05626293595947 33.063894432550086 0.8000000000021412
    vertex 452.80689803057015 12.56389443255005 0.8000000000021356
  endloop
endfacet
facet normal 0.0 0.0 1.0
  outer loop
    vertex 452.80689803057015 37.563894432550065 0.8000000000021356
    vertex 452.80689803057015 12.56389443255005 0.8000000000021356
    vertex 455.30440859318594 18.593418304987036 0.8000000000021356
  endloop
endfacet
facet normal 0.0 0.0 1.0
  outer loop
    vertex 452.80689803057015 37.563894432550065 0.8000000000021356
    vertex 455.30440859318594 18.593418304987036 0.8000000000021356
    vertex 455.30440859318594 31.53437056011308 0.8000000000021356
  endloop
endfacet
facet normal 0.0 0.0 1.0
  outer loop
    vertex 455.30440859318594 31.53437056011308 0.8000000000021356
    vertex 455.30440859318594 18.593418304987036 0.8000000000021356
    vertex 456.15626293595926 25.063894432550082 0.8000000000021356
  endloop
endfacet
facet normal 0.8660254037844395 0.4999999999999989 0.0
  outer loop
    vertex 452.80689803057015 37.563894432550065 2.1368296021506693e-12
    vertex 455.30440859318594 31.53437056011308 0.8000000000021356
    vertex 455.30440859318594 31.53437056011308 2.1368296021506693e-12
  endloop
endfacet
facet normal 0.9659258262890666 0.25881904510252657 0.0
  outer loop
    vertex 455.30440859318594 31.53437056011308 0.8000000000021356
    vertex 452.80689803057015 37.563894432550065 2.1368296021506693e-12
    vertex 452.80689803057015 37.563894432550065 0.8000000000021356
  endloop
endfacet
facet normal 0.25881904510251996 -0.9659258262890685 0.0
  outer loop
    vertex 437.62673906352217 0.9157487753233683 0.8000000000021356
    vertex 431.1562629359594 0.0638944325500689 2.1368296021506693e-12
    vertex 437.62673906352217 0.9157487753233683 2.1368296021506693e-12
  endloop
endfacet
facet normal 1.826777528607616e-15 -1.0 0.0
  outer loop
    vertex 431.1562629359594 0.0638944325500689 2.1368296021506693e-12
    vertex 437.62673906352217 0.9157487753233683 0.8000000000021356
    vertex 431.1562629359594 0.0638944325500689 0.8000000000021356
  endloop
endfacet
facet normal -1.0 4.455554947823455e-17 0.0
  outer loop
    vertex 406.1562629359594 25.063894432550082 0.8000000000021356
    vertex 407.0081172787327 18.59341830498706 2.1368296021506693e-12
    vertex 407.0081172787327 18.59341830498706 0.8000000000021356
  endloop
endfacet
facet normal -0.9659258262890685 -0.2588190451025202 0.0
  outer loop
    vertex 407.0081172787327 18.59341830498706 2.1368296021506693e-12
    vertex 406.1562629359594 25.063894432550082 0.8000000000021356
    vertex 406.1562629359594 25.063894432550082 2.1368296021506693e-12
  endloop
endfacet
facet normal -0.9659258262890685 -0.2588190451025202 0.0
  outer loop
    vertex 407.0081172787327 18.59341830498706 0.8000000000021356
    vertex 409.50562784134837 12.563894432550073 2.1368296021506693e-12
    vertex 409.50562784134837 12.563894432550073 0.8000000000021356
  endloop
endfacet
facet normal -0.8660254037844399 -0.4999999999999978 0.0
  outer loop
    vertex 409.50562784134837 12.563894432550073 2.1368296021506693e-12
    vertex 407.0081172787327 18.59341830498706 0.8000000000021356
    vertex 407.0081172787327 18.59341830498706 2.1368296021506693e-12
  endloop
endfacet
facet normal 0.7071067811865496 -0.7071067811865456 0.0
  outer loop
    vertex 448.833932465623 7.386224902886379 0.8000000000021356
    vertex 443.6562629359592 3.413259337939092 2.1368296021506693e-12
    vertex 448.833932465623 7.386224902886379 2.1368296021506693e-12
  endloop
endfacet
facet normal 0.49999999999999584 -0.8660254037844412 0.0
  outer loop
    vertex 443.6562629359592 3.413259337939092 2.1368296021506693e-12
    vertex 448.833932465623 7.386224902886379 0.8000000000021356
    vertex 443.6562629359592 3.413259337939092 0.8000000000021356
  endloop
endfacet
facet normal -0.4999999999999969 0.8660254037844405 0.0
  outer loop
    vertex 418.65626293595943 46.71452952716103 0.8000000000021356
    vertex 424.68578680839636 49.21204008977674 2.1368296021506693e-12
    vertex 418.65626293595943 46.71452952716103 2.1368296021506693e-12
  endloop
endfacet
facet normal -0.25881904510252024 0.9659258262890685 0.0
  outer loop
    vertex 424.68578680839636 49.21204008977674 2.1368296021506693e-12
    vertex 418.65626293595943 46.71452952716103 0.8000000000021356
    vertex 424.68578680839636 49.21204008977674 0.8000000000021356
  endloop
endfacet
facet normal 0.2588190451025228 0.9659258262890679 0.0
  outer loop
    vertex 437.62673906352234 49.21204008977674 0.8000000000021356
    vertex 443.6562629359592 46.71452952716103 2.1368296021506693e-12
    vertex 437.62673906352234 49.21204008977674 2.1368296021506693e-12
  endloop
endfacet
facet normal 0.4999999999999993 0.8660254037844392 0.0
  outer loop
    vertex 443.6562629359592 46.71452952716103 2.1368296021506693e-12
    vertex 437.62673906352234 49.21204008977674 0.8000000000021356
    vertex 443.6562629359592 46.71452952716103 0.8000000000021356
  endloop
endfacet
facet normal 0.9659258262890669 -0.25881904510252607 0.0
  outer loop
    vertex 455.30440859318594 18.593418304987036 2.1368296021506693e-12
    vertex 452.80689803057015 12.56389443255005 0.8000000000021356
    vertex 452.80689803057015 12.56389443255005 2.1368296021506693e-12
  endloop
endfacet
facet normal 0.866025403784439 -0.49999999999999944 0.0
  outer loop
    vertex 452.80689803057015 12.56389443255005 0.8000000000021356
    vertex 455.30440859318594 18.593418304987036 2.1368296021506693e-12
    vertex 455.30440859318594 18.593418304987036 0.8000000000021356
  endloop
endfacet
facet normal 1.0 4.901110442605799e-16 0.0
  outer loop
    vertex 456.15626293595926 25.063894432550082 2.1368296021506693e-12
    vertex 455.30440859318594 18.593418304987036 0.8000000000021356
    vertex 455.30440859318594 18.593418304987036 2.1368296021506693e-12
  endloop
endfacet
facet normal 0.9659258262890669 -0.25881904510252607 0.0
  outer loop
    vertex 455.30440859318594 18.593418304987036 0.8000000000021356
    vertex 456.15626293595926 25.063894432550082 2.1368296021506693e-12
    vertex 456.15626293595926 25.063894432550082 0.8000000000021356
  endloop
endfacet
facet normal 0.9659258262890666 0.25881904510252657 0.0
  outer loop
    vertex 455.30440859318594 31.53437056011308 2.1368296021506693e-12
    vertex 456.15626293595926 25.063894432550082 0.8000000000021356
    vertex 456.15626293595926 25.063894432550082 2.1368296021506693e-12
  endloop
endfacet
facet normal 1.0 4.901110442605799e-16 0.0
  outer loop
    vertex 456.15626293595926 25.063894432550082 0.8000000000021356
    vertex 455.30440859318594 31.53437056011308 2.1368296021506693e-12
    vertex 455.30440859318594 31.53437056011308 0.8000000000021356
  endloop
endfacet
facet normal -0.9659258262890683 0.25881904510252085 0.0
  outer loop
    vertex 407.0081172787327 31.534370560113103 0.8000000000021356
    vertex 406.1562629359594 25.063894432550082 2.1368296021506693e-12
    vertex 406.1562629359594 25.063894432550082 0.8000000000021356
  endloop
endfacet
facet normal -1.0 4.455554947823455e-17 0.0
  outer loop
    vertex 406.1562629359594 25.063894432550082 2.1368296021506693e-12
    vertex 407.0081172787327 31.534370560113103 0.8000000000021356
    vertex 407.0081172787327 31.534370560113103 2.1368296021506693e-12
  endloop
endfacet
facet normal -0.7071067811865457 0.7071067811865496 0.0
  outer loop
    vertex 413.47859340629566 42.74156396221375 0.8000000000021356
    vertex 409.50562784134837 37.563894432550065 2.1368296021506693e-12
    vertex 409.50562784134837 37.563894432550065 0.8000000000021356
  endloop
endfacet
facet normal -0.8660254037844395 0.49999999999999856 0.0
  outer loop
    vertex 409.50562784134837 37.563894432550065 2.1368296021506693e-12
    vertex 413.47859340629566 42.74156396221375 0.8000000000021356
    vertex 413.47859340629566 42.74156396221375 2.1368296021506693e-12
  endloop
endfacet
facet normal 0.49999999999999584 -0.8660254037844412 0.0
  outer loop
    vertex 443.6562629359592 3.413259337939092 0.8000000000021356
    vertex 437.62673906352217 0.9157487753233683 2.1368296021506693e-12
    vertex 443.6562629359592 3.413259337939092 2.1368296021506693e-12
  endloop
endfacet
facet normal 0.25881904510251996 -0.9659258262890685 0.0
  outer loop
    vertex 437.62673906352217 0.9157487753233683 2.1368296021506693e-12
    vertex 443.6562629359592 3.413259337939092 0.8000000000021356
    vertex 437.62673906352217 0.9157487753233683 0.8000000000021356
  endloop
endfacet
facet normal 0.0 1.0 0.0
  outer loop
    vertex 431.1562629359594 50.06389443255004 0.8000000000021356
    vertex 437.62673906352234 49.21204008977674 2.1368296021506693e-12
    vertex 431.1562629359594 50.06389443255004 2.1368296021506693e-12
  endloop
endfacet
facet normal 0.2588190451025228 0.9659258262890679 0.0
  outer loop
    vertex 437.62673906352234 49.21204008977674 2.1368296021506693e-12
    vertex 431.1562629359594 50.06389443255004 0.8000000000021356
    vertex 437.62673906352234 49.21204008977674 0.8000000000021356
  endloop
endfacet
facet normal 0.866025403784439 -0.49999999999999944 0.0
  outer loop
    vertex 452.80689803057015 12.56389443255005 2.1368296021506693e-12
    vertex 448.833932465623 7.386224902886379 0.8000000000021356
    vertex 448.833932465623 7.386224902886379 2.1368296021506693e-12
  endloop
endfacet
facet normal 0.7071067811865496 -0.7071067811865456 0.0
  outer loop
    vertex 448.833932465623 7.386224902886379 0.8000000000021356
    vertex 452.80689803057015 12.56389443255005 2.1368296021506693e-12
    vertex 452.80689803057015 12.56389443255005 0.8000000000021356
  endloop
endfacet
facet normal 0.7071067811865495 0.7071067811865457 0.0
  outer loop
    vertex 448.833932465623 42.74156396221375 2.1368296021506693e-12
    vertex 452.80689803057015 37.563894432550065 0.8000000000021356
    vertex 452.80689803057015 37.563894432550065 2.1368296021506693e-12
  endloop
endfacet
facet normal 0.8660254037844395 0.4999999999999989 0.0
  outer loop
    vertex 452.80689803057015 37.563894432550065 0.8000000000021356
    vertex 448.833932465623 42.74156396221375 2.1368296021506693e-12
    vertex 448.833932465623 42.74156396221375 0.8000000000021356
  endloop
endfacet
facet normal -0.5000000000000308 -0.8660254037844209 -1.879832877633344e-15
  outer loop
    vertex 432.40626293595943 27.228957942011174 2.800000000002148
    vertex 431.8033105487158 27.47870899827275 2.1593893340110525e-12
    vertex 432.40626293595943 27.228957942011174 2.153749401045957e-12
  endloop
endfacet
facet normal -0.25881904510251064 -0.965925826289071 -3.89331583470364e-15
  outer loop
    vertex 431.8033105487158 27.47870899827275 2.1593893340110525e-12
    vertex 432.40626293595943 27.228957942011174 2.800000000002148
    vertex 431.8033105487158 27.47870899827273 2.8000000000021537
  endloop
endfacet
facet normal -0.25881904510252024 0.9659258262890685 0.0
  outer loop
    vertex 424.68578680839636 49.21204008977674 0.8000000000021356
    vertex 431.1562629359594 50.06389443255004 2.1368296021506693e-12
    vertex 424.68578680839636 49.21204008977674 2.1368296021506693e-12
  endloop
endfacet
facet normal 0.0 1.0 0.0
  outer loop
    vertex 431.1562629359594 50.06389443255004 2.1368296021506693e-12
    vertex 424.68578680839636 49.21204008977674 0.8000000000021356
    vertex 431.1562629359594 50.06389443255004 0.8000000000021356
  endloop
endfacet
facet normal -0.7071067811865457 0.7071067811865496 0.0
  outer loop
    vertex 413.47859340629566 42.74156396221375 0.8000000000021356
    vertex 418.65626293595943 46.71452952716103 2.1368296021506693e-12
    vertex 413.47859340629566 42.74156396221375 2.1368296021506693e-12
  endloop
endfacet
facet normal -0.4999999999999969 0.8660254037844405 0.0
  outer loop
    vertex 418.65626293595943 46.71452952716103 2.1368296021506693e-12
    vertex 413.47859340629566 42.74156396221375 0.8000000000021356
    vertex 418.65626293595943 46.71452952716103 0.8000000000021356
  endloop
endfacet
facet normal 0.0 1.0 0.0
  outer loop
    vertex 421.2562629359595 18.963894432550084 6.800000000002116
    vertex 449.05626293595924 18.963894432550084 2.800000000002142
    vertex 421.2562629359595 18.963894432550084 2.80000000000212
  endloop
endfacet
facet normal 0.0 1.0 0.0
  outer loop
    vertex 449.05626293595924 18.963894432550084 2.800000000002142
    vertex 421.2562629359595 18.963894432550084 6.800000000002116
    vertex 449.05626293595924 18.963894432550084 6.800000000002116
  endloop
endfacet
facet normal -0.8660254037844614 0.49999999999996037 5.776764310009431e-19
  outer loop
    vertex 433.32132644542054 23.813894432550075 2.8000000000021874
    vertex 432.92402988892576 23.29612747958371 2.153749401045957e-12
    vertex 432.92402988892576 23.29612747958371 2.800000000002148
  endloop
endfacet
facet normal -0.707106781186551 0.7071067811865441 -2.1232653533308797e-19
  outer loop
    vertex 432.92402988892576 23.29612747958371 2.153749401045957e-12
    vertex 433.32132644542054 23.813894432550075 2.8000000000021874
    vertex 433.32132644542054 23.813894432550075 2.1932289318016272e-12
  endloop
endfacet
facet normal 0.0 0.0 1.0
  outer loop
    vertex 449.05626293595924 17.063894432550075 6.800000000002116
    vertex 421.2562629359595 18.963894432550084 6.800000000002116
    vertex 421.2562629359595 17.063894432550075 6.800000000002116
  endloop
endfacet
facet normal 0.0 0.0 1.0
  outer loop
    vertex 421.2562629359595 18.963894432550084 6.800000000002116
    vertex 449.05626293595924 17.063894432550075 6.800000000002116
    vertex 449.05626293595924 18.963894432550084 6.800000000002116
  endloop
endfacet
facet normal 0.5000000000000009 0.866025403784438 2.762074511649345e-18
  outer loop
    vertex 429.9062629359594 22.898830923088976 2.8000000000021252
    vertex 430.50921532320314 22.64907986682742 2.1763091329063397e-12
    vertex 429.9062629359594 22.898830923088976 2.125549736220478e-12
  endloop
endfacet
facet normal 0.25881904510250503 0.9659258262890725 1.8524858642800402e-18
  outer loop
    vertex 430.50921532320314 22.64907986682742 2.1763091329063397e-12
    vertex 429.9062629359594 22.898830923088976 2.8000000000021252
    vertex 430.50921532320314 22.64907986682742 2.8000000000021705
  endloop
endfacet
endsolid Rod-Robin-All-Parts
