solid Rod-Robin-All-Parts
facet normal 2.1439287699250514e-15 -0.7071067811865697 -0.7071067811865255
  outer loop
    vertex 403.45285546440863 12.278107994923188 8.755356400644231
    vertex 397.45285546440874 11.863894432550088 9.073193645839996
    vertex 397.4528554644085 12.278107994923188 8.755356400644203
  endloop
endfacet
facet normal 2.4883408002803067e-15 -0.4999999999999762 -0.8660254037844525
  outer loop
    vertex 397.45285546440874 11.863894432550088 9.073193645839996
    vertex 403.45285546440863 12.278107994923188 8.755356400644231
    vertex 403.45285546440863 11.863894432550088 9.073193645839995
  endloop
endfacet
facet normal 1.0255595431178888e-15 -0.8660254037844526 -0.4999999999999757
  outer loop
    vertex 403.4528554644085 12.595945240118956 8.341142838271075
    vertex 397.4528554644085 12.278107994923188 8.755356400644203
    vertex 397.4528554644085 12.595945240118956 8.341142838271052
  endloop
endfacet
facet normal 2.143928769925128e-15 -0.7071067811865853 -0.7071067811865096
  outer loop
    vertex 397.4528554644085 12.278107994923188 8.755356400644203
    vertex 403.4528554644085 12.595945240118956 8.341142838271075
    vertex 403.45285546440863 12.278107994923188 8.755356400644231
  endloop
endfacet
facet normal 1.0255595431178888e-15 -0.8660254037844526 -0.4999999999999757
  outer loop
    vertex 403.4528554644085 12.595945240118956 8.341142838271075
    vertex 397.45285546440874 12.795746085128211 7.858780928476162
    vertex 403.4528554644085 12.795746085128211 7.858780928476122
  endloop
endfacet
facet normal -5.195405204188664e-16 -0.9659258262890629 -0.2588190451025408
  outer loop
    vertex 397.45285546440874 12.795746085128211 7.858780928476162
    vertex 403.4528554644085 12.595945240118956 8.341142838271075
    vertex 397.4528554644085 12.595945240118956 8.341142838271052
  endloop
endfacet
facet normal 0.0 1.0 0.0
  outer loop
    vertex 393.45285546440863 6.863894432550075 12.341142838271074
    vertex 397.45285546440863 6.863894432550075 2.1819490658714358e-12
    vertex 393.45285546440863 6.863894432550075 2.1029900043600946e-12
  endloop
endfacet
facet normal 0.0 1.0 0.0
  outer loop
    vertex 397.45285546440863 6.863894432550075 2.1819490658714358e-12
    vertex 393.45285546440863 6.863894432550075 12.341142838271074
    vertex 394.4528554644087 6.863894432550075 13.341142838271102
  endloop
endfacet
facet normal 0.0 1.0 0.0
  outer loop
    vertex 397.45285546440863 6.863894432550075 2.1819490658714358e-12
    vertex 394.4528554644087 6.863894432550075 13.341142838271102
    vertex 397.4528554644085 6.863894432550075 27.00000000000201
  endloop
endfacet
facet normal 0.0 1.0 0.0
  outer loop
    vertex 397.4528554644085 6.863894432550075 27.00000000000201
    vertex 394.4528554644087 6.863894432550075 13.341142838271102
    vertex 394.4528554644085 6.863894432550075 27.000000000001997
  endloop
endfacet
facet normal 1.0 0.0 0.0
  outer loop
    vertex 393.45285546440863 14.863894432550094 2.1029900043600946e-12
    vertex 393.45285546440863 6.863894432550075 12.341142838271074
    vertex 393.45285546440863 6.863894432550075 2.1029900043600946e-12
  endloop
endfacet
facet normal 1.0 0.0 0.0
  outer loop
    vertex 393.45285546440863 6.863894432550075 12.341142838271074
    vertex 393.45285546440863 14.863894432550094 2.1029900043600946e-12
    vertex 393.45285546440863 14.863894432550094 12.341142838271074
  endloop
endfacet
facet normal 4.229934424524412e-15 -5.613999234257609e-15 -1.0
  outer loop
    vertex 403.45285546440863 10.86389443255009 9.341142838271146
    vertex 397.4528554644085 10.346256342345022 9.272994490849214
    vertex 397.4528554644085 10.86389443255009 9.341142838271141
  endloop
endfacet
facet normal 3.7573069041829405e-15 0.2588190451025376 -0.9659258262890636
  outer loop
    vertex 397.4528554644085 10.346256342345022 9.272994490849214
    vertex 403.45285546440863 10.86389443255009 9.341142838271146
    vertex 403.45285546440863 10.346256342345022 9.27299449084926
  endloop
endfacet
facet normal -0.8485979837537617 0.48993827435401077 0.19960448214422544
  outer loop
    vertex 392.38105869468404 6.863894432550075 27.00000000000211
    vertex 387.22062241737495 9.096127479583695 2.114269870290286e-12
    vertex 391.1097097139009 5.207040183057695 27.000000000002064
  endloop
endfacet
facet normal -0.6928773523171098 0.6928773523171092 0.1996044821442249
  outer loop
    vertex 387.22062241737495 9.096127479583695 2.114269870290286e-12
    vertex 392.38105869468404 6.863894432550075 27.00000000000211
    vertex 387.61791897386973 9.613894432550081 2.1593893340110525e-12
  endloop
endfacet
facet normal -0.9464880649720744 0.2536107126549534 0.19960448214422652
  outer loop
    vertex 393.18026207472116 8.793342071729908 27.000000000002146
    vertex 387.61791897386973 9.613894432550081 2.1593893340110525e-12
    vertex 392.38105869468404 6.863894432550075 27.00000000000211
  endloop
endfacet
facet normal -0.8485979837537619 0.48993827435401016 0.1996044821442254
  outer loop
    vertex 387.61791897386973 9.613894432550081 2.1593893340110525e-12
    vertex 393.18026207472116 8.793342071729908 27.000000000002146
    vertex 387.8676700301312 10.216846819793778 2.091710138429903e-12
  endloop
endfacet
facet normal 3.757306904182892e-15 0.25881904510255144 -0.9659258262890602
  outer loop
    vertex 403.45285546440863 10.346256342345022 9.27299449084926
    vertex 397.45285546440874 9.863894432550092 9.073193645839996
    vertex 397.4528554644085 10.346256342345022 9.272994490849214
  endloop
endfacet
facet normal 2.4883408002803008e-15 0.49999999999999023 -0.8660254037844441
  outer loop
    vertex 397.45285546440874 9.863894432550092 9.073193645839996
    vertex 403.45285546440863 10.346256342345022 9.27299449084926
    vertex 403.45285546440863 9.863894432550092 9.073193645839995
  endloop
endfacet
facet normal 2.4883408002803008e-15 0.49999999999999023 -0.8660254037844441
  outer loop
    vertex 397.45285546440874 9.863894432550092 9.073193645839996
    vertex 403.45285546440863 9.44968087017699 8.755356400644231
    vertex 397.4528554644085 9.44968087017699 8.755356400644203
  endloop
endfacet
facet normal 2.1439287699251157e-15 0.7071067811865575 -0.7071067811865375
  outer loop
    vertex 403.45285546440863 9.44968087017699 8.755356400644231
    vertex 397.45285546440874 9.863894432550092 9.073193645839996
    vertex 403.45285546440863 9.863894432550092 9.073193645839995
  endloop
endfacet
facet normal 2.1439287699251927e-15 0.7071067811865732 -0.7071067811865217
  outer loop
    vertex 397.4528554644085 9.44968087017699 8.755356400644203
    vertex 403.4528554644085 9.131843624981201 8.341142838271075
    vertex 397.4528554644085 9.131843624981201 8.341142838271052
  endloop
endfacet
facet normal 1.0255595431179608e-15 0.8660254037844441 -0.4999999999999905
  outer loop
    vertex 403.4528554644085 9.131843624981201 8.341142838271075
    vertex 397.4528554644085 9.44968087017699 8.755356400644203
    vertex 403.45285546440863 9.44968087017699 8.755356400644231
  endloop
endfacet
facet normal -5.195405204188155e-16 0.9659258262890684 -0.2588190451025201
  outer loop
    vertex 397.45285546440874 8.932042779971946 7.858780928476162
    vertex 403.4528554644085 9.131843624981201 8.341142838271075
    vertex 403.4528554644085 8.932042779971946 7.858780928476122
  endloop
endfacet
facet normal 1.0255595431179608e-15 0.8660254037844441 -0.4999999999999905
  outer loop
    vertex 403.4528554644085 9.131843624981201 8.341142838271075
    vertex 397.45285546440874 8.932042779971946 7.858780928476162
    vertex 397.4528554644085 9.131843624981201 8.341142838271052
  endloop
endfacet
facet normal 0.692877352317107 -0.6928773523171116 0.1996044821442267
  outer loop
    vertex 383.68508851144225 12.631661385516441 2.1368296021506693e-12
    vertex 378.52465223413304 14.863894432550094 27.00000000000209
    vertex 383.2877919549475 12.113894432550076 2.148109468080861e-12
  endloop
endfacet
facet normal 0.8485979837537434 -0.48993827435404164 0.1996044821442275
  outer loop
    vertex 378.52465223413304 14.863894432550094 27.00000000000209
    vertex 383.68508851144225 12.631661385516441 2.1368296021506693e-12
    vertex 379.7960012149162 16.520748682042473 27.00000000000212
  endloop
endfacet
facet normal 0.7071067811865425 0.0 -0.7071067811865526
  outer loop
    vertex 394.4528554644087 14.863894432550094 13.341142838271102
    vertex 393.45285546440863 6.863894432550075 12.341142838271074
    vertex 393.45285546440863 14.863894432550094 12.341142838271074
  endloop
endfacet
facet normal 0.7071067811865425 0.0 -0.7071067811865526
  outer loop
    vertex 393.45285546440863 6.863894432550075 12.341142838271074
    vertex 394.4528554644087 14.863894432550094 13.341142838271102
    vertex 394.4528554644087 6.863894432550075 13.341142838271102
  endloop
endfacet
facet normal -4.90115615615403e-16 0.9914448613738132 -0.1305261922200309
  outer loop
    vertex 397.4528554644085 8.863894432550094 7.341142838271105
    vertex 403.4528554644085 8.932042779971946 7.858780928476122
    vertex 403.4528554644085 8.863894432550094 7.341142838271099
  endloop
endfacet
facet normal -5.195405204188154e-16 0.9659258262890688 -0.2588190451025191
  outer loop
    vertex 403.4528554644085 8.932042779971946 7.858780928476122
    vertex 397.4528554644085 8.863894432550094 7.341142838271105
    vertex 397.45285546440874 8.932042779971946 7.858780928476162
  endloop
endfacet
facet normal -5.195405204188663e-16 -0.9659258262890633 -0.2588190451025398
  outer loop
    vertex 403.4528554644085 12.795746085128211 7.858780928476122
    vertex 397.4528554644085 12.863894432550087 7.341142838271105
    vertex 403.4528554644085 12.863894432550087 7.341142838271099
  endloop
endfacet
facet normal -4.901156156155067e-16 -0.9914448613738077 -0.13052619222007342
  outer loop
    vertex 397.4528554644085 12.863894432550087 7.341142838271105
    vertex 403.4528554644085 12.795746085128211 7.858780928476122
    vertex 397.45285546440874 12.795746085128211 7.858780928476162
  endloop
endfacet
facet normal 0.48993827435401305 -0.8485979837537598 0.19960448214422719
  outer loop
    vertex 381.4528554644086 17.792097662825594 27.00000000000201
    vertex 383.68508851144225 12.631661385516441 2.1368296021506693e-12
    vertex 384.2028554644086 13.028957942011173 2.1029900043600946e-12
  endloop
endfacet
facet normal 0.692877352317107 -0.6928773523171116 0.1996044821442267
  outer loop
    vertex 383.68508851144225 12.631661385516441 2.1368296021506693e-12
    vertex 381.4528554644086 17.792097662825594 27.00000000000201
    vertex 379.7960012149162 16.520748682042473 27.00000000000212
  endloop
endfacet
facet normal 0.9464880649720722 0.2536107126549596 0.19960448214422952
  outer loop
    vertex 383.0380408986859 10.216846819793778 2.1029900043600946e-12
    vertex 377.4528554644086 10.863894432550067 27.000000000002064
    vertex 377.7254488540959 8.793342071729908 27.000000000002032
  endloop
endfacet
facet normal 0.9798765487080173 5.16325718696041e-16 0.19960448214422588
  outer loop
    vertex 377.4528554644086 10.863894432550067 27.000000000002064
    vertex 383.0380408986859 10.216846819793778 2.1029900043600946e-12
    vertex 382.9528554644085 10.86389443255009 2.1029900043600946e-12
  endloop
endfacet
facet normal 0.2536107126549621 -0.9464880649720723 0.1996044821442262
  outer loop
    vertex 384.80580785165233 13.278708998272753 2.1368296021506693e-12
    vertex 381.4528554644086 17.792097662825594 27.00000000000201
    vertex 384.2028554644086 13.028957942011173 2.1029900043600946e-12
  endloop
endfacet
facet normal 0.48993827435401305 -0.8485979837537598 0.19960448214422719
  outer loop
    vertex 381.4528554644086 17.792097662825594 27.00000000000201
    vertex 384.80580785165233 13.278708998272753 2.1368296021506693e-12
    vertex 383.38230310358836 18.59130104286261 27.000000000002043
  endloop
endfacet
facet normal 0.9798765487080174 3.6803456732448225e-16 0.1996044821442259
  outer loop
    vertex 382.9528554644085 10.86389443255009 2.1029900043600946e-12
    vertex 377.7254488540959 12.934446793370249 27.000000000002032
    vertex 377.4528554644086 10.863894432550067 27.000000000002064
  endloop
endfacet
facet normal 0.9464880649720717 -0.25361071265496116 0.19960448214422957
  outer loop
    vertex 377.7254488540959 12.934446793370249 27.000000000002032
    vertex 382.9528554644085 10.86389443255009 2.1029900043600946e-12
    vertex 383.0380408986859 11.510942045306379 2.1029900043600946e-12
  endloop
endfacet
facet normal 0.0 1.0 0.0
  outer loop
    vertex 375.4528554644087 16.86389443255007 13.50000000000213
    vertex 403.45285546440863 16.86389443255007 2.1368296021506693e-12
    vertex 375.4528554644087 16.86389443255007 2.125549736220478e-12
  endloop
endfacet
facet normal 0.0 1.0 0.0
  outer loop
    vertex 403.45285546440863 16.86389443255007 2.1368296021506693e-12
    vertex 375.4528554644087 16.86389443255007 13.50000000000213
    vertex 403.45285546440863 16.86389443255007 13.500000000002153
  endloop
endfacet
facet normal -0.2536107126549553 0.9464880649720743 0.1996044821442252
  outer loop
    vertex 386.09990307716487 8.449079866827404 2.1593893340110525e-12
    vertex 389.45285546440863 3.9356912022745654 27.000000000002156
    vertex 386.7028554644086 8.698830923088984 2.114269870290286e-12
  endloop
endfacet
facet normal -0.48993827435400567 0.8485979837537644 0.1996044821442263
  outer loop
    vertex 389.45285546440863 3.9356912022745654 27.000000000002156
    vertex 386.09990307716487 8.449079866827404 2.1593893340110525e-12
    vertex 387.5234078252287 3.136487822237547 27.000000000002064
  endloop
endfacet
facet normal -0.9798765487080172 -7.246676753628602e-16 0.19960448214422627
  outer loop
    vertex 393.4528554644085 10.86389443255009 27.00000000000212
    vertex 387.8676700301312 10.216846819793778 2.091710138429903e-12
    vertex 393.18026207472116 8.793342071729908 27.000000000002146
  endloop
endfacet
facet normal -0.9464880649720757 0.25361071265494867 0.19960448214422652
  outer loop
    vertex 387.8676700301312 10.216846819793778 2.091710138429903e-12
    vertex 393.4528554644085 10.86389443255009 27.00000000000212
    vertex 387.9528554644085 10.86389443255009 2.091710138429903e-12
  endloop
endfacet
facet normal -0.9464880649720746 -0.25361071265495294 0.19960448214422657
  outer loop
    vertex 393.18026207472116 12.934446793370249 27.000000000002146
    vertex 387.9528554644085 10.86389443255009 2.091710138429903e-12
    vertex 393.4528554644085 10.86389443255009 27.00000000000212
  endloop
endfacet
facet normal -0.9798765487080172 -7.798827736161689e-16 0.19960448214422624
  outer loop
    vertex 387.9528554644085 10.86389443255009 2.091710138429903e-12
    vertex 393.18026207472116 12.934446793370249 27.000000000002146
    vertex 387.8676700301312 11.510942045306379 2.091710138429903e-12
  endloop
endfacet
facet normal 2.1649446801465573e-15 -0.9798765487080173 0.19960448214422566
  outer loop
    vertex 385.45285546440846 18.863894432550065 27.000000000002032
    vertex 384.80580785165233 13.278708998272753 2.1368296021506693e-12
    vertex 385.4528554644086 13.363894432550085 2.1029900043600946e-12
  endloop
endfacet
facet normal 0.2536107126549621 -0.9464880649720723 0.1996044821442262
  outer loop
    vertex 384.80580785165233 13.278708998272753 2.1368296021506693e-12
    vertex 385.45285546440846 18.863894432550065 27.000000000002032
    vertex 383.38230310358836 18.59130104286261 27.000000000002043
  endloop
endfacet
facet normal 0.8485979837537445 -0.48993827435403964 0.19960448214422752
  outer loop
    vertex 383.2877919549475 12.113894432550076 2.148109468080861e-12
    vertex 377.7254488540959 12.934446793370249 27.000000000002032
    vertex 383.0380408986859 11.510942045306379 2.1029900043600946e-12
  endloop
endfacet
facet normal 0.9464880649720717 -0.25361071265496116 0.19960448214422957
  outer loop
    vertex 377.7254488540959 12.934446793370249 27.000000000002032
    vertex 383.2877919549475 12.113894432550076 2.148109468080861e-12
    vertex 378.52465223413304 14.863894432550094 27.00000000000209
  endloop
endfacet
facet normal -0.9464880649720746 -0.25361071265495294 0.19960448214422657
  outer loop
    vertex 393.18026207472116 12.934446793370249 27.000000000002146
    vertex 387.61791897386973 12.113894432550076 2.1593893340110525e-12
    vertex 387.8676700301312 11.510942045306379 2.091710138429903e-12
  endloop
endfacet
facet normal -0.8485979837537665 -0.4899382743540022 0.19960448214422585
  outer loop
    vertex 387.61791897386973 12.113894432550076 2.1593893340110525e-12
    vertex 393.18026207472116 12.934446793370249 27.000000000002146
    vertex 392.38105869468404 14.863894432550094 27.00000000000211
  endloop
endfacet
facet normal -0.848597983753766 -0.48993827435400295 0.19960448214422585
  outer loop
    vertex 392.38105869468404 14.863894432550094 27.00000000000211
    vertex 387.22062241737495 12.631661385516441 2.114269870290286e-12
    vertex 387.61791897386973 12.113894432550076 2.1593893340110525e-12
  endloop
endfacet
facet normal -0.6928773523171103 -0.6928773523171082 0.19960448214422644
  outer loop
    vertex 387.22062241737495 12.631661385516441 2.114269870290286e-12
    vertex 392.38105869468404 14.863894432550094 27.00000000000211
    vertex 391.10970971390094 16.520748682042473 27.000000000002064
  endloop
endfacet
facet normal -0.6928773523171117 -0.6928773523171067 0.1996044821442264
  outer loop
    vertex 391.10970971390094 16.520748682042473 27.000000000002064
    vertex 386.7028554644086 13.028957942011173 2.114269870290286e-12
    vertex 387.22062241737495 12.631661385516441 2.114269870290286e-12
  endloop
endfacet
facet normal -0.48993827435400056 -0.8485979837537674 0.1996044821442266
  outer loop
    vertex 386.7028554644086 13.028957942011173 2.114269870290286e-12
    vertex 391.10970971390094 16.520748682042473 27.000000000002064
    vertex 389.45285546440863 17.792097662825594 27.000000000002156
  endloop
endfacet
facet normal 1.0 -2.3747086168824384e-15 9.016153427187694e-16
  outer loop
    vertex 403.45285546440863 8.863894432550094 2.125549736220478e-12
    vertex 403.45285546440863 4.863894432550079 13.500000000002164
    vertex 403.45285546440863 4.863894432550079 2.114269870290286e-12
  endloop
endfacet
facet normal 1.0 -2.3747086168824384e-15 9.016153427187694e-16
  outer loop
    vertex 403.45285546440863 16.86389443255007 2.1368296021506693e-12
    vertex 403.4528554644085 12.863894432550087 7.341142838271099
    vertex 403.45285546440863 12.863894432550087 2.1368296021506693e-12
  endloop
endfacet
facet normal 1.0 -2.3747086168824384e-15 9.016153427187694e-16
  outer loop
    vertex 403.45285546440863 4.863894432550079 13.500000000002164
    vertex 403.45285546440863 20.86389443255006 27.00000000000212
    vertex 403.4528554644085 0.863894432550097 27.00000000000213
  endloop
endfacet
facet normal 1.0 -2.3747086168824384e-15 9.016153427187694e-16
  outer loop
    vertex 403.45285546440863 20.86389443255006 27.00000000000212
    vertex 403.45285546440863 4.863894432550079 13.500000000002164
    vertex 403.4528554644085 9.131843624981201 8.341142838271075
  endloop
endfacet
facet normal 1.0 -2.3747086168824384e-15 9.016153427187694e-16
  outer loop
    vertex 403.4528554644085 9.131843624981201 8.341142838271075
    vertex 403.45285546440863 4.863894432550079 13.500000000002164
    vertex 403.4528554644085 8.932042779971946 7.858780928476122
  endloop
endfacet
facet normal 1.0 -2.3747086168824384e-15 9.016153427187694e-16
  outer loop
    vertex 403.4528554644085 8.932042779971946 7.858780928476122
    vertex 403.45285546440863 4.863894432550079 13.500000000002164
    vertex 403.4528554644085 8.863894432550094 7.341142838271099
  endloop
endfacet
facet normal 1.0 -2.3747086168824384e-15 9.016153427187694e-16
  outer loop
    vertex 403.4528554644085 8.863894432550094 7.341142838271099
    vertex 403.45285546440863 4.863894432550079 13.500000000002164
    vertex 403.45285546440863 8.863894432550094 2.125549736220478e-12
  endloop
endfacet
facet normal 1.0 -2.3747086168824384e-15 9.016153427187694e-16
  outer loop
    vertex 403.45285546440863 20.86389443255006 27.00000000000212
    vertex 403.4528554644085 9.131843624981201 8.341142838271075
    vertex 403.45285546440863 9.44968087017699 8.755356400644231
  endloop
endfacet
facet normal 1.0 -2.3747086168824384e-15 9.016153427187694e-16
  outer loop
    vertex 403.45285546440863 20.86389443255006 27.00000000000212
    vertex 403.45285546440863 9.44968087017699 8.755356400644231
    vertex 403.45285546440863 9.863894432550092 9.073193645839995
  endloop
endfacet
facet normal 1.0 -2.3747086168824384e-15 9.016153427187694e-16
  outer loop
    vertex 403.45285546440863 20.86389443255006 27.00000000000212
    vertex 403.45285546440863 9.863894432550092 9.073193645839995
    vertex 403.45285546440863 10.346256342345022 9.27299449084926
  endloop
endfacet
facet normal 1.0 -2.3747086168824384e-15 9.016153427187694e-16
  outer loop
    vertex 403.45285546440863 20.86389443255006 27.00000000000212
    vertex 403.45285546440863 10.346256342345022 9.27299449084926
    vertex 403.45285546440863 10.86389443255009 9.341142838271146
  endloop
endfacet
facet normal 1.0 -2.3747086168824384e-15 9.016153427187694e-16
  outer loop
    vertex 403.45285546440863 20.86389443255006 27.00000000000212
    vertex 403.45285546440863 10.86389443255009 9.341142838271146
    vertex 403.45285546440863 11.381532522755114 9.27299449084926
  endloop
endfacet
facet normal 1.0 -2.3747086168824384e-15 9.016153427187694e-16
  outer loop
    vertex 403.45285546440863 20.86389443255006 27.00000000000212
    vertex 403.45285546440863 11.381532522755114 9.27299449084926
    vertex 403.45285546440863 11.863894432550088 9.073193645839995
  endloop
endfacet
facet normal 1.0 -2.3747086168824384e-15 9.016153427187694e-16
  outer loop
    vertex 403.45285546440863 20.86389443255006 27.00000000000212
    vertex 403.45285546440863 11.863894432550088 9.073193645839995
    vertex 403.45285546440863 12.278107994923188 8.755356400644231
  endloop
endfacet
facet normal 1.0 -2.3747086168824384e-15 9.016153427187694e-16
  outer loop
    vertex 403.45285546440863 20.86389443255006 27.00000000000212
    vertex 403.45285546440863 12.278107994923188 8.755356400644231
    vertex 403.4528554644085 12.595945240118956 8.341142838271075
  endloop
endfacet
facet normal 1.0 -2.3747086168824384e-15 9.016153427187694e-16
  outer loop
    vertex 403.45285546440863 20.86389443255006 27.00000000000212
    vertex 403.4528554644085 12.595945240118956 8.341142838271075
    vertex 403.4528554644085 12.795746085128211 7.858780928476122
  endloop
endfacet
facet normal 1.0 -2.3747086168824384e-15 9.016153427187694e-16
  outer loop
    vertex 403.45285546440863 20.86389443255006 27.00000000000212
    vertex 403.4528554644085 12.795746085128211 7.858780928476122
    vertex 403.4528554644085 12.863894432550087 7.341142838271099
  endloop
endfacet
facet normal 1.0 -2.3747086168824384e-15 9.016153427187694e-16
  outer loop
    vertex 403.45285546440863 20.86389443255006 27.00000000000212
    vertex 403.4528554644085 12.863894432550087 7.341142838271099
    vertex 403.45285546440863 16.86389443255007 13.500000000002153
  endloop
endfacet
facet normal 1.0 -2.3747086168824384e-15 9.016153427187694e-16
  outer loop
    vertex 403.45285546440863 16.86389443255007 13.500000000002153
    vertex 403.4528554644085 12.863894432550087 7.341142838271099
    vertex 403.45285546440863 16.86389443255007 2.1368296021506693e-12
  endloop
endfacet
facet normal -1.0 1.3116123174641406e-15 -5.848819371210452e-15
  outer loop
    vertex 375.4528554644085 20.86389443255006 27.00000000000211
    vertex 375.4528554644087 4.863894432550079 13.500000000002135
    vertex 375.45285546440846 0.863894432550097 27.00000000000211
  endloop
endfacet
facet normal -1.0 1.3116123174641406e-15 -5.848819371210452e-15
  outer loop
    vertex 375.4528554644087 4.863894432550079 13.500000000002135
    vertex 375.4528554644085 20.86389443255006 27.00000000000211
    vertex 375.4528554644087 4.863894432550079 2.1029900043600946e-12
  endloop
endfacet
facet normal -1.0 1.3116123174641406e-15 -5.848819371210452e-15
  outer loop
    vertex 375.4528554644087 4.863894432550079 2.1029900043600946e-12
    vertex 375.4528554644085 20.86389443255006 27.00000000000211
    vertex 375.4528554644087 16.86389443255007 13.50000000000213
  endloop
endfacet
facet normal -1.0 1.3116123174641406e-15 -5.848819371210452e-15
  outer loop
    vertex 375.4528554644087 16.86389443255007 2.125549736220478e-12
    vertex 375.4528554644087 4.863894432550079 2.1029900043600946e-12
    vertex 375.4528554644087 16.86389443255007 13.50000000000213
  endloop
endfacet
facet normal -6.042785319745479e-16 2.819966482547923e-16 1.0
  outer loop
    vertex 375.45285546440846 0.863894432550097 27.00000000000211
    vertex 377.7254488540959 8.793342071729908 27.000000000002032
    vertex 375.4528554644085 20.86389443255006 27.00000000000211
  endloop
endfacet
facet normal -6.042785319745479e-16 2.819966482547923e-16 1.0
  outer loop
    vertex 377.7254488540959 8.793342071729908 27.000000000002032
    vertex 375.45285546440846 0.863894432550097 27.00000000000211
    vertex 378.52465223413304 6.863894432550075 27.0000000000021
  endloop
endfacet
facet normal -6.042785319745479e-16 2.819966482547923e-16 1.0
  outer loop
    vertex 378.52465223413304 6.863894432550075 27.0000000000021
    vertex 375.45285546440846 0.863894432550097 27.00000000000211
    vertex 379.7960012149162 5.207040183057695 27.00000000000211
  endloop
endfacet
facet normal -6.042785319745479e-16 2.819966482547923e-16 1.0
  outer loop
    vertex 379.7960012149162 5.207040183057695 27.00000000000211
    vertex 375.45285546440846 0.863894432550097 27.00000000000211
    vertex 381.4528554644086 3.9356912022745654 27.00000000000201
  endloop
endfacet
facet normal -6.042785319745479e-16 2.819966482547923e-16 1.0
  outer loop
    vertex 381.4528554644086 3.9356912022745654 27.00000000000201
    vertex 375.45285546440846 0.863894432550097 27.00000000000211
    vertex 383.38230310358836 3.136487822237547 27.000000000002043
  endloop
endfacet
facet normal -6.042785319745479e-16 2.819966482547923e-16 1.0
  outer loop
    vertex 383.38230310358836 3.136487822237547 27.000000000002043
    vertex 375.45285546440846 0.863894432550097 27.00000000000211
    vertex 385.4528554644086 2.8638944325500932 27.000000000002032
  endloop
endfacet
facet normal -6.042785319745479e-16 2.819966482547923e-16 1.0
  outer loop
    vertex 385.4528554644086 2.8638944325500932 27.000000000002032
    vertex 375.45285546440846 0.863894432550097 27.00000000000211
    vertex 403.4528554644085 0.863894432550097 27.00000000000213
  endloop
endfacet
facet normal -6.042785319745479e-16 2.819966482547923e-16 1.0
  outer loop
    vertex 375.4528554644085 20.86389443255006 27.00000000000211
    vertex 377.7254488540959 8.793342071729908 27.000000000002032
    vertex 377.4528554644086 10.863894432550067 27.000000000002064
  endloop
endfacet
facet normal -6.042785319745479e-16 2.819966482547923e-16 1.0
  outer loop
    vertex 385.4528554644086 2.8638944325500932 27.000000000002032
    vertex 403.4528554644085 0.863894432550097 27.00000000000213
    vertex 387.5234078252287 3.136487822237547 27.000000000002064
  endloop
endfacet
facet normal -6.042785319745479e-16 2.819966482547923e-16 1.0
  outer loop
    vertex 387.5234078252287 3.136487822237547 27.000000000002064
    vertex 403.4528554644085 0.863894432550097 27.00000000000213
    vertex 389.45285546440863 3.9356912022745654 27.000000000002156
  endloop
endfacet
facet normal -6.042785319745479e-16 2.819966482547923e-16 1.0
  outer loop
    vertex 389.45285546440863 3.9356912022745654 27.000000000002156
    vertex 403.4528554644085 0.863894432550097 27.00000000000213
    vertex 391.1097097139009 5.207040183057695 27.000000000002064
  endloop
endfacet
facet normal -6.042785319745479e-16 2.819966482547923e-16 1.0
  outer loop
    vertex 391.1097097139009 5.207040183057695 27.000000000002064
    vertex 403.4528554644085 0.863894432550097 27.00000000000213
    vertex 392.38105869468404 6.863894432550075 27.00000000000211
  endloop
endfacet
facet normal -6.042785319745479e-16 2.819966482547923e-16 1.0
  outer loop
    vertex 392.38105869468404 6.863894432550075 27.00000000000211
    vertex 403.4528554644085 0.863894432550097 27.00000000000213
    vertex 394.4528554644085 6.863894432550075 27.000000000001997
  endloop
endfacet
facet normal -6.042785319745479e-16 2.819966482547923e-16 1.0
  outer loop
    vertex 392.38105869468404 6.863894432550075 27.00000000000211
    vertex 394.4528554644085 6.863894432550075 27.000000000001997
    vertex 393.18026207472116 8.793342071729908 27.000000000002146
  endloop
endfacet
facet normal -6.042785319745479e-16 2.819966482547923e-16 1.0
  outer loop
    vertex 393.18026207472116 8.793342071729908 27.000000000002146
    vertex 394.4528554644085 6.863894432550075 27.000000000001997
    vertex 393.4528554644085 10.86389443255009 27.00000000000212
  endloop
endfacet
facet normal -6.042785319745479e-16 2.819966482547923e-16 1.0
  outer loop
    vertex 394.4528554644085 6.863894432550075 27.000000000001997
    vertex 403.4528554644085 0.863894432550097 27.00000000000213
    vertex 397.4528554644085 6.863894432550075 27.00000000000201
  endloop
endfacet
facet normal -6.042785319745479e-16 2.819966482547923e-16 1.0
  outer loop
    vertex 397.4528554644085 6.863894432550075 27.00000000000201
    vertex 403.4528554644085 0.863894432550097 27.00000000000213
    vertex 397.4528554644085 14.863894432550094 27.00000000000201
  endloop
endfacet
facet normal -6.042785319745479e-16 2.819966482547923e-16 1.0
  outer loop
    vertex 375.4528554644085 20.86389443255006 27.00000000000211
    vertex 385.45285546440846 18.863894432550065 27.000000000002032
    vertex 403.45285546440863 20.86389443255006 27.00000000000212
  endloop
endfacet
facet normal -6.042785319745479e-16 2.819966482547923e-16 1.0
  outer loop
    vertex 385.45285546440846 18.863894432550065 27.000000000002032
    vertex 375.4528554644085 20.86389443255006 27.00000000000211
    vertex 383.38230310358836 18.59130104286261 27.000000000002043
  endloop
endfacet
facet normal -6.042785319745479e-16 2.819966482547923e-16 1.0
  outer loop
    vertex 383.38230310358836 18.59130104286261 27.000000000002043
    vertex 375.4528554644085 20.86389443255006 27.00000000000211
    vertex 381.4528554644086 17.792097662825594 27.00000000000201
  endloop
endfacet
facet normal -6.042785319745479e-16 2.819966482547923e-16 1.0
  outer loop
    vertex 381.4528554644086 17.792097662825594 27.00000000000201
    vertex 375.4528554644085 20.86389443255006 27.00000000000211
    vertex 379.7960012149162 16.520748682042473 27.00000000000212
  endloop
endfacet
facet normal -6.042785319745479e-16 2.819966482547923e-16 1.0
  outer loop
    vertex 379.7960012149162 16.520748682042473 27.00000000000212
    vertex 375.4528554644085 20.86389443255006 27.00000000000211
    vertex 378.52465223413304 14.863894432550094 27.00000000000209
  endloop
endfacet
facet normal -6.042785319745479e-16 2.819966482547923e-16 1.0
  outer loop
    vertex 378.52465223413304 14.863894432550094 27.00000000000209
    vertex 375.4528554644085 20.86389443255006 27.00000000000211
    vertex 377.7254488540959 12.934446793370249 27.000000000002032
  endloop
endfacet
facet normal -6.042785319745479e-16 2.819966482547923e-16 1.0
  outer loop
    vertex 377.7254488540959 12.934446793370249 27.000000000002032
    vertex 375.4528554644085 20.86389443255006 27.00000000000211
    vertex 377.4528554644086 10.863894432550067 27.000000000002064
  endloop
endfacet
facet normal -6.042785319745479e-16 2.819966482547923e-16 1.0
  outer loop
    vertex 403.45285546440863 20.86389443255006 27.00000000000212
    vertex 385.45285546440846 18.863894432550065 27.000000000002032
    vertex 387.5234078252287 18.59130104286261 27.000000000002064
  endloop
endfacet
facet normal -6.042785319745479e-16 2.819966482547923e-16 1.0
  outer loop
    vertex 403.45285546440863 20.86389443255006 27.00000000000212
    vertex 387.5234078252287 18.59130104286261 27.000000000002064
    vertex 389.45285546440863 17.792097662825594 27.000000000002156
  endloop
endfacet
facet normal -6.042785319745479e-16 2.819966482547923e-16 1.0
  outer loop
    vertex 403.45285546440863 20.86389443255006 27.00000000000212
    vertex 389.45285546440863 17.792097662825594 27.000000000002156
    vertex 391.10970971390094 16.520748682042473 27.000000000002064
  endloop
endfacet
facet normal -6.042785319745479e-16 2.819966482547923e-16 1.0
  outer loop
    vertex 403.45285546440863 20.86389443255006 27.00000000000212
    vertex 391.10970971390094 16.520748682042473 27.000000000002064
    vertex 392.38105869468404 14.863894432550094 27.00000000000211
  endloop
endfacet
facet normal -6.042785319745479e-16 2.819966482547923e-16 1.0
  outer loop
    vertex 403.45285546440863 20.86389443255006 27.00000000000212
    vertex 392.38105869468404 14.863894432550094 27.00000000000211
    vertex 394.4528554644085 14.863894432550094 27.000000000001997
  endloop
endfacet
facet normal -6.042785319745479e-16 2.819966482547923e-16 1.0
  outer loop
    vertex 394.4528554644085 14.863894432550094 27.000000000001997
    vertex 392.38105869468404 14.863894432550094 27.00000000000211
    vertex 393.18026207472116 12.934446793370249 27.000000000002146
  endloop
endfacet
facet normal -6.042785319745479e-16 2.819966482547923e-16 1.0
  outer loop
    vertex 394.4528554644085 14.863894432550094 27.000000000001997
    vertex 393.18026207472116 12.934446793370249 27.000000000002146
    vertex 393.4528554644085 10.86389443255009 27.00000000000212
  endloop
endfacet
facet normal -6.042785319745479e-16 2.819966482547923e-16 1.0
  outer loop
    vertex 394.4528554644085 14.863894432550094 27.000000000001997
    vertex 393.4528554644085 10.86389443255009 27.00000000000212
    vertex 394.4528554644085 6.863894432550075 27.000000000001997
  endloop
endfacet
facet normal -6.042785319745479e-16 2.819966482547923e-16 1.0
  outer loop
    vertex 403.45285546440863 20.86389443255006 27.00000000000212
    vertex 394.4528554644085 14.863894432550094 27.000000000001997
    vertex 397.4528554644085 14.863894432550094 27.00000000000201
  endloop
endfacet
facet normal -6.042785319745479e-16 2.819966482547923e-16 1.0
  outer loop
    vertex 403.45285546440863 20.86389443255006 27.00000000000212
    vertex 397.4528554644085 14.863894432550094 27.00000000000201
    vertex 403.4528554644085 0.863894432550097 27.00000000000213
  endloop
endfacet
facet normal 2.591408493570777e-16 -0.9587981127083874 -0.28408832969137326
  outer loop
    vertex 403.45285546440863 4.863894432550079 13.500000000002164
    vertex 375.45285546440846 0.863894432550097 27.00000000000211
    vertex 375.4528554644087 4.863894432550079 13.500000000002135
  endloop
endfacet
facet normal 2.591408493570777e-16 -0.9587981127083874 -0.28408832969137326
  outer loop
    vertex 375.45285546440846 0.863894432550097 27.00000000000211
    vertex 403.45285546440863 4.863894432550079 13.500000000002164
    vertex 403.4528554644085 0.863894432550097 27.00000000000213
  endloop
endfacet
facet normal 1.662719064732413e-16 0.9587981127083872 -0.28408832969137404
  outer loop
    vertex 375.4528554644085 20.86389443255006 27.00000000000211
    vertex 403.45285546440863 16.86389443255007 13.500000000002153
    vertex 375.4528554644087 16.86389443255007 13.50000000000213
  endloop
endfacet
facet normal 1.662719064732413e-16 0.9587981127083872 -0.28408832969137404
  outer loop
    vertex 403.45285546440863 16.86389443255007 13.500000000002153
    vertex 375.4528554644085 20.86389443255006 27.00000000000211
    vertex 403.45285546440863 20.86389443255006 27.00000000000212
  endloop
endfacet
facet normal 0.0 -1.0 0.0
  outer loop
    vertex 403.45285546440863 4.863894432550079 2.114269870290286e-12
    vertex 375.4528554644087 4.863894432550079 13.500000000002135
    vertex 375.4528554644087 4.863894432550079 2.1029900043600946e-12
  endloop
endfacet
facet normal 0.0 -1.0 0.0
  outer loop
    vertex 375.4528554644087 4.863894432550079 13.500000000002135
    vertex 403.45285546440863 4.863894432550079 2.114269870290286e-12
    vertex 403.45285546440863 4.863894432550079 13.500000000002164
  endloop
endfacet
facet normal -0.2536107126549534 -0.9464880649720748 0.199604482144225
  outer loop
    vertex 386.09990307716487 13.278708998272753 2.125549736220478e-12
    vertex 385.45285546440846 18.863894432550065 27.000000000002032
    vertex 385.4528554644086 13.363894432550085 2.1029900043600946e-12
  endloop
endfacet
facet normal 2.1649446801465573e-15 -0.9798765487080173 0.19960448214422566
  outer loop
    vertex 385.45285546440846 18.863894432550065 27.000000000002032
    vertex 386.09990307716487 13.278708998272753 2.125549736220478e-12
    vertex 387.5234078252287 18.59130104286261 27.000000000002064
  endloop
endfacet
facet normal -0.48993827435400056 -0.8485979837537674 0.19960448214422657
  outer loop
    vertex 389.45285546440863 17.792097662825594 27.000000000002156
    vertex 386.09990307716487 13.278708998272753 2.125549736220478e-12
    vertex 386.7028554644086 13.028957942011173 2.114269870290286e-12
  endloop
endfacet
facet normal -0.2536107126549534 -0.9464880649720748 0.199604482144225
  outer loop
    vertex 386.09990307716487 13.278708998272753 2.125549736220478e-12
    vertex 389.45285546440863 17.792097662825594 27.000000000002156
    vertex 387.5234078252287 18.59130104286261 27.000000000002064
  endloop
endfacet
facet normal 0.8485979837537454 0.4899382743540385 0.19960448214422716
  outer loop
    vertex 383.2877919549475 9.613894432550081 2.148109468080861e-12
    vertex 377.7254488540959 8.793342071729908 27.000000000002032
    vertex 378.52465223413304 6.863894432550075 27.0000000000021
  endloop
endfacet
facet normal 0.9464880649720714 0.25361071265496227 0.19960448214422952
  outer loop
    vertex 377.7254488540959 8.793342071729908 27.000000000002032
    vertex 383.2877919549475 9.613894432550081 2.148109468080861e-12
    vertex 383.0380408986859 10.216846819793778 2.1029900043600946e-12
  endloop
endfacet
facet normal 0.6928773523171075 0.6928773523171113 0.19960448214422627
  outer loop
    vertex 383.68508851144225 9.096127479583695 2.1368296021506693e-12
    vertex 378.52465223413304 6.863894432550075 27.0000000000021
    vertex 379.7960012149162 5.207040183057695 27.00000000000211
  endloop
endfacet
facet normal 0.8485979837537443 0.48993827435404036 0.19960448214422713
  outer loop
    vertex 378.52465223413304 6.863894432550075 27.0000000000021
    vertex 383.68508851144225 9.096127479583695 2.1368296021506693e-12
    vertex 383.2877919549475 9.613894432550081 2.148109468080861e-12
  endloop
endfacet
facet normal 0.6928773523171075 0.6928773523171113 0.19960448214422627
  outer loop
    vertex 383.68508851144225 9.096127479583695 2.1368296021506693e-12
    vertex 381.4528554644086 3.9356912022745654 27.00000000000201
    vertex 384.2028554644086 8.698830923088984 2.091710138429903e-12
  endloop
endfacet
facet normal 0.48993827435401255 0.8485979837537603 0.19960448214422669
  outer loop
    vertex 381.4528554644086 3.9356912022745654 27.00000000000201
    vertex 383.68508851144225 9.096127479583695 2.1368296021506693e-12
    vertex 379.7960012149162 5.207040183057695 27.00000000000211
  endloop
endfacet
facet normal 0.25361071265496027 0.9464880649720727 0.19960448214422608
  outer loop
    vertex 384.80580785165233 8.449079866827404 2.1368296021506693e-12
    vertex 385.4528554644086 2.8638944325500932 27.000000000002032
    vertex 385.4528554644086 8.363894432550072 2.1029900043600946e-12
  endloop
endfacet
facet normal -3.3968797282634274e-15 0.9798765487080172 0.1996044821442258
  outer loop
    vertex 385.4528554644086 2.8638944325500932 27.000000000002032
    vertex 384.80580785165233 8.449079866827404 2.1368296021506693e-12
    vertex 383.38230310358836 3.136487822237547 27.000000000002043
  endloop
endfacet
facet normal -3.3968797282634274e-15 0.9798765487080172 0.1996044821442258
  outer loop
    vertex 385.4528554644086 2.8638944325500932 27.000000000002032
    vertex 386.09990307716487 8.449079866827404 2.1593893340110525e-12
    vertex 385.4528554644086 8.363894432550072 2.1029900043600946e-12
  endloop
endfacet
facet normal -0.2536107126549553 0.9464880649720743 0.1996044821442252
  outer loop
    vertex 386.09990307716487 8.449079866827404 2.1593893340110525e-12
    vertex 385.4528554644086 2.8638944325500932 27.000000000002032
    vertex 387.5234078252287 3.136487822237547 27.000000000002064
  endloop
endfacet
facet normal 0.48993827435401255 0.8485979837537603 0.19960448214422669
  outer loop
    vertex 381.4528554644086 3.9356912022745654 27.00000000000201
    vertex 384.80580785165233 8.449079866827404 2.1368296021506693e-12
    vertex 384.2028554644086 8.698830923088984 2.091710138429903e-12
  endloop
endfacet
facet normal 0.25361071265496027 0.9464880649720727 0.19960448214422608
  outer loop
    vertex 384.80580785165233 8.449079866827404 2.1368296021506693e-12
    vertex 381.4528554644086 3.9356912022745654 27.00000000000201
    vertex 383.38230310358836 3.136487822237547 27.000000000002043
  endloop
endfacet
facet normal 0.0 -1.0 0.0
  outer loop
    vertex 403.4528554644085 12.863894432550087 7.341142838271099
    vertex 397.45285546440863 12.863894432550087 2.1819490658714358e-12
    vertex 403.45285546440863 12.863894432550087 2.1368296021506693e-12
  endloop
endfacet
facet normal 0.0 -1.0 0.0
  outer loop
    vertex 397.45285546440863 12.863894432550087 2.1819490658714358e-12
    vertex 403.4528554644085 12.863894432550087 7.341142838271099
    vertex 397.4528554644085 12.863894432550087 7.341142838271105
  endloop
endfacet
facet normal -1.0 9.95077485070873e-30 -3.3402205199949903e-15
  outer loop
    vertex 397.4528554644085 6.863894432550075 27.00000000000201
    vertex 397.45285546440874 8.932042779971946 7.858780928476162
    vertex 397.45285546440863 6.863894432550075 2.1819490658714358e-12
  endloop
endfacet
facet normal -1.0 9.95077485070873e-30 -3.3402205199949903e-15
  outer loop
    vertex 397.45285546440874 8.932042779971946 7.858780928476162
    vertex 397.4528554644085 6.863894432550075 27.00000000000201
    vertex 397.4528554644085 14.863894432550094 27.00000000000201
  endloop
endfacet
facet normal -1.0 9.95077485070873e-30 -3.3402205199949903e-15
  outer loop
    vertex 397.45285546440863 6.863894432550075 2.1819490658714358e-12
    vertex 397.45285546440874 8.932042779971946 7.858780928476162
    vertex 397.4528554644085 8.863894432550094 7.341142838271105
  endloop
endfacet
facet normal -1.0 9.95077485070873e-30 -3.3402205199949903e-15
  outer loop
    vertex 397.45285546440874 8.932042779971946 7.858780928476162
    vertex 397.4528554644085 14.863894432550094 27.00000000000201
    vertex 397.4528554644085 9.131843624981201 8.341142838271052
  endloop
endfacet
facet normal -1.0 9.95077485070873e-30 -3.3402205199949903e-15
  outer loop
    vertex 397.4528554644085 9.131843624981201 8.341142838271052
    vertex 397.4528554644085 14.863894432550094 27.00000000000201
    vertex 397.4528554644085 9.44968087017699 8.755356400644203
  endloop
endfacet
facet normal -1.0 9.95077485070873e-30 -3.3402205199949903e-15
  outer loop
    vertex 397.4528554644085 9.44968087017699 8.755356400644203
    vertex 397.4528554644085 14.863894432550094 27.00000000000201
    vertex 397.45285546440874 9.863894432550092 9.073193645839996
  endloop
endfacet
facet normal -1.0 9.95077485070873e-30 -3.3402205199949903e-15
  outer loop
    vertex 397.45285546440874 9.863894432550092 9.073193645839996
    vertex 397.4528554644085 14.863894432550094 27.00000000000201
    vertex 397.4528554644085 10.346256342345022 9.272994490849214
  endloop
endfacet
facet normal -1.0 9.95077485070873e-30 -3.3402205199949903e-15
  outer loop
    vertex 397.4528554644085 10.346256342345022 9.272994490849214
    vertex 397.4528554644085 14.863894432550094 27.00000000000201
    vertex 397.4528554644085 10.86389443255009 9.341142838271141
  endloop
endfacet
facet normal -1.0 9.95077485070873e-30 -3.3402205199949903e-15
  outer loop
    vertex 397.4528554644085 10.86389443255009 9.341142838271141
    vertex 397.4528554644085 14.863894432550094 27.00000000000201
    vertex 397.4528554644085 11.381532522755114 9.272994490849214
  endloop
endfacet
facet normal -1.0 9.95077485070873e-30 -3.3402205199949903e-15
  outer loop
    vertex 397.4528554644085 11.381532522755114 9.272994490849214
    vertex 397.4528554644085 14.863894432550094 27.00000000000201
    vertex 397.45285546440874 11.863894432550088 9.073193645839996
  endloop
endfacet
facet normal -1.0 9.95077485070873e-30 -3.3402205199949903e-15
  outer loop
    vertex 397.45285546440874 11.863894432550088 9.073193645839996
    vertex 397.4528554644085 14.863894432550094 27.00000000000201
    vertex 397.4528554644085 12.278107994923188 8.755356400644203
  endloop
endfacet
facet normal -1.0 9.95077485070873e-30 -3.3402205199949903e-15
  outer loop
    vertex 397.4528554644085 12.278107994923188 8.755356400644203
    vertex 397.4528554644085 14.863894432550094 27.00000000000201
    vertex 397.4528554644085 12.595945240118956 8.341142838271052
  endloop
endfacet
facet normal -1.0 9.95077485070873e-30 -3.3402205199949903e-15
  outer loop
    vertex 397.4528554644085 12.595945240118956 8.341142838271052
    vertex 397.4528554644085 14.863894432550094 27.00000000000201
    vertex 397.45285546440874 12.795746085128211 7.858780928476162
  endloop
endfacet
facet normal -1.0 9.95077485070873e-30 -3.3402205199949903e-15
  outer loop
    vertex 397.45285546440874 12.795746085128211 7.858780928476162
    vertex 397.4528554644085 14.863894432550094 27.00000000000201
    vertex 397.4528554644085 12.863894432550087 7.341142838271105
  endloop
endfacet
facet normal -1.0 9.95077485070873e-30 -3.3402205199949903e-15
  outer loop
    vertex 397.4528554644085 12.863894432550087 7.341142838271105
    vertex 397.4528554644085 14.863894432550094 27.00000000000201
    vertex 397.45285546440863 12.863894432550087 2.1819490658714358e-12
  endloop
endfacet
facet normal -1.0 9.95077485070873e-30 -3.3402205199949903e-15
  outer loop
    vertex 397.45285546440863 12.863894432550087 2.1819490658714358e-12
    vertex 397.4528554644085 14.863894432550094 27.00000000000201
    vertex 397.45285546440863 14.863894432550094 2.1819490658714358e-12
  endloop
endfacet
facet normal -1.0 9.95077485070873e-30 -3.3402205199949903e-15
  outer loop
    vertex 397.45285546440863 8.863894432550094 2.1819490658714358e-12
    vertex 397.45285546440863 6.863894432550075 2.1819490658714358e-12
    vertex 397.4528554644085 8.863894432550094 7.341142838271105
  endloop
endfacet
facet normal 1.0 0.0 1.3213247107431838e-14
  outer loop
    vertex 394.4528554644087 14.863894432550094 13.341142838271102
    vertex 394.4528554644085 6.863894432550075 27.000000000001997
    vertex 394.4528554644087 6.863894432550075 13.341142838271102
  endloop
endfacet
facet normal 1.0 0.0 1.3213247107431838e-14
  outer loop
    vertex 394.4528554644085 6.863894432550075 27.000000000001997
    vertex 394.4528554644087 14.863894432550094 13.341142838271102
    vertex 394.4528554644085 14.863894432550094 27.000000000001997
  endloop
endfacet
facet normal 0.0 1.0 0.0
  outer loop
    vertex 397.45285546440863 8.863894432550094 2.1819490658714358e-12
    vertex 403.4528554644085 8.863894432550094 7.341142838271099
    vertex 403.45285546440863 8.863894432550094 2.125549736220478e-12
  endloop
endfacet
facet normal 0.0 1.0 0.0
  outer loop
    vertex 403.4528554644085 8.863894432550094 7.341142838271099
    vertex 397.45285546440863 8.863894432550094 2.1819490658714358e-12
    vertex 397.4528554644085 8.863894432550094 7.341142838271105
  endloop
endfacet
facet normal -0.48993827435400567 0.8485979837537644 0.1996044821442263
  outer loop
    vertex 389.45285546440863 3.9356912022745654 27.000000000002156
    vertex 387.22062241737495 9.096127479583695 2.114269870290286e-12
    vertex 386.7028554644086 8.698830923088984 2.114269870290286e-12
  endloop
endfacet
facet normal -0.6928773523171098 0.6928773523171092 0.1996044821442249
  outer loop
    vertex 387.22062241737495 9.096127479583695 2.114269870290286e-12
    vertex 389.45285546440863 3.9356912022745654 27.000000000002156
    vertex 391.1097097139009 5.207040183057695 27.000000000002064
  endloop
endfacet
facet normal 0.0 -1.0 0.0
  outer loop
    vertex 397.45285546440863 14.863894432550094 2.1819490658714358e-12
    vertex 393.45285546440863 14.863894432550094 12.341142838271074
    vertex 393.45285546440863 14.863894432550094 2.1029900043600946e-12
  endloop
endfacet
facet normal 0.0 -1.0 0.0
  outer loop
    vertex 393.45285546440863 14.863894432550094 12.341142838271074
    vertex 397.45285546440863 14.863894432550094 2.1819490658714358e-12
    vertex 394.4528554644087 14.863894432550094 13.341142838271102
  endloop
endfacet
facet normal 0.0 -1.0 0.0
  outer loop
    vertex 394.4528554644087 14.863894432550094 13.341142838271102
    vertex 397.45285546440863 14.863894432550094 2.1819490658714358e-12
    vertex 397.4528554644085 14.863894432550094 27.00000000000201
  endloop
endfacet
facet normal 0.0 -1.0 0.0
  outer loop
    vertex 394.4528554644087 14.863894432550094 13.341142838271102
    vertex 397.4528554644085 14.863894432550094 27.00000000000201
    vertex 394.4528554644085 14.863894432550094 27.000000000001997
  endloop
endfacet
facet normal 2.4883408002803067e-15 -0.4999999999999762 -0.8660254037844525
  outer loop
    vertex 397.45285546440874 11.863894432550088 9.073193645839996
    vertex 403.45285546440863 11.381532522755114 9.27299449084926
    vertex 397.4528554644085 11.381532522755114 9.272994490849214
  endloop
endfacet
facet normal 3.7573069041828774e-15 -0.2588190451025409 -0.965925826289063
  outer loop
    vertex 403.45285546440863 11.381532522755114 9.27299449084926
    vertex 397.45285546440874 11.863894432550088 9.073193645839996
    vertex 403.45285546440863 11.863894432550088 9.073193645839995
  endloop
endfacet
facet normal 1.0561802771471128e-15 1.3092701526115262e-15 -1.0
  outer loop
    vertex 375.4528554644087 16.86389443255007 2.125549736220478e-12
    vertex 383.68508851144225 12.631661385516441 2.1368296021506693e-12
    vertex 375.4528554644087 4.863894432550079 2.1029900043600946e-12
  endloop
endfacet
facet normal 1.0561802771471128e-15 1.3092701526115262e-15 -1.0
  outer loop
    vertex 383.68508851144225 12.631661385516441 2.1368296021506693e-12
    vertex 375.4528554644087 16.86389443255007 2.125549736220478e-12
    vertex 384.2028554644086 13.028957942011173 2.1029900043600946e-12
  endloop
endfacet
facet normal 1.0561802771471128e-15 1.3092701526115262e-15 -1.0
  outer loop
    vertex 384.2028554644086 13.028957942011173 2.1029900043600946e-12
    vertex 375.4528554644087 16.86389443255007 2.125549736220478e-12
    vertex 384.80580785165233 13.278708998272753 2.1368296021506693e-12
  endloop
endfacet
facet normal 1.0561802771471128e-15 1.3092701526115262e-15 -1.0
  outer loop
    vertex 384.80580785165233 13.278708998272753 2.1368296021506693e-12
    vertex 375.4528554644087 16.86389443255007 2.125549736220478e-12
    vertex 403.45285546440863 16.86389443255007 2.1368296021506693e-12
  endloop
endfacet
facet normal 1.0561802771471128e-15 1.3092701526115262e-15 -1.0
  outer loop
    vertex 375.4528554644087 4.863894432550079 2.1029900043600946e-12
    vertex 383.68508851144225 12.631661385516441 2.1368296021506693e-12
    vertex 383.2877919549475 12.113894432550076 2.148109468080861e-12
  endloop
endfacet
facet normal 1.0561802771471128e-15 1.3092701526115262e-15 -1.0
  outer loop
    vertex 375.4528554644087 4.863894432550079 2.1029900043600946e-12
    vertex 383.2877919549475 12.113894432550076 2.148109468080861e-12
    vertex 383.0380408986859 11.510942045306379 2.1029900043600946e-12
  endloop
endfacet
facet normal 1.0561802771471128e-15 1.3092701526115262e-15 -1.0
  outer loop
    vertex 375.4528554644087 4.863894432550079 2.1029900043600946e-12
    vertex 383.0380408986859 11.510942045306379 2.1029900043600946e-12
    vertex 382.9528554644085 10.86389443255009 2.1029900043600946e-12
  endloop
endfacet
facet normal 1.0561802771471128e-15 1.3092701526115262e-15 -1.0
  outer loop
    vertex 384.80580785165233 13.278708998272753 2.1368296021506693e-12
    vertex 403.45285546440863 16.86389443255007 2.1368296021506693e-12
    vertex 385.4528554644086 13.363894432550085 2.1029900043600946e-12
  endloop
endfacet
facet normal 1.0561802771471128e-15 1.3092701526115262e-15 -1.0
  outer loop
    vertex 385.4528554644086 13.363894432550085 2.1029900043600946e-12
    vertex 403.45285546440863 16.86389443255007 2.1368296021506693e-12
    vertex 393.45285546440863 14.863894432550094 2.1029900043600946e-12
  endloop
endfacet
facet normal 1.0561802771471128e-15 1.3092701526115262e-15 -1.0
  outer loop
    vertex 385.4528554644086 13.363894432550085 2.1029900043600946e-12
    vertex 393.45285546440863 14.863894432550094 2.1029900043600946e-12
    vertex 386.09990307716487 13.278708998272753 2.125549736220478e-12
  endloop
endfacet
facet normal 1.0561802771471128e-15 1.3092701526115262e-15 -1.0
  outer loop
    vertex 386.09990307716487 13.278708998272753 2.125549736220478e-12
    vertex 393.45285546440863 14.863894432550094 2.1029900043600946e-12
    vertex 386.7028554644086 13.028957942011173 2.114269870290286e-12
  endloop
endfacet
facet normal 1.0561802771471128e-15 1.3092701526115262e-15 -1.0
  outer loop
    vertex 386.7028554644086 13.028957942011173 2.114269870290286e-12
    vertex 393.45285546440863 14.863894432550094 2.1029900043600946e-12
    vertex 387.22062241737495 12.631661385516441 2.114269870290286e-12
  endloop
endfacet
facet normal 1.0561802771471128e-15 1.3092701526115262e-15 -1.0
  outer loop
    vertex 387.22062241737495 12.631661385516441 2.114269870290286e-12
    vertex 393.45285546440863 14.863894432550094 2.1029900043600946e-12
    vertex 387.61791897386973 12.113894432550076 2.1593893340110525e-12
  endloop
endfacet
facet normal 1.0561802771471128e-15 1.3092701526115262e-15 -1.0
  outer loop
    vertex 387.61791897386973 12.113894432550076 2.1593893340110525e-12
    vertex 393.45285546440863 14.863894432550094 2.1029900043600946e-12
    vertex 387.8676700301312 11.510942045306379 2.091710138429903e-12
  endloop
endfacet
facet normal 1.0561802771471128e-15 1.3092701526115262e-15 -1.0
  outer loop
    vertex 387.8676700301312 11.510942045306379 2.091710138429903e-12
    vertex 393.45285546440863 14.863894432550094 2.1029900043600946e-12
    vertex 387.9528554644085 10.86389443255009 2.091710138429903e-12
  endloop
endfacet
facet normal 1.0561802771471128e-15 1.3092701526115262e-15 -1.0
  outer loop
    vertex 393.45285546440863 14.863894432550094 2.1029900043600946e-12
    vertex 403.45285546440863 16.86389443255007 2.1368296021506693e-12
    vertex 397.45285546440863 14.863894432550094 2.1819490658714358e-12
  endloop
endfacet
facet normal 1.0561802771471128e-15 1.3092701526115262e-15 -1.0
  outer loop
    vertex 397.45285546440863 14.863894432550094 2.1819490658714358e-12
    vertex 403.45285546440863 16.86389443255007 2.1368296021506693e-12
    vertex 397.45285546440863 12.863894432550087 2.1819490658714358e-12
  endloop
endfacet
facet normal 1.0561802771471128e-15 1.3092701526115262e-15 -1.0
  outer loop
    vertex 397.45285546440863 12.863894432550087 2.1819490658714358e-12
    vertex 403.45285546440863 16.86389443255007 2.1368296021506693e-12
    vertex 403.45285546440863 12.863894432550087 2.1368296021506693e-12
  endloop
endfacet
facet normal 1.0561802771471128e-15 1.3092701526115262e-15 -1.0
  outer loop
    vertex 403.45285546440863 8.863894432550094 2.125549736220478e-12
    vertex 397.45285546440863 6.863894432550075 2.1819490658714358e-12
    vertex 397.45285546440863 8.863894432550094 2.1819490658714358e-12
  endloop
endfacet
facet normal 1.0561802771471128e-15 1.3092701526115262e-15 -1.0
  outer loop
    vertex 375.4528554644087 4.863894432550079 2.1029900043600946e-12
    vertex 384.80580785165233 8.449079866827404 2.1368296021506693e-12
    vertex 403.45285546440863 4.863894432550079 2.114269870290286e-12
  endloop
endfacet
facet normal 1.0561802771471128e-15 1.3092701526115262e-15 -1.0
  outer loop
    vertex 384.80580785165233 8.449079866827404 2.1368296021506693e-12
    vertex 375.4528554644087 4.863894432550079 2.1029900043600946e-12
    vertex 384.2028554644086 8.698830923088984 2.091710138429903e-12
  endloop
endfacet
facet normal 1.0561802771471128e-15 1.3092701526115262e-15 -1.0
  outer loop
    vertex 384.2028554644086 8.698830923088984 2.091710138429903e-12
    vertex 375.4528554644087 4.863894432550079 2.1029900043600946e-12
    vertex 383.68508851144225 9.096127479583695 2.1368296021506693e-12
  endloop
endfacet
facet normal 1.0561802771471128e-15 1.3092701526115262e-15 -1.0
  outer loop
    vertex 383.68508851144225 9.096127479583695 2.1368296021506693e-12
    vertex 375.4528554644087 4.863894432550079 2.1029900043600946e-12
    vertex 383.2877919549475 9.613894432550081 2.148109468080861e-12
  endloop
endfacet
facet normal 1.0561802771471128e-15 1.3092701526115262e-15 -1.0
  outer loop
    vertex 383.2877919549475 9.613894432550081 2.148109468080861e-12
    vertex 375.4528554644087 4.863894432550079 2.1029900043600946e-12
    vertex 383.0380408986859 10.216846819793778 2.1029900043600946e-12
  endloop
endfacet
facet normal 1.0561802771471128e-15 1.3092701526115262e-15 -1.0
  outer loop
    vertex 383.0380408986859 10.216846819793778 2.1029900043600946e-12
    vertex 375.4528554644087 4.863894432550079 2.1029900043600946e-12
    vertex 382.9528554644085 10.86389443255009 2.1029900043600946e-12
  endloop
endfacet
facet normal 1.0561802771471128e-15 1.3092701526115262e-15 -1.0
  outer loop
    vertex 403.45285546440863 4.863894432550079 2.114269870290286e-12
    vertex 384.80580785165233 8.449079866827404 2.1368296021506693e-12
    vertex 385.4528554644086 8.363894432550072 2.1029900043600946e-12
  endloop
endfacet
facet normal 1.0561802771471128e-15 1.3092701526115262e-15 -1.0
  outer loop
    vertex 403.45285546440863 4.863894432550079 2.114269870290286e-12
    vertex 385.4528554644086 8.363894432550072 2.1029900043600946e-12
    vertex 393.45285546440863 6.863894432550075 2.1029900043600946e-12
  endloop
endfacet
facet normal 1.0561802771471128e-15 1.3092701526115262e-15 -1.0
  outer loop
    vertex 393.45285546440863 6.863894432550075 2.1029900043600946e-12
    vertex 385.4528554644086 8.363894432550072 2.1029900043600946e-12
    vertex 386.09990307716487 8.449079866827404 2.1593893340110525e-12
  endloop
endfacet
facet normal 1.0561802771471128e-15 1.3092701526115262e-15 -1.0
  outer loop
    vertex 393.45285546440863 6.863894432550075 2.1029900043600946e-12
    vertex 386.09990307716487 8.449079866827404 2.1593893340110525e-12
    vertex 386.7028554644086 8.698830923088984 2.114269870290286e-12
  endloop
endfacet
facet normal 1.0561802771471128e-15 1.3092701526115262e-15 -1.0
  outer loop
    vertex 393.45285546440863 6.863894432550075 2.1029900043600946e-12
    vertex 386.7028554644086 8.698830923088984 2.114269870290286e-12
    vertex 387.22062241737495 9.096127479583695 2.114269870290286e-12
  endloop
endfacet
facet normal 1.0561802771471128e-15 1.3092701526115262e-15 -1.0
  outer loop
    vertex 393.45285546440863 6.863894432550075 2.1029900043600946e-12
    vertex 387.22062241737495 9.096127479583695 2.114269870290286e-12
    vertex 387.61791897386973 9.613894432550081 2.1593893340110525e-12
  endloop
endfacet
facet normal 1.0561802771471128e-15 1.3092701526115262e-15 -1.0
  outer loop
    vertex 393.45285546440863 6.863894432550075 2.1029900043600946e-12
    vertex 387.61791897386973 9.613894432550081 2.1593893340110525e-12
    vertex 387.8676700301312 10.216846819793778 2.091710138429903e-12
  endloop
endfacet
facet normal 1.0561802771471128e-15 1.3092701526115262e-15 -1.0
  outer loop
    vertex 393.45285546440863 6.863894432550075 2.1029900043600946e-12
    vertex 387.8676700301312 10.216846819793778 2.091710138429903e-12
    vertex 387.9528554644085 10.86389443255009 2.091710138429903e-12
  endloop
endfacet
facet normal 1.0561802771471128e-15 1.3092701526115262e-15 -1.0
  outer loop
    vertex 393.45285546440863 6.863894432550075 2.1029900043600946e-12
    vertex 387.9528554644085 10.86389443255009 2.091710138429903e-12
    vertex 393.45285546440863 14.863894432550094 2.1029900043600946e-12
  endloop
endfacet
facet normal 1.0561802771471128e-15 1.3092701526115262e-15 -1.0
  outer loop
    vertex 403.45285546440863 4.863894432550079 2.114269870290286e-12
    vertex 393.45285546440863 6.863894432550075 2.1029900043600946e-12
    vertex 397.45285546440863 6.863894432550075 2.1819490658714358e-12
  endloop
endfacet
facet normal 1.0561802771471128e-15 1.3092701526115262e-15 -1.0
  outer loop
    vertex 403.45285546440863 4.863894432550079 2.114269870290286e-12
    vertex 397.45285546440863 6.863894432550075 2.1819490658714358e-12
    vertex 403.45285546440863 8.863894432550094 2.125549736220478e-12
  endloop
endfacet
facet normal 3.7573069041828774e-15 -0.2588190451025409 -0.965925826289063
  outer loop
    vertex 403.45285546440863 11.381532522755114 9.27299449084926
    vertex 397.4528554644085 10.86389443255009 9.341142838271141
    vertex 397.4528554644085 11.381532522755114 9.272994490849214
  endloop
endfacet
facet normal 4.229934424524412e-15 -5.613999234257609e-15 -1.0
  outer loop
    vertex 397.4528554644085 10.86389443255009 9.341142838271141
    vertex 403.45285546440863 11.381532522755114 9.27299449084926
    vertex 403.45285546440863 10.86389443255009 9.341142838271146
  endloop
endfacet
endsolid Rod-Robin-All-Parts
